<svg width="468" height="282" viewBox="0 0 468 282" fill="none" xmlns="http://www.w3.org/2000/svg">
<path d="M8.06851 6.2317C9.75837 6.2317 11.1283 4.85994 11.1283 3.16782C11.1283 1.4757 9.75837 0.103943 8.06851 0.103943C6.37865 0.103943 5.00876 1.4757 5.00876 3.16782C5.00876 4.85994 6.37865 6.2317 8.06851 6.2317Z" fill="url(#paint0_linear_17_607)" fill-opacity="0.3"/>
<path d="M46.2646 3.16782C46.2646 4.85294 44.8877 6.2317 43.2048 6.2317C41.5219 6.2317 40.145 4.85294 40.145 3.16782C40.145 1.4827 41.5219 0.103943 43.2048 0.103943C44.8877 0.103943 46.2646 1.4827 46.2646 3.16782Z" fill="url(#paint1_linear_17_607)" fill-opacity="0.3"/>
<path d="M78.341 6.2317C80.0309 6.2317 81.4008 4.85994 81.4008 3.16782C81.4008 1.4757 80.0309 0.103943 78.341 0.103943C76.6512 0.103943 75.2812 1.4757 75.2812 3.16782C75.2812 4.85994 76.6512 6.2317 78.341 6.2317Z" fill="url(#paint2_linear_17_607)" fill-opacity="0.3"/>
<path d="M113.477 6.2317C115.167 6.2317 116.537 4.85994 116.537 3.16782C116.537 1.4757 115.167 0.103943 113.477 0.103943C111.787 0.103943 110.418 1.4757 110.418 3.16782C110.418 4.85994 111.787 6.2317 113.477 6.2317Z" fill="url(#paint3_linear_17_607)" fill-opacity="0.3"/>
<path d="M148.614 6.2317C150.303 6.2317 151.673 4.85994 151.673 3.16782C151.673 1.4757 150.303 0.103943 148.614 0.103943C146.924 0.103943 145.554 1.4757 145.554 3.16782C145.554 4.85994 146.924 6.2317 148.614 6.2317Z" fill="url(#paint4_linear_17_607)" fill-opacity="0.3"/>
<path d="M183.775 6.2317C185.465 6.2317 186.835 4.85994 186.835 3.16782C186.835 1.4757 185.465 0.103943 183.775 0.103943C182.085 0.103943 180.716 1.4757 180.716 3.16782C180.716 4.85994 182.085 6.2317 183.775 6.2317Z" fill="url(#paint5_linear_17_607)" fill-opacity="0.3"/>
<path d="M218.912 6.2317C220.601 6.2317 221.971 4.85994 221.971 3.16782C221.971 1.4757 220.601 0.103943 218.912 0.103943C217.222 0.103943 215.852 1.4757 215.852 3.16782C215.852 4.85994 217.222 6.2317 218.912 6.2317Z" fill="url(#paint6_linear_17_607)" fill-opacity="0.3"/>
<path d="M254.048 6.2317C255.738 6.2317 257.108 4.85994 257.108 3.16782C257.108 1.4757 255.738 0.103943 254.048 0.103943C252.358 0.103943 250.988 1.4757 250.988 3.16782C250.988 4.85994 252.358 6.2317 254.048 6.2317Z" fill="url(#paint7_linear_17_607)" fill-opacity="0.3"/>
<path d="M289.184 6.2317C290.874 6.2317 292.244 4.85994 292.244 3.16782C292.244 1.4757 290.874 0.103943 289.184 0.103943C287.494 0.103943 286.124 1.4757 286.124 3.16782C286.124 4.85994 287.494 6.2317 289.184 6.2317Z" fill="url(#paint8_linear_17_607)" fill-opacity="0.3"/>
<path d="M324.32 6.2317C326.01 6.2317 327.38 4.85994 327.38 3.16782C327.38 1.4757 326.01 0.103943 324.32 0.103943C322.63 0.103943 321.261 1.4757 321.261 3.16782C321.261 4.85994 322.63 6.2317 324.32 6.2317Z" fill="url(#paint9_linear_17_607)" fill-opacity="0.3"/>
<path d="M359.457 6.2317C361.146 6.2317 362.516 4.85994 362.516 3.16782C362.516 1.4757 361.146 0.103943 359.457 0.103943C357.767 0.103943 356.397 1.4757 356.397 3.16782C356.397 4.85994 357.767 6.2317 359.457 6.2317Z" fill="url(#paint10_linear_17_607)" fill-opacity="0.3"/>
<path d="M397.653 3.16782C397.653 4.85294 396.276 6.2317 394.593 6.2317C392.91 6.2317 391.533 4.85294 391.533 3.16782C391.533 1.4827 392.91 0.103943 394.593 0.103943C396.301 0.103943 397.653 1.4827 397.653 3.16782Z" fill="url(#paint11_linear_17_607)" fill-opacity="0.3"/>
<path d="M429.755 6.2317C431.444 6.2317 432.814 4.85994 432.814 3.16782C432.814 1.4757 431.444 0.103943 429.755 0.103943C428.065 0.103943 426.695 1.4757 426.695 3.16782C426.695 4.85994 428.065 6.2317 429.755 6.2317Z" fill="url(#paint12_linear_17_607)" fill-opacity="0.3"/>
<path d="M464.891 6.2317C466.581 6.2317 467.951 4.85994 467.951 3.16782C467.951 1.4757 466.581 0.103943 464.891 0.103943C463.201 0.103943 461.831 1.4757 461.831 3.16782C461.831 4.85994 463.201 6.2317 464.891 6.2317Z" fill="url(#paint13_linear_17_607)" fill-opacity="0.3"/>
<path d="M8.06851 40.6489C9.75837 40.6489 11.1283 39.2772 11.1283 37.5851C11.1283 35.8929 9.75837 34.5212 8.06851 34.5212C6.37865 34.5212 5.00876 35.8929 5.00876 37.5851C5.00876 39.2772 6.37865 40.6489 8.06851 40.6489Z" fill="url(#paint14_linear_17_607)" fill-opacity="0.3"/>
<path d="M46.2646 37.5851C46.2646 39.2702 44.8877 40.6489 43.2048 40.6489C41.5219 40.6489 40.145 39.2702 40.145 37.5851C40.145 35.8999 41.5219 34.5212 43.2048 34.5212C44.8877 34.5467 46.2646 35.8999 46.2646 37.5851Z" fill="url(#paint15_linear_17_607)" fill-opacity="0.3"/>
<path d="M78.341 40.6489C80.0309 40.6489 81.4008 39.2772 81.4008 37.5851C81.4008 35.8929 80.0309 34.5212 78.341 34.5212C76.6512 34.5212 75.2812 35.8929 75.2812 37.5851C75.2812 39.2772 76.6512 40.6489 78.341 40.6489Z" fill="url(#paint16_linear_17_607)" fill-opacity="0.3"/>
<path d="M113.477 40.6489C115.167 40.6489 116.537 39.2772 116.537 37.5851C116.537 35.8929 115.167 34.5212 113.477 34.5212C111.787 34.5212 110.418 35.8929 110.418 37.5851C110.418 39.2772 111.787 40.6489 113.477 40.6489Z" fill="url(#paint17_linear_17_607)" fill-opacity="0.3"/>
<path d="M148.614 40.6489C150.303 40.6489 151.673 39.2772 151.673 37.5851C151.673 35.8929 150.303 34.5212 148.614 34.5212C146.924 34.5212 145.554 35.8929 145.554 37.5851C145.554 39.2772 146.924 40.6489 148.614 40.6489Z" fill="url(#paint18_linear_17_607)" fill-opacity="0.3"/>
<path d="M183.775 40.6489C185.465 40.6489 186.835 39.2772 186.835 37.5851C186.835 35.8929 185.465 34.5212 183.775 34.5212C182.085 34.5212 180.716 35.8929 180.716 37.5851C180.716 39.2772 182.085 40.6489 183.775 40.6489Z" fill="url(#paint19_linear_17_607)" fill-opacity="0.3"/>
<path d="M218.912 40.6489C220.601 40.6489 221.971 39.2772 221.971 37.5851C221.971 35.8929 220.601 34.5212 218.912 34.5212C217.222 34.5212 215.852 35.8929 215.852 37.5851C215.852 39.2772 217.222 40.6489 218.912 40.6489Z" fill="url(#paint20_linear_17_607)" fill-opacity="0.3"/>
<path d="M254.048 40.6489C255.738 40.6489 257.108 39.2772 257.108 37.5851C257.108 35.8929 255.738 34.5212 254.048 34.5212C252.358 34.5212 250.988 35.8929 250.988 37.5851C250.988 39.2772 252.358 40.6489 254.048 40.6489Z" fill="url(#paint21_linear_17_607)" fill-opacity="0.3"/>
<path d="M289.184 40.6489C290.874 40.6489 292.244 39.2772 292.244 37.5851C292.244 35.8929 290.874 34.5212 289.184 34.5212C287.494 34.5212 286.124 35.8929 286.124 37.5851C286.124 39.2772 287.494 40.6489 289.184 40.6489Z" fill="url(#paint22_linear_17_607)" fill-opacity="0.3"/>
<path d="M324.32 40.6489C326.01 40.6489 327.38 39.2772 327.38 37.5851C327.38 35.8929 326.01 34.5212 324.32 34.5212C322.63 34.5212 321.261 35.8929 321.261 37.5851C321.261 39.2772 322.63 40.6489 324.32 40.6489Z" fill="url(#paint23_linear_17_607)" fill-opacity="0.3"/>
<path d="M359.457 40.6489C361.146 40.6489 362.516 39.2772 362.516 37.5851C362.516 35.8929 361.146 34.5212 359.457 34.5212C357.767 34.5212 356.397 35.8929 356.397 37.5851C356.397 39.2772 357.767 40.6489 359.457 40.6489Z" fill="url(#paint24_linear_17_607)" fill-opacity="0.3"/>
<path d="M397.653 37.5851C397.653 39.2702 396.276 40.6489 394.593 40.6489C392.91 40.6489 391.533 39.2702 391.533 37.5851C391.533 35.8999 392.91 34.5212 394.593 34.5212C396.301 34.5467 397.653 35.8999 397.653 37.5851Z" fill="url(#paint25_linear_17_607)" fill-opacity="0.3"/>
<path d="M429.755 40.6489C431.444 40.6489 432.814 39.2772 432.814 37.5851C432.814 35.8929 431.444 34.5212 429.755 34.5212C428.065 34.5212 426.695 35.8929 426.695 37.5851C426.695 39.2772 428.065 40.6489 429.755 40.6489Z" fill="url(#paint26_linear_17_607)" fill-opacity="0.3"/>
<path d="M464.891 40.6489C466.581 40.6489 467.951 39.2772 467.951 37.5851C467.951 35.8929 466.581 34.5212 464.891 34.5212C463.201 34.5212 461.831 35.8929 461.831 37.5851C461.831 39.2772 463.201 40.6489 464.891 40.6489Z" fill="url(#paint27_linear_17_607)" fill-opacity="0.3"/>
<path d="M8.06851 75.0916C9.75837 75.0916 11.1283 73.7199 11.1283 72.0277C11.1283 70.3356 9.75837 68.9639 8.06851 68.9639C6.37865 68.9639 5.00876 70.3356 5.00876 72.0277C5.00876 73.7199 6.37865 75.0916 8.06851 75.0916Z" fill="url(#paint28_linear_17_607)" fill-opacity="0.3"/>
<path d="M46.2646 72.0277C46.2646 73.7129 44.8877 75.0916 43.2048 75.0916C41.5219 75.0916 40.145 73.7129 40.145 72.0277C40.145 70.3426 41.5219 68.9639 43.2048 68.9639C44.8877 68.9639 46.2646 70.3171 46.2646 72.0277Z" fill="url(#paint29_linear_17_607)" fill-opacity="0.3"/>
<path d="M78.341 75.0916C80.0309 75.0916 81.4008 73.7199 81.4008 72.0277C81.4008 70.3356 80.0309 68.9639 78.341 68.9639C76.6512 68.9639 75.2812 70.3356 75.2812 72.0277C75.2812 73.7199 76.6512 75.0916 78.341 75.0916Z" fill="url(#paint30_linear_17_607)" fill-opacity="0.3"/>
<path d="M113.477 75.0916C115.167 75.0916 116.537 73.7199 116.537 72.0277C116.537 70.3356 115.167 68.9639 113.477 68.9639C111.787 68.9639 110.418 70.3356 110.418 72.0277C110.418 73.7199 111.787 75.0916 113.477 75.0916Z" fill="url(#paint31_linear_17_607)" fill-opacity="0.3"/>
<path d="M148.614 75.0916C150.303 75.0916 151.673 73.7199 151.673 72.0277C151.673 70.3356 150.303 68.9639 148.614 68.9639C146.924 68.9639 145.554 70.3356 145.554 72.0277C145.554 73.7199 146.924 75.0916 148.614 75.0916Z" fill="url(#paint32_linear_17_607)" fill-opacity="0.3"/>
<path d="M183.775 75.0916C185.465 75.0916 186.835 73.7199 186.835 72.0277C186.835 70.3356 185.465 68.9639 183.775 68.9639C182.085 68.9639 180.716 70.3356 180.716 72.0277C180.716 73.7199 182.085 75.0916 183.775 75.0916Z" fill="url(#paint33_linear_17_607)" fill-opacity="0.3"/>
<path d="M218.912 75.0916C220.601 75.0916 221.971 73.7199 221.971 72.0277C221.971 70.3356 220.601 68.9639 218.912 68.9639C217.222 68.9639 215.852 70.3356 215.852 72.0277C215.852 73.7199 217.222 75.0916 218.912 75.0916Z" fill="url(#paint34_linear_17_607)" fill-opacity="0.3"/>
<path d="M254.048 75.0916C255.738 75.0916 257.108 73.7199 257.108 72.0277C257.108 70.3356 255.738 68.9639 254.048 68.9639C252.358 68.9639 250.988 70.3356 250.988 72.0277C250.988 73.7199 252.358 75.0916 254.048 75.0916Z" fill="url(#paint35_linear_17_607)" fill-opacity="0.3"/>
<path d="M289.184 75.0916C290.874 75.0916 292.244 73.7199 292.244 72.0277C292.244 70.3356 290.874 68.9639 289.184 68.9639C287.494 68.9639 286.124 70.3356 286.124 72.0277C286.124 73.7199 287.494 75.0916 289.184 75.0916Z" fill="url(#paint36_linear_17_607)" fill-opacity="0.3"/>
<path d="M324.32 75.0916C326.01 75.0916 327.38 73.7199 327.38 72.0277C327.38 70.3356 326.01 68.9639 324.32 68.9639C322.63 68.9639 321.261 70.3356 321.261 72.0277C321.261 73.7199 322.63 75.0916 324.32 75.0916Z" fill="url(#paint37_linear_17_607)" fill-opacity="0.3"/>
<path d="M359.457 75.0916C361.146 75.0916 362.516 73.7199 362.516 72.0277C362.516 70.3356 361.146 68.9639 359.457 68.9639C357.767 68.9639 356.397 70.3356 356.397 72.0277C356.397 73.7199 357.767 75.0916 359.457 75.0916Z" fill="url(#paint38_linear_17_607)" fill-opacity="0.3"/>
<path d="M397.653 72.0277C397.653 73.7129 396.276 75.0916 394.593 75.0916C392.91 75.0916 391.533 73.7129 391.533 72.0277C391.533 70.3426 392.91 68.9639 394.593 68.9639C396.301 68.9639 397.653 70.3171 397.653 72.0277Z" fill="url(#paint39_linear_17_607)" fill-opacity="0.3"/>
<path d="M429.755 75.0916C431.444 75.0916 432.814 73.7199 432.814 72.0277C432.814 70.3356 431.444 68.9639 429.755 68.9639C428.065 68.9639 426.695 70.3356 426.695 72.0277C426.695 73.7199 428.065 75.0916 429.755 75.0916Z" fill="url(#paint40_linear_17_607)" fill-opacity="0.3"/>
<path d="M464.891 75.0916C466.581 75.0916 467.951 73.7199 467.951 72.0277C467.951 70.3356 466.581 68.9639 464.891 68.9639C463.201 68.9639 461.831 70.3356 461.831 72.0277C461.831 73.7199 463.201 75.0916 464.891 75.0916Z" fill="url(#paint41_linear_17_607)" fill-opacity="0.3"/>
<path d="M8.06851 109.509C9.75837 109.509 11.1283 108.137 11.1283 106.445C11.1283 104.753 9.75837 103.381 8.06851 103.381C6.37865 103.381 5.00876 104.753 5.00876 106.445C5.00876 108.137 6.37865 109.509 8.06851 109.509Z" fill="url(#paint42_linear_17_607)" fill-opacity="0.3"/>
<path d="M46.2646 106.445C46.2646 108.13 44.8877 109.509 43.2048 109.509C41.5219 109.509 40.145 108.13 40.145 106.445C40.145 104.76 41.5219 103.381 43.2048 103.381C44.8877 103.381 46.2646 104.76 46.2646 106.445Z" fill="url(#paint43_linear_17_607)" fill-opacity="0.3"/>
<path d="M78.341 109.509C80.0309 109.509 81.4008 108.137 81.4008 106.445C81.4008 104.753 80.0309 103.381 78.341 103.381C76.6512 103.381 75.2812 104.753 75.2812 106.445C75.2812 108.137 76.6512 109.509 78.341 109.509Z" fill="url(#paint44_linear_17_607)" fill-opacity="0.3"/>
<path d="M113.477 109.509C115.167 109.509 116.537 108.137 116.537 106.445C116.537 104.753 115.167 103.381 113.477 103.381C111.787 103.381 110.418 104.753 110.418 106.445C110.418 108.137 111.787 109.509 113.477 109.509Z" fill="url(#paint45_linear_17_607)" fill-opacity="0.3"/>
<path d="M148.614 109.509C150.303 109.509 151.673 108.137 151.673 106.445C151.673 104.753 150.303 103.381 148.614 103.381C146.924 103.381 145.554 104.753 145.554 106.445C145.554 108.137 146.924 109.509 148.614 109.509Z" fill="url(#paint46_linear_17_607)" fill-opacity="0.3"/>
<path d="M183.775 109.509C185.465 109.509 186.835 108.137 186.835 106.445C186.835 104.753 185.465 103.381 183.775 103.381C182.085 103.381 180.716 104.753 180.716 106.445C180.716 108.137 182.085 109.509 183.775 109.509Z" fill="url(#paint47_linear_17_607)" fill-opacity="0.3"/>
<path d="M218.912 109.509C220.601 109.509 221.971 108.137 221.971 106.445C221.971 104.753 220.601 103.381 218.912 103.381C217.222 103.381 215.852 104.753 215.852 106.445C215.852 108.137 217.222 109.509 218.912 109.509Z" fill="url(#paint48_linear_17_607)" fill-opacity="0.3"/>
<path d="M254.048 109.509C255.738 109.509 257.108 108.137 257.108 106.445C257.108 104.753 255.738 103.381 254.048 103.381C252.358 103.381 250.988 104.753 250.988 106.445C250.988 108.137 252.358 109.509 254.048 109.509Z" fill="url(#paint49_linear_17_607)" fill-opacity="0.3"/>
<path d="M289.184 109.509C290.874 109.509 292.244 108.137 292.244 106.445C292.244 104.753 290.874 103.381 289.184 103.381C287.494 103.381 286.124 104.753 286.124 106.445C286.124 108.137 287.494 109.509 289.184 109.509Z" fill="url(#paint50_linear_17_607)" fill-opacity="0.3"/>
<path d="M324.32 109.509C326.01 109.509 327.38 108.137 327.38 106.445C327.38 104.753 326.01 103.381 324.32 103.381C322.63 103.381 321.261 104.753 321.261 106.445C321.261 108.137 322.63 109.509 324.32 109.509Z" fill="url(#paint51_linear_17_607)" fill-opacity="0.3"/>
<path d="M359.457 109.509C361.146 109.509 362.516 108.137 362.516 106.445C362.516 104.753 361.146 103.381 359.457 103.381C357.767 103.381 356.397 104.753 356.397 106.445C356.397 108.137 357.767 109.509 359.457 109.509Z" fill="url(#paint52_linear_17_607)" fill-opacity="0.3"/>
<path d="M397.653 106.445C397.653 108.13 396.276 109.509 394.593 109.509C392.91 109.509 391.533 108.13 391.533 106.445C391.533 104.76 392.91 103.381 394.593 103.381C396.301 103.381 397.653 104.76 397.653 106.445Z" fill="url(#paint53_linear_17_607)" fill-opacity="0.3"/>
<path d="M429.755 109.509C431.444 109.509 432.814 108.137 432.814 106.445C432.814 104.753 431.444 103.381 429.755 103.381C428.065 103.381 426.695 104.753 426.695 106.445C426.695 108.137 428.065 109.509 429.755 109.509Z" fill="url(#paint54_linear_17_607)" fill-opacity="0.3"/>
<path d="M464.891 109.509C466.581 109.509 467.951 108.137 467.951 106.445C467.951 104.753 466.581 103.381 464.891 103.381C463.201 103.381 461.831 104.753 461.831 106.445C461.831 108.137 463.201 109.509 464.891 109.509Z" fill="url(#paint55_linear_17_607)" fill-opacity="0.3"/>
<path d="M8.06851 143.926C9.75837 143.926 11.1283 142.554 11.1283 140.862C11.1283 139.17 9.75837 137.798 8.06851 137.798C6.37865 137.798 5.00876 139.17 5.00876 140.862C5.00876 142.554 6.37865 143.926 8.06851 143.926Z" fill="url(#paint56_linear_17_607)" fill-opacity="0.3"/>
<path d="M46.2646 140.862C46.2646 142.547 44.8877 143.926 43.2048 143.926C41.5219 143.926 40.145 142.547 40.145 140.862C40.145 139.177 41.5219 137.798 43.2048 137.798C44.8877 137.798 46.2646 139.177 46.2646 140.862Z" fill="url(#paint57_linear_17_607)" fill-opacity="0.3"/>
<path d="M78.341 143.926C80.0309 143.926 81.4008 142.554 81.4008 140.862C81.4008 139.17 80.0309 137.798 78.341 137.798C76.6512 137.798 75.2812 139.17 75.2812 140.862C75.2812 142.554 76.6512 143.926 78.341 143.926Z" fill="url(#paint58_linear_17_607)" fill-opacity="0.3"/>
<path d="M113.477 143.926C115.167 143.926 116.537 142.554 116.537 140.862C116.537 139.17 115.167 137.798 113.477 137.798C111.787 137.798 110.418 139.17 110.418 140.862C110.418 142.554 111.787 143.926 113.477 143.926Z" fill="url(#paint59_linear_17_607)" fill-opacity="0.3"/>
<path d="M148.614 143.926C150.303 143.926 151.673 142.554 151.673 140.862C151.673 139.17 150.303 137.798 148.614 137.798C146.924 137.798 145.554 139.17 145.554 140.862C145.554 142.554 146.924 143.926 148.614 143.926Z" fill="url(#paint60_linear_17_607)" fill-opacity="0.3"/>
<path d="M183.775 143.926C185.465 143.926 186.835 142.554 186.835 140.862C186.835 139.17 185.465 137.798 183.775 137.798C182.085 137.798 180.716 139.17 180.716 140.862C180.716 142.554 182.085 143.926 183.775 143.926Z" fill="url(#paint61_linear_17_607)" fill-opacity="0.3"/>
<path d="M218.912 143.926C220.601 143.926 221.971 142.554 221.971 140.862C221.971 139.17 220.601 137.798 218.912 137.798C217.222 137.798 215.852 139.17 215.852 140.862C215.852 142.554 217.222 143.926 218.912 143.926Z" fill="url(#paint62_linear_17_607)" fill-opacity="0.3"/>
<path d="M254.048 143.926C255.738 143.926 257.108 142.554 257.108 140.862C257.108 139.17 255.738 137.798 254.048 137.798C252.358 137.798 250.988 139.17 250.988 140.862C250.988 142.554 252.358 143.926 254.048 143.926Z" fill="url(#paint63_linear_17_607)" fill-opacity="0.3"/>
<path d="M289.184 143.926C290.874 143.926 292.244 142.554 292.244 140.862C292.244 139.17 290.874 137.798 289.184 137.798C287.494 137.798 286.124 139.17 286.124 140.862C286.124 142.554 287.494 143.926 289.184 143.926Z" fill="url(#paint64_linear_17_607)" fill-opacity="0.3"/>
<path d="M324.32 143.926C326.01 143.926 327.38 142.554 327.38 140.862C327.38 139.17 326.01 137.798 324.32 137.798C322.63 137.798 321.261 139.17 321.261 140.862C321.261 142.554 322.63 143.926 324.32 143.926Z" fill="url(#paint65_linear_17_607)" fill-opacity="0.3"/>
<path d="M359.457 143.926C361.146 143.926 362.516 142.554 362.516 140.862C362.516 139.17 361.146 137.798 359.457 137.798C357.767 137.798 356.397 139.17 356.397 140.862C356.397 142.554 357.767 143.926 359.457 143.926Z" fill="url(#paint66_linear_17_607)" fill-opacity="0.3"/>
<path d="M397.653 140.862C397.653 142.547 396.276 143.926 394.593 143.926C392.91 143.926 391.533 142.547 391.533 140.862C391.533 139.177 392.91 137.798 394.593 137.798C396.301 137.798 397.653 139.177 397.653 140.862Z" fill="url(#paint67_linear_17_607)" fill-opacity="0.3"/>
<path d="M429.755 143.926C431.444 143.926 432.814 142.554 432.814 140.862C432.814 139.17 431.444 137.798 429.755 137.798C428.065 137.798 426.695 139.17 426.695 140.862C426.695 142.554 428.065 143.926 429.755 143.926Z" fill="url(#paint68_linear_17_607)" fill-opacity="0.3"/>
<path d="M464.891 143.926C466.581 143.926 467.951 142.554 467.951 140.862C467.951 139.17 466.581 137.798 464.891 137.798C463.201 137.798 461.831 139.17 461.831 140.862C461.831 142.554 463.201 143.926 464.891 143.926Z" fill="url(#paint69_linear_17_607)" fill-opacity="0.3"/>
<path d="M8.06851 178.343C9.75837 178.343 11.1283 176.971 11.1283 175.279C11.1283 173.587 9.75837 172.216 8.06851 172.216C6.37865 172.216 5.00876 173.587 5.00876 175.279C5.00876 176.971 6.37865 178.343 8.06851 178.343Z" fill="url(#paint70_linear_17_607)" fill-opacity="0.3"/>
<path d="M46.2646 175.279C46.2646 176.964 44.8877 178.343 43.2048 178.343C41.5219 178.343 40.145 176.964 40.145 175.279C40.145 173.594 41.5219 172.216 43.2048 172.216C44.8877 172.216 46.2646 173.594 46.2646 175.279Z" fill="url(#paint71_linear_17_607)" fill-opacity="0.3"/>
<path d="M78.341 178.343C80.0309 178.343 81.4008 176.971 81.4008 175.279C81.4008 173.587 80.0309 172.216 78.341 172.216C76.6512 172.216 75.2812 173.587 75.2812 175.279C75.2812 176.971 76.6512 178.343 78.341 178.343Z" fill="url(#paint72_linear_17_607)" fill-opacity="0.3"/>
<path d="M113.477 178.343C115.167 178.343 116.537 176.971 116.537 175.279C116.537 173.587 115.167 172.216 113.477 172.216C111.787 172.216 110.418 173.587 110.418 175.279C110.418 176.971 111.787 178.343 113.477 178.343Z" fill="url(#paint73_linear_17_607)" fill-opacity="0.3"/>
<path d="M148.614 178.343C150.303 178.343 151.673 176.971 151.673 175.279C151.673 173.587 150.303 172.216 148.614 172.216C146.924 172.216 145.554 173.587 145.554 175.279C145.554 176.971 146.924 178.343 148.614 178.343Z" fill="url(#paint74_linear_17_607)" fill-opacity="0.3"/>
<path d="M183.775 178.343C185.465 178.343 186.835 176.971 186.835 175.279C186.835 173.587 185.465 172.216 183.775 172.216C182.085 172.216 180.716 173.587 180.716 175.279C180.716 176.971 182.085 178.343 183.775 178.343Z" fill="url(#paint75_linear_17_607)" fill-opacity="0.3"/>
<path d="M218.912 178.343C220.601 178.343 221.971 176.971 221.971 175.279C221.971 173.587 220.601 172.216 218.912 172.216C217.222 172.216 215.852 173.587 215.852 175.279C215.852 176.971 217.222 178.343 218.912 178.343Z" fill="url(#paint76_linear_17_607)" fill-opacity="0.3"/>
<path d="M254.048 178.343C255.738 178.343 257.108 176.971 257.108 175.279C257.108 173.587 255.738 172.216 254.048 172.216C252.358 172.216 250.988 173.587 250.988 175.279C250.988 176.971 252.358 178.343 254.048 178.343Z" fill="url(#paint77_linear_17_607)" fill-opacity="0.3"/>
<path d="M289.184 178.343C290.874 178.343 292.244 176.971 292.244 175.279C292.244 173.587 290.874 172.216 289.184 172.216C287.494 172.216 286.124 173.587 286.124 175.279C286.124 176.971 287.494 178.343 289.184 178.343Z" fill="url(#paint78_linear_17_607)" fill-opacity="0.3"/>
<path d="M324.32 178.343C326.01 178.343 327.38 176.971 327.38 175.279C327.38 173.587 326.01 172.216 324.32 172.216C322.63 172.216 321.261 173.587 321.261 175.279C321.261 176.971 322.63 178.343 324.32 178.343Z" fill="url(#paint79_linear_17_607)" fill-opacity="0.3"/>
<path d="M359.457 178.343C361.146 178.343 362.516 176.971 362.516 175.279C362.516 173.587 361.146 172.216 359.457 172.216C357.767 172.216 356.397 173.587 356.397 175.279C356.397 176.971 357.767 178.343 359.457 178.343Z" fill="url(#paint80_linear_17_607)" fill-opacity="0.3"/>
<path d="M397.653 175.279C397.653 176.964 396.276 178.343 394.593 178.343C392.91 178.343 391.533 176.964 391.533 175.279C391.533 173.594 392.91 172.216 394.593 172.216C396.301 172.216 397.653 173.594 397.653 175.279Z" fill="url(#paint81_linear_17_607)" fill-opacity="0.3"/>
<path d="M429.755 178.343C431.444 178.343 432.814 176.971 432.814 175.279C432.814 173.587 431.444 172.216 429.755 172.216C428.065 172.216 426.695 173.587 426.695 175.279C426.695 176.971 428.065 178.343 429.755 178.343Z" fill="url(#paint82_linear_17_607)" fill-opacity="0.3"/>
<path d="M464.891 178.343C466.581 178.343 467.951 176.971 467.951 175.279C467.951 173.587 466.581 172.216 464.891 172.216C463.201 172.216 461.831 173.587 461.831 175.279C461.831 176.971 463.201 178.343 464.891 178.343Z" fill="url(#paint83_linear_17_607)" fill-opacity="0.3"/>
<path d="M8.06851 212.761C9.75837 212.761 11.1283 211.389 11.1283 209.697C11.1283 208.005 9.75837 206.633 8.06851 206.633C6.37865 206.633 5.00876 208.005 5.00876 209.697C5.00876 211.389 6.37865 212.761 8.06851 212.761Z" fill="url(#paint84_linear_17_607)" fill-opacity="0.3"/>
<path d="M46.2646 209.697C46.2646 211.382 44.8877 212.761 43.2048 212.761C41.5219 212.761 40.145 211.382 40.145 209.697C40.145 208.012 41.5219 206.633 43.2048 206.633C44.8877 206.658 46.2646 208.012 46.2646 209.697Z" fill="url(#paint85_linear_17_607)" fill-opacity="0.3"/>
<path d="M78.341 212.761C80.0309 212.761 81.4008 211.389 81.4008 209.697C81.4008 208.005 80.0309 206.633 78.341 206.633C76.6512 206.633 75.2812 208.005 75.2812 209.697C75.2812 211.389 76.6512 212.761 78.341 212.761Z" fill="url(#paint86_linear_17_607)" fill-opacity="0.3"/>
<path d="M113.477 212.761C115.167 212.761 116.537 211.389 116.537 209.697C116.537 208.005 115.167 206.633 113.477 206.633C111.787 206.633 110.418 208.005 110.418 209.697C110.418 211.389 111.787 212.761 113.477 212.761Z" fill="url(#paint87_linear_17_607)" fill-opacity="0.3"/>
<path d="M148.614 212.761C150.303 212.761 151.673 211.389 151.673 209.697C151.673 208.005 150.303 206.633 148.614 206.633C146.924 206.633 145.554 208.005 145.554 209.697C145.554 211.389 146.924 212.761 148.614 212.761Z" fill="url(#paint88_linear_17_607)" fill-opacity="0.3"/>
<path d="M183.775 212.761C185.465 212.761 186.835 211.389 186.835 209.697C186.835 208.005 185.465 206.633 183.775 206.633C182.085 206.633 180.716 208.005 180.716 209.697C180.716 211.389 182.085 212.761 183.775 212.761Z" fill="url(#paint89_linear_17_607)" fill-opacity="0.3"/>
<path d="M218.912 212.761C220.601 212.761 221.971 211.389 221.971 209.697C221.971 208.005 220.601 206.633 218.912 206.633C217.222 206.633 215.852 208.005 215.852 209.697C215.852 211.389 217.222 212.761 218.912 212.761Z" fill="url(#paint90_linear_17_607)" fill-opacity="0.3"/>
<path d="M254.048 212.761C255.738 212.761 257.108 211.389 257.108 209.697C257.108 208.005 255.738 206.633 254.048 206.633C252.358 206.633 250.988 208.005 250.988 209.697C250.988 211.389 252.358 212.761 254.048 212.761Z" fill="url(#paint91_linear_17_607)" fill-opacity="0.3"/>
<path d="M289.184 212.761C290.874 212.761 292.244 211.389 292.244 209.697C292.244 208.005 290.874 206.633 289.184 206.633C287.494 206.633 286.124 208.005 286.124 209.697C286.124 211.389 287.494 212.761 289.184 212.761Z" fill="url(#paint92_linear_17_607)" fill-opacity="0.3"/>
<path d="M324.32 212.761C326.01 212.761 327.38 211.389 327.38 209.697C327.38 208.005 326.01 206.633 324.32 206.633C322.63 206.633 321.261 208.005 321.261 209.697C321.261 211.389 322.63 212.761 324.32 212.761Z" fill="url(#paint93_linear_17_607)" fill-opacity="0.3"/>
<path d="M359.457 212.761C361.146 212.761 362.516 211.389 362.516 209.697C362.516 208.005 361.146 206.633 359.457 206.633C357.767 206.633 356.397 208.005 356.397 209.697C356.397 211.389 357.767 212.761 359.457 212.761Z" fill="url(#paint94_linear_17_607)" fill-opacity="0.3"/>
<path d="M397.653 209.697C397.653 211.382 396.276 212.761 394.593 212.761C392.91 212.761 391.533 211.382 391.533 209.697C391.533 208.012 392.91 206.633 394.593 206.633C396.301 206.658 397.653 208.012 397.653 209.697Z" fill="url(#paint95_linear_17_607)" fill-opacity="0.3"/>
<path d="M429.755 212.761C431.444 212.761 432.814 211.389 432.814 209.697C432.814 208.005 431.444 206.633 429.755 206.633C428.065 206.633 426.695 208.005 426.695 209.697C426.695 211.389 428.065 212.761 429.755 212.761Z" fill="url(#paint96_linear_17_607)" fill-opacity="0.3"/>
<path d="M464.891 212.761C466.581 212.761 467.951 211.389 467.951 209.697C467.951 208.005 466.581 206.633 464.891 206.633C463.201 206.633 461.831 208.005 461.831 209.697C461.831 211.389 463.201 212.761 464.891 212.761Z" fill="url(#paint97_linear_17_607)" fill-opacity="0.3"/>
<path d="M11.1283 244.139C11.1283 245.824 9.75138 247.203 8.06851 247.203C6.38564 247.203 5.00876 245.824 5.00876 244.139C5.00876 242.454 6.38564 241.075 8.06851 241.075C9.75138 241.075 11.1283 242.429 11.1283 244.139Z" fill="url(#paint98_linear_17_607)" fill-opacity="0.3"/>
<path d="M46.2646 244.139C46.2646 245.824 44.8877 247.203 43.2048 247.203C41.5219 247.203 40.145 245.824 40.145 244.139C40.145 242.454 41.5219 241.075 43.2048 241.075C44.8877 241.075 46.2646 242.429 46.2646 244.139Z" fill="url(#paint99_linear_17_607)" fill-opacity="0.3"/>
<path d="M81.4008 244.139C81.4008 245.824 80.0239 247.203 78.341 247.203C76.6582 247.203 75.2812 245.824 75.2812 244.139C75.2812 242.454 76.6582 241.075 78.341 241.075C80.0239 241.075 81.4008 242.429 81.4008 244.139Z" fill="url(#paint100_linear_17_607)" fill-opacity="0.3"/>
<path d="M116.537 244.139C116.537 245.824 115.16 247.203 113.477 247.203C111.794 247.203 110.418 245.824 110.418 244.139C110.418 242.454 111.794 241.075 113.477 241.075C115.16 241.075 116.537 242.429 116.537 244.139Z" fill="url(#paint101_linear_17_607)" fill-opacity="0.3"/>
<path d="M151.673 244.139C151.673 245.824 150.296 247.203 148.614 247.203C146.931 247.203 145.554 245.824 145.554 244.139C145.554 242.454 146.931 241.075 148.614 241.075C150.322 241.075 151.673 242.429 151.673 244.139Z" fill="url(#paint102_linear_17_607)" fill-opacity="0.3"/>
<path d="M186.81 244.139C186.81 245.824 185.433 247.203 183.75 247.203C182.067 247.203 180.69 245.824 180.69 244.139C180.69 242.454 182.067 241.075 183.75 241.075C185.458 241.075 186.81 242.429 186.81 244.139Z" fill="url(#paint103_linear_17_607)" fill-opacity="0.3"/>
<path d="M221.971 244.139C221.971 245.824 220.594 247.203 218.912 247.203C217.229 247.203 215.852 245.824 215.852 244.139C215.852 242.454 217.229 241.075 218.912 241.075C220.594 241.075 221.971 242.429 221.971 244.139Z" fill="url(#paint104_linear_17_607)" fill-opacity="0.3"/>
<path d="M257.108 244.139C257.108 245.824 255.731 247.203 254.048 247.203C252.365 247.203 250.988 245.824 250.988 244.139C250.988 242.454 252.365 241.075 254.048 241.075C255.731 241.075 257.108 242.429 257.108 244.139Z" fill="url(#paint105_linear_17_607)" fill-opacity="0.3"/>
<path d="M292.244 244.139C292.244 245.824 290.867 247.203 289.184 247.203C287.501 247.203 286.124 245.824 286.124 244.139C286.124 242.454 287.501 241.075 289.184 241.075C290.867 241.075 292.244 242.429 292.244 244.139Z" fill="url(#paint106_linear_17_607)" fill-opacity="0.3"/>
<path d="M327.38 244.139C327.38 245.824 326.003 247.203 324.32 247.203C322.637 247.203 321.261 245.824 321.261 244.139C321.261 242.454 322.637 241.075 324.32 241.075C326.003 241.075 327.38 242.429 327.38 244.139Z" fill="url(#paint107_linear_17_607)" fill-opacity="0.3"/>
<path d="M362.516 244.139C362.516 245.824 361.139 247.203 359.457 247.203C357.774 247.203 356.397 245.824 356.397 244.139C356.397 242.454 357.774 241.075 359.457 241.075C361.165 241.075 362.516 242.429 362.516 244.139Z" fill="url(#paint108_linear_17_607)" fill-opacity="0.3"/>
<path d="M397.653 244.139C397.653 245.824 396.276 247.203 394.593 247.203C392.91 247.203 391.533 245.824 391.533 244.139C391.533 242.454 392.91 241.075 394.593 241.075C396.301 241.075 397.653 242.429 397.653 244.139Z" fill="url(#paint109_linear_17_607)" fill-opacity="0.3"/>
<path d="M432.814 244.139C432.814 245.824 431.437 247.203 429.755 247.203C428.072 247.203 426.695 245.824 426.695 244.139C426.695 242.454 428.072 241.075 429.755 241.075C431.437 241.075 432.814 242.429 432.814 244.139Z" fill="url(#paint110_linear_17_607)" fill-opacity="0.3"/>
<path d="M467.951 244.139C467.951 245.824 466.574 247.203 464.891 247.203C463.208 247.203 461.831 245.824 461.831 244.139C461.831 242.454 463.208 241.075 464.891 241.075C466.574 241.075 467.951 242.429 467.951 244.139Z" fill="url(#paint111_linear_17_607)" fill-opacity="0.3"/>
<path d="M8.06851 281.62C9.75837 281.62 11.1283 280.249 11.1283 278.556C11.1283 276.864 9.75837 275.493 8.06851 275.493C6.37865 275.493 5.00876 276.864 5.00876 278.556C5.00876 280.249 6.37865 281.62 8.06851 281.62Z" fill="url(#paint112_linear_17_607)" fill-opacity="0.3"/>
<path d="M46.2646 278.556C46.2646 280.242 44.8877 281.62 43.2048 281.62C41.5219 281.62 40.145 280.242 40.145 278.556C40.145 276.871 41.5219 275.493 43.2048 275.493C44.8877 275.493 46.2646 276.871 46.2646 278.556Z" fill="url(#paint113_linear_17_607)" fill-opacity="0.3"/>
<path d="M78.341 281.62C80.0309 281.62 81.4008 280.249 81.4008 278.556C81.4008 276.864 80.0309 275.493 78.341 275.493C76.6512 275.493 75.2812 276.864 75.2812 278.556C75.2812 280.249 76.6512 281.62 78.341 281.62Z" fill="url(#paint114_linear_17_607)" fill-opacity="0.3"/>
<path d="M113.477 281.62C115.167 281.62 116.537 280.249 116.537 278.556C116.537 276.864 115.167 275.493 113.477 275.493C111.787 275.493 110.418 276.864 110.418 278.556C110.418 280.249 111.787 281.62 113.477 281.62Z" fill="url(#paint115_linear_17_607)" fill-opacity="0.3"/>
<path d="M148.614 281.62C150.303 281.62 151.673 280.249 151.673 278.556C151.673 276.864 150.303 275.493 148.614 275.493C146.924 275.493 145.554 276.864 145.554 278.556C145.554 280.249 146.924 281.62 148.614 281.62Z" fill="url(#paint116_linear_17_607)" fill-opacity="0.3"/>
<path d="M183.775 281.62C185.465 281.62 186.835 280.249 186.835 278.556C186.835 276.864 185.465 275.493 183.775 275.493C182.085 275.493 180.716 276.864 180.716 278.556C180.716 280.249 182.085 281.62 183.775 281.62Z" fill="url(#paint117_linear_17_607)" fill-opacity="0.3"/>
<path d="M218.912 281.62C220.601 281.62 221.971 280.249 221.971 278.556C221.971 276.864 220.601 275.493 218.912 275.493C217.222 275.493 215.852 276.864 215.852 278.556C215.852 280.249 217.222 281.62 218.912 281.62Z" fill="url(#paint118_linear_17_607)" fill-opacity="0.3"/>
<path d="M254.048 281.62C255.738 281.62 257.108 280.249 257.108 278.556C257.108 276.864 255.738 275.493 254.048 275.493C252.358 275.493 250.988 276.864 250.988 278.556C250.988 280.249 252.358 281.62 254.048 281.62Z" fill="url(#paint119_linear_17_607)" fill-opacity="0.3"/>
<path d="M289.184 281.62C290.874 281.62 292.244 280.249 292.244 278.556C292.244 276.864 290.874 275.493 289.184 275.493C287.494 275.493 286.124 276.864 286.124 278.556C286.124 280.249 287.494 281.62 289.184 281.62Z" fill="url(#paint120_linear_17_607)" fill-opacity="0.3"/>
<path d="M324.32 281.62C326.01 281.62 327.38 280.249 327.38 278.556C327.38 276.864 326.01 275.493 324.32 275.493C322.63 275.493 321.261 276.864 321.261 278.556C321.261 280.249 322.63 281.62 324.32 281.62Z" fill="url(#paint121_linear_17_607)" fill-opacity="0.3"/>
<path d="M359.457 281.62C361.146 281.62 362.516 280.249 362.516 278.556C362.516 276.864 361.146 275.493 359.457 275.493C357.767 275.493 356.397 276.864 356.397 278.556C356.397 280.249 357.767 281.62 359.457 281.62Z" fill="url(#paint122_linear_17_607)" fill-opacity="0.3"/>
<path d="M397.653 278.556C397.653 280.242 396.276 281.62 394.593 281.62C392.91 281.62 391.533 280.242 391.533 278.556C391.533 276.871 392.91 275.493 394.593 275.493C396.301 275.493 397.653 276.871 397.653 278.556Z" fill="url(#paint123_linear_17_607)" fill-opacity="0.3"/>
<path d="M429.755 281.62C431.444 281.62 432.814 280.249 432.814 278.556C432.814 276.864 431.444 275.493 429.755 275.493C428.065 275.493 426.695 276.864 426.695 278.556C426.695 280.249 428.065 281.62 429.755 281.62Z" fill="url(#paint124_linear_17_607)" fill-opacity="0.3"/>
<path d="M464.891 281.62C466.581 281.62 467.951 280.249 467.951 278.556C467.951 276.864 466.581 275.493 464.891 275.493C463.201 275.493 461.831 276.864 461.831 278.556C461.831 280.249 463.201 281.62 464.891 281.62Z" fill="url(#paint125_linear_17_607)" fill-opacity="0.3"/>
<defs>
<linearGradient id="paint0_linear_17_607" x1="5.00876" y1="0.103943" x2="11.4855" y2="0.5082" gradientUnits="userSpaceOnUse">
<stop stop-color="#81BD92"/>
<stop offset="1" stop-color="#BEF8CE"/>
</linearGradient>
<linearGradient id="paint1_linear_17_607" x1="40.145" y1="0.103943" x2="46.6218" y2="0.5082" gradientUnits="userSpaceOnUse">
<stop stop-color="#81BD92"/>
<stop offset="1" stop-color="#BEF8CE"/>
</linearGradient>
<linearGradient id="paint2_linear_17_607" x1="75.2812" y1="0.103943" x2="81.758" y2="0.5082" gradientUnits="userSpaceOnUse">
<stop stop-color="#81BD92"/>
<stop offset="1" stop-color="#BEF8CE"/>
</linearGradient>
<linearGradient id="paint3_linear_17_607" x1="110.418" y1="0.103943" x2="116.894" y2="0.508195" gradientUnits="userSpaceOnUse">
<stop stop-color="#81BD92"/>
<stop offset="1" stop-color="#BEF8CE"/>
</linearGradient>
<linearGradient id="paint4_linear_17_607" x1="145.554" y1="0.103943" x2="152.031" y2="0.508195" gradientUnits="userSpaceOnUse">
<stop stop-color="#81BD92"/>
<stop offset="1" stop-color="#BEF8CE"/>
</linearGradient>
<linearGradient id="paint5_linear_17_607" x1="180.716" y1="0.103943" x2="187.192" y2="0.5082" gradientUnits="userSpaceOnUse">
<stop stop-color="#81BD92"/>
<stop offset="1" stop-color="#BEF8CE"/>
</linearGradient>
<linearGradient id="paint6_linear_17_607" x1="215.852" y1="0.103943" x2="222.329" y2="0.508195" gradientUnits="userSpaceOnUse">
<stop stop-color="#81BD92"/>
<stop offset="1" stop-color="#BEF8CE"/>
</linearGradient>
<linearGradient id="paint7_linear_17_607" x1="250.988" y1="0.103943" x2="257.465" y2="0.508195" gradientUnits="userSpaceOnUse">
<stop stop-color="#81BD92"/>
<stop offset="1" stop-color="#BEF8CE"/>
</linearGradient>
<linearGradient id="paint8_linear_17_607" x1="286.124" y1="0.103943" x2="292.601" y2="0.508195" gradientUnits="userSpaceOnUse">
<stop stop-color="#81BD92"/>
<stop offset="1" stop-color="#BEF8CE"/>
</linearGradient>
<linearGradient id="paint9_linear_17_607" x1="321.261" y1="0.103943" x2="327.737" y2="0.508195" gradientUnits="userSpaceOnUse">
<stop stop-color="#81BD92"/>
<stop offset="1" stop-color="#BEF8CE"/>
</linearGradient>
<linearGradient id="paint10_linear_17_607" x1="356.397" y1="0.103943" x2="362.874" y2="0.508195" gradientUnits="userSpaceOnUse">
<stop stop-color="#81BD92"/>
<stop offset="1" stop-color="#BEF8CE"/>
</linearGradient>
<linearGradient id="paint11_linear_17_607" x1="391.533" y1="0.103943" x2="398.01" y2="0.508195" gradientUnits="userSpaceOnUse">
<stop stop-color="#81BD92"/>
<stop offset="1" stop-color="#BEF8CE"/>
</linearGradient>
<linearGradient id="paint12_linear_17_607" x1="426.695" y1="0.103943" x2="433.172" y2="0.508205" gradientUnits="userSpaceOnUse">
<stop stop-color="#81BD92"/>
<stop offset="1" stop-color="#BEF8CE"/>
</linearGradient>
<linearGradient id="paint13_linear_17_607" x1="461.831" y1="0.103943" x2="468.308" y2="0.508195" gradientUnits="userSpaceOnUse">
<stop stop-color="#81BD92"/>
<stop offset="1" stop-color="#BEF8CE"/>
</linearGradient>
<linearGradient id="paint14_linear_17_607" x1="5.00876" y1="34.5212" x2="11.4855" y2="34.9254" gradientUnits="userSpaceOnUse">
<stop stop-color="#81BD92"/>
<stop offset="1" stop-color="#BEF8CE"/>
</linearGradient>
<linearGradient id="paint15_linear_17_607" x1="40.145" y1="34.5212" x2="46.6218" y2="34.9254" gradientUnits="userSpaceOnUse">
<stop stop-color="#81BD92"/>
<stop offset="1" stop-color="#BEF8CE"/>
</linearGradient>
<linearGradient id="paint16_linear_17_607" x1="75.2812" y1="34.5212" x2="81.758" y2="34.9254" gradientUnits="userSpaceOnUse">
<stop stop-color="#81BD92"/>
<stop offset="1" stop-color="#BEF8CE"/>
</linearGradient>
<linearGradient id="paint17_linear_17_607" x1="110.418" y1="34.5212" x2="116.894" y2="34.9254" gradientUnits="userSpaceOnUse">
<stop stop-color="#81BD92"/>
<stop offset="1" stop-color="#BEF8CE"/>
</linearGradient>
<linearGradient id="paint18_linear_17_607" x1="145.554" y1="34.5212" x2="152.031" y2="34.9254" gradientUnits="userSpaceOnUse">
<stop stop-color="#81BD92"/>
<stop offset="1" stop-color="#BEF8CE"/>
</linearGradient>
<linearGradient id="paint19_linear_17_607" x1="180.716" y1="34.5212" x2="187.192" y2="34.9254" gradientUnits="userSpaceOnUse">
<stop stop-color="#81BD92"/>
<stop offset="1" stop-color="#BEF8CE"/>
</linearGradient>
<linearGradient id="paint20_linear_17_607" x1="215.852" y1="34.5212" x2="222.329" y2="34.9254" gradientUnits="userSpaceOnUse">
<stop stop-color="#81BD92"/>
<stop offset="1" stop-color="#BEF8CE"/>
</linearGradient>
<linearGradient id="paint21_linear_17_607" x1="250.988" y1="34.5212" x2="257.465" y2="34.9254" gradientUnits="userSpaceOnUse">
<stop stop-color="#81BD92"/>
<stop offset="1" stop-color="#BEF8CE"/>
</linearGradient>
<linearGradient id="paint22_linear_17_607" x1="286.124" y1="34.5212" x2="292.601" y2="34.9254" gradientUnits="userSpaceOnUse">
<stop stop-color="#81BD92"/>
<stop offset="1" stop-color="#BEF8CE"/>
</linearGradient>
<linearGradient id="paint23_linear_17_607" x1="321.261" y1="34.5212" x2="327.737" y2="34.9254" gradientUnits="userSpaceOnUse">
<stop stop-color="#81BD92"/>
<stop offset="1" stop-color="#BEF8CE"/>
</linearGradient>
<linearGradient id="paint24_linear_17_607" x1="356.397" y1="34.5212" x2="362.874" y2="34.9254" gradientUnits="userSpaceOnUse">
<stop stop-color="#81BD92"/>
<stop offset="1" stop-color="#BEF8CE"/>
</linearGradient>
<linearGradient id="paint25_linear_17_607" x1="391.533" y1="34.5212" x2="398.01" y2="34.9254" gradientUnits="userSpaceOnUse">
<stop stop-color="#81BD92"/>
<stop offset="1" stop-color="#BEF8CE"/>
</linearGradient>
<linearGradient id="paint26_linear_17_607" x1="426.695" y1="34.5212" x2="433.172" y2="34.9254" gradientUnits="userSpaceOnUse">
<stop stop-color="#81BD92"/>
<stop offset="1" stop-color="#BEF8CE"/>
</linearGradient>
<linearGradient id="paint27_linear_17_607" x1="461.831" y1="34.5212" x2="468.308" y2="34.9254" gradientUnits="userSpaceOnUse">
<stop stop-color="#81BD92"/>
<stop offset="1" stop-color="#BEF8CE"/>
</linearGradient>
<linearGradient id="paint28_linear_17_607" x1="5.00876" y1="68.9639" x2="11.4855" y2="69.3681" gradientUnits="userSpaceOnUse">
<stop stop-color="#81BD92"/>
<stop offset="1" stop-color="#BEF8CE"/>
</linearGradient>
<linearGradient id="paint29_linear_17_607" x1="40.145" y1="68.9639" x2="46.6218" y2="69.3681" gradientUnits="userSpaceOnUse">
<stop stop-color="#81BD92"/>
<stop offset="1" stop-color="#BEF8CE"/>
</linearGradient>
<linearGradient id="paint30_linear_17_607" x1="75.2812" y1="68.9639" x2="81.758" y2="69.3681" gradientUnits="userSpaceOnUse">
<stop stop-color="#81BD92"/>
<stop offset="1" stop-color="#BEF8CE"/>
</linearGradient>
<linearGradient id="paint31_linear_17_607" x1="110.418" y1="68.9639" x2="116.894" y2="69.3681" gradientUnits="userSpaceOnUse">
<stop stop-color="#81BD92"/>
<stop offset="1" stop-color="#BEF8CE"/>
</linearGradient>
<linearGradient id="paint32_linear_17_607" x1="145.554" y1="68.9639" x2="152.031" y2="69.3681" gradientUnits="userSpaceOnUse">
<stop stop-color="#81BD92"/>
<stop offset="1" stop-color="#BEF8CE"/>
</linearGradient>
<linearGradient id="paint33_linear_17_607" x1="180.716" y1="68.9639" x2="187.192" y2="69.3681" gradientUnits="userSpaceOnUse">
<stop stop-color="#81BD92"/>
<stop offset="1" stop-color="#BEF8CE"/>
</linearGradient>
<linearGradient id="paint34_linear_17_607" x1="215.852" y1="68.9639" x2="222.329" y2="69.3681" gradientUnits="userSpaceOnUse">
<stop stop-color="#81BD92"/>
<stop offset="1" stop-color="#BEF8CE"/>
</linearGradient>
<linearGradient id="paint35_linear_17_607" x1="250.988" y1="68.9639" x2="257.465" y2="69.3681" gradientUnits="userSpaceOnUse">
<stop stop-color="#81BD92"/>
<stop offset="1" stop-color="#BEF8CE"/>
</linearGradient>
<linearGradient id="paint36_linear_17_607" x1="286.124" y1="68.9639" x2="292.601" y2="69.3681" gradientUnits="userSpaceOnUse">
<stop stop-color="#81BD92"/>
<stop offset="1" stop-color="#BEF8CE"/>
</linearGradient>
<linearGradient id="paint37_linear_17_607" x1="321.261" y1="68.9639" x2="327.737" y2="69.3681" gradientUnits="userSpaceOnUse">
<stop stop-color="#81BD92"/>
<stop offset="1" stop-color="#BEF8CE"/>
</linearGradient>
<linearGradient id="paint38_linear_17_607" x1="356.397" y1="68.9639" x2="362.874" y2="69.3681" gradientUnits="userSpaceOnUse">
<stop stop-color="#81BD92"/>
<stop offset="1" stop-color="#BEF8CE"/>
</linearGradient>
<linearGradient id="paint39_linear_17_607" x1="391.533" y1="68.9639" x2="398.01" y2="69.3681" gradientUnits="userSpaceOnUse">
<stop stop-color="#81BD92"/>
<stop offset="1" stop-color="#BEF8CE"/>
</linearGradient>
<linearGradient id="paint40_linear_17_607" x1="426.695" y1="68.9639" x2="433.172" y2="69.3681" gradientUnits="userSpaceOnUse">
<stop stop-color="#81BD92"/>
<stop offset="1" stop-color="#BEF8CE"/>
</linearGradient>
<linearGradient id="paint41_linear_17_607" x1="461.831" y1="68.9639" x2="468.308" y2="69.3681" gradientUnits="userSpaceOnUse">
<stop stop-color="#81BD92"/>
<stop offset="1" stop-color="#BEF8CE"/>
</linearGradient>
<linearGradient id="paint42_linear_17_607" x1="5.00876" y1="103.381" x2="11.4855" y2="103.785" gradientUnits="userSpaceOnUse">
<stop stop-color="#81BD92"/>
<stop offset="1" stop-color="#BEF8CE"/>
</linearGradient>
<linearGradient id="paint43_linear_17_607" x1="40.145" y1="103.381" x2="46.6218" y2="103.785" gradientUnits="userSpaceOnUse">
<stop stop-color="#81BD92"/>
<stop offset="1" stop-color="#BEF8CE"/>
</linearGradient>
<linearGradient id="paint44_linear_17_607" x1="75.2812" y1="103.381" x2="81.758" y2="103.785" gradientUnits="userSpaceOnUse">
<stop stop-color="#81BD92"/>
<stop offset="1" stop-color="#BEF8CE"/>
</linearGradient>
<linearGradient id="paint45_linear_17_607" x1="110.418" y1="103.381" x2="116.894" y2="103.785" gradientUnits="userSpaceOnUse">
<stop stop-color="#81BD92"/>
<stop offset="1" stop-color="#BEF8CE"/>
</linearGradient>
<linearGradient id="paint46_linear_17_607" x1="145.554" y1="103.381" x2="152.031" y2="103.785" gradientUnits="userSpaceOnUse">
<stop stop-color="#81BD92"/>
<stop offset="1" stop-color="#BEF8CE"/>
</linearGradient>
<linearGradient id="paint47_linear_17_607" x1="180.716" y1="103.381" x2="187.192" y2="103.785" gradientUnits="userSpaceOnUse">
<stop stop-color="#81BD92"/>
<stop offset="1" stop-color="#BEF8CE"/>
</linearGradient>
<linearGradient id="paint48_linear_17_607" x1="215.852" y1="103.381" x2="222.329" y2="103.785" gradientUnits="userSpaceOnUse">
<stop stop-color="#81BD92"/>
<stop offset="1" stop-color="#BEF8CE"/>
</linearGradient>
<linearGradient id="paint49_linear_17_607" x1="250.988" y1="103.381" x2="257.465" y2="103.785" gradientUnits="userSpaceOnUse">
<stop stop-color="#81BD92"/>
<stop offset="1" stop-color="#BEF8CE"/>
</linearGradient>
<linearGradient id="paint50_linear_17_607" x1="286.124" y1="103.381" x2="292.601" y2="103.785" gradientUnits="userSpaceOnUse">
<stop stop-color="#81BD92"/>
<stop offset="1" stop-color="#BEF8CE"/>
</linearGradient>
<linearGradient id="paint51_linear_17_607" x1="321.261" y1="103.381" x2="327.737" y2="103.785" gradientUnits="userSpaceOnUse">
<stop stop-color="#81BD92"/>
<stop offset="1" stop-color="#BEF8CE"/>
</linearGradient>
<linearGradient id="paint52_linear_17_607" x1="356.397" y1="103.381" x2="362.874" y2="103.785" gradientUnits="userSpaceOnUse">
<stop stop-color="#81BD92"/>
<stop offset="1" stop-color="#BEF8CE"/>
</linearGradient>
<linearGradient id="paint53_linear_17_607" x1="391.533" y1="103.381" x2="398.01" y2="103.785" gradientUnits="userSpaceOnUse">
<stop stop-color="#81BD92"/>
<stop offset="1" stop-color="#BEF8CE"/>
</linearGradient>
<linearGradient id="paint54_linear_17_607" x1="426.695" y1="103.381" x2="433.172" y2="103.785" gradientUnits="userSpaceOnUse">
<stop stop-color="#81BD92"/>
<stop offset="1" stop-color="#BEF8CE"/>
</linearGradient>
<linearGradient id="paint55_linear_17_607" x1="461.831" y1="103.381" x2="468.308" y2="103.785" gradientUnits="userSpaceOnUse">
<stop stop-color="#81BD92"/>
<stop offset="1" stop-color="#BEF8CE"/>
</linearGradient>
<linearGradient id="paint56_linear_17_607" x1="5.00876" y1="137.798" x2="11.4855" y2="138.203" gradientUnits="userSpaceOnUse">
<stop stop-color="#81BD92"/>
<stop offset="1" stop-color="#BEF8CE"/>
</linearGradient>
<linearGradient id="paint57_linear_17_607" x1="40.145" y1="137.798" x2="46.6218" y2="138.203" gradientUnits="userSpaceOnUse">
<stop stop-color="#81BD92"/>
<stop offset="1" stop-color="#BEF8CE"/>
</linearGradient>
<linearGradient id="paint58_linear_17_607" x1="75.2812" y1="137.798" x2="81.758" y2="138.203" gradientUnits="userSpaceOnUse">
<stop stop-color="#81BD92"/>
<stop offset="1" stop-color="#BEF8CE"/>
</linearGradient>
<linearGradient id="paint59_linear_17_607" x1="110.418" y1="137.798" x2="116.894" y2="138.203" gradientUnits="userSpaceOnUse">
<stop stop-color="#81BD92"/>
<stop offset="1" stop-color="#BEF8CE"/>
</linearGradient>
<linearGradient id="paint60_linear_17_607" x1="145.554" y1="137.798" x2="152.031" y2="138.203" gradientUnits="userSpaceOnUse">
<stop stop-color="#81BD92"/>
<stop offset="1" stop-color="#BEF8CE"/>
</linearGradient>
<linearGradient id="paint61_linear_17_607" x1="180.716" y1="137.798" x2="187.192" y2="138.203" gradientUnits="userSpaceOnUse">
<stop stop-color="#81BD92"/>
<stop offset="1" stop-color="#BEF8CE"/>
</linearGradient>
<linearGradient id="paint62_linear_17_607" x1="215.852" y1="137.798" x2="222.329" y2="138.203" gradientUnits="userSpaceOnUse">
<stop stop-color="#81BD92"/>
<stop offset="1" stop-color="#BEF8CE"/>
</linearGradient>
<linearGradient id="paint63_linear_17_607" x1="250.988" y1="137.798" x2="257.465" y2="138.203" gradientUnits="userSpaceOnUse">
<stop stop-color="#81BD92"/>
<stop offset="1" stop-color="#BEF8CE"/>
</linearGradient>
<linearGradient id="paint64_linear_17_607" x1="286.124" y1="137.798" x2="292.601" y2="138.203" gradientUnits="userSpaceOnUse">
<stop stop-color="#81BD92"/>
<stop offset="1" stop-color="#BEF8CE"/>
</linearGradient>
<linearGradient id="paint65_linear_17_607" x1="321.261" y1="137.798" x2="327.737" y2="138.203" gradientUnits="userSpaceOnUse">
<stop stop-color="#81BD92"/>
<stop offset="1" stop-color="#BEF8CE"/>
</linearGradient>
<linearGradient id="paint66_linear_17_607" x1="356.397" y1="137.798" x2="362.874" y2="138.203" gradientUnits="userSpaceOnUse">
<stop stop-color="#81BD92"/>
<stop offset="1" stop-color="#BEF8CE"/>
</linearGradient>
<linearGradient id="paint67_linear_17_607" x1="391.533" y1="137.798" x2="398.01" y2="138.203" gradientUnits="userSpaceOnUse">
<stop stop-color="#81BD92"/>
<stop offset="1" stop-color="#BEF8CE"/>
</linearGradient>
<linearGradient id="paint68_linear_17_607" x1="426.695" y1="137.798" x2="433.172" y2="138.203" gradientUnits="userSpaceOnUse">
<stop stop-color="#81BD92"/>
<stop offset="1" stop-color="#BEF8CE"/>
</linearGradient>
<linearGradient id="paint69_linear_17_607" x1="461.831" y1="137.798" x2="468.308" y2="138.203" gradientUnits="userSpaceOnUse">
<stop stop-color="#81BD92"/>
<stop offset="1" stop-color="#BEF8CE"/>
</linearGradient>
<linearGradient id="paint70_linear_17_607" x1="5.00876" y1="172.216" x2="11.4855" y2="172.62" gradientUnits="userSpaceOnUse">
<stop stop-color="#81BD92"/>
<stop offset="1" stop-color="#BEF8CE"/>
</linearGradient>
<linearGradient id="paint71_linear_17_607" x1="40.145" y1="172.216" x2="46.6218" y2="172.62" gradientUnits="userSpaceOnUse">
<stop stop-color="#81BD92"/>
<stop offset="1" stop-color="#BEF8CE"/>
</linearGradient>
<linearGradient id="paint72_linear_17_607" x1="75.2812" y1="172.216" x2="81.758" y2="172.62" gradientUnits="userSpaceOnUse">
<stop stop-color="#81BD92"/>
<stop offset="1" stop-color="#BEF8CE"/>
</linearGradient>
<linearGradient id="paint73_linear_17_607" x1="110.418" y1="172.216" x2="116.894" y2="172.62" gradientUnits="userSpaceOnUse">
<stop stop-color="#81BD92"/>
<stop offset="1" stop-color="#BEF8CE"/>
</linearGradient>
<linearGradient id="paint74_linear_17_607" x1="145.554" y1="172.216" x2="152.031" y2="172.62" gradientUnits="userSpaceOnUse">
<stop stop-color="#81BD92"/>
<stop offset="1" stop-color="#BEF8CE"/>
</linearGradient>
<linearGradient id="paint75_linear_17_607" x1="180.716" y1="172.216" x2="187.192" y2="172.62" gradientUnits="userSpaceOnUse">
<stop stop-color="#81BD92"/>
<stop offset="1" stop-color="#BEF8CE"/>
</linearGradient>
<linearGradient id="paint76_linear_17_607" x1="215.852" y1="172.216" x2="222.329" y2="172.62" gradientUnits="userSpaceOnUse">
<stop stop-color="#81BD92"/>
<stop offset="1" stop-color="#BEF8CE"/>
</linearGradient>
<linearGradient id="paint77_linear_17_607" x1="250.988" y1="172.216" x2="257.465" y2="172.62" gradientUnits="userSpaceOnUse">
<stop stop-color="#81BD92"/>
<stop offset="1" stop-color="#BEF8CE"/>
</linearGradient>
<linearGradient id="paint78_linear_17_607" x1="286.124" y1="172.216" x2="292.601" y2="172.62" gradientUnits="userSpaceOnUse">
<stop stop-color="#81BD92"/>
<stop offset="1" stop-color="#BEF8CE"/>
</linearGradient>
<linearGradient id="paint79_linear_17_607" x1="321.261" y1="172.216" x2="327.737" y2="172.62" gradientUnits="userSpaceOnUse">
<stop stop-color="#81BD92"/>
<stop offset="1" stop-color="#BEF8CE"/>
</linearGradient>
<linearGradient id="paint80_linear_17_607" x1="356.397" y1="172.216" x2="362.874" y2="172.62" gradientUnits="userSpaceOnUse">
<stop stop-color="#81BD92"/>
<stop offset="1" stop-color="#BEF8CE"/>
</linearGradient>
<linearGradient id="paint81_linear_17_607" x1="391.533" y1="172.216" x2="398.01" y2="172.62" gradientUnits="userSpaceOnUse">
<stop stop-color="#81BD92"/>
<stop offset="1" stop-color="#BEF8CE"/>
</linearGradient>
<linearGradient id="paint82_linear_17_607" x1="426.695" y1="172.216" x2="433.172" y2="172.62" gradientUnits="userSpaceOnUse">
<stop stop-color="#81BD92"/>
<stop offset="1" stop-color="#BEF8CE"/>
</linearGradient>
<linearGradient id="paint83_linear_17_607" x1="461.831" y1="172.216" x2="468.308" y2="172.62" gradientUnits="userSpaceOnUse">
<stop stop-color="#81BD92"/>
<stop offset="1" stop-color="#BEF8CE"/>
</linearGradient>
<linearGradient id="paint84_linear_17_607" x1="5.00876" y1="206.633" x2="11.4855" y2="207.037" gradientUnits="userSpaceOnUse">
<stop stop-color="#81BD92"/>
<stop offset="1" stop-color="#BEF8CE"/>
</linearGradient>
<linearGradient id="paint85_linear_17_607" x1="40.145" y1="206.633" x2="46.6218" y2="207.037" gradientUnits="userSpaceOnUse">
<stop stop-color="#81BD92"/>
<stop offset="1" stop-color="#BEF8CE"/>
</linearGradient>
<linearGradient id="paint86_linear_17_607" x1="75.2812" y1="206.633" x2="81.758" y2="207.037" gradientUnits="userSpaceOnUse">
<stop stop-color="#81BD92"/>
<stop offset="1" stop-color="#BEF8CE"/>
</linearGradient>
<linearGradient id="paint87_linear_17_607" x1="110.418" y1="206.633" x2="116.894" y2="207.037" gradientUnits="userSpaceOnUse">
<stop stop-color="#81BD92"/>
<stop offset="1" stop-color="#BEF8CE"/>
</linearGradient>
<linearGradient id="paint88_linear_17_607" x1="145.554" y1="206.633" x2="152.031" y2="207.037" gradientUnits="userSpaceOnUse">
<stop stop-color="#81BD92"/>
<stop offset="1" stop-color="#BEF8CE"/>
</linearGradient>
<linearGradient id="paint89_linear_17_607" x1="180.716" y1="206.633" x2="187.192" y2="207.037" gradientUnits="userSpaceOnUse">
<stop stop-color="#81BD92"/>
<stop offset="1" stop-color="#BEF8CE"/>
</linearGradient>
<linearGradient id="paint90_linear_17_607" x1="215.852" y1="206.633" x2="222.329" y2="207.037" gradientUnits="userSpaceOnUse">
<stop stop-color="#81BD92"/>
<stop offset="1" stop-color="#BEF8CE"/>
</linearGradient>
<linearGradient id="paint91_linear_17_607" x1="250.988" y1="206.633" x2="257.465" y2="207.037" gradientUnits="userSpaceOnUse">
<stop stop-color="#81BD92"/>
<stop offset="1" stop-color="#BEF8CE"/>
</linearGradient>
<linearGradient id="paint92_linear_17_607" x1="286.124" y1="206.633" x2="292.601" y2="207.037" gradientUnits="userSpaceOnUse">
<stop stop-color="#81BD92"/>
<stop offset="1" stop-color="#BEF8CE"/>
</linearGradient>
<linearGradient id="paint93_linear_17_607" x1="321.261" y1="206.633" x2="327.737" y2="207.037" gradientUnits="userSpaceOnUse">
<stop stop-color="#81BD92"/>
<stop offset="1" stop-color="#BEF8CE"/>
</linearGradient>
<linearGradient id="paint94_linear_17_607" x1="356.397" y1="206.633" x2="362.874" y2="207.037" gradientUnits="userSpaceOnUse">
<stop stop-color="#81BD92"/>
<stop offset="1" stop-color="#BEF8CE"/>
</linearGradient>
<linearGradient id="paint95_linear_17_607" x1="391.533" y1="206.633" x2="398.01" y2="207.037" gradientUnits="userSpaceOnUse">
<stop stop-color="#81BD92"/>
<stop offset="1" stop-color="#BEF8CE"/>
</linearGradient>
<linearGradient id="paint96_linear_17_607" x1="426.695" y1="206.633" x2="433.172" y2="207.037" gradientUnits="userSpaceOnUse">
<stop stop-color="#81BD92"/>
<stop offset="1" stop-color="#BEF8CE"/>
</linearGradient>
<linearGradient id="paint97_linear_17_607" x1="461.831" y1="206.633" x2="468.308" y2="207.037" gradientUnits="userSpaceOnUse">
<stop stop-color="#81BD92"/>
<stop offset="1" stop-color="#BEF8CE"/>
</linearGradient>
<linearGradient id="paint98_linear_17_607" x1="5.00876" y1="241.075" x2="11.4855" y2="241.48" gradientUnits="userSpaceOnUse">
<stop stop-color="#81BD92"/>
<stop offset="1" stop-color="#BEF8CE"/>
</linearGradient>
<linearGradient id="paint99_linear_17_607" x1="40.145" y1="241.075" x2="46.6218" y2="241.48" gradientUnits="userSpaceOnUse">
<stop stop-color="#81BD92"/>
<stop offset="1" stop-color="#BEF8CE"/>
</linearGradient>
<linearGradient id="paint100_linear_17_607" x1="75.2812" y1="241.075" x2="81.758" y2="241.48" gradientUnits="userSpaceOnUse">
<stop stop-color="#81BD92"/>
<stop offset="1" stop-color="#BEF8CE"/>
</linearGradient>
<linearGradient id="paint101_linear_17_607" x1="110.418" y1="241.075" x2="116.894" y2="241.48" gradientUnits="userSpaceOnUse">
<stop stop-color="#81BD92"/>
<stop offset="1" stop-color="#BEF8CE"/>
</linearGradient>
<linearGradient id="paint102_linear_17_607" x1="145.554" y1="241.075" x2="152.031" y2="241.48" gradientUnits="userSpaceOnUse">
<stop stop-color="#81BD92"/>
<stop offset="1" stop-color="#BEF8CE"/>
</linearGradient>
<linearGradient id="paint103_linear_17_607" x1="180.69" y1="241.075" x2="187.167" y2="241.48" gradientUnits="userSpaceOnUse">
<stop stop-color="#81BD92"/>
<stop offset="1" stop-color="#BEF8CE"/>
</linearGradient>
<linearGradient id="paint104_linear_17_607" x1="215.852" y1="241.075" x2="222.329" y2="241.48" gradientUnits="userSpaceOnUse">
<stop stop-color="#81BD92"/>
<stop offset="1" stop-color="#BEF8CE"/>
</linearGradient>
<linearGradient id="paint105_linear_17_607" x1="250.988" y1="241.075" x2="257.465" y2="241.48" gradientUnits="userSpaceOnUse">
<stop stop-color="#81BD92"/>
<stop offset="1" stop-color="#BEF8CE"/>
</linearGradient>
<linearGradient id="paint106_linear_17_607" x1="286.124" y1="241.075" x2="292.601" y2="241.48" gradientUnits="userSpaceOnUse">
<stop stop-color="#81BD92"/>
<stop offset="1" stop-color="#BEF8CE"/>
</linearGradient>
<linearGradient id="paint107_linear_17_607" x1="321.261" y1="241.075" x2="327.737" y2="241.48" gradientUnits="userSpaceOnUse">
<stop stop-color="#81BD92"/>
<stop offset="1" stop-color="#BEF8CE"/>
</linearGradient>
<linearGradient id="paint108_linear_17_607" x1="356.397" y1="241.075" x2="362.874" y2="241.48" gradientUnits="userSpaceOnUse">
<stop stop-color="#81BD92"/>
<stop offset="1" stop-color="#BEF8CE"/>
</linearGradient>
<linearGradient id="paint109_linear_17_607" x1="391.533" y1="241.075" x2="398.01" y2="241.48" gradientUnits="userSpaceOnUse">
<stop stop-color="#81BD92"/>
<stop offset="1" stop-color="#BEF8CE"/>
</linearGradient>
<linearGradient id="paint110_linear_17_607" x1="426.695" y1="241.075" x2="433.172" y2="241.48" gradientUnits="userSpaceOnUse">
<stop stop-color="#81BD92"/>
<stop offset="1" stop-color="#BEF8CE"/>
</linearGradient>
<linearGradient id="paint111_linear_17_607" x1="461.831" y1="241.075" x2="468.308" y2="241.48" gradientUnits="userSpaceOnUse">
<stop stop-color="#81BD92"/>
<stop offset="1" stop-color="#BEF8CE"/>
</linearGradient>
<linearGradient id="paint112_linear_17_607" x1="5.00876" y1="275.493" x2="11.4855" y2="275.897" gradientUnits="userSpaceOnUse">
<stop stop-color="#81BD92"/>
<stop offset="1" stop-color="#BEF8CE"/>
</linearGradient>
<linearGradient id="paint113_linear_17_607" x1="40.145" y1="275.493" x2="46.6218" y2="275.897" gradientUnits="userSpaceOnUse">
<stop stop-color="#81BD92"/>
<stop offset="1" stop-color="#BEF8CE"/>
</linearGradient>
<linearGradient id="paint114_linear_17_607" x1="75.2812" y1="275.493" x2="81.758" y2="275.897" gradientUnits="userSpaceOnUse">
<stop stop-color="#81BD92"/>
<stop offset="1" stop-color="#BEF8CE"/>
</linearGradient>
<linearGradient id="paint115_linear_17_607" x1="110.418" y1="275.493" x2="116.894" y2="275.897" gradientUnits="userSpaceOnUse">
<stop stop-color="#81BD92"/>
<stop offset="1" stop-color="#BEF8CE"/>
</linearGradient>
<linearGradient id="paint116_linear_17_607" x1="145.554" y1="275.493" x2="152.031" y2="275.897" gradientUnits="userSpaceOnUse">
<stop stop-color="#81BD92"/>
<stop offset="1" stop-color="#BEF8CE"/>
</linearGradient>
<linearGradient id="paint117_linear_17_607" x1="180.716" y1="275.493" x2="187.192" y2="275.897" gradientUnits="userSpaceOnUse">
<stop stop-color="#81BD92"/>
<stop offset="1" stop-color="#BEF8CE"/>
</linearGradient>
<linearGradient id="paint118_linear_17_607" x1="215.852" y1="275.493" x2="222.329" y2="275.897" gradientUnits="userSpaceOnUse">
<stop stop-color="#81BD92"/>
<stop offset="1" stop-color="#BEF8CE"/>
</linearGradient>
<linearGradient id="paint119_linear_17_607" x1="250.988" y1="275.493" x2="257.465" y2="275.897" gradientUnits="userSpaceOnUse">
<stop stop-color="#81BD92"/>
<stop offset="1" stop-color="#BEF8CE"/>
</linearGradient>
<linearGradient id="paint120_linear_17_607" x1="286.124" y1="275.493" x2="292.601" y2="275.897" gradientUnits="userSpaceOnUse">
<stop stop-color="#81BD92"/>
<stop offset="1" stop-color="#BEF8CE"/>
</linearGradient>
<linearGradient id="paint121_linear_17_607" x1="321.261" y1="275.493" x2="327.737" y2="275.897" gradientUnits="userSpaceOnUse">
<stop stop-color="#81BD92"/>
<stop offset="1" stop-color="#BEF8CE"/>
</linearGradient>
<linearGradient id="paint122_linear_17_607" x1="356.397" y1="275.493" x2="362.874" y2="275.897" gradientUnits="userSpaceOnUse">
<stop stop-color="#81BD92"/>
<stop offset="1" stop-color="#BEF8CE"/>
</linearGradient>
<linearGradient id="paint123_linear_17_607" x1="391.533" y1="275.493" x2="398.01" y2="275.897" gradientUnits="userSpaceOnUse">
<stop stop-color="#81BD92"/>
<stop offset="1" stop-color="#BEF8CE"/>
</linearGradient>
<linearGradient id="paint124_linear_17_607" x1="426.695" y1="275.493" x2="433.172" y2="275.897" gradientUnits="userSpaceOnUse">
<stop stop-color="#81BD92"/>
<stop offset="1" stop-color="#BEF8CE"/>
</linearGradient>
<linearGradient id="paint125_linear_17_607" x1="461.831" y1="275.493" x2="468.308" y2="275.897" gradientUnits="userSpaceOnUse">
<stop stop-color="#81BD92"/>
<stop offset="1" stop-color="#BEF8CE"/>
</linearGradient>
</defs>
</svg>
