<svg width="478" height="162" viewBox="0 0 478 162" fill="none" xmlns="http://www.w3.org/2000/svg">
<path d="M4.68607 20.0072C4.68607 21.1561 3.76815 22.0753 2.62074 22.0753C1.47333 22.0753 0.555405 21.1561 0.555405 20.0072C0.555405 18.8582 1.47333 17.9391 2.62074 17.9391C3.76815 17.9391 4.68607 18.8582 4.68607 20.0072Z" fill="url(#paint0_linear_17_1577)" fill-opacity="0.3"/>
<path d="M28.3482 20.0072C28.3482 21.1561 27.4303 22.0753 26.2829 22.0753C25.1355 22.0753 24.2176 21.1561 24.2176 20.0072C24.2176 18.8582 25.1355 17.9391 26.2829 17.9391C27.4303 17.9391 28.3482 18.8582 28.3482 20.0072Z" fill="url(#paint1_linear_17_1577)" fill-opacity="0.3"/>
<path d="M51.9849 20.0072C51.9849 21.1561 51.0669 22.0753 49.9195 22.0753C48.7721 22.0753 47.8542 21.1561 47.8542 20.0072C47.8542 18.8582 48.7721 17.9391 49.9195 17.9391C51.0669 17.9391 51.9849 18.8582 51.9849 20.0072Z" fill="url(#paint2_linear_17_1577)" fill-opacity="0.3"/>
<path d="M75.6215 20.0072C75.6215 21.1561 74.7036 22.0753 73.5562 22.0753C72.4088 22.0753 71.4908 21.1561 71.4908 20.0072C71.4908 18.8582 72.4088 17.9391 73.5562 17.9391C74.7036 17.9391 75.6215 18.8582 75.6215 20.0072Z" fill="url(#paint3_linear_17_1577)" fill-opacity="0.3"/>
<path d="M99.2837 20.0072C99.2837 21.1561 98.3658 22.0753 97.2184 22.0753C96.071 22.0753 95.153 21.1561 95.153 20.0072C95.153 18.8582 96.071 17.9391 97.2184 17.9391C98.3403 17.9391 99.2837 18.8582 99.2837 20.0072Z" fill="url(#paint4_linear_17_1577)" fill-opacity="0.3"/>
<path d="M122.92 20.0072C122.92 21.1561 122.002 22.0753 120.855 22.0753C119.708 22.0753 118.79 21.1561 118.79 20.0072C118.79 18.8582 119.708 17.9391 120.855 17.9391C122.002 17.9391 122.92 18.8582 122.92 20.0072Z" fill="url(#paint5_linear_17_1577)" fill-opacity="0.3"/>
<path d="M146.557 20.0072C146.557 21.1561 145.639 22.0753 144.492 22.0753C143.344 22.0753 142.426 21.1561 142.426 20.0072C142.426 18.8582 143.344 17.9391 144.492 17.9391C145.639 17.9391 146.557 18.8582 146.557 20.0072Z" fill="url(#paint6_linear_17_1577)" fill-opacity="0.3"/>
<path d="M170.194 20.0072C170.194 21.1561 169.276 22.0753 168.128 22.0753C166.981 22.0753 166.063 21.1561 166.063 20.0072C166.063 18.8582 166.981 17.9391 168.128 17.9391C169.276 17.9391 170.194 18.8582 170.194 20.0072Z" fill="url(#paint7_linear_17_1577)" fill-opacity="0.3"/>
<path d="M193.856 20.0072C193.856 21.1561 192.938 22.0753 191.79 22.0753C190.643 22.0753 189.725 21.1561 189.725 20.0072C189.725 18.8582 190.643 17.9391 191.79 17.9391C192.938 17.9391 193.856 18.8582 193.856 20.0072Z" fill="url(#paint8_linear_17_1577)" fill-opacity="0.3"/>
<path d="M217.492 20.0072C217.492 21.1561 216.574 22.0753 215.427 22.0753C214.28 22.0753 213.362 21.1561 213.362 20.0072C213.362 18.8582 214.28 17.9391 215.427 17.9391C216.574 17.9391 217.492 18.8582 217.492 20.0072Z" fill="url(#paint9_linear_17_1577)" fill-opacity="0.3"/>
<path d="M241.129 20.0072C241.129 21.1561 240.211 22.0753 239.064 22.0753C237.916 22.0753 236.998 21.1561 236.998 20.0072C236.998 18.8582 237.916 17.9391 239.064 17.9391C240.211 17.9391 241.129 18.8582 241.129 20.0072Z" fill="url(#paint10_linear_17_1577)" fill-opacity="0.3"/>
<path d="M264.791 20.0072C264.791 21.1561 263.873 22.0753 262.726 22.0753C261.578 22.0753 260.661 21.1561 260.661 20.0072C260.661 18.8582 261.578 17.9391 262.726 17.9391C263.848 17.9391 264.791 18.8582 264.791 20.0072Z" fill="url(#paint11_linear_17_1577)" fill-opacity="0.3"/>
<path d="M288.428 20.0072C288.428 21.1561 287.51 22.0753 286.363 22.0753C285.215 22.0753 284.297 21.1561 284.297 20.0072C284.297 18.8582 285.215 17.9391 286.363 17.9391C287.51 17.9391 288.428 18.8582 288.428 20.0072Z" fill="url(#paint12_linear_17_1577)" fill-opacity="0.3"/>
<path d="M312.065 20.0072C312.065 21.1561 311.147 22.0753 309.999 22.0753C308.852 22.0753 307.934 21.1561 307.934 20.0072C307.934 18.8582 308.852 17.9391 309.999 17.9391C311.147 17.9391 312.065 18.8582 312.065 20.0072Z" fill="url(#paint13_linear_17_1577)" fill-opacity="0.3"/>
<path d="M335.701 20.0072C335.701 21.1561 334.783 22.0753 333.636 22.0753C332.488 22.0753 331.57 21.1561 331.57 20.0072C331.57 18.8582 332.488 17.9391 333.636 17.9391C334.783 17.9391 335.701 18.8582 335.701 20.0072Z" fill="url(#paint14_linear_17_1577)" fill-opacity="0.3"/>
<path d="M359.363 20.0072C359.363 21.1561 358.445 22.0753 357.298 22.0753C356.151 22.0753 355.233 21.1561 355.233 20.0072C355.233 18.8582 356.151 17.9391 357.298 17.9391C358.445 17.9391 359.363 18.8582 359.363 20.0072Z" fill="url(#paint15_linear_17_1577)" fill-opacity="0.3"/>
<path d="M383 20.0072C383 21.1561 382.082 22.0753 380.935 22.0753C379.787 22.0753 378.869 21.1561 378.869 20.0072C378.869 18.8582 379.787 17.9391 380.935 17.9391C382.082 17.9391 383 18.8582 383 20.0072Z" fill="url(#paint16_linear_17_1577)" fill-opacity="0.3"/>
<path d="M406.637 20.0072C406.637 21.1561 405.719 22.0753 404.571 22.0753C403.424 22.0753 402.506 21.1561 402.506 20.0072C402.506 18.8582 403.424 17.9391 404.571 17.9391C405.719 17.9391 406.637 18.8582 406.637 20.0072Z" fill="url(#paint17_linear_17_1577)" fill-opacity="0.3"/>
<path d="M430.299 20.0072C430.299 21.1561 429.381 22.0753 428.233 22.0753C427.086 22.0753 426.168 21.1561 426.168 20.0072C426.168 18.8582 427.086 17.9391 428.233 17.9391C429.355 17.9391 430.299 18.8582 430.299 20.0072Z" fill="url(#paint18_linear_17_1577)" fill-opacity="0.3"/>
<path d="M453.935 20.0072C453.935 21.1561 453.018 22.0753 451.87 22.0753C450.723 22.0753 449.805 21.1561 449.805 20.0072C449.805 18.8582 450.723 17.9391 451.87 17.9391C453.018 17.9391 453.935 18.8582 453.935 20.0072Z" fill="url(#paint19_linear_17_1577)" fill-opacity="0.3"/>
<path d="M477.572 20.0072C477.572 21.1561 476.654 22.0753 475.507 22.0753C474.359 22.0753 473.441 21.1561 473.441 20.0072C473.441 18.8582 474.359 17.9391 475.507 17.9391C476.654 17.9391 477.572 18.8582 477.572 20.0072Z" fill="url(#paint20_linear_17_1577)" fill-opacity="0.3"/>
<path d="M4.68607 43.1648C4.68607 44.3137 3.76815 45.2329 2.62074 45.2329C1.47333 45.2329 0.555405 44.3137 0.555405 43.1648C0.555405 42.0158 1.47333 41.0967 2.62074 41.0967C3.76815 41.0967 4.68607 42.0158 4.68607 43.1648Z" fill="url(#paint21_linear_17_1577)" fill-opacity="0.3"/>
<path d="M28.3482 43.1648C28.3482 44.3137 27.4303 45.2329 26.2829 45.2329C25.1355 45.2329 24.2176 44.3137 24.2176 43.1648C24.2176 42.0158 25.1355 41.0967 26.2829 41.0967C27.4303 41.0967 28.3482 42.0158 28.3482 43.1648Z" fill="url(#paint22_linear_17_1577)" fill-opacity="0.3"/>
<path d="M51.9849 43.1648C51.9849 44.3137 51.0669 45.2329 49.9195 45.2329C48.7721 45.2329 47.8542 44.3137 47.8542 43.1648C47.8542 42.0158 48.7721 41.0967 49.9195 41.0967C51.0669 41.0967 51.9849 42.0158 51.9849 43.1648Z" fill="url(#paint23_linear_17_1577)" fill-opacity="0.3"/>
<path d="M75.6215 43.1648C75.6215 44.3137 74.7036 45.2329 73.5562 45.2329C72.4088 45.2329 71.4908 44.3137 71.4908 43.1648C71.4908 42.0158 72.4088 41.0967 73.5562 41.0967C74.7036 41.0967 75.6215 42.0158 75.6215 43.1648Z" fill="url(#paint24_linear_17_1577)" fill-opacity="0.3"/>
<path d="M99.2837 43.1648C99.2837 44.3137 98.3658 45.2329 97.2184 45.2329C96.071 45.2329 95.153 44.3137 95.153 43.1648C95.153 42.0158 96.071 41.0967 97.2184 41.0967C98.3403 41.0967 99.2837 42.0158 99.2837 43.1648Z" fill="url(#paint25_linear_17_1577)" fill-opacity="0.3"/>
<path d="M122.92 43.1648C122.92 44.3137 122.002 45.2329 120.855 45.2329C119.708 45.2329 118.79 44.3137 118.79 43.1648C118.79 42.0158 119.708 41.0967 120.855 41.0967C122.002 41.0967 122.92 42.0158 122.92 43.1648Z" fill="url(#paint26_linear_17_1577)" fill-opacity="0.3"/>
<path d="M144.492 45.2329C145.632 45.2329 146.557 44.3069 146.557 43.1648C146.557 42.0226 145.632 41.0967 144.492 41.0967C143.351 41.0967 142.426 42.0226 142.426 43.1648C142.426 44.3069 143.351 45.2329 144.492 45.2329Z" fill="url(#paint27_linear_17_1577)" fill-opacity="0.3"/>
<path d="M170.194 43.1648C170.194 44.3137 169.276 45.2329 168.128 45.2329C166.981 45.2329 166.063 44.3137 166.063 43.1648C166.063 42.0158 166.981 41.0967 168.128 41.0967C169.276 41.0967 170.194 42.0158 170.194 43.1648Z" fill="url(#paint28_linear_17_1577)" fill-opacity="0.3"/>
<path d="M193.856 43.1648C193.856 44.3137 192.938 45.2329 191.79 45.2329C190.643 45.2329 189.725 44.3137 189.725 43.1648C189.725 42.0158 190.643 41.0967 191.79 41.0967C192.938 41.0967 193.856 42.0158 193.856 43.1648Z" fill="url(#paint29_linear_17_1577)" fill-opacity="0.3"/>
<path d="M215.427 45.2329C216.568 45.2329 217.492 44.3069 217.492 43.1648C217.492 42.0226 216.568 41.0967 215.427 41.0967C214.286 41.0967 213.362 42.0226 213.362 43.1648C213.362 44.3069 214.286 45.2329 215.427 45.2329Z" fill="url(#paint30_linear_17_1577)" fill-opacity="0.3"/>
<path d="M241.129 43.1648C241.129 44.3137 240.211 45.2329 239.064 45.2329C237.916 45.2329 236.998 44.3137 236.998 43.1648C236.998 42.0158 237.916 41.0967 239.064 41.0967C240.211 41.0967 241.129 42.0158 241.129 43.1648Z" fill="url(#paint31_linear_17_1577)" fill-opacity="0.3"/>
<path d="M264.791 43.1648C264.791 44.3137 263.873 45.2329 262.726 45.2329C261.578 45.2329 260.661 44.3137 260.661 43.1648C260.661 42.0158 261.578 41.0967 262.726 41.0967C263.848 41.0967 264.791 42.0158 264.791 43.1648Z" fill="url(#paint32_linear_17_1577)" fill-opacity="0.3"/>
<path d="M286.363 45.2329C287.503 45.2329 288.428 44.3069 288.428 43.1648C288.428 42.0226 287.503 41.0967 286.363 41.0967C285.222 41.0967 284.297 42.0226 284.297 43.1648C284.297 44.3069 285.222 45.2329 286.363 45.2329Z" fill="url(#paint33_linear_17_1577)" fill-opacity="0.3"/>
<path d="M312.065 43.1648C312.065 44.3137 311.147 45.2329 309.999 45.2329C308.852 45.2329 307.934 44.3137 307.934 43.1648C307.934 42.0158 308.852 41.0967 309.999 41.0967C311.147 41.0967 312.065 42.0158 312.065 43.1648Z" fill="url(#paint34_linear_17_1577)" fill-opacity="0.3"/>
<path d="M335.701 43.1648C335.701 44.3137 334.783 45.2329 333.636 45.2329C332.488 45.2329 331.57 44.3137 331.57 43.1648C331.57 42.0158 332.488 41.0967 333.636 41.0967C334.783 41.0967 335.701 42.0158 335.701 43.1648Z" fill="url(#paint35_linear_17_1577)" fill-opacity="0.3"/>
<path d="M357.298 45.2329C358.439 45.2329 359.363 44.3069 359.363 43.1648C359.363 42.0226 358.439 41.0967 357.298 41.0967C356.157 41.0967 355.233 42.0226 355.233 43.1648C355.233 44.3069 356.157 45.2329 357.298 45.2329Z" fill="url(#paint36_linear_17_1577)" fill-opacity="0.3"/>
<path d="M383 43.1648C383 44.3137 382.082 45.2329 380.935 45.2329C379.787 45.2329 378.869 44.3137 378.869 43.1648C378.869 42.0158 379.787 41.0967 380.935 41.0967C382.082 41.0967 383 42.0158 383 43.1648Z" fill="url(#paint37_linear_17_1577)" fill-opacity="0.3"/>
<path d="M406.637 43.1648C406.637 44.3137 405.719 45.2329 404.571 45.2329C403.424 45.2329 402.506 44.3137 402.506 43.1648C402.506 42.0158 403.424 41.0967 404.571 41.0967C405.719 41.0967 406.637 42.0158 406.637 43.1648Z" fill="url(#paint38_linear_17_1577)" fill-opacity="0.3"/>
<path d="M428.233 45.2329C429.374 45.2329 430.299 44.3069 430.299 43.1648C430.299 42.0226 429.374 41.0967 428.233 41.0967C427.093 41.0967 426.168 42.0226 426.168 43.1648C426.168 44.3069 427.093 45.2329 428.233 45.2329Z" fill="url(#paint39_linear_17_1577)" fill-opacity="0.3"/>
<path d="M453.935 43.1648C453.935 44.3137 453.018 45.2329 451.87 45.2329C450.723 45.2329 449.805 44.3137 449.805 43.1648C449.805 42.0158 450.723 41.0967 451.87 41.0967C453.018 41.0967 453.935 42.0158 453.935 43.1648Z" fill="url(#paint40_linear_17_1577)" fill-opacity="0.3"/>
<path d="M477.572 43.1648C477.572 44.3137 476.654 45.2329 475.507 45.2329C474.359 45.2329 473.441 44.3137 473.441 43.1648C473.441 42.0158 474.359 41.0967 475.507 41.0967C476.654 41.0967 477.572 42.0158 477.572 43.1648Z" fill="url(#paint41_linear_17_1577)" fill-opacity="0.3"/>
<path d="M4.68607 66.3224C4.68607 67.4713 3.76815 68.3905 2.62074 68.3905C1.47333 68.3905 0.555405 67.4713 0.555405 66.3224C0.555405 65.1735 1.47333 64.2543 2.62074 64.2543C3.76815 64.2543 4.68607 65.199 4.68607 66.3224Z" fill="url(#paint42_linear_17_1577)" fill-opacity="0.3"/>
<path d="M28.3482 66.3224C28.3482 67.4713 27.4303 68.3905 26.2829 68.3905C25.1355 68.3905 24.2176 67.4713 24.2176 66.3224C24.2176 65.1735 25.1355 64.2543 26.2829 64.2543C27.4303 64.2543 28.3482 65.199 28.3482 66.3224Z" fill="url(#paint43_linear_17_1577)" fill-opacity="0.3"/>
<path d="M51.9849 66.3224C51.9849 67.4713 51.0669 68.3905 49.9195 68.3905C48.7721 68.3905 47.8542 67.4713 47.8542 66.3224C47.8542 65.1735 48.7721 64.2543 49.9195 64.2543C51.0669 64.2543 51.9849 65.199 51.9849 66.3224Z" fill="url(#paint44_linear_17_1577)" fill-opacity="0.3"/>
<path d="M75.6215 66.3224C75.6215 67.4713 74.7036 68.3905 73.5562 68.3905C72.4088 68.3905 71.4908 67.4713 71.4908 66.3224C71.4908 65.1735 72.4088 64.2543 73.5562 64.2543C74.7036 64.2543 75.6215 65.199 75.6215 66.3224Z" fill="url(#paint45_linear_17_1577)" fill-opacity="0.3"/>
<path d="M99.2837 66.3224C99.2837 67.4713 98.3658 68.3905 97.2184 68.3905C96.071 68.3905 95.153 67.4713 95.153 66.3224C95.153 65.1735 96.071 64.2543 97.2184 64.2543C98.3403 64.2543 99.2837 65.199 99.2837 66.3224Z" fill="url(#paint46_linear_17_1577)" fill-opacity="0.3"/>
<path d="M122.92 66.3224C122.92 67.4713 122.002 68.3905 120.855 68.3905C119.708 68.3905 118.79 67.4713 118.79 66.3224C118.79 65.1735 119.708 64.2543 120.855 64.2543C122.002 64.2543 122.92 65.199 122.92 66.3224Z" fill="url(#paint47_linear_17_1577)" fill-opacity="0.3"/>
<path d="M146.557 66.3224C146.557 67.4713 145.639 68.3905 144.492 68.3905C143.344 68.3905 142.426 67.4713 142.426 66.3224C142.426 65.1735 143.344 64.2543 144.492 64.2543C145.639 64.2543 146.557 65.199 146.557 66.3224Z" fill="url(#paint48_linear_17_1577)" fill-opacity="0.3"/>
<path d="M170.194 66.3224C170.194 67.4713 169.276 68.3905 168.128 68.3905C166.981 68.3905 166.063 67.4713 166.063 66.3224C166.063 65.1735 166.981 64.2543 168.128 64.2543C169.276 64.2543 170.194 65.199 170.194 66.3224Z" fill="url(#paint49_linear_17_1577)" fill-opacity="0.3"/>
<path d="M193.856 66.3224C193.856 67.4713 192.938 68.3905 191.79 68.3905C190.643 68.3905 189.725 67.4713 189.725 66.3224C189.725 65.1735 190.643 64.2543 191.79 64.2543C192.938 64.2543 193.856 65.199 193.856 66.3224Z" fill="url(#paint50_linear_17_1577)" fill-opacity="0.3"/>
<path d="M217.492 66.3224C217.492 67.4713 216.574 68.3905 215.427 68.3905C214.28 68.3905 213.362 67.4713 213.362 66.3224C213.362 65.1735 214.28 64.2543 215.427 64.2543C216.574 64.2543 217.492 65.199 217.492 66.3224Z" fill="url(#paint51_linear_17_1577)" fill-opacity="0.3"/>
<path d="M241.129 66.3224C241.129 67.4713 240.211 68.3905 239.064 68.3905C237.916 68.3905 236.998 67.4713 236.998 66.3224C236.998 65.1735 237.916 64.2543 239.064 64.2543C240.211 64.2543 241.129 65.199 241.129 66.3224Z" fill="url(#paint52_linear_17_1577)" fill-opacity="0.3"/>
<path d="M264.791 66.3224C264.791 67.4713 263.873 68.3905 262.726 68.3905C261.578 68.3905 260.661 67.4713 260.661 66.3224C260.661 65.1735 261.578 64.2543 262.726 64.2543C263.848 64.2543 264.791 65.199 264.791 66.3224Z" fill="url(#paint53_linear_17_1577)" fill-opacity="0.3"/>
<path d="M288.428 66.3224C288.428 67.4713 287.51 68.3905 286.363 68.3905C285.215 68.3905 284.297 67.4713 284.297 66.3224C284.297 65.1735 285.215 64.2543 286.363 64.2543C287.51 64.2543 288.428 65.199 288.428 66.3224Z" fill="url(#paint54_linear_17_1577)" fill-opacity="0.3"/>
<path d="M312.065 66.3224C312.065 67.4713 311.147 68.3905 309.999 68.3905C308.852 68.3905 307.934 67.4713 307.934 66.3224C307.934 65.1735 308.852 64.2543 309.999 64.2543C311.147 64.2543 312.065 65.199 312.065 66.3224Z" fill="url(#paint55_linear_17_1577)" fill-opacity="0.3"/>
<path d="M335.701 66.3224C335.701 67.4713 334.783 68.3905 333.636 68.3905C332.488 68.3905 331.57 67.4713 331.57 66.3224C331.57 65.1735 332.488 64.2543 333.636 64.2543C334.783 64.2543 335.701 65.199 335.701 66.3224Z" fill="url(#paint56_linear_17_1577)" fill-opacity="0.3"/>
<path d="M359.363 66.3224C359.363 67.4713 358.445 68.3905 357.298 68.3905C356.151 68.3905 355.233 67.4713 355.233 66.3224C355.233 65.1735 356.151 64.2543 357.298 64.2543C358.445 64.2543 359.363 65.199 359.363 66.3224Z" fill="url(#paint57_linear_17_1577)" fill-opacity="0.3"/>
<path d="M383 66.3224C383 67.4713 382.082 68.3905 380.935 68.3905C379.787 68.3905 378.869 67.4713 378.869 66.3224C378.869 65.1735 379.787 64.2543 380.935 64.2543C382.082 64.2543 383 65.199 383 66.3224Z" fill="url(#paint58_linear_17_1577)" fill-opacity="0.3"/>
<path d="M406.637 66.3224C406.637 67.4713 405.719 68.3905 404.571 68.3905C403.424 68.3905 402.506 67.4713 402.506 66.3224C402.506 65.1735 403.424 64.2543 404.571 64.2543C405.719 64.2543 406.637 65.199 406.637 66.3224Z" fill="url(#paint59_linear_17_1577)" fill-opacity="0.3"/>
<path d="M430.299 66.3224C430.299 67.4713 429.381 68.3905 428.233 68.3905C427.086 68.3905 426.168 67.4713 426.168 66.3224C426.168 65.1735 427.086 64.2543 428.233 64.2543C429.355 64.2543 430.299 65.199 430.299 66.3224Z" fill="url(#paint60_linear_17_1577)" fill-opacity="0.3"/>
<path d="M453.935 66.3224C453.935 67.4713 453.018 68.3905 451.87 68.3905C450.723 68.3905 449.805 67.4713 449.805 66.3224C449.805 65.1735 450.723 64.2543 451.87 64.2543C453.018 64.2543 453.935 65.199 453.935 66.3224Z" fill="url(#paint61_linear_17_1577)" fill-opacity="0.3"/>
<path d="M477.572 66.3224C477.572 67.4713 476.654 68.3905 475.507 68.3905C474.359 68.3905 473.441 67.4713 473.441 66.3224C473.441 65.1735 474.359 64.2543 475.507 64.2543C476.654 64.2543 477.572 65.199 477.572 66.3224Z" fill="url(#paint62_linear_17_1577)" fill-opacity="0.3"/>
<path d="M4.68607 89.48C4.68607 90.6289 3.76815 91.5481 2.62074 91.5481C1.47333 91.5481 0.555405 90.6289 0.555405 89.48C0.555405 88.331 1.47333 87.4118 2.62074 87.4118C3.76815 87.4373 4.68607 88.3566 4.68607 89.48Z" fill="url(#paint63_linear_17_1577)" fill-opacity="0.3"/>
<path d="M28.3482 89.48C28.3482 90.6289 27.4303 91.5481 26.2829 91.5481C25.1355 91.5481 24.2176 90.6289 24.2176 89.48C24.2176 88.331 25.1355 87.4118 26.2829 87.4118C27.4303 87.4373 28.3482 88.3566 28.3482 89.48Z" fill="url(#paint64_linear_17_1577)" fill-opacity="0.3"/>
<path d="M51.9849 89.48C51.9849 90.6289 51.0669 91.5481 49.9195 91.5481C48.7721 91.5481 47.8542 90.6289 47.8542 89.48C47.8542 88.331 48.7721 87.4118 49.9195 87.4118C51.0669 87.4373 51.9849 88.3566 51.9849 89.48Z" fill="url(#paint65_linear_17_1577)" fill-opacity="0.3"/>
<path d="M75.6215 89.48C75.6215 90.6289 74.7036 91.5481 73.5562 91.5481C72.4088 91.5481 71.4908 90.6289 71.4908 89.48C71.4908 88.331 72.4088 87.4118 73.5562 87.4118C74.7036 87.4373 75.6215 88.3566 75.6215 89.48Z" fill="url(#paint66_linear_17_1577)" fill-opacity="0.3"/>
<path d="M99.2837 89.48C99.2837 90.6289 98.3658 91.5481 97.2184 91.5481C96.071 91.5481 95.153 90.6289 95.153 89.48C95.153 88.331 96.071 87.4118 97.2184 87.4118C98.3403 87.4373 99.2837 88.3566 99.2837 89.48Z" fill="url(#paint67_linear_17_1577)" fill-opacity="0.3"/>
<path d="M122.92 89.48C122.92 90.6289 122.002 91.5481 120.855 91.5481C119.708 91.5481 118.79 90.6289 118.79 89.48C118.79 88.331 119.708 87.4118 120.855 87.4118C122.002 87.4373 122.92 88.3566 122.92 89.48Z" fill="url(#paint68_linear_17_1577)" fill-opacity="0.3"/>
<path d="M146.557 89.48C146.557 90.6289 145.639 91.5481 144.492 91.5481C143.344 91.5481 142.426 90.6289 142.426 89.48C142.426 88.331 143.344 87.4118 144.492 87.4118C145.639 87.4118 146.557 88.3566 146.557 89.48Z" fill="url(#paint69_linear_17_1577)" fill-opacity="0.3"/>
<path d="M170.194 89.48C170.194 90.6289 169.276 91.5481 168.128 91.5481C166.981 91.5481 166.063 90.6289 166.063 89.48C166.063 88.331 166.981 87.4118 168.128 87.4118C169.276 87.4373 170.194 88.3566 170.194 89.48Z" fill="url(#paint70_linear_17_1577)" fill-opacity="0.3"/>
<path d="M193.856 89.48C193.856 90.6289 192.938 91.5481 191.79 91.5481C190.643 91.5481 189.725 90.6289 189.725 89.48C189.725 88.331 190.643 87.4118 191.79 87.4118C192.938 87.4373 193.856 88.3566 193.856 89.48Z" fill="url(#paint71_linear_17_1577)" fill-opacity="0.3"/>
<path d="M217.492 89.48C217.492 90.6289 216.574 91.5481 215.427 91.5481C214.28 91.5481 213.362 90.6289 213.362 89.48C213.362 88.331 214.28 87.4118 215.427 87.4118C216.574 87.4373 217.492 88.3566 217.492 89.48Z" fill="url(#paint72_linear_17_1577)" fill-opacity="0.3"/>
<path d="M241.129 89.48C241.129 90.6289 240.211 91.5481 239.064 91.5481C237.916 91.5481 236.998 90.6289 236.998 89.48C236.998 88.331 237.916 87.4118 239.064 87.4118C240.211 87.4373 241.129 88.3566 241.129 89.48Z" fill="url(#paint73_linear_17_1577)" fill-opacity="0.3"/>
<path d="M264.791 89.48C264.791 90.6289 263.873 91.5481 262.726 91.5481C261.578 91.5481 260.661 90.6289 260.661 89.48C260.661 88.331 261.578 87.4118 262.726 87.4118C263.848 87.4373 264.791 88.3566 264.791 89.48Z" fill="url(#paint74_linear_17_1577)" fill-opacity="0.3"/>
<path d="M288.428 89.48C288.428 90.6289 287.51 91.5481 286.363 91.5481C285.215 91.5481 284.297 90.6289 284.297 89.48C284.297 88.331 285.215 87.4118 286.363 87.4118C287.51 87.4373 288.428 88.3566 288.428 89.48Z" fill="url(#paint75_linear_17_1577)" fill-opacity="0.3"/>
<path d="M312.065 89.48C312.065 90.6289 311.147 91.5481 309.999 91.5481C308.852 91.5481 307.934 90.6289 307.934 89.48C307.934 88.331 308.852 87.4118 309.999 87.4118C311.147 87.4373 312.065 88.3566 312.065 89.48Z" fill="url(#paint76_linear_17_1577)" fill-opacity="0.3"/>
<path d="M335.701 89.48C335.701 90.6289 334.783 91.5481 333.636 91.5481C332.488 91.5481 331.57 90.6289 331.57 89.48C331.57 88.331 332.488 87.4118 333.636 87.4118C334.783 87.4373 335.701 88.3566 335.701 89.48Z" fill="url(#paint77_linear_17_1577)" fill-opacity="0.3"/>
<path d="M359.363 89.48C359.363 90.6289 358.445 91.5481 357.298 91.5481C356.151 91.5481 355.233 90.6289 355.233 89.48C355.233 88.331 356.151 87.4118 357.298 87.4118C358.445 87.4373 359.363 88.3566 359.363 89.48Z" fill="url(#paint78_linear_17_1577)" fill-opacity="0.3"/>
<path d="M383 89.48C383 90.6289 382.082 91.5481 380.935 91.5481C379.787 91.5481 378.869 90.6289 378.869 89.48C378.869 88.331 379.787 87.4118 380.935 87.4118C382.082 87.4373 383 88.3566 383 89.48Z" fill="url(#paint79_linear_17_1577)" fill-opacity="0.3"/>
<path d="M406.637 89.48C406.637 90.6289 405.719 91.5481 404.571 91.5481C403.424 91.5481 402.506 90.6289 402.506 89.48C402.506 88.331 403.424 87.4118 404.571 87.4118C405.719 87.4373 406.637 88.3566 406.637 89.48Z" fill="url(#paint80_linear_17_1577)" fill-opacity="0.3"/>
<path d="M430.299 89.48C430.299 90.6289 429.381 91.5481 428.233 91.5481C427.086 91.5481 426.168 90.6289 426.168 89.48C426.168 88.331 427.086 87.4118 428.233 87.4118C429.355 87.4373 430.299 88.3566 430.299 89.48Z" fill="url(#paint81_linear_17_1577)" fill-opacity="0.3"/>
<path d="M453.935 89.48C453.935 90.6289 453.018 91.5481 451.87 91.5481C450.723 91.5481 449.805 90.6289 449.805 89.48C449.805 88.331 450.723 87.4118 451.87 87.4118C453.018 87.4373 453.935 88.3566 453.935 89.48Z" fill="url(#paint82_linear_17_1577)" fill-opacity="0.3"/>
<path d="M477.572 89.48C477.572 90.6289 476.654 91.5481 475.507 91.5481C474.359 91.5481 473.441 90.6289 473.441 89.48C473.441 88.331 474.359 87.4118 475.507 87.4118C476.654 87.4373 477.572 88.3566 477.572 89.48Z" fill="url(#paint83_linear_17_1577)" fill-opacity="0.3"/>
<path d="M4.68607 112.637C4.68607 113.786 3.76815 114.706 2.62074 114.706C1.47333 114.706 0.555405 113.786 0.555405 112.637C0.555405 111.489 1.47333 110.569 2.62074 110.569C3.76815 110.595 4.68607 111.514 4.68607 112.637Z" fill="url(#paint84_linear_17_1577)" fill-opacity="0.3"/>
<path d="M28.3482 112.637C28.3482 113.786 27.4303 114.706 26.2829 114.706C25.1355 114.706 24.2176 113.786 24.2176 112.637C24.2176 111.489 25.1355 110.569 26.2829 110.569C27.4303 110.595 28.3482 111.514 28.3482 112.637Z" fill="url(#paint85_linear_17_1577)" fill-opacity="0.3"/>
<path d="M51.9849 112.637C51.9849 113.786 51.0669 114.706 49.9195 114.706C48.7721 114.706 47.8542 113.786 47.8542 112.637C47.8542 111.489 48.7721 110.569 49.9195 110.569C51.0669 110.595 51.9849 111.514 51.9849 112.637Z" fill="url(#paint86_linear_17_1577)" fill-opacity="0.3"/>
<path d="M75.6215 112.637C75.6215 113.786 74.7036 114.706 73.5562 114.706C72.4088 114.706 71.4908 113.786 71.4908 112.637C71.4908 111.489 72.4088 110.569 73.5562 110.569C74.7036 110.595 75.6215 111.514 75.6215 112.637Z" fill="url(#paint87_linear_17_1577)" fill-opacity="0.3"/>
<path d="M99.2837 112.637C99.2837 113.786 98.3658 114.706 97.2184 114.706C96.071 114.706 95.153 113.786 95.153 112.637C95.153 111.489 96.071 110.569 97.2184 110.569C98.3403 110.595 99.2837 111.514 99.2837 112.637Z" fill="url(#paint88_linear_17_1577)" fill-opacity="0.3"/>
<path d="M122.92 112.637C122.92 113.786 122.002 114.706 120.855 114.706C119.708 114.706 118.79 113.786 118.79 112.637C118.79 111.489 119.708 110.569 120.855 110.569C122.002 110.595 122.92 111.514 122.92 112.637Z" fill="url(#paint89_linear_17_1577)" fill-opacity="0.3"/>
<path d="M146.557 112.637C146.557 113.786 145.639 114.706 144.492 114.706C143.344 114.706 142.426 113.786 142.426 112.637C142.426 111.489 143.344 110.569 144.492 110.569C145.639 110.569 146.557 111.514 146.557 112.637Z" fill="url(#paint90_linear_17_1577)" fill-opacity="0.3"/>
<path d="M170.194 112.637C170.194 113.786 169.276 114.706 168.128 114.706C166.981 114.706 166.063 113.786 166.063 112.637C166.063 111.489 166.981 110.569 168.128 110.569C169.276 110.595 170.194 111.514 170.194 112.637Z" fill="url(#paint91_linear_17_1577)" fill-opacity="0.3"/>
<path d="M193.856 112.637C193.856 113.786 192.938 114.706 191.79 114.706C190.643 114.706 189.725 113.786 189.725 112.637C189.725 111.489 190.643 110.569 191.79 110.569C192.938 110.595 193.856 111.514 193.856 112.637Z" fill="url(#paint92_linear_17_1577)" fill-opacity="0.3"/>
<path d="M217.492 112.637C217.492 113.786 216.574 114.706 215.427 114.706C214.28 114.706 213.362 113.786 213.362 112.637C213.362 111.489 214.28 110.569 215.427 110.569C216.574 110.595 217.492 111.514 217.492 112.637Z" fill="url(#paint93_linear_17_1577)" fill-opacity="0.3"/>
<path d="M241.129 112.637C241.129 113.786 240.211 114.706 239.064 114.706C237.916 114.706 236.998 113.786 236.998 112.637C236.998 111.489 237.916 110.569 239.064 110.569C240.211 110.595 241.129 111.514 241.129 112.637Z" fill="url(#paint94_linear_17_1577)" fill-opacity="0.3"/>
<path d="M264.791 112.637C264.791 113.786 263.873 114.706 262.726 114.706C261.578 114.706 260.661 113.786 260.661 112.637C260.661 111.489 261.578 110.569 262.726 110.569C263.848 110.595 264.791 111.514 264.791 112.637Z" fill="url(#paint95_linear_17_1577)" fill-opacity="0.3"/>
<path d="M288.428 112.637C288.428 113.786 287.51 114.706 286.363 114.706C285.215 114.706 284.297 113.786 284.297 112.637C284.297 111.489 285.215 110.569 286.363 110.569C287.51 110.595 288.428 111.514 288.428 112.637Z" fill="url(#paint96_linear_17_1577)" fill-opacity="0.3"/>
<path d="M312.065 112.637C312.065 113.786 311.147 114.706 309.999 114.706C308.852 114.706 307.934 113.786 307.934 112.637C307.934 111.489 308.852 110.569 309.999 110.569C311.147 110.595 312.065 111.514 312.065 112.637Z" fill="url(#paint97_linear_17_1577)" fill-opacity="0.3"/>
<path d="M335.701 112.637C335.701 113.786 334.783 114.706 333.636 114.706C332.488 114.706 331.57 113.786 331.57 112.637C331.57 111.489 332.488 110.569 333.636 110.569C334.783 110.595 335.701 111.514 335.701 112.637Z" fill="url(#paint98_linear_17_1577)" fill-opacity="0.3"/>
<path d="M359.363 112.637C359.363 113.786 358.445 114.706 357.298 114.706C356.151 114.706 355.233 113.786 355.233 112.637C355.233 111.489 356.151 110.569 357.298 110.569C358.445 110.595 359.363 111.514 359.363 112.637Z" fill="url(#paint99_linear_17_1577)" fill-opacity="0.3"/>
<path d="M383 112.637C383 113.786 382.082 114.706 380.935 114.706C379.787 114.706 378.869 113.786 378.869 112.637C378.869 111.489 379.787 110.569 380.935 110.569C382.082 110.595 383 111.514 383 112.637Z" fill="url(#paint100_linear_17_1577)" fill-opacity="0.3"/>
<path d="M406.637 112.637C406.637 113.786 405.719 114.706 404.571 114.706C403.424 114.706 402.506 113.786 402.506 112.637C402.506 111.489 403.424 110.569 404.571 110.569C405.719 110.595 406.637 111.514 406.637 112.637Z" fill="url(#paint101_linear_17_1577)" fill-opacity="0.3"/>
<path d="M430.299 112.637C430.299 113.786 429.381 114.706 428.233 114.706C427.086 114.706 426.168 113.786 426.168 112.637C426.168 111.489 427.086 110.569 428.233 110.569C429.355 110.595 430.299 111.514 430.299 112.637Z" fill="url(#paint102_linear_17_1577)" fill-opacity="0.3"/>
<path d="M453.935 112.637C453.935 113.786 453.018 114.706 451.87 114.706C450.723 114.706 449.805 113.786 449.805 112.637C449.805 111.489 450.723 110.569 451.87 110.569C453.018 110.595 453.935 111.514 453.935 112.637Z" fill="url(#paint103_linear_17_1577)" fill-opacity="0.3"/>
<path d="M477.572 112.637C477.572 113.786 476.654 114.706 475.507 114.706C474.359 114.706 473.441 113.786 473.441 112.637C473.441 111.489 474.359 110.569 475.507 110.569C476.654 110.595 477.572 111.514 477.572 112.637Z" fill="url(#paint104_linear_17_1577)" fill-opacity="0.3"/>
<path d="M4.68607 135.821C4.68607 136.97 3.76815 137.889 2.62074 137.889C1.47333 137.889 0.555405 136.97 0.555405 135.821C0.555405 134.672 1.47333 133.753 2.62074 133.753C3.76815 133.753 4.68607 134.672 4.68607 135.821Z" fill="url(#paint105_linear_17_1577)" fill-opacity="0.3"/>
<path d="M28.3482 135.821C28.3482 136.97 27.4303 137.889 26.2829 137.889C25.1355 137.889 24.2176 136.97 24.2176 135.821C24.2176 134.672 25.1355 133.753 26.2829 133.753C27.4303 133.753 28.3482 134.672 28.3482 135.821Z" fill="url(#paint106_linear_17_1577)" fill-opacity="0.3"/>
<path d="M51.9849 135.821C51.9849 136.97 51.0669 137.889 49.9195 137.889C48.7721 137.889 47.8542 136.97 47.8542 135.821C47.8542 134.672 48.7721 133.753 49.9195 133.753C51.0669 133.753 51.9849 134.672 51.9849 135.821Z" fill="url(#paint107_linear_17_1577)" fill-opacity="0.3"/>
<path d="M75.6215 135.821C75.6215 136.97 74.7036 137.889 73.5562 137.889C72.4088 137.889 71.4908 136.97 71.4908 135.821C71.4908 134.672 72.4088 133.753 73.5562 133.753C74.7036 133.753 75.6215 134.672 75.6215 135.821Z" fill="url(#paint108_linear_17_1577)" fill-opacity="0.3"/>
<path d="M99.2837 135.821C99.2837 136.97 98.3658 137.889 97.2184 137.889C96.071 137.889 95.153 136.97 95.153 135.821C95.153 134.672 96.071 133.753 97.2184 133.753C98.3403 133.753 99.2837 134.672 99.2837 135.821Z" fill="url(#paint109_linear_17_1577)" fill-opacity="0.3"/>
<path d="M122.92 135.821C122.92 136.97 122.002 137.889 120.855 137.889C119.708 137.889 118.79 136.97 118.79 135.821C118.79 134.672 119.708 133.753 120.855 133.753C122.002 133.753 122.92 134.672 122.92 135.821Z" fill="url(#paint110_linear_17_1577)" fill-opacity="0.3"/>
<path d="M146.557 135.821C146.557 136.97 145.639 137.889 144.492 137.889C143.344 137.889 142.426 136.97 142.426 135.821C142.426 134.672 143.344 133.753 144.492 133.753C145.639 133.753 146.557 134.672 146.557 135.821Z" fill="url(#paint111_linear_17_1577)" fill-opacity="0.3"/>
<path d="M170.194 135.821C170.194 136.97 169.276 137.889 168.128 137.889C166.981 137.889 166.063 136.97 166.063 135.821C166.063 134.672 166.981 133.753 168.128 133.753C169.276 133.753 170.194 134.672 170.194 135.821Z" fill="url(#paint112_linear_17_1577)" fill-opacity="0.3"/>
<path d="M193.856 135.821C193.856 136.97 192.938 137.889 191.79 137.889C190.643 137.889 189.725 136.97 189.725 135.821C189.725 134.672 190.643 133.753 191.79 133.753C192.938 133.753 193.856 134.672 193.856 135.821Z" fill="url(#paint113_linear_17_1577)" fill-opacity="0.3"/>
<path d="M217.492 135.821C217.492 136.97 216.574 137.889 215.427 137.889C214.28 137.889 213.362 136.97 213.362 135.821C213.362 134.672 214.28 133.753 215.427 133.753C216.574 133.753 217.492 134.672 217.492 135.821Z" fill="url(#paint114_linear_17_1577)" fill-opacity="0.3"/>
<path d="M241.129 135.821C241.129 136.97 240.211 137.889 239.064 137.889C237.916 137.889 236.998 136.97 236.998 135.821C236.998 134.672 237.916 133.753 239.064 133.753C240.211 133.753 241.129 134.672 241.129 135.821Z" fill="url(#paint115_linear_17_1577)" fill-opacity="0.3"/>
<path d="M264.791 135.821C264.791 136.97 263.873 137.889 262.726 137.889C261.578 137.889 260.661 136.97 260.661 135.821C260.661 134.672 261.578 133.753 262.726 133.753C263.848 133.753 264.791 134.672 264.791 135.821Z" fill="url(#paint116_linear_17_1577)" fill-opacity="0.3"/>
<path d="M288.428 135.821C288.428 136.97 287.51 137.889 286.363 137.889C285.215 137.889 284.297 136.97 284.297 135.821C284.297 134.672 285.215 133.753 286.363 133.753C287.51 133.753 288.428 134.672 288.428 135.821Z" fill="url(#paint117_linear_17_1577)" fill-opacity="0.3"/>
<path d="M312.065 135.821C312.065 136.97 311.147 137.889 309.999 137.889C308.852 137.889 307.934 136.97 307.934 135.821C307.934 134.672 308.852 133.753 309.999 133.753C311.147 133.753 312.065 134.672 312.065 135.821Z" fill="url(#paint118_linear_17_1577)" fill-opacity="0.3"/>
<path d="M335.701 135.821C335.701 136.97 334.783 137.889 333.636 137.889C332.488 137.889 331.57 136.97 331.57 135.821C331.57 134.672 332.488 133.753 333.636 133.753C334.783 133.753 335.701 134.672 335.701 135.821Z" fill="url(#paint119_linear_17_1577)" fill-opacity="0.3"/>
<path d="M359.363 135.821C359.363 136.97 358.445 137.889 357.298 137.889C356.151 137.889 355.233 136.97 355.233 135.821C355.233 134.672 356.151 133.753 357.298 133.753C358.445 133.753 359.363 134.672 359.363 135.821Z" fill="url(#paint120_linear_17_1577)" fill-opacity="0.3"/>
<path d="M383 135.821C383 136.97 382.082 137.889 380.935 137.889C379.787 137.889 378.869 136.97 378.869 135.821C378.869 134.672 379.787 133.753 380.935 133.753C382.082 133.753 383 134.672 383 135.821Z" fill="url(#paint121_linear_17_1577)" fill-opacity="0.3"/>
<path d="M406.637 135.821C406.637 136.97 405.719 137.889 404.571 137.889C403.424 137.889 402.506 136.97 402.506 135.821C402.506 134.672 403.424 133.753 404.571 133.753C405.719 133.753 406.637 134.672 406.637 135.821Z" fill="url(#paint122_linear_17_1577)" fill-opacity="0.3"/>
<path d="M430.299 135.821C430.299 136.97 429.381 137.889 428.233 137.889C427.086 137.889 426.168 136.97 426.168 135.821C426.168 134.672 427.086 133.753 428.233 133.753C429.355 133.753 430.299 134.672 430.299 135.821Z" fill="url(#paint123_linear_17_1577)" fill-opacity="0.3"/>
<path d="M453.935 135.821C453.935 136.97 453.018 137.889 451.87 137.889C450.723 137.889 449.805 136.97 449.805 135.821C449.805 134.672 450.723 133.753 451.87 133.753C453.018 133.753 453.935 134.672 453.935 135.821Z" fill="url(#paint124_linear_17_1577)" fill-opacity="0.3"/>
<path d="M477.572 135.821C477.572 136.97 476.654 137.889 475.507 137.889C474.359 137.889 473.441 136.97 473.441 135.821C473.441 134.672 474.359 133.753 475.507 133.753C476.654 133.753 477.572 134.672 477.572 135.821Z" fill="url(#paint125_linear_17_1577)" fill-opacity="0.3"/>
<path d="M4.68607 158.978C4.68607 160.127 3.76815 161.046 2.62074 161.046C1.47333 161.046 0.555405 160.127 0.555405 158.978C0.555405 157.829 1.47333 156.91 2.62074 156.91C3.76815 156.91 4.68607 157.829 4.68607 158.978Z" fill="url(#paint126_linear_17_1577)" fill-opacity="0.3"/>
<path d="M28.3482 158.978C28.3482 160.127 27.4303 161.046 26.2829 161.046C25.1355 161.046 24.2176 160.127 24.2176 158.978C24.2176 157.829 25.1355 156.91 26.2829 156.91C27.4303 156.91 28.3482 157.829 28.3482 158.978Z" fill="url(#paint127_linear_17_1577)" fill-opacity="0.3"/>
<path d="M51.9849 158.978C51.9849 160.127 51.0669 161.046 49.9195 161.046C48.7721 161.046 47.8542 160.127 47.8542 158.978C47.8542 157.829 48.7721 156.91 49.9195 156.91C51.0669 156.91 51.9849 157.829 51.9849 158.978Z" fill="url(#paint128_linear_17_1577)" fill-opacity="0.3"/>
<path d="M75.6215 158.978C75.6215 160.127 74.7036 161.046 73.5562 161.046C72.4088 161.046 71.4908 160.127 71.4908 158.978C71.4908 157.829 72.4088 156.91 73.5562 156.91C74.7036 156.91 75.6215 157.829 75.6215 158.978Z" fill="url(#paint129_linear_17_1577)" fill-opacity="0.3"/>
<path d="M99.2837 158.978C99.2837 160.127 98.3658 161.046 97.2184 161.046C96.071 161.046 95.153 160.127 95.153 158.978C95.153 157.829 96.071 156.91 97.2184 156.91C98.3403 156.91 99.2837 157.829 99.2837 158.978Z" fill="url(#paint130_linear_17_1577)" fill-opacity="0.3"/>
<path d="M122.92 158.978C122.92 160.127 122.002 161.046 120.855 161.046C119.708 161.046 118.79 160.127 118.79 158.978C118.79 157.829 119.708 156.91 120.855 156.91C122.002 156.91 122.92 157.829 122.92 158.978Z" fill="url(#paint131_linear_17_1577)" fill-opacity="0.3"/>
<path d="M144.492 161.046C145.632 161.046 146.557 160.12 146.557 158.978C146.557 157.836 145.632 156.91 144.492 156.91C143.351 156.91 142.426 157.836 142.426 158.978C142.426 160.12 143.351 161.046 144.492 161.046Z" fill="url(#paint132_linear_17_1577)" fill-opacity="0.3"/>
<path d="M170.194 158.978C170.194 160.127 169.276 161.046 168.128 161.046C166.981 161.046 166.063 160.127 166.063 158.978C166.063 157.829 166.981 156.91 168.128 156.91C169.276 156.91 170.194 157.829 170.194 158.978Z" fill="url(#paint133_linear_17_1577)" fill-opacity="0.3"/>
<path d="M193.856 158.978C193.856 160.127 192.938 161.046 191.79 161.046C190.643 161.046 189.725 160.127 189.725 158.978C189.725 157.829 190.643 156.91 191.79 156.91C192.938 156.91 193.856 157.829 193.856 158.978Z" fill="url(#paint134_linear_17_1577)" fill-opacity="0.3"/>
<path d="M215.427 161.046C216.568 161.046 217.492 160.12 217.492 158.978C217.492 157.836 216.568 156.91 215.427 156.91C214.286 156.91 213.362 157.836 213.362 158.978C213.362 160.12 214.286 161.046 215.427 161.046Z" fill="url(#paint135_linear_17_1577)" fill-opacity="0.3"/>
<path d="M241.129 158.978C241.129 160.127 240.211 161.046 239.064 161.046C237.916 161.046 236.998 160.127 236.998 158.978C236.998 157.829 237.916 156.91 239.064 156.91C240.211 156.91 241.129 157.829 241.129 158.978Z" fill="url(#paint136_linear_17_1577)" fill-opacity="0.3"/>
<path d="M264.791 158.978C264.791 160.127 263.873 161.046 262.726 161.046C261.578 161.046 260.661 160.127 260.661 158.978C260.661 157.829 261.578 156.91 262.726 156.91C263.848 156.91 264.791 157.829 264.791 158.978Z" fill="url(#paint137_linear_17_1577)" fill-opacity="0.3"/>
<path d="M286.363 161.046C287.503 161.046 288.428 160.12 288.428 158.978C288.428 157.836 287.503 156.91 286.363 156.91C285.222 156.91 284.297 157.836 284.297 158.978C284.297 160.12 285.222 161.046 286.363 161.046Z" fill="url(#paint138_linear_17_1577)" fill-opacity="0.3"/>
<path d="M312.065 158.978C312.065 160.127 311.147 161.046 309.999 161.046C308.852 161.046 307.934 160.127 307.934 158.978C307.934 157.829 308.852 156.91 309.999 156.91C311.147 156.91 312.065 157.829 312.065 158.978Z" fill="url(#paint139_linear_17_1577)" fill-opacity="0.3"/>
<path d="M335.701 158.978C335.701 160.127 334.783 161.046 333.636 161.046C332.488 161.046 331.57 160.127 331.57 158.978C331.57 157.829 332.488 156.91 333.636 156.91C334.783 156.91 335.701 157.829 335.701 158.978Z" fill="url(#paint140_linear_17_1577)" fill-opacity="0.3"/>
<path d="M357.298 161.046C358.439 161.046 359.363 160.12 359.363 158.978C359.363 157.836 358.439 156.91 357.298 156.91C356.157 156.91 355.233 157.836 355.233 158.978C355.233 160.12 356.157 161.046 357.298 161.046Z" fill="url(#paint141_linear_17_1577)" fill-opacity="0.3"/>
<path d="M383 158.978C383 160.127 382.082 161.046 380.935 161.046C379.787 161.046 378.869 160.127 378.869 158.978C378.869 157.829 379.787 156.91 380.935 156.91C382.082 156.91 383 157.829 383 158.978Z" fill="url(#paint142_linear_17_1577)" fill-opacity="0.3"/>
<path d="M406.637 158.978C406.637 160.127 405.719 161.046 404.571 161.046C403.424 161.046 402.506 160.127 402.506 158.978C402.506 157.829 403.424 156.91 404.571 156.91C405.719 156.91 406.637 157.829 406.637 158.978Z" fill="url(#paint143_linear_17_1577)" fill-opacity="0.3"/>
<path d="M428.233 161.046C429.374 161.046 430.299 160.12 430.299 158.978C430.299 157.836 429.374 156.91 428.233 156.91C427.093 156.91 426.168 157.836 426.168 158.978C426.168 160.12 427.093 161.046 428.233 161.046Z" fill="url(#paint144_linear_17_1577)" fill-opacity="0.3"/>
<path d="M453.935 158.978C453.935 160.127 453.018 161.046 451.87 161.046C450.723 161.046 449.805 160.127 449.805 158.978C449.805 157.829 450.723 156.91 451.87 156.91C453.018 156.91 453.935 157.829 453.935 158.978Z" fill="url(#paint145_linear_17_1577)" fill-opacity="0.3"/>
<path d="M477.572 158.978C477.572 160.127 476.654 161.046 475.507 161.046C474.359 161.046 473.441 160.127 473.441 158.978C473.441 157.829 474.359 156.91 475.507 156.91C476.654 156.91 477.572 157.829 477.572 158.978Z" fill="url(#paint146_linear_17_1577)" fill-opacity="0.3"/>
<defs>
<linearGradient id="paint0_linear_17_1577" x1="0.555405" y1="17.9391" x2="4.9272" y2="18.212" gradientUnits="userSpaceOnUse">
<stop stop-color="#81BD92"/>
<stop offset="1" stop-color="#BEF8CE"/>
</linearGradient>
<linearGradient id="paint1_linear_17_1577" x1="24.2176" y1="17.9391" x2="28.5894" y2="18.212" gradientUnits="userSpaceOnUse">
<stop stop-color="#81BD92"/>
<stop offset="1" stop-color="#BEF8CE"/>
</linearGradient>
<linearGradient id="paint2_linear_17_1577" x1="47.8542" y1="17.9391" x2="52.226" y2="18.212" gradientUnits="userSpaceOnUse">
<stop stop-color="#81BD92"/>
<stop offset="1" stop-color="#BEF8CE"/>
</linearGradient>
<linearGradient id="paint3_linear_17_1577" x1="71.4908" y1="17.9391" x2="75.8627" y2="18.212" gradientUnits="userSpaceOnUse">
<stop stop-color="#81BD92"/>
<stop offset="1" stop-color="#BEF8CE"/>
</linearGradient>
<linearGradient id="paint4_linear_17_1577" x1="95.153" y1="17.9391" x2="99.5248" y2="18.212" gradientUnits="userSpaceOnUse">
<stop stop-color="#81BD92"/>
<stop offset="1" stop-color="#BEF8CE"/>
</linearGradient>
<linearGradient id="paint5_linear_17_1577" x1="118.79" y1="17.9391" x2="123.161" y2="18.212" gradientUnits="userSpaceOnUse">
<stop stop-color="#81BD92"/>
<stop offset="1" stop-color="#BEF8CE"/>
</linearGradient>
<linearGradient id="paint6_linear_17_1577" x1="142.426" y1="17.9391" x2="146.798" y2="18.212" gradientUnits="userSpaceOnUse">
<stop stop-color="#81BD92"/>
<stop offset="1" stop-color="#BEF8CE"/>
</linearGradient>
<linearGradient id="paint7_linear_17_1577" x1="166.063" y1="17.9391" x2="170.435" y2="18.212" gradientUnits="userSpaceOnUse">
<stop stop-color="#81BD92"/>
<stop offset="1" stop-color="#BEF8CE"/>
</linearGradient>
<linearGradient id="paint8_linear_17_1577" x1="189.725" y1="17.9391" x2="194.097" y2="18.212" gradientUnits="userSpaceOnUse">
<stop stop-color="#81BD92"/>
<stop offset="1" stop-color="#BEF8CE"/>
</linearGradient>
<linearGradient id="paint9_linear_17_1577" x1="213.362" y1="17.9391" x2="217.734" y2="18.212" gradientUnits="userSpaceOnUse">
<stop stop-color="#81BD92"/>
<stop offset="1" stop-color="#BEF8CE"/>
</linearGradient>
<linearGradient id="paint10_linear_17_1577" x1="236.998" y1="17.9391" x2="241.37" y2="18.212" gradientUnits="userSpaceOnUse">
<stop stop-color="#81BD92"/>
<stop offset="1" stop-color="#BEF8CE"/>
</linearGradient>
<linearGradient id="paint11_linear_17_1577" x1="260.661" y1="17.9391" x2="265.032" y2="18.212" gradientUnits="userSpaceOnUse">
<stop stop-color="#81BD92"/>
<stop offset="1" stop-color="#BEF8CE"/>
</linearGradient>
<linearGradient id="paint12_linear_17_1577" x1="284.297" y1="17.9391" x2="288.669" y2="18.212" gradientUnits="userSpaceOnUse">
<stop stop-color="#81BD92"/>
<stop offset="1" stop-color="#BEF8CE"/>
</linearGradient>
<linearGradient id="paint13_linear_17_1577" x1="307.934" y1="17.9391" x2="312.306" y2="18.212" gradientUnits="userSpaceOnUse">
<stop stop-color="#81BD92"/>
<stop offset="1" stop-color="#BEF8CE"/>
</linearGradient>
<linearGradient id="paint14_linear_17_1577" x1="331.57" y1="17.9391" x2="335.942" y2="18.212" gradientUnits="userSpaceOnUse">
<stop stop-color="#81BD92"/>
<stop offset="1" stop-color="#BEF8CE"/>
</linearGradient>
<linearGradient id="paint15_linear_17_1577" x1="355.233" y1="17.9391" x2="359.605" y2="18.212" gradientUnits="userSpaceOnUse">
<stop stop-color="#81BD92"/>
<stop offset="1" stop-color="#BEF8CE"/>
</linearGradient>
<linearGradient id="paint16_linear_17_1577" x1="378.869" y1="17.9391" x2="383.241" y2="18.212" gradientUnits="userSpaceOnUse">
<stop stop-color="#81BD92"/>
<stop offset="1" stop-color="#BEF8CE"/>
</linearGradient>
<linearGradient id="paint17_linear_17_1577" x1="402.506" y1="17.9391" x2="406.878" y2="18.212" gradientUnits="userSpaceOnUse">
<stop stop-color="#81BD92"/>
<stop offset="1" stop-color="#BEF8CE"/>
</linearGradient>
<linearGradient id="paint18_linear_17_1577" x1="426.168" y1="17.9391" x2="430.54" y2="18.212" gradientUnits="userSpaceOnUse">
<stop stop-color="#81BD92"/>
<stop offset="1" stop-color="#BEF8CE"/>
</linearGradient>
<linearGradient id="paint19_linear_17_1577" x1="449.805" y1="17.9391" x2="454.177" y2="18.212" gradientUnits="userSpaceOnUse">
<stop stop-color="#81BD92"/>
<stop offset="1" stop-color="#BEF8CE"/>
</linearGradient>
<linearGradient id="paint20_linear_17_1577" x1="473.441" y1="17.9391" x2="477.813" y2="18.212" gradientUnits="userSpaceOnUse">
<stop stop-color="#81BD92"/>
<stop offset="1" stop-color="#BEF8CE"/>
</linearGradient>
<linearGradient id="paint21_linear_17_1577" x1="0.555405" y1="41.0967" x2="4.9272" y2="41.3696" gradientUnits="userSpaceOnUse">
<stop stop-color="#81BD92"/>
<stop offset="1" stop-color="#BEF8CE"/>
</linearGradient>
<linearGradient id="paint22_linear_17_1577" x1="24.2176" y1="41.0967" x2="28.5894" y2="41.3696" gradientUnits="userSpaceOnUse">
<stop stop-color="#81BD92"/>
<stop offset="1" stop-color="#BEF8CE"/>
</linearGradient>
<linearGradient id="paint23_linear_17_1577" x1="47.8542" y1="41.0967" x2="52.226" y2="41.3696" gradientUnits="userSpaceOnUse">
<stop stop-color="#81BD92"/>
<stop offset="1" stop-color="#BEF8CE"/>
</linearGradient>
<linearGradient id="paint24_linear_17_1577" x1="71.4908" y1="41.0967" x2="75.8627" y2="41.3696" gradientUnits="userSpaceOnUse">
<stop stop-color="#81BD92"/>
<stop offset="1" stop-color="#BEF8CE"/>
</linearGradient>
<linearGradient id="paint25_linear_17_1577" x1="95.153" y1="41.0967" x2="99.5248" y2="41.3696" gradientUnits="userSpaceOnUse">
<stop stop-color="#81BD92"/>
<stop offset="1" stop-color="#BEF8CE"/>
</linearGradient>
<linearGradient id="paint26_linear_17_1577" x1="118.79" y1="41.0967" x2="123.161" y2="41.3696" gradientUnits="userSpaceOnUse">
<stop stop-color="#81BD92"/>
<stop offset="1" stop-color="#BEF8CE"/>
</linearGradient>
<linearGradient id="paint27_linear_17_1577" x1="142.426" y1="41.0967" x2="146.798" y2="41.3696" gradientUnits="userSpaceOnUse">
<stop stop-color="#81BD92"/>
<stop offset="1" stop-color="#BEF8CE"/>
</linearGradient>
<linearGradient id="paint28_linear_17_1577" x1="166.063" y1="41.0967" x2="170.435" y2="41.3696" gradientUnits="userSpaceOnUse">
<stop stop-color="#81BD92"/>
<stop offset="1" stop-color="#BEF8CE"/>
</linearGradient>
<linearGradient id="paint29_linear_17_1577" x1="189.725" y1="41.0967" x2="194.097" y2="41.3696" gradientUnits="userSpaceOnUse">
<stop stop-color="#81BD92"/>
<stop offset="1" stop-color="#BEF8CE"/>
</linearGradient>
<linearGradient id="paint30_linear_17_1577" x1="213.362" y1="41.0967" x2="217.734" y2="41.3696" gradientUnits="userSpaceOnUse">
<stop stop-color="#81BD92"/>
<stop offset="1" stop-color="#BEF8CE"/>
</linearGradient>
<linearGradient id="paint31_linear_17_1577" x1="236.998" y1="41.0967" x2="241.37" y2="41.3696" gradientUnits="userSpaceOnUse">
<stop stop-color="#81BD92"/>
<stop offset="1" stop-color="#BEF8CE"/>
</linearGradient>
<linearGradient id="paint32_linear_17_1577" x1="260.661" y1="41.0967" x2="265.032" y2="41.3696" gradientUnits="userSpaceOnUse">
<stop stop-color="#81BD92"/>
<stop offset="1" stop-color="#BEF8CE"/>
</linearGradient>
<linearGradient id="paint33_linear_17_1577" x1="284.297" y1="41.0967" x2="288.669" y2="41.3696" gradientUnits="userSpaceOnUse">
<stop stop-color="#81BD92"/>
<stop offset="1" stop-color="#BEF8CE"/>
</linearGradient>
<linearGradient id="paint34_linear_17_1577" x1="307.934" y1="41.0967" x2="312.306" y2="41.3696" gradientUnits="userSpaceOnUse">
<stop stop-color="#81BD92"/>
<stop offset="1" stop-color="#BEF8CE"/>
</linearGradient>
<linearGradient id="paint35_linear_17_1577" x1="331.57" y1="41.0967" x2="335.942" y2="41.3696" gradientUnits="userSpaceOnUse">
<stop stop-color="#81BD92"/>
<stop offset="1" stop-color="#BEF8CE"/>
</linearGradient>
<linearGradient id="paint36_linear_17_1577" x1="355.233" y1="41.0967" x2="359.605" y2="41.3696" gradientUnits="userSpaceOnUse">
<stop stop-color="#81BD92"/>
<stop offset="1" stop-color="#BEF8CE"/>
</linearGradient>
<linearGradient id="paint37_linear_17_1577" x1="378.869" y1="41.0967" x2="383.241" y2="41.3696" gradientUnits="userSpaceOnUse">
<stop stop-color="#81BD92"/>
<stop offset="1" stop-color="#BEF8CE"/>
</linearGradient>
<linearGradient id="paint38_linear_17_1577" x1="402.506" y1="41.0967" x2="406.878" y2="41.3696" gradientUnits="userSpaceOnUse">
<stop stop-color="#81BD92"/>
<stop offset="1" stop-color="#BEF8CE"/>
</linearGradient>
<linearGradient id="paint39_linear_17_1577" x1="426.168" y1="41.0967" x2="430.54" y2="41.3696" gradientUnits="userSpaceOnUse">
<stop stop-color="#81BD92"/>
<stop offset="1" stop-color="#BEF8CE"/>
</linearGradient>
<linearGradient id="paint40_linear_17_1577" x1="449.805" y1="41.0967" x2="454.177" y2="41.3696" gradientUnits="userSpaceOnUse">
<stop stop-color="#81BD92"/>
<stop offset="1" stop-color="#BEF8CE"/>
</linearGradient>
<linearGradient id="paint41_linear_17_1577" x1="473.441" y1="41.0967" x2="477.813" y2="41.3696" gradientUnits="userSpaceOnUse">
<stop stop-color="#81BD92"/>
<stop offset="1" stop-color="#BEF8CE"/>
</linearGradient>
<linearGradient id="paint42_linear_17_1577" x1="0.555405" y1="64.2543" x2="4.9272" y2="64.5272" gradientUnits="userSpaceOnUse">
<stop stop-color="#81BD92"/>
<stop offset="1" stop-color="#BEF8CE"/>
</linearGradient>
<linearGradient id="paint43_linear_17_1577" x1="24.2176" y1="64.2543" x2="28.5894" y2="64.5272" gradientUnits="userSpaceOnUse">
<stop stop-color="#81BD92"/>
<stop offset="1" stop-color="#BEF8CE"/>
</linearGradient>
<linearGradient id="paint44_linear_17_1577" x1="47.8542" y1="64.2543" x2="52.226" y2="64.5272" gradientUnits="userSpaceOnUse">
<stop stop-color="#81BD92"/>
<stop offset="1" stop-color="#BEF8CE"/>
</linearGradient>
<linearGradient id="paint45_linear_17_1577" x1="71.4908" y1="64.2543" x2="75.8627" y2="64.5272" gradientUnits="userSpaceOnUse">
<stop stop-color="#81BD92"/>
<stop offset="1" stop-color="#BEF8CE"/>
</linearGradient>
<linearGradient id="paint46_linear_17_1577" x1="95.153" y1="64.2543" x2="99.5248" y2="64.5272" gradientUnits="userSpaceOnUse">
<stop stop-color="#81BD92"/>
<stop offset="1" stop-color="#BEF8CE"/>
</linearGradient>
<linearGradient id="paint47_linear_17_1577" x1="118.79" y1="64.2543" x2="123.161" y2="64.5272" gradientUnits="userSpaceOnUse">
<stop stop-color="#81BD92"/>
<stop offset="1" stop-color="#BEF8CE"/>
</linearGradient>
<linearGradient id="paint48_linear_17_1577" x1="142.426" y1="64.2543" x2="146.798" y2="64.5272" gradientUnits="userSpaceOnUse">
<stop stop-color="#81BD92"/>
<stop offset="1" stop-color="#BEF8CE"/>
</linearGradient>
<linearGradient id="paint49_linear_17_1577" x1="166.063" y1="64.2543" x2="170.435" y2="64.5272" gradientUnits="userSpaceOnUse">
<stop stop-color="#81BD92"/>
<stop offset="1" stop-color="#BEF8CE"/>
</linearGradient>
<linearGradient id="paint50_linear_17_1577" x1="189.725" y1="64.2543" x2="194.097" y2="64.5272" gradientUnits="userSpaceOnUse">
<stop stop-color="#81BD92"/>
<stop offset="1" stop-color="#BEF8CE"/>
</linearGradient>
<linearGradient id="paint51_linear_17_1577" x1="213.362" y1="64.2543" x2="217.734" y2="64.5272" gradientUnits="userSpaceOnUse">
<stop stop-color="#81BD92"/>
<stop offset="1" stop-color="#BEF8CE"/>
</linearGradient>
<linearGradient id="paint52_linear_17_1577" x1="236.998" y1="64.2543" x2="241.37" y2="64.5272" gradientUnits="userSpaceOnUse">
<stop stop-color="#81BD92"/>
<stop offset="1" stop-color="#BEF8CE"/>
</linearGradient>
<linearGradient id="paint53_linear_17_1577" x1="260.661" y1="64.2543" x2="265.032" y2="64.5272" gradientUnits="userSpaceOnUse">
<stop stop-color="#81BD92"/>
<stop offset="1" stop-color="#BEF8CE"/>
</linearGradient>
<linearGradient id="paint54_linear_17_1577" x1="284.297" y1="64.2543" x2="288.669" y2="64.5272" gradientUnits="userSpaceOnUse">
<stop stop-color="#81BD92"/>
<stop offset="1" stop-color="#BEF8CE"/>
</linearGradient>
<linearGradient id="paint55_linear_17_1577" x1="307.934" y1="64.2543" x2="312.306" y2="64.5272" gradientUnits="userSpaceOnUse">
<stop stop-color="#81BD92"/>
<stop offset="1" stop-color="#BEF8CE"/>
</linearGradient>
<linearGradient id="paint56_linear_17_1577" x1="331.57" y1="64.2543" x2="335.942" y2="64.5272" gradientUnits="userSpaceOnUse">
<stop stop-color="#81BD92"/>
<stop offset="1" stop-color="#BEF8CE"/>
</linearGradient>
<linearGradient id="paint57_linear_17_1577" x1="355.233" y1="64.2543" x2="359.605" y2="64.5272" gradientUnits="userSpaceOnUse">
<stop stop-color="#81BD92"/>
<stop offset="1" stop-color="#BEF8CE"/>
</linearGradient>
<linearGradient id="paint58_linear_17_1577" x1="378.869" y1="64.2543" x2="383.241" y2="64.5272" gradientUnits="userSpaceOnUse">
<stop stop-color="#81BD92"/>
<stop offset="1" stop-color="#BEF8CE"/>
</linearGradient>
<linearGradient id="paint59_linear_17_1577" x1="402.506" y1="64.2543" x2="406.878" y2="64.5272" gradientUnits="userSpaceOnUse">
<stop stop-color="#81BD92"/>
<stop offset="1" stop-color="#BEF8CE"/>
</linearGradient>
<linearGradient id="paint60_linear_17_1577" x1="426.168" y1="64.2543" x2="430.54" y2="64.5272" gradientUnits="userSpaceOnUse">
<stop stop-color="#81BD92"/>
<stop offset="1" stop-color="#BEF8CE"/>
</linearGradient>
<linearGradient id="paint61_linear_17_1577" x1="449.805" y1="64.2543" x2="454.177" y2="64.5272" gradientUnits="userSpaceOnUse">
<stop stop-color="#81BD92"/>
<stop offset="1" stop-color="#BEF8CE"/>
</linearGradient>
<linearGradient id="paint62_linear_17_1577" x1="473.441" y1="64.2543" x2="477.813" y2="64.5272" gradientUnits="userSpaceOnUse">
<stop stop-color="#81BD92"/>
<stop offset="1" stop-color="#BEF8CE"/>
</linearGradient>
<linearGradient id="paint63_linear_17_1577" x1="0.555405" y1="87.4118" x2="4.9272" y2="87.6847" gradientUnits="userSpaceOnUse">
<stop stop-color="#81BD92"/>
<stop offset="1" stop-color="#BEF8CE"/>
</linearGradient>
<linearGradient id="paint64_linear_17_1577" x1="24.2176" y1="87.4118" x2="28.5894" y2="87.6847" gradientUnits="userSpaceOnUse">
<stop stop-color="#81BD92"/>
<stop offset="1" stop-color="#BEF8CE"/>
</linearGradient>
<linearGradient id="paint65_linear_17_1577" x1="47.8542" y1="87.4118" x2="52.226" y2="87.6847" gradientUnits="userSpaceOnUse">
<stop stop-color="#81BD92"/>
<stop offset="1" stop-color="#BEF8CE"/>
</linearGradient>
<linearGradient id="paint66_linear_17_1577" x1="71.4908" y1="87.4118" x2="75.8627" y2="87.6847" gradientUnits="userSpaceOnUse">
<stop stop-color="#81BD92"/>
<stop offset="1" stop-color="#BEF8CE"/>
</linearGradient>
<linearGradient id="paint67_linear_17_1577" x1="95.153" y1="87.4118" x2="99.5248" y2="87.6847" gradientUnits="userSpaceOnUse">
<stop stop-color="#81BD92"/>
<stop offset="1" stop-color="#BEF8CE"/>
</linearGradient>
<linearGradient id="paint68_linear_17_1577" x1="118.79" y1="87.4118" x2="123.161" y2="87.6847" gradientUnits="userSpaceOnUse">
<stop stop-color="#81BD92"/>
<stop offset="1" stop-color="#BEF8CE"/>
</linearGradient>
<linearGradient id="paint69_linear_17_1577" x1="142.426" y1="87.4118" x2="146.798" y2="87.6847" gradientUnits="userSpaceOnUse">
<stop stop-color="#81BD92"/>
<stop offset="1" stop-color="#BEF8CE"/>
</linearGradient>
<linearGradient id="paint70_linear_17_1577" x1="166.063" y1="87.4118" x2="170.435" y2="87.6847" gradientUnits="userSpaceOnUse">
<stop stop-color="#81BD92"/>
<stop offset="1" stop-color="#BEF8CE"/>
</linearGradient>
<linearGradient id="paint71_linear_17_1577" x1="189.725" y1="87.4118" x2="194.097" y2="87.6847" gradientUnits="userSpaceOnUse">
<stop stop-color="#81BD92"/>
<stop offset="1" stop-color="#BEF8CE"/>
</linearGradient>
<linearGradient id="paint72_linear_17_1577" x1="213.362" y1="87.4118" x2="217.734" y2="87.6847" gradientUnits="userSpaceOnUse">
<stop stop-color="#81BD92"/>
<stop offset="1" stop-color="#BEF8CE"/>
</linearGradient>
<linearGradient id="paint73_linear_17_1577" x1="236.998" y1="87.4118" x2="241.37" y2="87.6847" gradientUnits="userSpaceOnUse">
<stop stop-color="#81BD92"/>
<stop offset="1" stop-color="#BEF8CE"/>
</linearGradient>
<linearGradient id="paint74_linear_17_1577" x1="260.661" y1="87.4118" x2="265.032" y2="87.6847" gradientUnits="userSpaceOnUse">
<stop stop-color="#81BD92"/>
<stop offset="1" stop-color="#BEF8CE"/>
</linearGradient>
<linearGradient id="paint75_linear_17_1577" x1="284.297" y1="87.4118" x2="288.669" y2="87.6847" gradientUnits="userSpaceOnUse">
<stop stop-color="#81BD92"/>
<stop offset="1" stop-color="#BEF8CE"/>
</linearGradient>
<linearGradient id="paint76_linear_17_1577" x1="307.934" y1="87.4118" x2="312.306" y2="87.6847" gradientUnits="userSpaceOnUse">
<stop stop-color="#81BD92"/>
<stop offset="1" stop-color="#BEF8CE"/>
</linearGradient>
<linearGradient id="paint77_linear_17_1577" x1="331.57" y1="87.4118" x2="335.942" y2="87.6847" gradientUnits="userSpaceOnUse">
<stop stop-color="#81BD92"/>
<stop offset="1" stop-color="#BEF8CE"/>
</linearGradient>
<linearGradient id="paint78_linear_17_1577" x1="355.233" y1="87.4118" x2="359.605" y2="87.6847" gradientUnits="userSpaceOnUse">
<stop stop-color="#81BD92"/>
<stop offset="1" stop-color="#BEF8CE"/>
</linearGradient>
<linearGradient id="paint79_linear_17_1577" x1="378.869" y1="87.4118" x2="383.241" y2="87.6847" gradientUnits="userSpaceOnUse">
<stop stop-color="#81BD92"/>
<stop offset="1" stop-color="#BEF8CE"/>
</linearGradient>
<linearGradient id="paint80_linear_17_1577" x1="402.506" y1="87.4118" x2="406.878" y2="87.6847" gradientUnits="userSpaceOnUse">
<stop stop-color="#81BD92"/>
<stop offset="1" stop-color="#BEF8CE"/>
</linearGradient>
<linearGradient id="paint81_linear_17_1577" x1="426.168" y1="87.4118" x2="430.54" y2="87.6847" gradientUnits="userSpaceOnUse">
<stop stop-color="#81BD92"/>
<stop offset="1" stop-color="#BEF8CE"/>
</linearGradient>
<linearGradient id="paint82_linear_17_1577" x1="449.805" y1="87.4118" x2="454.177" y2="87.6847" gradientUnits="userSpaceOnUse">
<stop stop-color="#81BD92"/>
<stop offset="1" stop-color="#BEF8CE"/>
</linearGradient>
<linearGradient id="paint83_linear_17_1577" x1="473.441" y1="87.4118" x2="477.813" y2="87.6847" gradientUnits="userSpaceOnUse">
<stop stop-color="#81BD92"/>
<stop offset="1" stop-color="#BEF8CE"/>
</linearGradient>
<linearGradient id="paint84_linear_17_1577" x1="0.555405" y1="110.569" x2="4.9272" y2="110.842" gradientUnits="userSpaceOnUse">
<stop stop-color="#81BD92"/>
<stop offset="1" stop-color="#BEF8CE"/>
</linearGradient>
<linearGradient id="paint85_linear_17_1577" x1="24.2176" y1="110.569" x2="28.5894" y2="110.842" gradientUnits="userSpaceOnUse">
<stop stop-color="#81BD92"/>
<stop offset="1" stop-color="#BEF8CE"/>
</linearGradient>
<linearGradient id="paint86_linear_17_1577" x1="47.8542" y1="110.569" x2="52.226" y2="110.842" gradientUnits="userSpaceOnUse">
<stop stop-color="#81BD92"/>
<stop offset="1" stop-color="#BEF8CE"/>
</linearGradient>
<linearGradient id="paint87_linear_17_1577" x1="71.4908" y1="110.569" x2="75.8627" y2="110.842" gradientUnits="userSpaceOnUse">
<stop stop-color="#81BD92"/>
<stop offset="1" stop-color="#BEF8CE"/>
</linearGradient>
<linearGradient id="paint88_linear_17_1577" x1="95.153" y1="110.569" x2="99.5248" y2="110.842" gradientUnits="userSpaceOnUse">
<stop stop-color="#81BD92"/>
<stop offset="1" stop-color="#BEF8CE"/>
</linearGradient>
<linearGradient id="paint89_linear_17_1577" x1="118.79" y1="110.569" x2="123.161" y2="110.842" gradientUnits="userSpaceOnUse">
<stop stop-color="#81BD92"/>
<stop offset="1" stop-color="#BEF8CE"/>
</linearGradient>
<linearGradient id="paint90_linear_17_1577" x1="142.426" y1="110.569" x2="146.798" y2="110.842" gradientUnits="userSpaceOnUse">
<stop stop-color="#81BD92"/>
<stop offset="1" stop-color="#BEF8CE"/>
</linearGradient>
<linearGradient id="paint91_linear_17_1577" x1="166.063" y1="110.569" x2="170.435" y2="110.842" gradientUnits="userSpaceOnUse">
<stop stop-color="#81BD92"/>
<stop offset="1" stop-color="#BEF8CE"/>
</linearGradient>
<linearGradient id="paint92_linear_17_1577" x1="189.725" y1="110.569" x2="194.097" y2="110.842" gradientUnits="userSpaceOnUse">
<stop stop-color="#81BD92"/>
<stop offset="1" stop-color="#BEF8CE"/>
</linearGradient>
<linearGradient id="paint93_linear_17_1577" x1="213.362" y1="110.569" x2="217.734" y2="110.842" gradientUnits="userSpaceOnUse">
<stop stop-color="#81BD92"/>
<stop offset="1" stop-color="#BEF8CE"/>
</linearGradient>
<linearGradient id="paint94_linear_17_1577" x1="236.998" y1="110.569" x2="241.37" y2="110.842" gradientUnits="userSpaceOnUse">
<stop stop-color="#81BD92"/>
<stop offset="1" stop-color="#BEF8CE"/>
</linearGradient>
<linearGradient id="paint95_linear_17_1577" x1="260.661" y1="110.569" x2="265.032" y2="110.842" gradientUnits="userSpaceOnUse">
<stop stop-color="#81BD92"/>
<stop offset="1" stop-color="#BEF8CE"/>
</linearGradient>
<linearGradient id="paint96_linear_17_1577" x1="284.297" y1="110.569" x2="288.669" y2="110.842" gradientUnits="userSpaceOnUse">
<stop stop-color="#81BD92"/>
<stop offset="1" stop-color="#BEF8CE"/>
</linearGradient>
<linearGradient id="paint97_linear_17_1577" x1="307.934" y1="110.569" x2="312.306" y2="110.842" gradientUnits="userSpaceOnUse">
<stop stop-color="#81BD92"/>
<stop offset="1" stop-color="#BEF8CE"/>
</linearGradient>
<linearGradient id="paint98_linear_17_1577" x1="331.57" y1="110.569" x2="335.942" y2="110.842" gradientUnits="userSpaceOnUse">
<stop stop-color="#81BD92"/>
<stop offset="1" stop-color="#BEF8CE"/>
</linearGradient>
<linearGradient id="paint99_linear_17_1577" x1="355.233" y1="110.569" x2="359.605" y2="110.842" gradientUnits="userSpaceOnUse">
<stop stop-color="#81BD92"/>
<stop offset="1" stop-color="#BEF8CE"/>
</linearGradient>
<linearGradient id="paint100_linear_17_1577" x1="378.869" y1="110.569" x2="383.241" y2="110.842" gradientUnits="userSpaceOnUse">
<stop stop-color="#81BD92"/>
<stop offset="1" stop-color="#BEF8CE"/>
</linearGradient>
<linearGradient id="paint101_linear_17_1577" x1="402.506" y1="110.569" x2="406.878" y2="110.842" gradientUnits="userSpaceOnUse">
<stop stop-color="#81BD92"/>
<stop offset="1" stop-color="#BEF8CE"/>
</linearGradient>
<linearGradient id="paint102_linear_17_1577" x1="426.168" y1="110.569" x2="430.54" y2="110.842" gradientUnits="userSpaceOnUse">
<stop stop-color="#81BD92"/>
<stop offset="1" stop-color="#BEF8CE"/>
</linearGradient>
<linearGradient id="paint103_linear_17_1577" x1="449.805" y1="110.569" x2="454.177" y2="110.842" gradientUnits="userSpaceOnUse">
<stop stop-color="#81BD92"/>
<stop offset="1" stop-color="#BEF8CE"/>
</linearGradient>
<linearGradient id="paint104_linear_17_1577" x1="473.441" y1="110.569" x2="477.813" y2="110.842" gradientUnits="userSpaceOnUse">
<stop stop-color="#81BD92"/>
<stop offset="1" stop-color="#BEF8CE"/>
</linearGradient>
<linearGradient id="paint105_linear_17_1577" x1="0.555405" y1="133.753" x2="4.9272" y2="134.025" gradientUnits="userSpaceOnUse">
<stop stop-color="#81BD92"/>
<stop offset="1" stop-color="#BEF8CE"/>
</linearGradient>
<linearGradient id="paint106_linear_17_1577" x1="24.2176" y1="133.753" x2="28.5894" y2="134.025" gradientUnits="userSpaceOnUse">
<stop stop-color="#81BD92"/>
<stop offset="1" stop-color="#BEF8CE"/>
</linearGradient>
<linearGradient id="paint107_linear_17_1577" x1="47.8542" y1="133.753" x2="52.226" y2="134.025" gradientUnits="userSpaceOnUse">
<stop stop-color="#81BD92"/>
<stop offset="1" stop-color="#BEF8CE"/>
</linearGradient>
<linearGradient id="paint108_linear_17_1577" x1="71.4908" y1="133.753" x2="75.8627" y2="134.025" gradientUnits="userSpaceOnUse">
<stop stop-color="#81BD92"/>
<stop offset="1" stop-color="#BEF8CE"/>
</linearGradient>
<linearGradient id="paint109_linear_17_1577" x1="95.153" y1="133.753" x2="99.5248" y2="134.025" gradientUnits="userSpaceOnUse">
<stop stop-color="#81BD92"/>
<stop offset="1" stop-color="#BEF8CE"/>
</linearGradient>
<linearGradient id="paint110_linear_17_1577" x1="118.79" y1="133.753" x2="123.161" y2="134.025" gradientUnits="userSpaceOnUse">
<stop stop-color="#81BD92"/>
<stop offset="1" stop-color="#BEF8CE"/>
</linearGradient>
<linearGradient id="paint111_linear_17_1577" x1="142.426" y1="133.753" x2="146.798" y2="134.025" gradientUnits="userSpaceOnUse">
<stop stop-color="#81BD92"/>
<stop offset="1" stop-color="#BEF8CE"/>
</linearGradient>
<linearGradient id="paint112_linear_17_1577" x1="166.063" y1="133.753" x2="170.435" y2="134.025" gradientUnits="userSpaceOnUse">
<stop stop-color="#81BD92"/>
<stop offset="1" stop-color="#BEF8CE"/>
</linearGradient>
<linearGradient id="paint113_linear_17_1577" x1="189.725" y1="133.753" x2="194.097" y2="134.025" gradientUnits="userSpaceOnUse">
<stop stop-color="#81BD92"/>
<stop offset="1" stop-color="#BEF8CE"/>
</linearGradient>
<linearGradient id="paint114_linear_17_1577" x1="213.362" y1="133.753" x2="217.734" y2="134.025" gradientUnits="userSpaceOnUse">
<stop stop-color="#81BD92"/>
<stop offset="1" stop-color="#BEF8CE"/>
</linearGradient>
<linearGradient id="paint115_linear_17_1577" x1="236.998" y1="133.753" x2="241.37" y2="134.025" gradientUnits="userSpaceOnUse">
<stop stop-color="#81BD92"/>
<stop offset="1" stop-color="#BEF8CE"/>
</linearGradient>
<linearGradient id="paint116_linear_17_1577" x1="260.661" y1="133.753" x2="265.032" y2="134.025" gradientUnits="userSpaceOnUse">
<stop stop-color="#81BD92"/>
<stop offset="1" stop-color="#BEF8CE"/>
</linearGradient>
<linearGradient id="paint117_linear_17_1577" x1="284.297" y1="133.753" x2="288.669" y2="134.025" gradientUnits="userSpaceOnUse">
<stop stop-color="#81BD92"/>
<stop offset="1" stop-color="#BEF8CE"/>
</linearGradient>
<linearGradient id="paint118_linear_17_1577" x1="307.934" y1="133.753" x2="312.306" y2="134.025" gradientUnits="userSpaceOnUse">
<stop stop-color="#81BD92"/>
<stop offset="1" stop-color="#BEF8CE"/>
</linearGradient>
<linearGradient id="paint119_linear_17_1577" x1="331.57" y1="133.753" x2="335.942" y2="134.025" gradientUnits="userSpaceOnUse">
<stop stop-color="#81BD92"/>
<stop offset="1" stop-color="#BEF8CE"/>
</linearGradient>
<linearGradient id="paint120_linear_17_1577" x1="355.233" y1="133.753" x2="359.605" y2="134.025" gradientUnits="userSpaceOnUse">
<stop stop-color="#81BD92"/>
<stop offset="1" stop-color="#BEF8CE"/>
</linearGradient>
<linearGradient id="paint121_linear_17_1577" x1="378.869" y1="133.753" x2="383.241" y2="134.025" gradientUnits="userSpaceOnUse">
<stop stop-color="#81BD92"/>
<stop offset="1" stop-color="#BEF8CE"/>
</linearGradient>
<linearGradient id="paint122_linear_17_1577" x1="402.506" y1="133.753" x2="406.878" y2="134.025" gradientUnits="userSpaceOnUse">
<stop stop-color="#81BD92"/>
<stop offset="1" stop-color="#BEF8CE"/>
</linearGradient>
<linearGradient id="paint123_linear_17_1577" x1="426.168" y1="133.753" x2="430.54" y2="134.025" gradientUnits="userSpaceOnUse">
<stop stop-color="#81BD92"/>
<stop offset="1" stop-color="#BEF8CE"/>
</linearGradient>
<linearGradient id="paint124_linear_17_1577" x1="449.805" y1="133.753" x2="454.177" y2="134.025" gradientUnits="userSpaceOnUse">
<stop stop-color="#81BD92"/>
<stop offset="1" stop-color="#BEF8CE"/>
</linearGradient>
<linearGradient id="paint125_linear_17_1577" x1="473.441" y1="133.753" x2="477.813" y2="134.025" gradientUnits="userSpaceOnUse">
<stop stop-color="#81BD92"/>
<stop offset="1" stop-color="#BEF8CE"/>
</linearGradient>
<linearGradient id="paint126_linear_17_1577" x1="0.555405" y1="156.91" x2="4.9272" y2="157.183" gradientUnits="userSpaceOnUse">
<stop stop-color="#81BD92"/>
<stop offset="1" stop-color="#BEF8CE"/>
</linearGradient>
<linearGradient id="paint127_linear_17_1577" x1="24.2176" y1="156.91" x2="28.5894" y2="157.183" gradientUnits="userSpaceOnUse">
<stop stop-color="#81BD92"/>
<stop offset="1" stop-color="#BEF8CE"/>
</linearGradient>
<linearGradient id="paint128_linear_17_1577" x1="47.8542" y1="156.91" x2="52.226" y2="157.183" gradientUnits="userSpaceOnUse">
<stop stop-color="#81BD92"/>
<stop offset="1" stop-color="#BEF8CE"/>
</linearGradient>
<linearGradient id="paint129_linear_17_1577" x1="71.4908" y1="156.91" x2="75.8627" y2="157.183" gradientUnits="userSpaceOnUse">
<stop stop-color="#81BD92"/>
<stop offset="1" stop-color="#BEF8CE"/>
</linearGradient>
<linearGradient id="paint130_linear_17_1577" x1="95.153" y1="156.91" x2="99.5248" y2="157.183" gradientUnits="userSpaceOnUse">
<stop stop-color="#81BD92"/>
<stop offset="1" stop-color="#BEF8CE"/>
</linearGradient>
<linearGradient id="paint131_linear_17_1577" x1="118.79" y1="156.91" x2="123.161" y2="157.183" gradientUnits="userSpaceOnUse">
<stop stop-color="#81BD92"/>
<stop offset="1" stop-color="#BEF8CE"/>
</linearGradient>
<linearGradient id="paint132_linear_17_1577" x1="142.426" y1="156.91" x2="146.798" y2="157.183" gradientUnits="userSpaceOnUse">
<stop stop-color="#81BD92"/>
<stop offset="1" stop-color="#BEF8CE"/>
</linearGradient>
<linearGradient id="paint133_linear_17_1577" x1="166.063" y1="156.91" x2="170.435" y2="157.183" gradientUnits="userSpaceOnUse">
<stop stop-color="#81BD92"/>
<stop offset="1" stop-color="#BEF8CE"/>
</linearGradient>
<linearGradient id="paint134_linear_17_1577" x1="189.725" y1="156.91" x2="194.097" y2="157.183" gradientUnits="userSpaceOnUse">
<stop stop-color="#81BD92"/>
<stop offset="1" stop-color="#BEF8CE"/>
</linearGradient>
<linearGradient id="paint135_linear_17_1577" x1="213.362" y1="156.91" x2="217.734" y2="157.183" gradientUnits="userSpaceOnUse">
<stop stop-color="#81BD92"/>
<stop offset="1" stop-color="#BEF8CE"/>
</linearGradient>
<linearGradient id="paint136_linear_17_1577" x1="236.998" y1="156.91" x2="241.37" y2="157.183" gradientUnits="userSpaceOnUse">
<stop stop-color="#81BD92"/>
<stop offset="1" stop-color="#BEF8CE"/>
</linearGradient>
<linearGradient id="paint137_linear_17_1577" x1="260.661" y1="156.91" x2="265.032" y2="157.183" gradientUnits="userSpaceOnUse">
<stop stop-color="#81BD92"/>
<stop offset="1" stop-color="#BEF8CE"/>
</linearGradient>
<linearGradient id="paint138_linear_17_1577" x1="284.297" y1="156.91" x2="288.669" y2="157.183" gradientUnits="userSpaceOnUse">
<stop stop-color="#81BD92"/>
<stop offset="1" stop-color="#BEF8CE"/>
</linearGradient>
<linearGradient id="paint139_linear_17_1577" x1="307.934" y1="156.91" x2="312.306" y2="157.183" gradientUnits="userSpaceOnUse">
<stop stop-color="#81BD92"/>
<stop offset="1" stop-color="#BEF8CE"/>
</linearGradient>
<linearGradient id="paint140_linear_17_1577" x1="331.57" y1="156.91" x2="335.942" y2="157.183" gradientUnits="userSpaceOnUse">
<stop stop-color="#81BD92"/>
<stop offset="1" stop-color="#BEF8CE"/>
</linearGradient>
<linearGradient id="paint141_linear_17_1577" x1="355.233" y1="156.91" x2="359.605" y2="157.183" gradientUnits="userSpaceOnUse">
<stop stop-color="#81BD92"/>
<stop offset="1" stop-color="#BEF8CE"/>
</linearGradient>
<linearGradient id="paint142_linear_17_1577" x1="378.869" y1="156.91" x2="383.241" y2="157.183" gradientUnits="userSpaceOnUse">
<stop stop-color="#81BD92"/>
<stop offset="1" stop-color="#BEF8CE"/>
</linearGradient>
<linearGradient id="paint143_linear_17_1577" x1="402.506" y1="156.91" x2="406.878" y2="157.183" gradientUnits="userSpaceOnUse">
<stop stop-color="#81BD92"/>
<stop offset="1" stop-color="#BEF8CE"/>
</linearGradient>
<linearGradient id="paint144_linear_17_1577" x1="426.168" y1="156.91" x2="430.54" y2="157.183" gradientUnits="userSpaceOnUse">
<stop stop-color="#81BD92"/>
<stop offset="1" stop-color="#BEF8CE"/>
</linearGradient>
<linearGradient id="paint145_linear_17_1577" x1="449.805" y1="156.91" x2="454.177" y2="157.183" gradientUnits="userSpaceOnUse">
<stop stop-color="#81BD92"/>
<stop offset="1" stop-color="#BEF8CE"/>
</linearGradient>
<linearGradient id="paint146_linear_17_1577" x1="473.441" y1="156.91" x2="477.813" y2="157.183" gradientUnits="userSpaceOnUse">
<stop stop-color="#81BD92"/>
<stop offset="1" stop-color="#BEF8CE"/>
</linearGradient>
</defs>
</svg>
