<svg width="73" height="62" viewBox="0 0 73 62" fill="none" xmlns="http://www.w3.org/2000/svg">
<path opacity="0.1" d="M16.7 61.3C13.4333 61.2333 10.5333 60.5667 8 59.3C5.53333 57.9667 3.6 55.8667 2.2 53C0.8 50.0667 0.1 46.2 0.1 41.4V17.4C0.1 11.5333 1.63333 7.2 4.7 4.39999C7.83333 1.59999 11.9 0.199995 16.9 0.199995C21.7 0.199995 25.6 1.59999 28.6 4.39999C31.6667 7.2 33.2 11.5333 33.2 17.4V41.3C33.2 46.2333 32.5 50.1667 31.1 53.1C29.7667 56.0333 27.8333 58.1333 25.3 59.4C22.8333 60.6667 19.9667 61.3 16.7 61.3ZM16.7 54.4C18.1667 54.4 19.3667 53.8333 20.3 52.7C21.2333 51.5 21.7 49.7333 21.7 47.4V14.2C21.7 11.8667 21.2 10.1333 20.2 8.99999C19.2667 7.8 18.1 7.2 16.7 7.2C15.3 7.2 14.1 7.8 13.1 8.99999C12.1667 10.1333 11.7 11.8667 11.7 14.2V47.4C11.7 49.7333 12.1667 51.5 13.1 52.7C14.1 53.8333 15.3 54.4 16.7 54.4ZM55.3578 60.7C51.4911 60.7 48.2911 60.1333 45.7578 59C43.2245 57.8 41.3578 56.1333 40.1578 54C38.9578 51.8 38.3578 49.1667 38.3578 46.1V39.3H49.9578V43C49.9578 46 50.3578 48.3 51.1578 49.9C51.9578 51.5 53.2911 52.3333 55.1578 52.4C56.8911 52.4 58.1578 51.7 58.9578 50.3C59.8245 48.9 60.2578 47.1 60.2578 44.9V39.2C60.2578 37 59.5245 35.4333 58.0578 34.5C56.5911 33.5667 54.4245 33.0667 51.5578 33H46.8578V26.6H51.6578C52.9911 26.6 54.1911 26.4333 55.2578 26.1C56.3245 25.7667 57.2245 25.3 57.9578 24.7C58.7578 24.0333 59.3245 23.3333 59.6578 22.6C59.9911 21.8 60.1578 20.9667 60.1578 20.1V16C60.1578 14.0667 59.7911 12.4 59.0578 11C58.3245 9.6 57.0245 8.9 55.1578 8.9C53.2245 8.9 51.8911 9.7 51.1578 11.3C50.4911 12.9 50.1578 15.1 50.1578 17.9V20.3H38.4578V14.8C38.4578 10.1333 39.8245 6.6 42.5578 4.2C45.3578 1.8 49.6245 0.599996 55.3578 0.599996C61.3578 0.599996 65.6578 1.7 68.2578 3.9C70.9245 6.1 72.2578 9.4 72.2578 13.8V18.3C72.2578 21.7 71.3911 24.4333 69.6578 26.5C67.9911 28.5667 65.5245 29.8 62.2578 30.2C65.5245 30.4 68.0245 31.5333 69.7578 33.6C71.4911 35.6667 72.3578 38.4 72.3578 41.8V46.1C72.3578 49.4333 71.7911 52.2 70.6578 54.4C69.5245 56.5333 67.6911 58.1333 65.1578 59.2C62.6911 60.2 59.4245 60.7 55.3578 60.7Z" fill="#AEC4B4"/>
</svg>
