<svg width="439" height="352" viewBox="0 0 439 352" fill="none" xmlns="http://www.w3.org/2000/svg">
<path d="M14.2008 6.95246C15.8906 6.95246 17.2605 5.5807 17.2605 3.88858C17.2605 2.19647 15.8906 0.824707 14.2008 0.824707C12.5109 0.824707 11.141 2.19647 11.141 3.88858C11.141 5.5807 12.5109 6.95246 14.2008 6.95246Z" fill="url(#paint0_linear_22_207)" fill-opacity="0.3"/>
<path d="M49.3371 6.95246C51.0269 6.95246 52.3967 5.5807 52.3967 3.88858C52.3967 2.19647 51.0269 0.824707 49.3371 0.824707C47.6472 0.824707 46.2773 2.19647 46.2773 3.88858C46.2773 5.5807 47.6472 6.95246 49.3371 6.95246Z" fill="url(#paint1_linear_22_207)" fill-opacity="0.3"/>
<path d="M84.4732 6.95246C86.1631 6.95246 87.533 5.5807 87.533 3.88858C87.533 2.19647 86.1631 0.824707 84.4732 0.824707C82.7834 0.824707 81.4135 2.19647 81.4135 3.88858C81.4135 5.5807 82.7834 6.95246 84.4732 6.95246Z" fill="url(#paint2_linear_22_207)" fill-opacity="0.3"/>
<path d="M119.61 6.95246C121.299 6.95246 122.669 5.5807 122.669 3.88858C122.669 2.19647 121.299 0.824707 119.61 0.824707C117.92 0.824707 116.55 2.19647 116.55 3.88858C116.55 5.5807 117.92 6.95246 119.61 6.95246Z" fill="url(#paint3_linear_22_207)" fill-opacity="0.3"/>
<path d="M154.746 6.95246C156.436 6.95246 157.806 5.5807 157.806 3.88858C157.806 2.19647 156.436 0.824707 154.746 0.824707C153.056 0.824707 151.686 2.19647 151.686 3.88858C151.686 5.5807 153.056 6.95246 154.746 6.95246Z" fill="url(#paint4_linear_22_207)" fill-opacity="0.3"/>
<path d="M189.882 6.95246C191.572 6.95246 192.942 5.5807 192.942 3.88858C192.942 2.19647 191.572 0.824707 189.882 0.824707C188.192 0.824707 186.822 2.19647 186.822 3.88858C186.822 5.5807 188.192 6.95246 189.882 6.95246Z" fill="url(#paint5_linear_22_207)" fill-opacity="0.3"/>
<path d="M228.078 3.88858C228.078 5.5737 226.701 6.95246 225.018 6.95246C223.335 6.95246 221.958 5.5737 221.958 3.88858C221.958 2.20347 223.335 0.824707 225.018 0.824707C226.727 0.824707 228.078 2.20347 228.078 3.88858Z" fill="url(#paint6_linear_22_207)" fill-opacity="0.3"/>
<path d="M260.18 6.95246C261.87 6.95246 263.24 5.5807 263.24 3.88858C263.24 2.19647 261.87 0.824707 260.18 0.824707C258.49 0.824707 257.12 2.19647 257.12 3.88858C257.12 5.5807 258.49 6.95246 260.18 6.95246Z" fill="url(#paint7_linear_22_207)" fill-opacity="0.3"/>
<path d="M295.316 6.95246C297.006 6.95246 298.376 5.5807 298.376 3.88858C298.376 2.19647 297.006 0.824707 295.316 0.824707C293.626 0.824707 292.256 2.19647 292.256 3.88858C292.256 5.5807 293.626 6.95246 295.316 6.95246Z" fill="url(#paint8_linear_22_207)" fill-opacity="0.3"/>
<path d="M333.512 3.88858C333.512 5.5737 332.135 6.95246 330.453 6.95246C328.77 6.95246 327.393 5.5737 327.393 3.88858C327.393 2.20347 328.77 0.824707 330.453 0.824707C332.135 0.824707 333.512 2.20347 333.512 3.88858Z" fill="url(#paint9_linear_22_207)" fill-opacity="0.3"/>
<path d="M365.589 6.95246C367.279 6.95246 368.649 5.5807 368.649 3.88858C368.649 2.19647 367.279 0.824707 365.589 0.824707C363.899 0.824707 362.529 2.19647 362.529 3.88858C362.529 5.5807 363.899 6.95246 365.589 6.95246Z" fill="url(#paint10_linear_22_207)" fill-opacity="0.3"/>
<path d="M400.725 6.95246C402.415 6.95246 403.785 5.5807 403.785 3.88858C403.785 2.19647 402.415 0.824707 400.725 0.824707C399.035 0.824707 397.665 2.19647 397.665 3.88858C397.665 5.5807 399.035 6.95246 400.725 6.95246Z" fill="url(#paint11_linear_22_207)" fill-opacity="0.3"/>
<path d="M435.861 6.95246C437.551 6.95246 438.921 5.5807 438.921 3.88858C438.921 2.19647 437.551 0.824707 435.861 0.824707C434.171 0.824707 432.802 2.19647 432.802 3.88858C432.802 5.5807 434.171 6.95246 435.861 6.95246Z" fill="url(#paint12_linear_22_207)" fill-opacity="0.3"/>
<path d="M14.2008 41.3696C15.8906 41.3696 17.2605 39.9979 17.2605 38.3058C17.2605 36.6137 15.8906 35.2419 14.2008 35.2419C12.5109 35.2419 11.141 36.6137 11.141 38.3058C11.141 39.9979 12.5109 41.3696 14.2008 41.3696Z" fill="url(#paint13_linear_22_207)" fill-opacity="0.3"/>
<path d="M49.3371 41.3696C51.0269 41.3696 52.3967 39.9979 52.3967 38.3058C52.3967 36.6137 51.0269 35.2419 49.3371 35.2419C47.6472 35.2419 46.2773 36.6137 46.2773 38.3058C46.2773 39.9979 47.6472 41.3696 49.3371 41.3696Z" fill="url(#paint14_linear_22_207)" fill-opacity="0.3"/>
<path d="M84.4732 41.3696C86.1631 41.3696 87.533 39.9979 87.533 38.3058C87.533 36.6137 86.1631 35.2419 84.4732 35.2419C82.7834 35.2419 81.4135 36.6137 81.4135 38.3058C81.4135 39.9979 82.7834 41.3696 84.4732 41.3696Z" fill="url(#paint15_linear_22_207)" fill-opacity="0.3"/>
<path d="M119.61 41.3696C121.299 41.3696 122.669 39.9979 122.669 38.3058C122.669 36.6137 121.299 35.2419 119.61 35.2419C117.92 35.2419 116.55 36.6137 116.55 38.3058C116.55 39.9979 117.92 41.3696 119.61 41.3696Z" fill="url(#paint16_linear_22_207)" fill-opacity="0.3"/>
<path d="M154.746 41.3696C156.436 41.3696 157.806 39.9979 157.806 38.3058C157.806 36.6137 156.436 35.2419 154.746 35.2419C153.056 35.2419 151.686 36.6137 151.686 38.3058C151.686 39.9979 153.056 41.3696 154.746 41.3696Z" fill="url(#paint17_linear_22_207)" fill-opacity="0.3"/>
<path d="M189.882 41.3696C191.572 41.3696 192.942 39.9979 192.942 38.3058C192.942 36.6137 191.572 35.2419 189.882 35.2419C188.192 35.2419 186.822 36.6137 186.822 38.3058C186.822 39.9979 188.192 41.3696 189.882 41.3696Z" fill="url(#paint18_linear_22_207)" fill-opacity="0.3"/>
<path d="M228.078 38.3058C228.078 39.9909 226.701 41.3696 225.018 41.3696C223.335 41.3696 221.958 39.9909 221.958 38.3058C221.958 36.6207 223.335 35.2419 225.018 35.2419C226.727 35.2675 228.078 36.6207 228.078 38.3058Z" fill="url(#paint19_linear_22_207)" fill-opacity="0.3"/>
<path d="M260.18 41.3696C261.87 41.3696 263.24 39.9979 263.24 38.3058C263.24 36.6137 261.87 35.2419 260.18 35.2419C258.49 35.2419 257.12 36.6137 257.12 38.3058C257.12 39.9979 258.49 41.3696 260.18 41.3696Z" fill="url(#paint20_linear_22_207)" fill-opacity="0.3"/>
<path d="M295.316 41.3696C297.006 41.3696 298.376 39.9979 298.376 38.3058C298.376 36.6137 297.006 35.2419 295.316 35.2419C293.626 35.2419 292.256 36.6137 292.256 38.3058C292.256 39.9979 293.626 41.3696 295.316 41.3696Z" fill="url(#paint21_linear_22_207)" fill-opacity="0.3"/>
<path d="M333.512 38.3058C333.512 39.9909 332.135 41.3696 330.453 41.3696C328.77 41.3696 327.393 39.9909 327.393 38.3058C327.393 36.6207 328.77 35.2419 330.453 35.2419C332.135 35.2675 333.512 36.6207 333.512 38.3058Z" fill="url(#paint22_linear_22_207)" fill-opacity="0.3"/>
<path d="M365.589 41.3696C367.279 41.3696 368.649 39.9979 368.649 38.3058C368.649 36.6137 367.279 35.2419 365.589 35.2419C363.899 35.2419 362.529 36.6137 362.529 38.3058C362.529 39.9979 363.899 41.3696 365.589 41.3696Z" fill="url(#paint23_linear_22_207)" fill-opacity="0.3"/>
<path d="M400.725 41.3696C402.415 41.3696 403.785 39.9979 403.785 38.3058C403.785 36.6137 402.415 35.2419 400.725 35.2419C399.035 35.2419 397.665 36.6137 397.665 38.3058C397.665 39.9979 399.035 41.3696 400.725 41.3696Z" fill="url(#paint24_linear_22_207)" fill-opacity="0.3"/>
<path d="M435.861 41.3696C437.551 41.3696 438.921 39.9979 438.921 38.3058C438.921 36.6137 437.551 35.2419 435.861 35.2419C434.171 35.2419 432.802 36.6137 432.802 38.3058C432.802 39.9979 434.171 41.3696 435.861 41.3696Z" fill="url(#paint25_linear_22_207)" fill-opacity="0.3"/>
<path d="M14.2008 75.8122C15.8906 75.8122 17.2605 74.4406 17.2605 72.7484C17.2605 71.0563 15.8906 69.6846 14.2008 69.6846C12.5109 69.6846 11.141 71.0563 11.141 72.7484C11.141 74.4406 12.5109 75.8122 14.2008 75.8122Z" fill="url(#paint26_linear_22_207)" fill-opacity="0.3"/>
<path d="M49.3371 75.8122C51.0269 75.8122 52.3967 74.4406 52.3967 72.7484C52.3967 71.0563 51.0269 69.6846 49.3371 69.6846C47.6472 69.6846 46.2773 71.0563 46.2773 72.7484C46.2773 74.4406 47.6472 75.8122 49.3371 75.8122Z" fill="url(#paint27_linear_22_207)" fill-opacity="0.3"/>
<path d="M84.4732 75.8122C86.1631 75.8122 87.533 74.4406 87.533 72.7484C87.533 71.0563 86.1631 69.6846 84.4732 69.6846C82.7834 69.6846 81.4135 71.0563 81.4135 72.7484C81.4135 74.4406 82.7834 75.8122 84.4732 75.8122Z" fill="url(#paint28_linear_22_207)" fill-opacity="0.3"/>
<path d="M119.61 75.8122C121.299 75.8122 122.669 74.4406 122.669 72.7484C122.669 71.0563 121.299 69.6846 119.61 69.6846C117.92 69.6846 116.55 71.0563 116.55 72.7484C116.55 74.4406 117.92 75.8122 119.61 75.8122Z" fill="url(#paint29_linear_22_207)" fill-opacity="0.3"/>
<path d="M154.746 75.8122C156.436 75.8122 157.806 74.4406 157.806 72.7484C157.806 71.0563 156.436 69.6846 154.746 69.6846C153.056 69.6846 151.686 71.0563 151.686 72.7484C151.686 74.4406 153.056 75.8122 154.746 75.8122Z" fill="url(#paint30_linear_22_207)" fill-opacity="0.3"/>
<path d="M189.882 75.8122C191.572 75.8122 192.942 74.4406 192.942 72.7484C192.942 71.0563 191.572 69.6846 189.882 69.6846C188.192 69.6846 186.822 71.0563 186.822 72.7484C186.822 74.4406 188.192 75.8122 189.882 75.8122Z" fill="url(#paint31_linear_22_207)" fill-opacity="0.3"/>
<path d="M228.078 72.7484C228.078 74.4336 226.701 75.8122 225.018 75.8122C223.335 75.8122 221.958 74.4336 221.958 72.7484C221.958 71.0633 223.335 69.6846 225.018 69.6846C226.727 69.6846 228.078 71.0378 228.078 72.7484Z" fill="url(#paint32_linear_22_207)" fill-opacity="0.3"/>
<path d="M260.18 75.8122C261.87 75.8122 263.24 74.4406 263.24 72.7484C263.24 71.0563 261.87 69.6846 260.18 69.6846C258.49 69.6846 257.12 71.0563 257.12 72.7484C257.12 74.4406 258.49 75.8122 260.18 75.8122Z" fill="url(#paint33_linear_22_207)" fill-opacity="0.3"/>
<path d="M295.316 75.8122C297.006 75.8122 298.376 74.4406 298.376 72.7484C298.376 71.0563 297.006 69.6846 295.316 69.6846C293.626 69.6846 292.256 71.0563 292.256 72.7484C292.256 74.4406 293.626 75.8122 295.316 75.8122Z" fill="url(#paint34_linear_22_207)" fill-opacity="0.3"/>
<path d="M333.512 72.7484C333.512 74.4336 332.135 75.8122 330.453 75.8122C328.77 75.8122 327.393 74.4336 327.393 72.7484C327.393 71.0633 328.77 69.6846 330.453 69.6846C332.135 69.6846 333.512 71.0378 333.512 72.7484Z" fill="url(#paint35_linear_22_207)" fill-opacity="0.3"/>
<path d="M365.589 75.8122C367.279 75.8122 368.649 74.4406 368.649 72.7484C368.649 71.0563 367.279 69.6846 365.589 69.6846C363.899 69.6846 362.529 71.0563 362.529 72.7484C362.529 74.4406 363.899 75.8122 365.589 75.8122Z" fill="url(#paint36_linear_22_207)" fill-opacity="0.3"/>
<path d="M400.725 75.8122C402.415 75.8122 403.785 74.4406 403.785 72.7484C403.785 71.0563 402.415 69.6846 400.725 69.6846C399.035 69.6846 397.665 71.0563 397.665 72.7484C397.665 74.4406 399.035 75.8122 400.725 75.8122Z" fill="url(#paint37_linear_22_207)" fill-opacity="0.3"/>
<path d="M435.861 75.8122C437.551 75.8122 438.921 74.4406 438.921 72.7484C438.921 71.0563 437.551 69.6846 435.861 69.6846C434.171 69.6846 432.802 71.0563 432.802 72.7484C432.802 74.4406 434.171 75.8122 435.861 75.8122Z" fill="url(#paint38_linear_22_207)" fill-opacity="0.3"/>
<path d="M14.2008 110.23C15.8906 110.23 17.2605 108.858 17.2605 107.166C17.2605 105.474 15.8906 104.102 14.2008 104.102C12.5109 104.102 11.141 105.474 11.141 107.166C11.141 108.858 12.5109 110.23 14.2008 110.23Z" fill="url(#paint39_linear_22_207)" fill-opacity="0.3"/>
<path d="M49.3371 110.23C51.0269 110.23 52.3967 108.858 52.3967 107.166C52.3967 105.474 51.0269 104.102 49.3371 104.102C47.6472 104.102 46.2773 105.474 46.2773 107.166C46.2773 108.858 47.6472 110.23 49.3371 110.23Z" fill="url(#paint40_linear_22_207)" fill-opacity="0.3"/>
<path d="M84.4732 110.23C86.1631 110.23 87.533 108.858 87.533 107.166C87.533 105.474 86.1631 104.102 84.4732 104.102C82.7834 104.102 81.4135 105.474 81.4135 107.166C81.4135 108.858 82.7834 110.23 84.4732 110.23Z" fill="url(#paint41_linear_22_207)" fill-opacity="0.3"/>
<path d="M119.61 110.23C121.299 110.23 122.669 108.858 122.669 107.166C122.669 105.474 121.299 104.102 119.61 104.102C117.92 104.102 116.55 105.474 116.55 107.166C116.55 108.858 117.92 110.23 119.61 110.23Z" fill="url(#paint42_linear_22_207)" fill-opacity="0.3"/>
<path d="M154.746 110.23C156.436 110.23 157.806 108.858 157.806 107.166C157.806 105.474 156.436 104.102 154.746 104.102C153.056 104.102 151.686 105.474 151.686 107.166C151.686 108.858 153.056 110.23 154.746 110.23Z" fill="url(#paint43_linear_22_207)" fill-opacity="0.3"/>
<path d="M189.882 110.23C191.572 110.23 192.942 108.858 192.942 107.166C192.942 105.474 191.572 104.102 189.882 104.102C188.192 104.102 186.822 105.474 186.822 107.166C186.822 108.858 188.192 110.23 189.882 110.23Z" fill="url(#paint44_linear_22_207)" fill-opacity="0.3"/>
<path d="M228.078 107.166C228.078 108.851 226.701 110.23 225.018 110.23C223.335 110.23 221.958 108.851 221.958 107.166C221.958 105.481 223.335 104.102 225.018 104.102C226.727 104.102 228.078 105.481 228.078 107.166Z" fill="url(#paint45_linear_22_207)" fill-opacity="0.3"/>
<path d="M260.18 110.23C261.87 110.23 263.24 108.858 263.24 107.166C263.24 105.474 261.87 104.102 260.18 104.102C258.49 104.102 257.12 105.474 257.12 107.166C257.12 108.858 258.49 110.23 260.18 110.23Z" fill="url(#paint46_linear_22_207)" fill-opacity="0.3"/>
<path d="M295.316 110.23C297.006 110.23 298.376 108.858 298.376 107.166C298.376 105.474 297.006 104.102 295.316 104.102C293.626 104.102 292.256 105.474 292.256 107.166C292.256 108.858 293.626 110.23 295.316 110.23Z" fill="url(#paint47_linear_22_207)" fill-opacity="0.3"/>
<path d="M333.512 107.166C333.512 108.851 332.135 110.23 330.453 110.23C328.77 110.23 327.393 108.851 327.393 107.166C327.393 105.481 328.77 104.102 330.453 104.102C332.135 104.102 333.512 105.481 333.512 107.166Z" fill="url(#paint48_linear_22_207)" fill-opacity="0.3"/>
<path d="M365.589 110.23C367.279 110.23 368.649 108.858 368.649 107.166C368.649 105.474 367.279 104.102 365.589 104.102C363.899 104.102 362.529 105.474 362.529 107.166C362.529 108.858 363.899 110.23 365.589 110.23Z" fill="url(#paint49_linear_22_207)" fill-opacity="0.3"/>
<path d="M400.725 110.23C402.415 110.23 403.785 108.858 403.785 107.166C403.785 105.474 402.415 104.102 400.725 104.102C399.035 104.102 397.665 105.474 397.665 107.166C397.665 108.858 399.035 110.23 400.725 110.23Z" fill="url(#paint50_linear_22_207)" fill-opacity="0.3"/>
<path d="M435.861 110.23C437.551 110.23 438.921 108.858 438.921 107.166C438.921 105.474 437.551 104.102 435.861 104.102C434.171 104.102 432.802 105.474 432.802 107.166C432.802 108.858 434.171 110.23 435.861 110.23Z" fill="url(#paint51_linear_22_207)" fill-opacity="0.3"/>
<path d="M14.2008 144.647C15.8906 144.647 17.2605 143.275 17.2605 141.583C17.2605 139.891 15.8906 138.519 14.2008 138.519C12.5109 138.519 11.141 139.891 11.141 141.583C11.141 143.275 12.5109 144.647 14.2008 144.647Z" fill="url(#paint52_linear_22_207)" fill-opacity="0.3"/>
<path d="M49.3371 144.647C51.0269 144.647 52.3967 143.275 52.3967 141.583C52.3967 139.891 51.0269 138.519 49.3371 138.519C47.6472 138.519 46.2773 139.891 46.2773 141.583C46.2773 143.275 47.6472 144.647 49.3371 144.647Z" fill="url(#paint53_linear_22_207)" fill-opacity="0.3"/>
<path d="M84.4732 144.647C86.1631 144.647 87.533 143.275 87.533 141.583C87.533 139.891 86.1631 138.519 84.4732 138.519C82.7834 138.519 81.4135 139.891 81.4135 141.583C81.4135 143.275 82.7834 144.647 84.4732 144.647Z" fill="url(#paint54_linear_22_207)" fill-opacity="0.3"/>
<path d="M119.61 144.647C121.299 144.647 122.669 143.275 122.669 141.583C122.669 139.891 121.299 138.519 119.61 138.519C117.92 138.519 116.55 139.891 116.55 141.583C116.55 143.275 117.92 144.647 119.61 144.647Z" fill="url(#paint55_linear_22_207)" fill-opacity="0.3"/>
<path d="M154.746 144.647C156.436 144.647 157.806 143.275 157.806 141.583C157.806 139.891 156.436 138.519 154.746 138.519C153.056 138.519 151.686 139.891 151.686 141.583C151.686 143.275 153.056 144.647 154.746 144.647Z" fill="url(#paint56_linear_22_207)" fill-opacity="0.3"/>
<path d="M189.882 144.647C191.572 144.647 192.942 143.275 192.942 141.583C192.942 139.891 191.572 138.519 189.882 138.519C188.192 138.519 186.822 139.891 186.822 141.583C186.822 143.275 188.192 144.647 189.882 144.647Z" fill="url(#paint57_linear_22_207)" fill-opacity="0.3"/>
<path d="M228.078 141.583C228.078 143.268 226.701 144.647 225.018 144.647C223.335 144.647 221.958 143.268 221.958 141.583C221.958 139.898 223.335 138.519 225.018 138.519C226.727 138.519 228.078 139.898 228.078 141.583Z" fill="url(#paint58_linear_22_207)" fill-opacity="0.3"/>
<path d="M260.18 144.647C261.87 144.647 263.24 143.275 263.24 141.583C263.24 139.891 261.87 138.519 260.18 138.519C258.49 138.519 257.12 139.891 257.12 141.583C257.12 143.275 258.49 144.647 260.18 144.647Z" fill="url(#paint59_linear_22_207)" fill-opacity="0.3"/>
<path d="M295.316 144.647C297.006 144.647 298.376 143.275 298.376 141.583C298.376 139.891 297.006 138.519 295.316 138.519C293.626 138.519 292.256 139.891 292.256 141.583C292.256 143.275 293.626 144.647 295.316 144.647Z" fill="url(#paint60_linear_22_207)" fill-opacity="0.3"/>
<path d="M333.512 141.583C333.512 143.268 332.135 144.647 330.453 144.647C328.77 144.647 327.393 143.268 327.393 141.583C327.393 139.898 328.77 138.519 330.453 138.519C332.135 138.519 333.512 139.898 333.512 141.583Z" fill="url(#paint61_linear_22_207)" fill-opacity="0.3"/>
<path d="M365.589 144.647C367.279 144.647 368.649 143.275 368.649 141.583C368.649 139.891 367.279 138.519 365.589 138.519C363.899 138.519 362.529 139.891 362.529 141.583C362.529 143.275 363.899 144.647 365.589 144.647Z" fill="url(#paint62_linear_22_207)" fill-opacity="0.3"/>
<path d="M400.725 144.647C402.415 144.647 403.785 143.275 403.785 141.583C403.785 139.891 402.415 138.519 400.725 138.519C399.035 138.519 397.665 139.891 397.665 141.583C397.665 143.275 399.035 144.647 400.725 144.647Z" fill="url(#paint63_linear_22_207)" fill-opacity="0.3"/>
<path d="M435.861 144.647C437.551 144.647 438.921 143.275 438.921 141.583C438.921 139.891 437.551 138.519 435.861 138.519C434.171 138.519 432.802 139.891 432.802 141.583C432.802 143.275 434.171 144.647 435.861 144.647Z" fill="url(#paint64_linear_22_207)" fill-opacity="0.3"/>
<path d="M14.2008 179.064C15.8906 179.064 17.2605 177.692 17.2605 176C17.2605 174.308 15.8906 172.936 14.2008 172.936C12.5109 172.936 11.141 174.308 11.141 176C11.141 177.692 12.5109 179.064 14.2008 179.064Z" fill="url(#paint65_linear_22_207)" fill-opacity="0.3"/>
<path d="M49.3371 179.064C51.0269 179.064 52.3967 177.692 52.3967 176C52.3967 174.308 51.0269 172.936 49.3371 172.936C47.6472 172.936 46.2773 174.308 46.2773 176C46.2773 177.692 47.6472 179.064 49.3371 179.064Z" fill="url(#paint66_linear_22_207)" fill-opacity="0.3"/>
<path d="M84.4732 179.064C86.1631 179.064 87.533 177.692 87.533 176C87.533 174.308 86.1631 172.936 84.4732 172.936C82.7834 172.936 81.4135 174.308 81.4135 176C81.4135 177.692 82.7834 179.064 84.4732 179.064Z" fill="url(#paint67_linear_22_207)" fill-opacity="0.3"/>
<path d="M119.61 179.064C121.299 179.064 122.669 177.692 122.669 176C122.669 174.308 121.299 172.936 119.61 172.936C117.92 172.936 116.55 174.308 116.55 176C116.55 177.692 117.92 179.064 119.61 179.064Z" fill="url(#paint68_linear_22_207)" fill-opacity="0.3"/>
<path d="M154.746 179.064C156.436 179.064 157.806 177.692 157.806 176C157.806 174.308 156.436 172.936 154.746 172.936C153.056 172.936 151.686 174.308 151.686 176C151.686 177.692 153.056 179.064 154.746 179.064Z" fill="url(#paint69_linear_22_207)" fill-opacity="0.3"/>
<path d="M189.882 179.064C191.572 179.064 192.942 177.692 192.942 176C192.942 174.308 191.572 172.936 189.882 172.936C188.192 172.936 186.822 174.308 186.822 176C186.822 177.692 188.192 179.064 189.882 179.064Z" fill="url(#paint70_linear_22_207)" fill-opacity="0.3"/>
<path d="M228.078 176C228.078 177.685 226.701 179.064 225.018 179.064C223.335 179.064 221.958 177.685 221.958 176C221.958 174.315 223.335 172.936 225.018 172.936C226.727 172.936 228.078 174.315 228.078 176Z" fill="url(#paint71_linear_22_207)" fill-opacity="0.3"/>
<path d="M260.18 179.064C261.87 179.064 263.24 177.692 263.24 176C263.24 174.308 261.87 172.936 260.18 172.936C258.49 172.936 257.12 174.308 257.12 176C257.12 177.692 258.49 179.064 260.18 179.064Z" fill="url(#paint72_linear_22_207)" fill-opacity="0.3"/>
<path d="M295.316 179.064C297.006 179.064 298.376 177.692 298.376 176C298.376 174.308 297.006 172.936 295.316 172.936C293.626 172.936 292.256 174.308 292.256 176C292.256 177.692 293.626 179.064 295.316 179.064Z" fill="url(#paint73_linear_22_207)" fill-opacity="0.3"/>
<path d="M333.512 176C333.512 177.685 332.135 179.064 330.453 179.064C328.77 179.064 327.393 177.685 327.393 176C327.393 174.315 328.77 172.936 330.453 172.936C332.135 172.936 333.512 174.315 333.512 176Z" fill="url(#paint74_linear_22_207)" fill-opacity="0.3"/>
<path d="M365.589 179.064C367.279 179.064 368.649 177.692 368.649 176C368.649 174.308 367.279 172.936 365.589 172.936C363.899 172.936 362.529 174.308 362.529 176C362.529 177.692 363.899 179.064 365.589 179.064Z" fill="url(#paint75_linear_22_207)" fill-opacity="0.3"/>
<path d="M400.725 179.064C402.415 179.064 403.785 177.692 403.785 176C403.785 174.308 402.415 172.936 400.725 172.936C399.035 172.936 397.665 174.308 397.665 176C397.665 177.692 399.035 179.064 400.725 179.064Z" fill="url(#paint76_linear_22_207)" fill-opacity="0.3"/>
<path d="M435.861 179.064C437.551 179.064 438.921 177.692 438.921 176C438.921 174.308 437.551 172.936 435.861 172.936C434.171 172.936 432.802 174.308 432.802 176C432.802 177.692 434.171 179.064 435.861 179.064Z" fill="url(#paint77_linear_22_207)" fill-opacity="0.3"/>
<path d="M14.2008 213.481C15.8906 213.481 17.2605 212.11 17.2605 210.417C17.2605 208.725 15.8906 207.354 14.2008 207.354C12.5109 207.354 11.141 208.725 11.141 210.417C11.141 212.11 12.5109 213.481 14.2008 213.481Z" fill="url(#paint78_linear_22_207)" fill-opacity="0.3"/>
<path d="M49.3371 213.481C51.0269 213.481 52.3967 212.11 52.3967 210.417C52.3967 208.725 51.0269 207.354 49.3371 207.354C47.6472 207.354 46.2773 208.725 46.2773 210.417C46.2773 212.11 47.6472 213.481 49.3371 213.481Z" fill="url(#paint79_linear_22_207)" fill-opacity="0.3"/>
<path d="M84.4732 213.481C86.1631 213.481 87.533 212.11 87.533 210.417C87.533 208.725 86.1631 207.354 84.4732 207.354C82.7834 207.354 81.4135 208.725 81.4135 210.417C81.4135 212.11 82.7834 213.481 84.4732 213.481Z" fill="url(#paint80_linear_22_207)" fill-opacity="0.3"/>
<path d="M119.61 213.481C121.299 213.481 122.669 212.11 122.669 210.417C122.669 208.725 121.299 207.354 119.61 207.354C117.92 207.354 116.55 208.725 116.55 210.417C116.55 212.11 117.92 213.481 119.61 213.481Z" fill="url(#paint81_linear_22_207)" fill-opacity="0.3"/>
<path d="M154.746 213.481C156.436 213.481 157.806 212.11 157.806 210.417C157.806 208.725 156.436 207.354 154.746 207.354C153.056 207.354 151.686 208.725 151.686 210.417C151.686 212.11 153.056 213.481 154.746 213.481Z" fill="url(#paint82_linear_22_207)" fill-opacity="0.3"/>
<path d="M189.882 213.481C191.572 213.481 192.942 212.11 192.942 210.417C192.942 208.725 191.572 207.354 189.882 207.354C188.192 207.354 186.822 208.725 186.822 210.417C186.822 212.11 188.192 213.481 189.882 213.481Z" fill="url(#paint83_linear_22_207)" fill-opacity="0.3"/>
<path d="M228.078 210.417C228.078 212.103 226.701 213.481 225.018 213.481C223.335 213.481 221.958 212.103 221.958 210.417C221.958 208.732 223.335 207.354 225.018 207.354C226.727 207.379 228.078 208.732 228.078 210.417Z" fill="url(#paint84_linear_22_207)" fill-opacity="0.3"/>
<path d="M260.18 213.481C261.87 213.481 263.24 212.11 263.24 210.417C263.24 208.725 261.87 207.354 260.18 207.354C258.49 207.354 257.12 208.725 257.12 210.417C257.12 212.11 258.49 213.481 260.18 213.481Z" fill="url(#paint85_linear_22_207)" fill-opacity="0.3"/>
<path d="M295.316 213.481C297.006 213.481 298.376 212.11 298.376 210.417C298.376 208.725 297.006 207.354 295.316 207.354C293.626 207.354 292.256 208.725 292.256 210.417C292.256 212.11 293.626 213.481 295.316 213.481Z" fill="url(#paint86_linear_22_207)" fill-opacity="0.3"/>
<path d="M333.512 210.417C333.512 212.103 332.135 213.481 330.453 213.481C328.77 213.481 327.393 212.103 327.393 210.417C327.393 208.732 328.77 207.354 330.453 207.354C332.135 207.379 333.512 208.732 333.512 210.417Z" fill="url(#paint87_linear_22_207)" fill-opacity="0.3"/>
<path d="M365.589 213.481C367.279 213.481 368.649 212.11 368.649 210.417C368.649 208.725 367.279 207.354 365.589 207.354C363.899 207.354 362.529 208.725 362.529 210.417C362.529 212.11 363.899 213.481 365.589 213.481Z" fill="url(#paint88_linear_22_207)" fill-opacity="0.3"/>
<path d="M400.725 213.481C402.415 213.481 403.785 212.11 403.785 210.417C403.785 208.725 402.415 207.354 400.725 207.354C399.035 207.354 397.665 208.725 397.665 210.417C397.665 212.11 399.035 213.481 400.725 213.481Z" fill="url(#paint89_linear_22_207)" fill-opacity="0.3"/>
<path d="M435.861 213.481C437.551 213.481 438.921 212.11 438.921 210.417C438.921 208.725 437.551 207.354 435.861 207.354C434.171 207.354 432.802 208.725 432.802 210.417C432.802 212.11 434.171 213.481 435.861 213.481Z" fill="url(#paint90_linear_22_207)" fill-opacity="0.3"/>
<path d="M14.2008 247.924C15.8906 247.924 17.2605 246.552 17.2605 244.86C17.2605 243.168 15.8906 241.796 14.2008 241.796C12.5109 241.796 11.141 243.168 11.141 244.86C11.141 246.552 12.5109 247.924 14.2008 247.924Z" fill="url(#paint91_linear_22_207)" fill-opacity="0.3"/>
<path d="M49.3371 247.924C51.0269 247.924 52.3967 246.552 52.3967 244.86C52.3967 243.168 51.0269 241.796 49.3371 241.796C47.6472 241.796 46.2773 243.168 46.2773 244.86C46.2773 246.552 47.6472 247.924 49.3371 247.924Z" fill="url(#paint92_linear_22_207)" fill-opacity="0.3"/>
<path d="M84.4732 247.924C86.1631 247.924 87.533 246.552 87.533 244.86C87.533 243.168 86.1631 241.796 84.4732 241.796C82.7834 241.796 81.4135 243.168 81.4135 244.86C81.4135 246.552 82.7834 247.924 84.4732 247.924Z" fill="url(#paint93_linear_22_207)" fill-opacity="0.3"/>
<path d="M119.61 247.924C121.299 247.924 122.669 246.552 122.669 244.86C122.669 243.168 121.299 241.796 119.61 241.796C117.92 241.796 116.55 243.168 116.55 244.86C116.55 246.552 117.92 247.924 119.61 247.924Z" fill="url(#paint94_linear_22_207)" fill-opacity="0.3"/>
<path d="M154.746 247.924C156.436 247.924 157.806 246.552 157.806 244.86C157.806 243.168 156.436 241.796 154.746 241.796C153.056 241.796 151.686 243.168 151.686 244.86C151.686 246.552 153.056 247.924 154.746 247.924Z" fill="url(#paint95_linear_22_207)" fill-opacity="0.3"/>
<path d="M189.882 247.924C191.572 247.924 192.942 246.552 192.942 244.86C192.942 243.168 191.572 241.796 189.882 241.796C188.192 241.796 186.822 243.168 186.822 244.86C186.822 246.552 188.192 247.924 189.882 247.924Z" fill="url(#paint96_linear_22_207)" fill-opacity="0.3"/>
<path d="M228.078 244.86C228.078 246.545 226.701 247.924 225.018 247.924C223.335 247.924 221.958 246.545 221.958 244.86C221.958 243.175 223.335 241.796 225.018 241.796C226.727 241.796 228.078 243.149 228.078 244.86Z" fill="url(#paint97_linear_22_207)" fill-opacity="0.3"/>
<path d="M260.18 247.924C261.87 247.924 263.24 246.552 263.24 244.86C263.24 243.168 261.87 241.796 260.18 241.796C258.49 241.796 257.12 243.168 257.12 244.86C257.12 246.552 258.49 247.924 260.18 247.924Z" fill="url(#paint98_linear_22_207)" fill-opacity="0.3"/>
<path d="M295.316 247.924C297.006 247.924 298.376 246.552 298.376 244.86C298.376 243.168 297.006 241.796 295.316 241.796C293.626 241.796 292.256 243.168 292.256 244.86C292.256 246.552 293.626 247.924 295.316 247.924Z" fill="url(#paint99_linear_22_207)" fill-opacity="0.3"/>
<path d="M333.512 244.86C333.512 246.545 332.135 247.924 330.453 247.924C328.77 247.924 327.393 246.545 327.393 244.86C327.393 243.175 328.77 241.796 330.453 241.796C332.135 241.796 333.512 243.149 333.512 244.86Z" fill="url(#paint100_linear_22_207)" fill-opacity="0.3"/>
<path d="M365.589 247.924C367.279 247.924 368.649 246.552 368.649 244.86C368.649 243.168 367.279 241.796 365.589 241.796C363.899 241.796 362.529 243.168 362.529 244.86C362.529 246.552 363.899 247.924 365.589 247.924Z" fill="url(#paint101_linear_22_207)" fill-opacity="0.3"/>
<path d="M400.725 247.924C402.415 247.924 403.785 246.552 403.785 244.86C403.785 243.168 402.415 241.796 400.725 241.796C399.035 241.796 397.665 243.168 397.665 244.86C397.665 246.552 399.035 247.924 400.725 247.924Z" fill="url(#paint102_linear_22_207)" fill-opacity="0.3"/>
<path d="M435.861 247.924C437.551 247.924 438.921 246.552 438.921 244.86C438.921 243.168 437.551 241.796 435.861 241.796C434.171 241.796 432.802 243.168 432.802 244.86C432.802 246.552 434.171 247.924 435.861 247.924Z" fill="url(#paint103_linear_22_207)" fill-opacity="0.3"/>
<path d="M14.2008 282.341C15.8906 282.341 17.2605 280.969 17.2605 279.277C17.2605 277.585 15.8906 276.213 14.2008 276.213C12.5109 276.213 11.141 277.585 11.141 279.277C11.141 280.969 12.5109 282.341 14.2008 282.341Z" fill="url(#paint104_linear_22_207)" fill-opacity="0.3"/>
<path d="M49.3371 282.341C51.0269 282.341 52.3967 280.969 52.3967 279.277C52.3967 277.585 51.0269 276.213 49.3371 276.213C47.6472 276.213 46.2773 277.585 46.2773 279.277C46.2773 280.969 47.6472 282.341 49.3371 282.341Z" fill="url(#paint105_linear_22_207)" fill-opacity="0.3"/>
<path d="M84.4732 282.341C86.1631 282.341 87.533 280.969 87.533 279.277C87.533 277.585 86.1631 276.213 84.4732 276.213C82.7834 276.213 81.4135 277.585 81.4135 279.277C81.4135 280.969 82.7834 282.341 84.4732 282.341Z" fill="url(#paint106_linear_22_207)" fill-opacity="0.3"/>
<path d="M119.61 282.341C121.299 282.341 122.669 280.969 122.669 279.277C122.669 277.585 121.299 276.213 119.61 276.213C117.92 276.213 116.55 277.585 116.55 279.277C116.55 280.969 117.92 282.341 119.61 282.341Z" fill="url(#paint107_linear_22_207)" fill-opacity="0.3"/>
<path d="M154.746 282.341C156.436 282.341 157.806 280.969 157.806 279.277C157.806 277.585 156.436 276.213 154.746 276.213C153.056 276.213 151.686 277.585 151.686 279.277C151.686 280.969 153.056 282.341 154.746 282.341Z" fill="url(#paint108_linear_22_207)" fill-opacity="0.3"/>
<path d="M189.882 282.341C191.572 282.341 192.942 280.969 192.942 279.277C192.942 277.585 191.572 276.213 189.882 276.213C188.192 276.213 186.822 277.585 186.822 279.277C186.822 280.969 188.192 282.341 189.882 282.341Z" fill="url(#paint109_linear_22_207)" fill-opacity="0.3"/>
<path d="M228.078 279.277C228.078 280.962 226.701 282.341 225.018 282.341C223.335 282.341 221.958 280.962 221.958 279.277C221.958 277.592 223.335 276.213 225.018 276.213C226.727 276.213 228.078 277.592 228.078 279.277Z" fill="url(#paint110_linear_22_207)" fill-opacity="0.3"/>
<path d="M260.18 282.341C261.87 282.341 263.24 280.969 263.24 279.277C263.24 277.585 261.87 276.213 260.18 276.213C258.49 276.213 257.12 277.585 257.12 279.277C257.12 280.969 258.49 282.341 260.18 282.341Z" fill="url(#paint111_linear_22_207)" fill-opacity="0.3"/>
<path d="M295.316 282.341C297.006 282.341 298.376 280.969 298.376 279.277C298.376 277.585 297.006 276.213 295.316 276.213C293.626 276.213 292.256 277.585 292.256 279.277C292.256 280.969 293.626 282.341 295.316 282.341Z" fill="url(#paint112_linear_22_207)" fill-opacity="0.3"/>
<path d="M333.512 279.277C333.512 280.962 332.135 282.341 330.453 282.341C328.77 282.341 327.393 280.962 327.393 279.277C327.393 277.592 328.77 276.213 330.453 276.213C332.135 276.213 333.512 277.592 333.512 279.277Z" fill="url(#paint113_linear_22_207)" fill-opacity="0.3"/>
<path d="M365.589 282.341C367.279 282.341 368.649 280.969 368.649 279.277C368.649 277.585 367.279 276.213 365.589 276.213C363.899 276.213 362.529 277.585 362.529 279.277C362.529 280.969 363.899 282.341 365.589 282.341Z" fill="url(#paint114_linear_22_207)" fill-opacity="0.3"/>
<path d="M400.725 282.341C402.415 282.341 403.785 280.969 403.785 279.277C403.785 277.585 402.415 276.213 400.725 276.213C399.035 276.213 397.665 277.585 397.665 279.277C397.665 280.969 399.035 282.341 400.725 282.341Z" fill="url(#paint115_linear_22_207)" fill-opacity="0.3"/>
<path d="M435.861 282.341C437.551 282.341 438.921 280.969 438.921 279.277C438.921 277.585 437.551 276.213 435.861 276.213C434.171 276.213 432.802 277.585 432.802 279.277C432.802 280.969 434.171 282.341 435.861 282.341Z" fill="url(#paint116_linear_22_207)" fill-opacity="0.3"/>
<path d="M14.2008 316.758C15.8906 316.758 17.2605 315.387 17.2605 313.694C17.2605 312.002 15.8906 310.631 14.2008 310.631C12.5109 310.631 11.141 312.002 11.141 313.694C11.141 315.387 12.5109 316.758 14.2008 316.758Z" fill="url(#paint117_linear_22_207)" fill-opacity="0.3"/>
<path d="M49.3371 316.758C51.0269 316.758 52.3967 315.387 52.3967 313.694C52.3967 312.002 51.0269 310.631 49.3371 310.631C47.6472 310.631 46.2773 312.002 46.2773 313.694C46.2773 315.387 47.6472 316.758 49.3371 316.758Z" fill="url(#paint118_linear_22_207)" fill-opacity="0.3"/>
<path d="M84.4732 316.758C86.1631 316.758 87.533 315.387 87.533 313.694C87.533 312.002 86.1631 310.631 84.4732 310.631C82.7834 310.631 81.4135 312.002 81.4135 313.694C81.4135 315.387 82.7834 316.758 84.4732 316.758Z" fill="url(#paint119_linear_22_207)" fill-opacity="0.3"/>
<path d="M119.61 316.758C121.299 316.758 122.669 315.387 122.669 313.694C122.669 312.002 121.299 310.631 119.61 310.631C117.92 310.631 116.55 312.002 116.55 313.694C116.55 315.387 117.92 316.758 119.61 316.758Z" fill="url(#paint120_linear_22_207)" fill-opacity="0.3"/>
<path d="M154.746 316.758C156.436 316.758 157.806 315.387 157.806 313.694C157.806 312.002 156.436 310.631 154.746 310.631C153.056 310.631 151.686 312.002 151.686 313.694C151.686 315.387 153.056 316.758 154.746 316.758Z" fill="url(#paint121_linear_22_207)" fill-opacity="0.3"/>
<path d="M189.882 316.758C191.572 316.758 192.942 315.387 192.942 313.694C192.942 312.002 191.572 310.631 189.882 310.631C188.192 310.631 186.822 312.002 186.822 313.694C186.822 315.387 188.192 316.758 189.882 316.758Z" fill="url(#paint122_linear_22_207)" fill-opacity="0.3"/>
<path d="M228.078 313.694C228.078 315.38 226.701 316.758 225.018 316.758C223.335 316.758 221.958 315.38 221.958 313.694C221.958 312.009 223.335 310.631 225.018 310.631C226.727 310.631 228.078 312.009 228.078 313.694Z" fill="url(#paint123_linear_22_207)" fill-opacity="0.3"/>
<path d="M260.18 316.758C261.87 316.758 263.24 315.387 263.24 313.694C263.24 312.002 261.87 310.631 260.18 310.631C258.49 310.631 257.12 312.002 257.12 313.694C257.12 315.387 258.49 316.758 260.18 316.758Z" fill="url(#paint124_linear_22_207)" fill-opacity="0.3"/>
<path d="M295.316 316.758C297.006 316.758 298.376 315.387 298.376 313.694C298.376 312.002 297.006 310.631 295.316 310.631C293.626 310.631 292.256 312.002 292.256 313.694C292.256 315.387 293.626 316.758 295.316 316.758Z" fill="url(#paint125_linear_22_207)" fill-opacity="0.3"/>
<path d="M333.512 313.694C333.512 315.38 332.135 316.758 330.453 316.758C328.77 316.758 327.393 315.38 327.393 313.694C327.393 312.009 328.77 310.631 330.453 310.631C332.135 310.631 333.512 312.009 333.512 313.694Z" fill="url(#paint126_linear_22_207)" fill-opacity="0.3"/>
<path d="M365.589 316.758C367.279 316.758 368.649 315.387 368.649 313.694C368.649 312.002 367.279 310.631 365.589 310.631C363.899 310.631 362.529 312.002 362.529 313.694C362.529 315.387 363.899 316.758 365.589 316.758Z" fill="url(#paint127_linear_22_207)" fill-opacity="0.3"/>
<path d="M400.725 316.758C402.415 316.758 403.785 315.387 403.785 313.694C403.785 312.002 402.415 310.631 400.725 310.631C399.035 310.631 397.665 312.002 397.665 313.694C397.665 315.387 399.035 316.758 400.725 316.758Z" fill="url(#paint128_linear_22_207)" fill-opacity="0.3"/>
<path d="M435.861 316.758C437.551 316.758 438.921 315.387 438.921 313.694C438.921 312.002 437.551 310.631 435.861 310.631C434.171 310.631 432.802 312.002 432.802 313.694C432.802 315.387 434.171 316.758 435.861 316.758Z" fill="url(#paint129_linear_22_207)" fill-opacity="0.3"/>
<path d="M14.2008 351.176C15.8906 351.176 17.2605 349.804 17.2605 348.112C17.2605 346.42 15.8906 345.048 14.2008 345.048C12.5109 345.048 11.141 346.42 11.141 348.112C11.141 349.804 12.5109 351.176 14.2008 351.176Z" fill="url(#paint130_linear_22_207)" fill-opacity="0.3"/>
<path d="M49.3371 351.176C51.0269 351.176 52.3967 349.804 52.3967 348.112C52.3967 346.42 51.0269 345.048 49.3371 345.048C47.6472 345.048 46.2773 346.42 46.2773 348.112C46.2773 349.804 47.6472 351.176 49.3371 351.176Z" fill="url(#paint131_linear_22_207)" fill-opacity="0.3"/>
<path d="M84.4732 351.176C86.1631 351.176 87.533 349.804 87.533 348.112C87.533 346.42 86.1631 345.048 84.4732 345.048C82.7834 345.048 81.4135 346.42 81.4135 348.112C81.4135 349.804 82.7834 351.176 84.4732 351.176Z" fill="url(#paint132_linear_22_207)" fill-opacity="0.3"/>
<path d="M119.61 351.176C121.299 351.176 122.669 349.804 122.669 348.112C122.669 346.42 121.299 345.048 119.61 345.048C117.92 345.048 116.55 346.42 116.55 348.112C116.55 349.804 117.92 351.176 119.61 351.176Z" fill="url(#paint133_linear_22_207)" fill-opacity="0.3"/>
<path d="M154.746 351.176C156.436 351.176 157.806 349.804 157.806 348.112C157.806 346.42 156.436 345.048 154.746 345.048C153.056 345.048 151.686 346.42 151.686 348.112C151.686 349.804 153.056 351.176 154.746 351.176Z" fill="url(#paint134_linear_22_207)" fill-opacity="0.3"/>
<path d="M189.882 351.176C191.572 351.176 192.942 349.804 192.942 348.112C192.942 346.42 191.572 345.048 189.882 345.048C188.192 345.048 186.822 346.42 186.822 348.112C186.822 349.804 188.192 351.176 189.882 351.176Z" fill="url(#paint135_linear_22_207)" fill-opacity="0.3"/>
<path d="M228.078 348.112C228.078 349.797 226.701 351.176 225.018 351.176C223.335 351.176 221.958 349.797 221.958 348.112C221.958 346.427 223.335 345.048 225.018 345.048C226.727 345.048 228.078 346.427 228.078 348.112Z" fill="url(#paint136_linear_22_207)" fill-opacity="0.3"/>
<path d="M260.18 351.176C261.87 351.176 263.24 349.804 263.24 348.112C263.24 346.42 261.87 345.048 260.18 345.048C258.49 345.048 257.12 346.42 257.12 348.112C257.12 349.804 258.49 351.176 260.18 351.176Z" fill="url(#paint137_linear_22_207)" fill-opacity="0.3"/>
<path d="M295.316 351.176C297.006 351.176 298.376 349.804 298.376 348.112C298.376 346.42 297.006 345.048 295.316 345.048C293.626 345.048 292.256 346.42 292.256 348.112C292.256 349.804 293.626 351.176 295.316 351.176Z" fill="url(#paint138_linear_22_207)" fill-opacity="0.3"/>
<path d="M333.512 348.112C333.512 349.797 332.135 351.176 330.453 351.176C328.77 351.176 327.393 349.797 327.393 348.112C327.393 346.427 328.77 345.048 330.453 345.048C332.135 345.048 333.512 346.427 333.512 348.112Z" fill="url(#paint139_linear_22_207)" fill-opacity="0.3"/>
<path d="M365.589 351.176C367.279 351.176 368.649 349.804 368.649 348.112C368.649 346.42 367.279 345.048 365.589 345.048C363.899 345.048 362.529 346.42 362.529 348.112C362.529 349.804 363.899 351.176 365.589 351.176Z" fill="url(#paint140_linear_22_207)" fill-opacity="0.3"/>
<path d="M400.725 351.176C402.415 351.176 403.785 349.804 403.785 348.112C403.785 346.42 402.415 345.048 400.725 345.048C399.035 345.048 397.665 346.42 397.665 348.112C397.665 349.804 399.035 351.176 400.725 351.176Z" fill="url(#paint141_linear_22_207)" fill-opacity="0.3"/>
<path d="M435.861 351.176C437.551 351.176 438.921 349.804 438.921 348.112C438.921 346.42 437.551 345.048 435.861 345.048C434.171 345.048 432.802 346.42 432.802 348.112C432.802 349.804 434.171 351.176 435.861 351.176Z" fill="url(#paint142_linear_22_207)" fill-opacity="0.3"/>
<defs>
<linearGradient id="paint0_linear_22_207" x1="11.141" y1="0.824707" x2="17.6178" y2="1.22897" gradientUnits="userSpaceOnUse">
<stop stop-color="#81BD92"/>
<stop offset="1" stop-color="#BEF8CE"/>
</linearGradient>
<linearGradient id="paint1_linear_22_207" x1="46.2773" y1="0.824707" x2="52.7539" y2="1.22895" gradientUnits="userSpaceOnUse">
<stop stop-color="#81BD92"/>
<stop offset="1" stop-color="#BEF8CE"/>
</linearGradient>
<linearGradient id="paint2_linear_22_207" x1="81.4135" y1="0.824707" x2="87.8903" y2="1.22897" gradientUnits="userSpaceOnUse">
<stop stop-color="#81BD92"/>
<stop offset="1" stop-color="#BEF8CE"/>
</linearGradient>
<linearGradient id="paint3_linear_22_207" x1="116.55" y1="0.824707" x2="123.027" y2="1.22897" gradientUnits="userSpaceOnUse">
<stop stop-color="#81BD92"/>
<stop offset="1" stop-color="#BEF8CE"/>
</linearGradient>
<linearGradient id="paint4_linear_22_207" x1="151.686" y1="0.824707" x2="158.163" y2="1.22897" gradientUnits="userSpaceOnUse">
<stop stop-color="#81BD92"/>
<stop offset="1" stop-color="#BEF8CE"/>
</linearGradient>
<linearGradient id="paint5_linear_22_207" x1="186.822" y1="0.824707" x2="193.299" y2="1.22897" gradientUnits="userSpaceOnUse">
<stop stop-color="#81BD92"/>
<stop offset="1" stop-color="#BEF8CE"/>
</linearGradient>
<linearGradient id="paint6_linear_22_207" x1="221.958" y1="0.824707" x2="228.435" y2="1.22897" gradientUnits="userSpaceOnUse">
<stop stop-color="#81BD92"/>
<stop offset="1" stop-color="#BEF8CE"/>
</linearGradient>
<linearGradient id="paint7_linear_22_207" x1="257.12" y1="0.824707" x2="263.597" y2="1.22895" gradientUnits="userSpaceOnUse">
<stop stop-color="#81BD92"/>
<stop offset="1" stop-color="#BEF8CE"/>
</linearGradient>
<linearGradient id="paint8_linear_22_207" x1="292.256" y1="0.824707" x2="298.733" y2="1.22897" gradientUnits="userSpaceOnUse">
<stop stop-color="#81BD92"/>
<stop offset="1" stop-color="#BEF8CE"/>
</linearGradient>
<linearGradient id="paint9_linear_22_207" x1="327.393" y1="0.824707" x2="333.869" y2="1.22895" gradientUnits="userSpaceOnUse">
<stop stop-color="#81BD92"/>
<stop offset="1" stop-color="#BEF8CE"/>
</linearGradient>
<linearGradient id="paint10_linear_22_207" x1="362.529" y1="0.824707" x2="369.006" y2="1.22897" gradientUnits="userSpaceOnUse">
<stop stop-color="#81BD92"/>
<stop offset="1" stop-color="#BEF8CE"/>
</linearGradient>
<linearGradient id="paint11_linear_22_207" x1="397.665" y1="0.824707" x2="404.142" y2="1.22897" gradientUnits="userSpaceOnUse">
<stop stop-color="#81BD92"/>
<stop offset="1" stop-color="#BEF8CE"/>
</linearGradient>
<linearGradient id="paint12_linear_22_207" x1="432.802" y1="0.824707" x2="439.278" y2="1.22897" gradientUnits="userSpaceOnUse">
<stop stop-color="#81BD92"/>
<stop offset="1" stop-color="#BEF8CE"/>
</linearGradient>
<linearGradient id="paint13_linear_22_207" x1="11.141" y1="35.2419" x2="17.6178" y2="35.6462" gradientUnits="userSpaceOnUse">
<stop stop-color="#81BD92"/>
<stop offset="1" stop-color="#BEF8CE"/>
</linearGradient>
<linearGradient id="paint14_linear_22_207" x1="46.2773" y1="35.2419" x2="52.7539" y2="35.6462" gradientUnits="userSpaceOnUse">
<stop stop-color="#81BD92"/>
<stop offset="1" stop-color="#BEF8CE"/>
</linearGradient>
<linearGradient id="paint15_linear_22_207" x1="81.4135" y1="35.2419" x2="87.8903" y2="35.6462" gradientUnits="userSpaceOnUse">
<stop stop-color="#81BD92"/>
<stop offset="1" stop-color="#BEF8CE"/>
</linearGradient>
<linearGradient id="paint16_linear_22_207" x1="116.55" y1="35.2419" x2="123.027" y2="35.6462" gradientUnits="userSpaceOnUse">
<stop stop-color="#81BD92"/>
<stop offset="1" stop-color="#BEF8CE"/>
</linearGradient>
<linearGradient id="paint17_linear_22_207" x1="151.686" y1="35.2419" x2="158.163" y2="35.6462" gradientUnits="userSpaceOnUse">
<stop stop-color="#81BD92"/>
<stop offset="1" stop-color="#BEF8CE"/>
</linearGradient>
<linearGradient id="paint18_linear_22_207" x1="186.822" y1="35.2419" x2="193.299" y2="35.6462" gradientUnits="userSpaceOnUse">
<stop stop-color="#81BD92"/>
<stop offset="1" stop-color="#BEF8CE"/>
</linearGradient>
<linearGradient id="paint19_linear_22_207" x1="221.958" y1="35.2419" x2="228.435" y2="35.6462" gradientUnits="userSpaceOnUse">
<stop stop-color="#81BD92"/>
<stop offset="1" stop-color="#BEF8CE"/>
</linearGradient>
<linearGradient id="paint20_linear_22_207" x1="257.12" y1="35.2419" x2="263.597" y2="35.6462" gradientUnits="userSpaceOnUse">
<stop stop-color="#81BD92"/>
<stop offset="1" stop-color="#BEF8CE"/>
</linearGradient>
<linearGradient id="paint21_linear_22_207" x1="292.256" y1="35.2419" x2="298.733" y2="35.6462" gradientUnits="userSpaceOnUse">
<stop stop-color="#81BD92"/>
<stop offset="1" stop-color="#BEF8CE"/>
</linearGradient>
<linearGradient id="paint22_linear_22_207" x1="327.393" y1="35.2419" x2="333.869" y2="35.6462" gradientUnits="userSpaceOnUse">
<stop stop-color="#81BD92"/>
<stop offset="1" stop-color="#BEF8CE"/>
</linearGradient>
<linearGradient id="paint23_linear_22_207" x1="362.529" y1="35.2419" x2="369.006" y2="35.6462" gradientUnits="userSpaceOnUse">
<stop stop-color="#81BD92"/>
<stop offset="1" stop-color="#BEF8CE"/>
</linearGradient>
<linearGradient id="paint24_linear_22_207" x1="397.665" y1="35.2419" x2="404.142" y2="35.6462" gradientUnits="userSpaceOnUse">
<stop stop-color="#81BD92"/>
<stop offset="1" stop-color="#BEF8CE"/>
</linearGradient>
<linearGradient id="paint25_linear_22_207" x1="432.802" y1="35.2419" x2="439.278" y2="35.6462" gradientUnits="userSpaceOnUse">
<stop stop-color="#81BD92"/>
<stop offset="1" stop-color="#BEF8CE"/>
</linearGradient>
<linearGradient id="paint26_linear_22_207" x1="11.141" y1="69.6846" x2="17.6178" y2="70.0888" gradientUnits="userSpaceOnUse">
<stop stop-color="#81BD92"/>
<stop offset="1" stop-color="#BEF8CE"/>
</linearGradient>
<linearGradient id="paint27_linear_22_207" x1="46.2773" y1="69.6846" x2="52.7539" y2="70.0888" gradientUnits="userSpaceOnUse">
<stop stop-color="#81BD92"/>
<stop offset="1" stop-color="#BEF8CE"/>
</linearGradient>
<linearGradient id="paint28_linear_22_207" x1="81.4135" y1="69.6846" x2="87.8903" y2="70.0888" gradientUnits="userSpaceOnUse">
<stop stop-color="#81BD92"/>
<stop offset="1" stop-color="#BEF8CE"/>
</linearGradient>
<linearGradient id="paint29_linear_22_207" x1="116.55" y1="69.6846" x2="123.027" y2="70.0888" gradientUnits="userSpaceOnUse">
<stop stop-color="#81BD92"/>
<stop offset="1" stop-color="#BEF8CE"/>
</linearGradient>
<linearGradient id="paint30_linear_22_207" x1="151.686" y1="69.6846" x2="158.163" y2="70.0888" gradientUnits="userSpaceOnUse">
<stop stop-color="#81BD92"/>
<stop offset="1" stop-color="#BEF8CE"/>
</linearGradient>
<linearGradient id="paint31_linear_22_207" x1="186.822" y1="69.6846" x2="193.299" y2="70.0888" gradientUnits="userSpaceOnUse">
<stop stop-color="#81BD92"/>
<stop offset="1" stop-color="#BEF8CE"/>
</linearGradient>
<linearGradient id="paint32_linear_22_207" x1="221.958" y1="69.6846" x2="228.435" y2="70.0888" gradientUnits="userSpaceOnUse">
<stop stop-color="#81BD92"/>
<stop offset="1" stop-color="#BEF8CE"/>
</linearGradient>
<linearGradient id="paint33_linear_22_207" x1="257.12" y1="69.6846" x2="263.597" y2="70.0888" gradientUnits="userSpaceOnUse">
<stop stop-color="#81BD92"/>
<stop offset="1" stop-color="#BEF8CE"/>
</linearGradient>
<linearGradient id="paint34_linear_22_207" x1="292.256" y1="69.6846" x2="298.733" y2="70.0888" gradientUnits="userSpaceOnUse">
<stop stop-color="#81BD92"/>
<stop offset="1" stop-color="#BEF8CE"/>
</linearGradient>
<linearGradient id="paint35_linear_22_207" x1="327.393" y1="69.6846" x2="333.869" y2="70.0888" gradientUnits="userSpaceOnUse">
<stop stop-color="#81BD92"/>
<stop offset="1" stop-color="#BEF8CE"/>
</linearGradient>
<linearGradient id="paint36_linear_22_207" x1="362.529" y1="69.6846" x2="369.006" y2="70.0888" gradientUnits="userSpaceOnUse">
<stop stop-color="#81BD92"/>
<stop offset="1" stop-color="#BEF8CE"/>
</linearGradient>
<linearGradient id="paint37_linear_22_207" x1="397.665" y1="69.6846" x2="404.142" y2="70.0888" gradientUnits="userSpaceOnUse">
<stop stop-color="#81BD92"/>
<stop offset="1" stop-color="#BEF8CE"/>
</linearGradient>
<linearGradient id="paint38_linear_22_207" x1="432.802" y1="69.6846" x2="439.278" y2="70.0888" gradientUnits="userSpaceOnUse">
<stop stop-color="#81BD92"/>
<stop offset="1" stop-color="#BEF8CE"/>
</linearGradient>
<linearGradient id="paint39_linear_22_207" x1="11.141" y1="104.102" x2="17.6178" y2="104.506" gradientUnits="userSpaceOnUse">
<stop stop-color="#81BD92"/>
<stop offset="1" stop-color="#BEF8CE"/>
</linearGradient>
<linearGradient id="paint40_linear_22_207" x1="46.2773" y1="104.102" x2="52.7539" y2="104.506" gradientUnits="userSpaceOnUse">
<stop stop-color="#81BD92"/>
<stop offset="1" stop-color="#BEF8CE"/>
</linearGradient>
<linearGradient id="paint41_linear_22_207" x1="81.4135" y1="104.102" x2="87.8903" y2="104.506" gradientUnits="userSpaceOnUse">
<stop stop-color="#81BD92"/>
<stop offset="1" stop-color="#BEF8CE"/>
</linearGradient>
<linearGradient id="paint42_linear_22_207" x1="116.55" y1="104.102" x2="123.027" y2="104.506" gradientUnits="userSpaceOnUse">
<stop stop-color="#81BD92"/>
<stop offset="1" stop-color="#BEF8CE"/>
</linearGradient>
<linearGradient id="paint43_linear_22_207" x1="151.686" y1="104.102" x2="158.163" y2="104.506" gradientUnits="userSpaceOnUse">
<stop stop-color="#81BD92"/>
<stop offset="1" stop-color="#BEF8CE"/>
</linearGradient>
<linearGradient id="paint44_linear_22_207" x1="186.822" y1="104.102" x2="193.299" y2="104.506" gradientUnits="userSpaceOnUse">
<stop stop-color="#81BD92"/>
<stop offset="1" stop-color="#BEF8CE"/>
</linearGradient>
<linearGradient id="paint45_linear_22_207" x1="221.958" y1="104.102" x2="228.435" y2="104.506" gradientUnits="userSpaceOnUse">
<stop stop-color="#81BD92"/>
<stop offset="1" stop-color="#BEF8CE"/>
</linearGradient>
<linearGradient id="paint46_linear_22_207" x1="257.12" y1="104.102" x2="263.597" y2="104.506" gradientUnits="userSpaceOnUse">
<stop stop-color="#81BD92"/>
<stop offset="1" stop-color="#BEF8CE"/>
</linearGradient>
<linearGradient id="paint47_linear_22_207" x1="292.256" y1="104.102" x2="298.733" y2="104.506" gradientUnits="userSpaceOnUse">
<stop stop-color="#81BD92"/>
<stop offset="1" stop-color="#BEF8CE"/>
</linearGradient>
<linearGradient id="paint48_linear_22_207" x1="327.393" y1="104.102" x2="333.869" y2="104.506" gradientUnits="userSpaceOnUse">
<stop stop-color="#81BD92"/>
<stop offset="1" stop-color="#BEF8CE"/>
</linearGradient>
<linearGradient id="paint49_linear_22_207" x1="362.529" y1="104.102" x2="369.006" y2="104.506" gradientUnits="userSpaceOnUse">
<stop stop-color="#81BD92"/>
<stop offset="1" stop-color="#BEF8CE"/>
</linearGradient>
<linearGradient id="paint50_linear_22_207" x1="397.665" y1="104.102" x2="404.142" y2="104.506" gradientUnits="userSpaceOnUse">
<stop stop-color="#81BD92"/>
<stop offset="1" stop-color="#BEF8CE"/>
</linearGradient>
<linearGradient id="paint51_linear_22_207" x1="432.802" y1="104.102" x2="439.278" y2="104.506" gradientUnits="userSpaceOnUse">
<stop stop-color="#81BD92"/>
<stop offset="1" stop-color="#BEF8CE"/>
</linearGradient>
<linearGradient id="paint52_linear_22_207" x1="11.141" y1="138.519" x2="17.6178" y2="138.923" gradientUnits="userSpaceOnUse">
<stop stop-color="#81BD92"/>
<stop offset="1" stop-color="#BEF8CE"/>
</linearGradient>
<linearGradient id="paint53_linear_22_207" x1="46.2773" y1="138.519" x2="52.7539" y2="138.923" gradientUnits="userSpaceOnUse">
<stop stop-color="#81BD92"/>
<stop offset="1" stop-color="#BEF8CE"/>
</linearGradient>
<linearGradient id="paint54_linear_22_207" x1="81.4135" y1="138.519" x2="87.8903" y2="138.923" gradientUnits="userSpaceOnUse">
<stop stop-color="#81BD92"/>
<stop offset="1" stop-color="#BEF8CE"/>
</linearGradient>
<linearGradient id="paint55_linear_22_207" x1="116.55" y1="138.519" x2="123.027" y2="138.923" gradientUnits="userSpaceOnUse">
<stop stop-color="#81BD92"/>
<stop offset="1" stop-color="#BEF8CE"/>
</linearGradient>
<linearGradient id="paint56_linear_22_207" x1="151.686" y1="138.519" x2="158.163" y2="138.923" gradientUnits="userSpaceOnUse">
<stop stop-color="#81BD92"/>
<stop offset="1" stop-color="#BEF8CE"/>
</linearGradient>
<linearGradient id="paint57_linear_22_207" x1="186.822" y1="138.519" x2="193.299" y2="138.923" gradientUnits="userSpaceOnUse">
<stop stop-color="#81BD92"/>
<stop offset="1" stop-color="#BEF8CE"/>
</linearGradient>
<linearGradient id="paint58_linear_22_207" x1="221.958" y1="138.519" x2="228.435" y2="138.923" gradientUnits="userSpaceOnUse">
<stop stop-color="#81BD92"/>
<stop offset="1" stop-color="#BEF8CE"/>
</linearGradient>
<linearGradient id="paint59_linear_22_207" x1="257.12" y1="138.519" x2="263.597" y2="138.923" gradientUnits="userSpaceOnUse">
<stop stop-color="#81BD92"/>
<stop offset="1" stop-color="#BEF8CE"/>
</linearGradient>
<linearGradient id="paint60_linear_22_207" x1="292.256" y1="138.519" x2="298.733" y2="138.923" gradientUnits="userSpaceOnUse">
<stop stop-color="#81BD92"/>
<stop offset="1" stop-color="#BEF8CE"/>
</linearGradient>
<linearGradient id="paint61_linear_22_207" x1="327.393" y1="138.519" x2="333.869" y2="138.923" gradientUnits="userSpaceOnUse">
<stop stop-color="#81BD92"/>
<stop offset="1" stop-color="#BEF8CE"/>
</linearGradient>
<linearGradient id="paint62_linear_22_207" x1="362.529" y1="138.519" x2="369.006" y2="138.923" gradientUnits="userSpaceOnUse">
<stop stop-color="#81BD92"/>
<stop offset="1" stop-color="#BEF8CE"/>
</linearGradient>
<linearGradient id="paint63_linear_22_207" x1="397.665" y1="138.519" x2="404.142" y2="138.923" gradientUnits="userSpaceOnUse">
<stop stop-color="#81BD92"/>
<stop offset="1" stop-color="#BEF8CE"/>
</linearGradient>
<linearGradient id="paint64_linear_22_207" x1="432.802" y1="138.519" x2="439.278" y2="138.923" gradientUnits="userSpaceOnUse">
<stop stop-color="#81BD92"/>
<stop offset="1" stop-color="#BEF8CE"/>
</linearGradient>
<linearGradient id="paint65_linear_22_207" x1="11.141" y1="172.936" x2="17.6178" y2="173.341" gradientUnits="userSpaceOnUse">
<stop stop-color="#81BD92"/>
<stop offset="1" stop-color="#BEF8CE"/>
</linearGradient>
<linearGradient id="paint66_linear_22_207" x1="46.2773" y1="172.936" x2="52.7539" y2="173.341" gradientUnits="userSpaceOnUse">
<stop stop-color="#81BD92"/>
<stop offset="1" stop-color="#BEF8CE"/>
</linearGradient>
<linearGradient id="paint67_linear_22_207" x1="81.4135" y1="172.936" x2="87.8903" y2="173.341" gradientUnits="userSpaceOnUse">
<stop stop-color="#81BD92"/>
<stop offset="1" stop-color="#BEF8CE"/>
</linearGradient>
<linearGradient id="paint68_linear_22_207" x1="116.55" y1="172.936" x2="123.027" y2="173.341" gradientUnits="userSpaceOnUse">
<stop stop-color="#81BD92"/>
<stop offset="1" stop-color="#BEF8CE"/>
</linearGradient>
<linearGradient id="paint69_linear_22_207" x1="151.686" y1="172.936" x2="158.163" y2="173.341" gradientUnits="userSpaceOnUse">
<stop stop-color="#81BD92"/>
<stop offset="1" stop-color="#BEF8CE"/>
</linearGradient>
<linearGradient id="paint70_linear_22_207" x1="186.822" y1="172.936" x2="193.299" y2="173.341" gradientUnits="userSpaceOnUse">
<stop stop-color="#81BD92"/>
<stop offset="1" stop-color="#BEF8CE"/>
</linearGradient>
<linearGradient id="paint71_linear_22_207" x1="221.958" y1="172.936" x2="228.435" y2="173.341" gradientUnits="userSpaceOnUse">
<stop stop-color="#81BD92"/>
<stop offset="1" stop-color="#BEF8CE"/>
</linearGradient>
<linearGradient id="paint72_linear_22_207" x1="257.12" y1="172.936" x2="263.597" y2="173.341" gradientUnits="userSpaceOnUse">
<stop stop-color="#81BD92"/>
<stop offset="1" stop-color="#BEF8CE"/>
</linearGradient>
<linearGradient id="paint73_linear_22_207" x1="292.256" y1="172.936" x2="298.733" y2="173.341" gradientUnits="userSpaceOnUse">
<stop stop-color="#81BD92"/>
<stop offset="1" stop-color="#BEF8CE"/>
</linearGradient>
<linearGradient id="paint74_linear_22_207" x1="327.393" y1="172.936" x2="333.869" y2="173.341" gradientUnits="userSpaceOnUse">
<stop stop-color="#81BD92"/>
<stop offset="1" stop-color="#BEF8CE"/>
</linearGradient>
<linearGradient id="paint75_linear_22_207" x1="362.529" y1="172.936" x2="369.006" y2="173.341" gradientUnits="userSpaceOnUse">
<stop stop-color="#81BD92"/>
<stop offset="1" stop-color="#BEF8CE"/>
</linearGradient>
<linearGradient id="paint76_linear_22_207" x1="397.665" y1="172.936" x2="404.142" y2="173.341" gradientUnits="userSpaceOnUse">
<stop stop-color="#81BD92"/>
<stop offset="1" stop-color="#BEF8CE"/>
</linearGradient>
<linearGradient id="paint77_linear_22_207" x1="432.802" y1="172.936" x2="439.278" y2="173.341" gradientUnits="userSpaceOnUse">
<stop stop-color="#81BD92"/>
<stop offset="1" stop-color="#BEF8CE"/>
</linearGradient>
<linearGradient id="paint78_linear_22_207" x1="11.141" y1="207.354" x2="17.6178" y2="207.758" gradientUnits="userSpaceOnUse">
<stop stop-color="#81BD92"/>
<stop offset="1" stop-color="#BEF8CE"/>
</linearGradient>
<linearGradient id="paint79_linear_22_207" x1="46.2773" y1="207.354" x2="52.7539" y2="207.758" gradientUnits="userSpaceOnUse">
<stop stop-color="#81BD92"/>
<stop offset="1" stop-color="#BEF8CE"/>
</linearGradient>
<linearGradient id="paint80_linear_22_207" x1="81.4135" y1="207.354" x2="87.8903" y2="207.758" gradientUnits="userSpaceOnUse">
<stop stop-color="#81BD92"/>
<stop offset="1" stop-color="#BEF8CE"/>
</linearGradient>
<linearGradient id="paint81_linear_22_207" x1="116.55" y1="207.354" x2="123.027" y2="207.758" gradientUnits="userSpaceOnUse">
<stop stop-color="#81BD92"/>
<stop offset="1" stop-color="#BEF8CE"/>
</linearGradient>
<linearGradient id="paint82_linear_22_207" x1="151.686" y1="207.354" x2="158.163" y2="207.758" gradientUnits="userSpaceOnUse">
<stop stop-color="#81BD92"/>
<stop offset="1" stop-color="#BEF8CE"/>
</linearGradient>
<linearGradient id="paint83_linear_22_207" x1="186.822" y1="207.354" x2="193.299" y2="207.758" gradientUnits="userSpaceOnUse">
<stop stop-color="#81BD92"/>
<stop offset="1" stop-color="#BEF8CE"/>
</linearGradient>
<linearGradient id="paint84_linear_22_207" x1="221.958" y1="207.354" x2="228.435" y2="207.758" gradientUnits="userSpaceOnUse">
<stop stop-color="#81BD92"/>
<stop offset="1" stop-color="#BEF8CE"/>
</linearGradient>
<linearGradient id="paint85_linear_22_207" x1="257.12" y1="207.354" x2="263.597" y2="207.758" gradientUnits="userSpaceOnUse">
<stop stop-color="#81BD92"/>
<stop offset="1" stop-color="#BEF8CE"/>
</linearGradient>
<linearGradient id="paint86_linear_22_207" x1="292.256" y1="207.354" x2="298.733" y2="207.758" gradientUnits="userSpaceOnUse">
<stop stop-color="#81BD92"/>
<stop offset="1" stop-color="#BEF8CE"/>
</linearGradient>
<linearGradient id="paint87_linear_22_207" x1="327.393" y1="207.354" x2="333.869" y2="207.758" gradientUnits="userSpaceOnUse">
<stop stop-color="#81BD92"/>
<stop offset="1" stop-color="#BEF8CE"/>
</linearGradient>
<linearGradient id="paint88_linear_22_207" x1="362.529" y1="207.354" x2="369.006" y2="207.758" gradientUnits="userSpaceOnUse">
<stop stop-color="#81BD92"/>
<stop offset="1" stop-color="#BEF8CE"/>
</linearGradient>
<linearGradient id="paint89_linear_22_207" x1="397.665" y1="207.354" x2="404.142" y2="207.758" gradientUnits="userSpaceOnUse">
<stop stop-color="#81BD92"/>
<stop offset="1" stop-color="#BEF8CE"/>
</linearGradient>
<linearGradient id="paint90_linear_22_207" x1="432.802" y1="207.354" x2="439.278" y2="207.758" gradientUnits="userSpaceOnUse">
<stop stop-color="#81BD92"/>
<stop offset="1" stop-color="#BEF8CE"/>
</linearGradient>
<linearGradient id="paint91_linear_22_207" x1="11.141" y1="241.796" x2="17.6178" y2="242.2" gradientUnits="userSpaceOnUse">
<stop stop-color="#81BD92"/>
<stop offset="1" stop-color="#BEF8CE"/>
</linearGradient>
<linearGradient id="paint92_linear_22_207" x1="46.2773" y1="241.796" x2="52.7539" y2="242.2" gradientUnits="userSpaceOnUse">
<stop stop-color="#81BD92"/>
<stop offset="1" stop-color="#BEF8CE"/>
</linearGradient>
<linearGradient id="paint93_linear_22_207" x1="81.4135" y1="241.796" x2="87.8903" y2="242.2" gradientUnits="userSpaceOnUse">
<stop stop-color="#81BD92"/>
<stop offset="1" stop-color="#BEF8CE"/>
</linearGradient>
<linearGradient id="paint94_linear_22_207" x1="116.55" y1="241.796" x2="123.027" y2="242.2" gradientUnits="userSpaceOnUse">
<stop stop-color="#81BD92"/>
<stop offset="1" stop-color="#BEF8CE"/>
</linearGradient>
<linearGradient id="paint95_linear_22_207" x1="151.686" y1="241.796" x2="158.163" y2="242.2" gradientUnits="userSpaceOnUse">
<stop stop-color="#81BD92"/>
<stop offset="1" stop-color="#BEF8CE"/>
</linearGradient>
<linearGradient id="paint96_linear_22_207" x1="186.822" y1="241.796" x2="193.299" y2="242.2" gradientUnits="userSpaceOnUse">
<stop stop-color="#81BD92"/>
<stop offset="1" stop-color="#BEF8CE"/>
</linearGradient>
<linearGradient id="paint97_linear_22_207" x1="221.958" y1="241.796" x2="228.435" y2="242.2" gradientUnits="userSpaceOnUse">
<stop stop-color="#81BD92"/>
<stop offset="1" stop-color="#BEF8CE"/>
</linearGradient>
<linearGradient id="paint98_linear_22_207" x1="257.12" y1="241.796" x2="263.597" y2="242.2" gradientUnits="userSpaceOnUse">
<stop stop-color="#81BD92"/>
<stop offset="1" stop-color="#BEF8CE"/>
</linearGradient>
<linearGradient id="paint99_linear_22_207" x1="292.256" y1="241.796" x2="298.733" y2="242.2" gradientUnits="userSpaceOnUse">
<stop stop-color="#81BD92"/>
<stop offset="1" stop-color="#BEF8CE"/>
</linearGradient>
<linearGradient id="paint100_linear_22_207" x1="327.393" y1="241.796" x2="333.869" y2="242.2" gradientUnits="userSpaceOnUse">
<stop stop-color="#81BD92"/>
<stop offset="1" stop-color="#BEF8CE"/>
</linearGradient>
<linearGradient id="paint101_linear_22_207" x1="362.529" y1="241.796" x2="369.006" y2="242.2" gradientUnits="userSpaceOnUse">
<stop stop-color="#81BD92"/>
<stop offset="1" stop-color="#BEF8CE"/>
</linearGradient>
<linearGradient id="paint102_linear_22_207" x1="397.665" y1="241.796" x2="404.142" y2="242.2" gradientUnits="userSpaceOnUse">
<stop stop-color="#81BD92"/>
<stop offset="1" stop-color="#BEF8CE"/>
</linearGradient>
<linearGradient id="paint103_linear_22_207" x1="432.802" y1="241.796" x2="439.278" y2="242.2" gradientUnits="userSpaceOnUse">
<stop stop-color="#81BD92"/>
<stop offset="1" stop-color="#BEF8CE"/>
</linearGradient>
<linearGradient id="paint104_linear_22_207" x1="11.141" y1="276.213" x2="17.6178" y2="276.618" gradientUnits="userSpaceOnUse">
<stop stop-color="#81BD92"/>
<stop offset="1" stop-color="#BEF8CE"/>
</linearGradient>
<linearGradient id="paint105_linear_22_207" x1="46.2773" y1="276.213" x2="52.7539" y2="276.618" gradientUnits="userSpaceOnUse">
<stop stop-color="#81BD92"/>
<stop offset="1" stop-color="#BEF8CE"/>
</linearGradient>
<linearGradient id="paint106_linear_22_207" x1="81.4135" y1="276.213" x2="87.8903" y2="276.618" gradientUnits="userSpaceOnUse">
<stop stop-color="#81BD92"/>
<stop offset="1" stop-color="#BEF8CE"/>
</linearGradient>
<linearGradient id="paint107_linear_22_207" x1="116.55" y1="276.213" x2="123.027" y2="276.618" gradientUnits="userSpaceOnUse">
<stop stop-color="#81BD92"/>
<stop offset="1" stop-color="#BEF8CE"/>
</linearGradient>
<linearGradient id="paint108_linear_22_207" x1="151.686" y1="276.213" x2="158.163" y2="276.618" gradientUnits="userSpaceOnUse">
<stop stop-color="#81BD92"/>
<stop offset="1" stop-color="#BEF8CE"/>
</linearGradient>
<linearGradient id="paint109_linear_22_207" x1="186.822" y1="276.213" x2="193.299" y2="276.618" gradientUnits="userSpaceOnUse">
<stop stop-color="#81BD92"/>
<stop offset="1" stop-color="#BEF8CE"/>
</linearGradient>
<linearGradient id="paint110_linear_22_207" x1="221.958" y1="276.213" x2="228.435" y2="276.618" gradientUnits="userSpaceOnUse">
<stop stop-color="#81BD92"/>
<stop offset="1" stop-color="#BEF8CE"/>
</linearGradient>
<linearGradient id="paint111_linear_22_207" x1="257.12" y1="276.213" x2="263.597" y2="276.618" gradientUnits="userSpaceOnUse">
<stop stop-color="#81BD92"/>
<stop offset="1" stop-color="#BEF8CE"/>
</linearGradient>
<linearGradient id="paint112_linear_22_207" x1="292.256" y1="276.213" x2="298.733" y2="276.618" gradientUnits="userSpaceOnUse">
<stop stop-color="#81BD92"/>
<stop offset="1" stop-color="#BEF8CE"/>
</linearGradient>
<linearGradient id="paint113_linear_22_207" x1="327.393" y1="276.213" x2="333.869" y2="276.618" gradientUnits="userSpaceOnUse">
<stop stop-color="#81BD92"/>
<stop offset="1" stop-color="#BEF8CE"/>
</linearGradient>
<linearGradient id="paint114_linear_22_207" x1="362.529" y1="276.213" x2="369.006" y2="276.618" gradientUnits="userSpaceOnUse">
<stop stop-color="#81BD92"/>
<stop offset="1" stop-color="#BEF8CE"/>
</linearGradient>
<linearGradient id="paint115_linear_22_207" x1="397.665" y1="276.213" x2="404.142" y2="276.618" gradientUnits="userSpaceOnUse">
<stop stop-color="#81BD92"/>
<stop offset="1" stop-color="#BEF8CE"/>
</linearGradient>
<linearGradient id="paint116_linear_22_207" x1="432.802" y1="276.213" x2="439.278" y2="276.618" gradientUnits="userSpaceOnUse">
<stop stop-color="#81BD92"/>
<stop offset="1" stop-color="#BEF8CE"/>
</linearGradient>
<linearGradient id="paint117_linear_22_207" x1="11.141" y1="310.631" x2="17.6178" y2="311.035" gradientUnits="userSpaceOnUse">
<stop stop-color="#81BD92"/>
<stop offset="1" stop-color="#BEF8CE"/>
</linearGradient>
<linearGradient id="paint118_linear_22_207" x1="46.2773" y1="310.631" x2="52.7539" y2="311.035" gradientUnits="userSpaceOnUse">
<stop stop-color="#81BD92"/>
<stop offset="1" stop-color="#BEF8CE"/>
</linearGradient>
<linearGradient id="paint119_linear_22_207" x1="81.4135" y1="310.631" x2="87.8903" y2="311.035" gradientUnits="userSpaceOnUse">
<stop stop-color="#81BD92"/>
<stop offset="1" stop-color="#BEF8CE"/>
</linearGradient>
<linearGradient id="paint120_linear_22_207" x1="116.55" y1="310.631" x2="123.027" y2="311.035" gradientUnits="userSpaceOnUse">
<stop stop-color="#81BD92"/>
<stop offset="1" stop-color="#BEF8CE"/>
</linearGradient>
<linearGradient id="paint121_linear_22_207" x1="151.686" y1="310.631" x2="158.163" y2="311.035" gradientUnits="userSpaceOnUse">
<stop stop-color="#81BD92"/>
<stop offset="1" stop-color="#BEF8CE"/>
</linearGradient>
<linearGradient id="paint122_linear_22_207" x1="186.822" y1="310.631" x2="193.299" y2="311.035" gradientUnits="userSpaceOnUse">
<stop stop-color="#81BD92"/>
<stop offset="1" stop-color="#BEF8CE"/>
</linearGradient>
<linearGradient id="paint123_linear_22_207" x1="221.958" y1="310.631" x2="228.435" y2="311.035" gradientUnits="userSpaceOnUse">
<stop stop-color="#81BD92"/>
<stop offset="1" stop-color="#BEF8CE"/>
</linearGradient>
<linearGradient id="paint124_linear_22_207" x1="257.12" y1="310.631" x2="263.597" y2="311.035" gradientUnits="userSpaceOnUse">
<stop stop-color="#81BD92"/>
<stop offset="1" stop-color="#BEF8CE"/>
</linearGradient>
<linearGradient id="paint125_linear_22_207" x1="292.256" y1="310.631" x2="298.733" y2="311.035" gradientUnits="userSpaceOnUse">
<stop stop-color="#81BD92"/>
<stop offset="1" stop-color="#BEF8CE"/>
</linearGradient>
<linearGradient id="paint126_linear_22_207" x1="327.393" y1="310.631" x2="333.869" y2="311.035" gradientUnits="userSpaceOnUse">
<stop stop-color="#81BD92"/>
<stop offset="1" stop-color="#BEF8CE"/>
</linearGradient>
<linearGradient id="paint127_linear_22_207" x1="362.529" y1="310.631" x2="369.006" y2="311.035" gradientUnits="userSpaceOnUse">
<stop stop-color="#81BD92"/>
<stop offset="1" stop-color="#BEF8CE"/>
</linearGradient>
<linearGradient id="paint128_linear_22_207" x1="397.665" y1="310.631" x2="404.142" y2="311.035" gradientUnits="userSpaceOnUse">
<stop stop-color="#81BD92"/>
<stop offset="1" stop-color="#BEF8CE"/>
</linearGradient>
<linearGradient id="paint129_linear_22_207" x1="432.802" y1="310.631" x2="439.278" y2="311.035" gradientUnits="userSpaceOnUse">
<stop stop-color="#81BD92"/>
<stop offset="1" stop-color="#BEF8CE"/>
</linearGradient>
<linearGradient id="paint130_linear_22_207" x1="11.141" y1="345.048" x2="17.6178" y2="345.452" gradientUnits="userSpaceOnUse">
<stop stop-color="#81BD92"/>
<stop offset="1" stop-color="#BEF8CE"/>
</linearGradient>
<linearGradient id="paint131_linear_22_207" x1="46.2773" y1="345.048" x2="52.7539" y2="345.452" gradientUnits="userSpaceOnUse">
<stop stop-color="#81BD92"/>
<stop offset="1" stop-color="#BEF8CE"/>
</linearGradient>
<linearGradient id="paint132_linear_22_207" x1="81.4135" y1="345.048" x2="87.8903" y2="345.452" gradientUnits="userSpaceOnUse">
<stop stop-color="#81BD92"/>
<stop offset="1" stop-color="#BEF8CE"/>
</linearGradient>
<linearGradient id="paint133_linear_22_207" x1="116.55" y1="345.048" x2="123.027" y2="345.452" gradientUnits="userSpaceOnUse">
<stop stop-color="#81BD92"/>
<stop offset="1" stop-color="#BEF8CE"/>
</linearGradient>
<linearGradient id="paint134_linear_22_207" x1="151.686" y1="345.048" x2="158.163" y2="345.452" gradientUnits="userSpaceOnUse">
<stop stop-color="#81BD92"/>
<stop offset="1" stop-color="#BEF8CE"/>
</linearGradient>
<linearGradient id="paint135_linear_22_207" x1="186.822" y1="345.048" x2="193.299" y2="345.452" gradientUnits="userSpaceOnUse">
<stop stop-color="#81BD92"/>
<stop offset="1" stop-color="#BEF8CE"/>
</linearGradient>
<linearGradient id="paint136_linear_22_207" x1="221.958" y1="345.048" x2="228.435" y2="345.452" gradientUnits="userSpaceOnUse">
<stop stop-color="#81BD92"/>
<stop offset="1" stop-color="#BEF8CE"/>
</linearGradient>
<linearGradient id="paint137_linear_22_207" x1="257.12" y1="345.048" x2="263.597" y2="345.452" gradientUnits="userSpaceOnUse">
<stop stop-color="#81BD92"/>
<stop offset="1" stop-color="#BEF8CE"/>
</linearGradient>
<linearGradient id="paint138_linear_22_207" x1="292.256" y1="345.048" x2="298.733" y2="345.452" gradientUnits="userSpaceOnUse">
<stop stop-color="#81BD92"/>
<stop offset="1" stop-color="#BEF8CE"/>
</linearGradient>
<linearGradient id="paint139_linear_22_207" x1="327.393" y1="345.048" x2="333.869" y2="345.452" gradientUnits="userSpaceOnUse">
<stop stop-color="#81BD92"/>
<stop offset="1" stop-color="#BEF8CE"/>
</linearGradient>
<linearGradient id="paint140_linear_22_207" x1="362.529" y1="345.048" x2="369.006" y2="345.452" gradientUnits="userSpaceOnUse">
<stop stop-color="#81BD92"/>
<stop offset="1" stop-color="#BEF8CE"/>
</linearGradient>
<linearGradient id="paint141_linear_22_207" x1="397.665" y1="345.048" x2="404.142" y2="345.452" gradientUnits="userSpaceOnUse">
<stop stop-color="#81BD92"/>
<stop offset="1" stop-color="#BEF8CE"/>
</linearGradient>
<linearGradient id="paint142_linear_22_207" x1="432.802" y1="345.048" x2="439.278" y2="345.452" gradientUnits="userSpaceOnUse">
<stop stop-color="#81BD92"/>
<stop offset="1" stop-color="#BEF8CE"/>
</linearGradient>
</defs>
</svg>
