<svg width="40" height="29" viewBox="0 0 40 29" fill="none" xmlns="http://www.w3.org/2000/svg">
<path d="M0 1.5C0 0.947715 0.447715 0.5 1 0.5H39C39.5523 0.5 40 0.947715 40 1.5V3.5C40 4.05228 39.5523 4.5 39 4.5H0.999999C0.447714 4.5 0 4.05228 0 3.5V1.5Z" fill="url(#paint0_linear_278_266)"/>
<path d="M0 13.5C0 12.9477 0.447715 12.5 1 12.5H39C39.5523 12.5 40 12.9477 40 13.5V15.5C40 16.0523 39.5523 16.5 39 16.5H0.999999C0.447714 16.5 0 16.0523 0 15.5V13.5Z" fill="url(#paint1_linear_278_266)"/>
<path d="M0 25.5C0 24.9477 0.447715 24.5 1 24.5H39C39.5523 24.5 40 24.9477 40 25.5V27.5C40 28.0523 39.5523 28.5 39 28.5H0.999999C0.447714 28.5 0 28.0523 0 27.5V25.5Z" fill="url(#paint2_linear_278_266)"/>
<defs>
<linearGradient id="paint0_linear_278_266" x1="0" y1="0.5" x2="42.1639" y2="4.26463" gradientUnits="userSpaceOnUse">
<stop stop-color="#00AA30"/>
<stop offset="1" stop-color="#00D03A"/>
</linearGradient>
<linearGradient id="paint1_linear_278_266" x1="0" y1="0.5" x2="42.1639" y2="4.26463" gradientUnits="userSpaceOnUse">
<stop stop-color="#00AA30"/>
<stop offset="1" stop-color="#00D03A"/>
</linearGradient>
<linearGradient id="paint2_linear_278_266" x1="0" y1="0.5" x2="42.1639" y2="4.26463" gradientUnits="userSpaceOnUse">
<stop stop-color="#00AA30"/>
<stop offset="1" stop-color="#00D03A"/>
</linearGradient>
</defs>
</svg>
