<svg width="80" height="76" viewBox="0 0 80 76" fill="none" xmlns="http://www.w3.org/2000/svg">
<g filter="url(#filter0_d_22_117)">
<path d="M55.1618 20.0496C55.6473 20.0496 56.0407 19.6562 56.0407 19.1707V17.9892C56.0407 17.5037 55.6473 17.1103 55.1618 17.1103C54.6763 17.1103 54.2829 17.5037 54.2829 17.9892V19.1707C54.2829 19.4038 54.3755 19.6274 54.5404 19.7922C54.7052 19.957 54.9287 20.0496 55.1618 20.0496ZM64.7242 27.8541C64.2387 27.8541 63.8453 28.2475 63.8453 28.733C63.8453 29.2185 64.2387 29.6119 64.7242 29.6119H65.9056C66.3911 29.6119 66.7845 29.2185 66.7845 28.733C66.7845 28.2475 66.3911 27.8541 65.9056 27.8541H64.7242ZM44.4181 27.8541C43.9326 27.8541 43.5392 28.2475 43.5392 28.733C43.5392 29.2185 43.9326 29.6119 44.4181 29.6119H45.5996C46.0851 29.6119 46.4785 29.2185 46.4785 28.733C46.4785 28.2475 46.0851 27.8541 45.5996 27.8541H44.4181ZM59.0166 55.9286C57.4557 55.9286 56.1857 57.1985 56.1857 58.7593C56.1857 60.3202 57.4557 61.5901 59.0166 61.5901C60.5774 61.5901 61.8474 60.3202 61.8474 58.7593C61.8474 57.1985 60.5774 55.9286 59.0166 55.9286ZM59.0166 59.8323C58.4248 59.8323 57.9435 59.351 57.9435 58.7593C57.9435 58.1677 58.4248 57.6864 59.0166 57.6864C59.6083 57.6864 60.0896 58.1677 60.0896 58.7593C60.0896 59.351 59.6083 59.8323 59.0166 59.8323ZM26.9247 58.7593C26.9247 60.3202 28.1946 61.5901 29.7556 61.5901C31.3165 61.5901 32.5864 60.3202 32.5864 58.7593C32.5864 57.1985 31.3165 55.9286 29.7556 55.9286C28.1946 55.9286 26.9247 57.1984 26.9247 58.7593ZM30.8286 58.7593C30.8286 59.351 30.3473 59.8323 29.7556 59.8323C29.1639 59.8323 28.6825 59.351 28.6825 58.7593C28.6825 58.1677 29.1639 57.6864 29.7556 57.6864C30.3473 57.6864 30.8286 58.1677 30.8286 58.7593ZM35.7228 45.2697C36.715 44.3039 36.8294 42.624 35.7023 41.5272L32.0491 37.9711C30.7312 36.6888 28.6156 36.7172 27.333 38.0349L26.6488 38.7377C26.4863 38.9048 26.3967 39.1295 26.3998 39.3626C26.403 39.5957 26.4986 39.8179 26.6656 39.9805L30.1871 43.4083L26.6656 46.8359C26.4986 46.9985 26.403 47.2207 26.3998 47.4538C26.3967 47.6868 26.4863 47.9116 26.6488 48.0786L27.333 48.7815C28.6198 50.1035 30.7308 50.1286 32.0491 48.8452L35.7228 45.2697ZM28.5926 47.5556L28.5215 47.4826L32.0602 44.0381C32.1443 43.9562 32.2112 43.8583 32.2568 43.7502C32.3025 43.642 32.326 43.5258 32.326 43.4084C32.326 43.291 32.3025 43.1747 32.2568 43.0666C32.2112 42.9584 32.1443 42.8605 32.0602 42.7786L28.5215 39.334L28.5926 39.261C29.1994 38.6377 30.1998 38.6242 30.823 39.2307L34.4762 42.7868C34.8661 43.1663 34.814 43.7011 34.4968 44.01L30.823 47.5858C30.2028 48.1894 29.2043 48.1841 28.5926 47.5556ZM54.2829 28.733C54.2829 29.2185 54.6763 29.6119 55.1618 29.6119H58.1508C58.6363 29.6119 59.0297 29.2185 59.0297 28.733C59.0297 28.2475 58.6363 27.8541 58.1508 27.8541H56.0407V22.3807C56.0407 21.8952 55.6473 21.5018 55.1618 21.5018C54.6763 21.5018 54.2829 21.8952 54.2829 22.3807V28.733ZM25.0142 21.2215H40.1479C40.6334 21.2215 41.0268 20.8281 41.0268 20.3426C41.0268 19.8571 40.6334 19.4637 40.1479 19.4637H25.0142C24.5288 19.4637 24.1353 19.8571 24.1353 20.3426C24.1353 20.8281 24.5288 21.2215 25.0142 21.2215ZM21.3457 25.7622H37.055C37.5404 25.7622 37.9339 25.3688 37.9339 24.8833C37.9339 24.3977 37.5404 24.0043 37.055 24.0043H21.3457C20.8604 24.0043 20.4668 24.3977 20.4668 24.8833C20.4668 25.3688 20.8604 25.7622 21.3457 25.7622ZM30.333 28.0536C29.8476 28.0536 29.4541 28.447 29.4541 28.9325C29.4541 29.4181 29.8476 29.8115 30.333 29.8115H38.15C38.6354 29.8115 39.0289 29.4181 39.0289 28.9325C39.0289 28.447 38.6354 28.0536 38.15 28.0536H30.333ZM22.9229 28.0536C22.4375 28.0536 22.0439 28.447 22.0439 28.9325C22.0439 29.4181 22.4375 29.8115 22.9229 29.8115H26.8243C27.3096 29.8115 27.7032 29.4181 27.7032 28.9325C27.7032 28.447 27.3096 28.0536 26.8243 28.0536H22.9229ZM10.8789 41.9152H14.0934C14.5788 41.9152 14.9723 41.5218 14.9723 41.0363C14.9723 40.5508 14.5788 40.1574 14.0934 40.1574H10.8789C10.3935 40.1574 10 40.5508 10 41.0363C10 41.5218 10.3935 41.9152 10.8789 41.9152ZM13.2227 49.657H10.8789C10.3935 49.657 10 50.0504 10 50.5359C10 51.0215 10.3935 51.4149 10.8789 51.4149H13.2227C13.708 51.4149 14.1016 51.0215 14.1016 50.5359C14.1016 50.0504 13.708 49.657 13.2227 49.657ZM23.5625 42.2143H20.4279C19.9425 42.2143 19.549 42.6077 19.549 43.0933C19.549 43.5788 19.9425 43.9722 20.4279 43.9722H23.5625C24.0479 43.9722 24.4414 43.5788 24.4414 43.0933C24.4414 42.6077 24.0479 42.2143 23.5625 42.2143Z" fill="url(#paint0_linear_22_117)"/>
<path d="M63.4386 41.0477C67.5108 38.3043 70 33.681 70 28.7329C70 26.3811 69.465 24.1308 68.4098 22.0447C68.3032 21.8391 68.1198 21.6839 67.8994 21.6128C67.679 21.5416 67.4395 21.5604 67.2328 21.6649C67.0261 21.7694 66.8691 21.9512 66.7958 22.1709C66.7224 22.3906 66.7388 22.6303 66.8412 22.838C67.7707 24.6759 68.2422 26.6593 68.2422 28.7329C68.2422 33.1829 65.9577 37.3348 62.2377 39.7336L57.1207 34.1343C56.8258 33.8121 56.467 33.5547 56.0673 33.3785C55.6676 33.2023 55.2356 33.1111 54.7988 33.1106H42.8332C42.3345 31.7081 42.0815 30.2383 42.0815 28.7329C42.0815 21.5203 47.9493 15.6526 55.1618 15.6526C58.9032 15.6526 62.4733 17.2609 64.9567 20.0651C65.0332 20.1515 65.126 20.222 65.2298 20.2725C65.3336 20.3231 65.4463 20.3527 65.5615 20.3597C65.6767 20.3667 65.7921 20.3509 65.9012 20.3133C66.0104 20.2756 66.111 20.2169 66.1974 20.1403C66.2838 20.0638 66.3543 19.971 66.4048 19.8673C66.4554 19.7635 66.485 19.6508 66.492 19.5356C66.499 19.4204 66.4832 19.3049 66.4456 19.1958C66.4079 19.0867 66.3492 18.9861 66.2726 18.8997C64.9951 17.4578 63.4493 16.2783 61.7213 15.4268V12.4501C61.7213 11.3685 60.8413 10.4885 59.7597 10.4885H50.5641C49.4825 10.4885 48.6025 11.3685 48.6025 12.4501V15.426C43.7018 17.8515 40.3237 22.9047 40.3237 28.7329C40.3237 30.231 40.5454 31.6982 40.9819 33.1106H18.5697C17.4486 33.1106 16.5276 33.9774 16.4377 35.0759H13.2227C12.7373 35.0759 12.3438 35.4693 12.3438 35.9548C12.3438 36.4403 12.7373 36.8337 13.2227 36.8337H16.4288V45.3288H10.8789C10.3935 45.3288 10 45.7222 10 46.2077C10 46.6933 10.3935 47.0867 10.8789 47.0867H16.4288V49.6574C16.1993 49.6627 15.981 49.7576 15.8206 49.9217C15.6602 50.0859 15.5704 50.3063 15.5704 50.5358C15.5704 50.7654 15.6602 50.9858 15.8206 51.1499C15.981 51.3141 16.1993 51.409 16.4288 51.4143V57.6313C16.4288 58.554 17.1795 59.3046 18.1021 59.3046H20.4668V59.9165H17.7246C17.2393 59.9165 16.8457 60.3099 16.8457 60.7954C16.8457 61.2809 17.2393 61.6743 17.7246 61.6743H21.3457C21.5788 61.6743 21.8024 61.5817 21.9672 61.4168C22.132 61.252 22.2246 61.0285 22.2246 60.7954V59.3046H23.0266C23.3055 62.7738 26.2158 65.512 29.7556 65.512C30.9247 65.5118 32.0736 65.2081 33.0902 64.6307C33.1905 64.5736 33.2786 64.4973 33.3494 64.4062C33.4203 64.315 33.4725 64.2108 33.503 64.0995C33.5336 63.9882 33.5419 63.872 33.5276 63.7575C33.5132 63.6429 33.4765 63.5323 33.4194 63.432C33.3623 63.3317 33.286 63.2436 33.1949 63.1728C33.1038 63.1019 32.9996 63.0497 32.8883 63.0192C32.777 62.9886 32.6607 62.9802 32.5462 62.9946C32.4317 63.0089 32.3211 63.0457 32.2207 63.1028C31.4693 63.5297 30.6198 63.7541 29.7556 63.7542C27.0013 63.7542 24.7605 61.5135 24.7605 58.7591C24.7605 56.0047 27.0013 53.764 29.7556 53.764C32.5098 53.764 34.7507 56.0047 34.7507 58.7591C34.7507 59.51 34.5879 60.2323 34.2668 60.9058C34.2168 61.01 34.1879 61.1231 34.1816 61.2385C34.1754 61.3539 34.192 61.4694 34.2305 61.5785C34.2689 61.6875 34.3285 61.7878 34.4059 61.8738C34.4832 61.9597 34.5767 62.0296 34.681 62.0793C34.7854 62.129 34.8985 62.1577 35.014 62.1637C35.1294 62.1696 35.2449 62.1528 35.3538 62.114C35.4627 62.0753 35.563 62.0154 35.6487 61.9379C35.7345 61.8604 35.8041 61.7667 35.8536 61.6622C36.2069 60.9218 36.4208 60.1226 36.4844 59.3046H52.2876C52.5665 62.7738 55.4768 65.512 59.0166 65.512C62.5564 65.512 65.4666 62.7738 65.7456 59.3046H67.5549C68.9031 59.3046 70 58.2077 70 56.8595V49.445C70.0007 48.6616 69.7076 47.9063 69.1785 47.3284L63.4386 41.0477ZM50.3603 12.4501C50.3603 12.3377 50.4517 12.2463 50.5641 12.2463H59.7597C59.8721 12.2463 59.9635 12.3377 59.9635 12.4501V14.6961C58.418 14.1662 56.7956 13.8954 55.1618 13.8949C53.4822 13.8949 51.867 14.1759 50.3602 14.6926L50.3603 12.4501ZM55.8232 35.3202L64.9697 45.3288H58.4134C57.9279 45.3288 57.5345 45.7222 57.5345 46.2077C57.5345 46.6933 57.9279 47.0867 58.4134 47.0867H66.5761L67.881 48.5146C68.413 49.0968 68.1895 49.7285 68.2422 50.399H67.5646C67.0791 50.399 66.6857 50.7924 66.6857 51.2779C66.6857 51.7634 67.0791 52.1568 67.5646 52.1568H68.2422V53.4573H63.1913C62.0414 52.5499 60.5917 52.0064 59.0167 52.0064C57.4417 52.0064 55.992 52.5499 54.8422 53.4573H45.2659V34.8686H49.0566V45.3178C49.0566 46.2932 49.8501 47.0868 50.8254 47.0868H54.8997C55.3852 47.0868 55.7786 46.6934 55.7786 46.2079C55.7786 45.7224 55.3852 45.329 54.8997 45.329H50.8254C50.8225 45.3289 50.8197 45.3277 50.8176 45.3257C50.8156 45.3236 50.8144 45.3208 50.8144 45.3178V34.8686H54.799C54.9917 34.8688 55.1823 34.9091 55.3586 34.9868C55.5349 35.0646 55.6931 35.1781 55.8232 35.3202ZM52.3748 57.547H45.2657V55.2151H53.2717C52.8293 55.9294 52.5251 56.7204 52.3748 57.547ZM35.5004 55.2151H43.5079V57.547H36.3973C36.247 56.7204 35.9427 55.9294 35.5004 55.2151ZM18.1866 55.2151H24.0106C23.5682 55.9294 23.2639 56.7204 23.1136 57.547H18.1866V55.2151ZM25.5809 53.4573H18.1866V51.4149H21.9952C22.4806 51.4149 22.8741 51.0215 22.8741 50.5359C22.8741 50.0504 22.4806 49.657 21.9952 49.657H18.1866V47.0867H21.9952C22.4806 47.0867 22.8741 46.6933 22.8741 46.2077C22.8741 45.7222 22.4806 45.3288 21.9952 45.3288H18.1866V35.2517C18.1867 35.1501 18.2271 35.0527 18.2989 34.9808C18.3707 34.909 18.4681 34.8686 18.5697 34.8684H43.5079V53.4572H33.9302C32.7803 52.5498 31.3306 52.0063 29.7556 52.0063C28.1806 52.0063 26.7309 52.5499 25.5809 53.4573ZM59.0166 63.7545C56.2622 63.7545 54.0215 61.5137 54.0215 58.7593C54.0215 56.005 56.2622 53.7642 59.0166 53.7642C61.771 53.7642 64.0117 56.005 64.0117 58.7593C64.0117 61.5137 61.771 63.7545 59.0166 63.7545ZM67.5548 57.547H65.6583C65.508 56.7204 65.2038 55.9294 64.7614 55.2151H68.2422V56.8597C68.242 57.042 68.1695 57.2167 68.0406 57.3455C67.9117 57.4744 67.737 57.5469 67.5548 57.547Z" fill="url(#paint1_linear_22_117)"/>
</g>
<defs>
<filter id="filter0_d_22_117" x="0" y="0.488525" width="80" height="75.0235" filterUnits="userSpaceOnUse" color-interpolation-filters="sRGB">
<feFlood flood-opacity="0" result="BackgroundImageFix"/>
<feColorMatrix in="SourceAlpha" type="matrix" values="0 0 0 0 0 0 0 0 0 0 0 0 0 0 0 0 0 0 127 0" result="hardAlpha"/>
<feOffset/>
<feGaussianBlur stdDeviation="5"/>
<feComposite in2="hardAlpha" operator="out"/>
<feColorMatrix type="matrix" values="0 0 0 0 0.00392157 0 0 0 0 0.760784 0 0 0 0 0.170431 0 0 0 0.5 0"/>
<feBlend mode="normal" in2="BackgroundImageFix" result="effect1_dropShadow_22_117"/>
<feBlend mode="normal" in="SourceGraphic" in2="effect1_dropShadow_22_117" result="shape"/>
</filter>
<linearGradient id="paint0_linear_22_117" x1="10" y1="17.1103" x2="69.9518" y2="21.8939" gradientUnits="userSpaceOnUse">
<stop stop-color="#00AA30"/>
<stop offset="1" stop-color="#00D03A"/>
</linearGradient>
<linearGradient id="paint1_linear_22_117" x1="10" y1="10.4885" x2="73.4553" y2="14.8132" gradientUnits="userSpaceOnUse">
<stop stop-color="#00AA30"/>
<stop offset="1" stop-color="#00D03A"/>
</linearGradient>
</defs>
</svg>
