<svg width="68" height="80" viewBox="0 0 68 80" fill="none" xmlns="http://www.w3.org/2000/svg">
<g filter="url(#filter0_d_22_110)">
<path d="M56.6251 55.4688C56.8582 55.4688 57.0818 55.3762 57.2466 55.2113C57.4114 55.0465 57.504 54.823 57.504 54.5899V33.4961C57.504 32.4471 57.0952 31.374 56.3528 30.4746L49.8345 22.5768C49.5026 22.1733 49.1114 21.8225 48.6741 21.5365C48.7002 21.268 48.7151 20.9967 48.7151 20.7228V10.879C48.7151 10.6459 48.6225 10.4224 48.4577 10.2576C48.2928 10.0927 48.0693 10.0001 47.8362 10.0001C47.6031 10.0001 47.3795 10.0927 47.2147 10.2576C47.0499 10.4224 46.9573 10.6459 46.9573 10.879C46.9573 10.879 46.9555 20.8066 46.9548 20.8485C46.7042 20.804 46.4501 20.7815 46.1956 20.7814H34.8284C34.0281 20.7814 33.2436 21.0059 32.5413 21.4185C32.5107 21.4294 32.4806 21.4419 32.4513 21.456L23.8836 25.6293C22.9318 26.1082 22.1762 26.9032 21.7461 27.878C21.7415 27.8887 21.737 27.8994 21.7328 27.9101L18.1904 36.8951C18.1088 37.1112 18.1155 37.3507 18.209 37.5618C18.3026 37.773 18.4754 37.9389 18.6903 38.0236C18.9052 38.1083 19.1447 38.1051 19.3572 38.0145C19.5697 37.924 19.738 37.7535 19.8258 37.5399L23.3612 28.5722C23.6271 27.9782 24.092 27.4915 24.6626 27.2051L29.1893 25.0003L24.671 30.4747C23.9945 31.2943 23.637 32.3392 23.637 33.4963V63.8479C23.637 64.2013 23.668 64.5474 23.7244 64.8847L14.6679 60.8717C12.622 59.9653 11.6948 57.5574 12.6014 55.5043L12.6128 55.4774L18.3413 41.241C18.4283 41.0248 18.4258 40.7828 18.3345 40.5684C18.2431 40.3539 18.0702 40.1845 17.854 40.0975C17.6377 40.0105 17.3958 40.0129 17.1813 40.1043C16.9669 40.1957 16.7975 40.3685 16.7105 40.5848L10.987 54.8079C9.70008 57.7435 11.0295 61.182 13.9557 62.4786L24.5757 67.1844C24.5888 67.1901 24.602 67.1943 24.6151 67.1994C25.693 68.8836 27.5565 70 29.6721 70H51.3518C54.6867 70 57.5041 67.1826 57.5041 63.8477V58.6914C57.5041 58.4583 57.4115 58.2348 57.2467 58.0699C57.0819 57.9051 56.8583 57.8125 56.6252 57.8125C56.3921 57.8125 56.1686 57.9051 56.0038 58.0699C55.8389 58.2348 55.7463 58.4583 55.7463 58.6914V63.8477C55.7463 66.2297 53.7339 68.2422 51.3518 68.2422H29.6721C27.3136 68.2422 25.3948 66.2709 25.3948 63.8477V33.4961C25.3948 32.7417 25.6073 32.1015 26.0268 31.5935L32.5451 23.6957C33.1518 22.9607 33.984 22.5391 34.8284 22.5391H46.1956C46.3611 22.5391 46.5261 22.5558 46.6891 22.5875C46.139 24.4638 44.7761 26.0294 42.9356 26.814C42.4543 26.009 41.5745 25.4688 40.5704 25.4688C39.0519 25.4688 37.8165 26.7042 37.8165 28.2227C37.8165 29.7412 39.0519 30.9766 40.5704 30.9766C41.9747 30.9766 43.136 29.9198 43.303 28.5598C45.6701 27.6645 47.46 25.7675 48.2575 23.452C48.335 23.5298 48.4088 23.6111 48.4788 23.6957L54.9972 31.5936C55.4802 32.1788 55.7463 32.8545 55.7463 33.4962V54.59C55.7463 54.7054 55.769 54.8197 55.8132 54.9263C55.8574 55.0329 55.9221 55.1298 56.0037 55.2114C56.0853 55.293 56.1822 55.3577 56.2888 55.4019C56.3954 55.4461 56.5097 55.4688 56.6251 55.4688ZM40.5704 29.2188C40.0212 29.2188 39.5743 28.7719 39.5743 28.2227C39.5743 27.6734 40.0212 27.2266 40.5704 27.2266C41.1197 27.2266 41.5665 27.6734 41.5665 28.2227C41.5665 28.7719 41.1197 29.2188 40.5704 29.2188Z" fill="url(#paint0_linear_22_110)"/>
<path d="M32.9532 56.7578C33.0687 56.758 33.183 56.7353 33.2897 56.6911C33.3963 56.647 33.4932 56.5821 33.5747 56.5004L48.5747 41.5004C48.7395 41.3356 48.8321 41.112 48.8321 40.8789C48.8321 40.6459 48.7395 40.4223 48.5747 40.2575C48.4099 40.0927 48.1863 40.0001 47.9532 40.0001C47.7202 40.0001 47.4966 40.0927 47.3318 40.2575L32.3318 55.2575C31.7714 55.7798 32.2014 56.7844 32.9532 56.7578ZM34.8282 47.5C36.9282 47.5 38.6368 45.7914 38.6368 43.6914C38.6368 41.5914 36.9282 39.8828 34.8282 39.8828H34.7111C32.6111 39.8828 30.9025 41.5914 30.9025 43.6914C30.9025 45.7914 32.6111 47.5 34.7111 47.5H34.8282ZM32.6603 43.6914C32.6603 42.5607 33.5803 41.6407 34.7111 41.6407H34.8282C35.959 41.6407 36.879 42.5607 36.879 43.6914C36.879 44.8222 35.959 45.7422 34.8282 45.7422H34.7111C33.5803 45.7422 32.6603 44.8222 32.6603 43.6914ZM46.1954 56.7578H46.3126C48.4126 56.7578 50.1212 55.0492 50.1212 52.9492C50.1212 50.8492 48.4126 49.1407 46.3126 49.1407H46.1954C44.0954 49.1407 42.3868 50.8492 42.3868 52.9492C42.3868 55.0492 44.0954 56.7578 46.1954 56.7578ZM46.1954 50.8985H46.3126C47.4434 50.8985 48.3634 51.8185 48.3634 52.9492C48.3634 54.08 47.4434 55 46.3126 55H46.1954C45.0647 55 44.1447 54.08 44.1447 52.9492C44.1447 51.8185 45.0647 50.8985 46.1954 50.8985Z" fill="url(#paint1_linear_22_110)"/>
</g>
<defs>
<filter id="filter0_d_22_110" x="0.49588" y="0.000137329" width="67.0083" height="79.9999" filterUnits="userSpaceOnUse" color-interpolation-filters="sRGB">
<feFlood flood-opacity="0" result="BackgroundImageFix"/>
<feColorMatrix in="SourceAlpha" type="matrix" values="0 0 0 0 0 0 0 0 0 0 0 0 0 0 0 0 0 0 127 0" result="hardAlpha"/>
<feOffset/>
<feGaussianBlur stdDeviation="5"/>
<feComposite in2="hardAlpha" operator="out"/>
<feColorMatrix type="matrix" values="0 0 0 0 0.00392157 0 0 0 0 0.760784 0 0 0 0 0.170431 0 0 0 0.5 0"/>
<feBlend mode="normal" in2="BackgroundImageFix" result="effect1_dropShadow_22_110"/>
<feBlend mode="normal" in="SourceGraphic" in2="effect1_dropShadow_22_110" result="shape"/>
</filter>
<linearGradient id="paint0_linear_22_110" x1="10.4959" y1="10.0001" x2="60.3227" y2="12.44" gradientUnits="userSpaceOnUse">
<stop stop-color="#00AA30"/>
<stop offset="1" stop-color="#00D03A"/>
</linearGradient>
<linearGradient id="paint1_linear_22_110" x1="30.9025" y1="39.8828" x2="51.2195" y2="41.329" gradientUnits="userSpaceOnUse">
<stop stop-color="#00AA30"/>
<stop offset="1" stop-color="#00D03A"/>
</linearGradient>
</defs>
</svg>
