<svg width="37" height="40" viewBox="0 0 37 40" fill="none" xmlns="http://www.w3.org/2000/svg">
<path d="M36.5917 23.155C37.785 13.11 36.0183 6.76837 32.8317 3.90004L32.8333 3.89837C27.69 -0.999959 10.32 -1.72496 4.16668 4.11837C1.40334 6.97671 0.43001 11.1717 0.323344 16.365C0.216677 21.56 0.0900102 31.2917 9.15834 33.9317H9.16668L9.15834 37.9634C9.15834 37.9634 9.09668 39.5967 10.14 39.925C11.3333 40.3117 11.8733 39.5534 15.585 35.12C21.7917 35.6584 26.5583 34.425 27.1 34.245C28.3533 33.825 35.445 32.8867 36.5917 23.155ZM16.1967 32.2834C16.1967 32.2834 12.2683 37.1817 11.0467 38.4534C10.6467 38.8667 10.2083 38.8284 10.215 38.0084C10.215 37.47 10.245 31.315 10.245 31.315C2.55668 29.1117 3.01001 20.825 3.09334 16.49C3.17668 12.1534 3.97001 8.60171 6.31001 6.21004C11.7083 1.14837 26.9367 2.28004 30.8167 5.92671C35.56 10.1317 33.8717 22.0117 33.8817 22.4167C32.9067 30.54 27.16 31.055 26.1033 31.4067C25.6517 31.5567 21.46 32.635 16.1967 32.2834Z" fill="url(#paint0_linear_232_92)"/>
<path d="M18.37 7.16162C17.7283 7.16162 17.7283 8.16162 18.37 8.16995C23.3483 8.20829 27.4483 11.6783 27.4933 18.0433C27.4933 18.715 28.4767 18.7066 28.4683 18.035C28.415 11.1766 23.9367 7.19995 18.37 7.16162Z" fill="url(#paint1_linear_232_92)"/>
<path d="M24.9183 16.9883C24.9033 17.6517 25.885 17.6833 25.8933 17.0117C25.975 13.23 23.6433 10.115 19.2617 9.78668C18.62 9.74001 18.5533 10.7483 19.1933 10.795C22.9933 11.0833 24.995 13.6767 24.9183 16.9883ZM23.8683 21.29C23.045 20.8133 22.2067 21.11 21.86 21.5783L21.135 22.5167C20.7667 22.9933 20.0783 22.93 20.0783 22.93C15.055 21.6017 13.7117 16.345 13.7117 16.345C13.7117 16.345 13.65 15.6333 14.11 15.2517L15.0167 14.5017C15.47 14.1417 15.7567 13.275 15.295 12.4233C14.0617 10.195 13.2333 9.42668 12.8117 8.83668C12.3683 8.28168 11.7017 8.15668 11.0083 8.53168H10.9933C9.55168 9.37501 7.97334 10.9533 8.47834 12.5783C9.34001 14.2917 10.9233 19.7533 15.97 23.88C18.3417 25.8317 22.095 27.8317 23.6883 28.2933L23.7033 28.3167C25.2733 28.84 26.8 27.2 27.615 25.715V25.7033C27.9767 24.985 27.8567 24.305 27.3283 23.86C26.3917 22.9467 24.9783 21.9383 23.8683 21.29Z" fill="url(#paint2_linear_232_92)"/>
<path d="M19.9483 13.5067C21.55 13.6 22.3267 14.4367 22.41 16.155C22.44 16.8267 23.415 16.78 23.385 16.1084C23.2783 13.865 22.1083 12.615 20.0017 12.4984C19.36 12.46 19.3 13.4684 19.9483 13.5067Z" fill="url(#paint3_linear_232_92)"/>
<defs>
<linearGradient id="paint0_linear_232_92" x1="0.299683" y1="-0.0219727" x2="39.1307" y2="2.20075" gradientUnits="userSpaceOnUse">
<stop stop-color="#00AA30"/>
<stop offset="1" stop-color="#00D03A"/>
</linearGradient>
<linearGradient id="paint1_linear_232_92" x1="17.8888" y1="7.16162" x2="29.0918" y2="7.81249" gradientUnits="userSpaceOnUse">
<stop stop-color="#00AA30"/>
<stop offset="1" stop-color="#00D03A"/>
</linearGradient>
<linearGradient id="paint2_linear_232_92" x1="8.38214" y1="8.31689" x2="28.9626" y2="9.56102" gradientUnits="userSpaceOnUse">
<stop stop-color="#00AA30"/>
<stop offset="1" stop-color="#00D03A"/>
</linearGradient>
<linearGradient id="paint3_linear_232_92" x1="19.4903" y1="12.4973" x2="23.6149" y2="12.7399" gradientUnits="userSpaceOnUse">
<stop stop-color="#00AA30"/>
<stop offset="1" stop-color="#00D03A"/>
</linearGradient>
</defs>
</svg>
