<svg width="74" height="62" viewBox="0 0 74 62" fill="none" xmlns="http://www.w3.org/2000/svg">
<path opacity="0.1" d="M16.7 61.3C13.4333 61.2333 10.5333 60.5667 8 59.3C5.53333 57.9667 3.6 55.8667 2.2 53C0.8 50.0667 0.1 46.2 0.1 41.4V17.4C0.1 11.5333 1.63333 7.2 4.7 4.39999C7.83333 1.59999 11.9 0.199995 16.9 0.199995C21.7 0.199995 25.6 1.59999 28.6 4.39999C31.6667 7.2 33.2 11.5333 33.2 17.4V41.3C33.2 46.2333 32.5 50.1667 31.1 53.1C29.7667 56.0333 27.8333 58.1333 25.3 59.4C22.8333 60.6667 19.9667 61.3 16.7 61.3ZM16.7 54.4C18.1667 54.4 19.3667 53.8333 20.3 52.7C21.2333 51.5 21.7 49.7333 21.7 47.4V14.2C21.7 11.8667 21.2 10.1333 20.2 8.99999C19.2667 7.8 18.1 7.2 16.7 7.2C15.3 7.2 14.1 7.8 13.1 8.99999C12.1667 10.1333 11.7 11.8667 11.7 14.2V47.4C11.7 49.7333 12.1667 51.5 13.1 52.7C14.1 53.8333 15.3 54.4 16.7 54.4ZM56.1578 60V48.4H37.0578V39.2L56.4578 0.899998H67.8578V40.6H73.8578V48.4H67.8578V60H56.1578ZM46.3578 40.6H56.1578V20.7L46.3578 40.6Z" fill="#AEC4B4"/>
</svg>
