<svg width="71" height="80" viewBox="0 0 71 80" fill="none" xmlns="http://www.w3.org/2000/svg">
<g filter="url(#filter0_d_265_121)">
<path d="M43.9752 14.7312C43.8752 14.661 43.7617 14.6124 43.6419 14.5885C43.5221 14.5647 43.3986 14.5661 43.2793 14.5928C43.1601 14.6194 43.0477 14.6706 42.9494 14.7432C42.8512 14.8157 42.7691 14.908 42.7085 15.0141C42.7026 15.0246 42.6953 15.0342 42.6888 15.0439C42.4069 15.4467 41.8498 15.5446 41.447 15.2631C41.0491 14.9848 40.5013 15.0809 40.2228 15.4787L38.942 17.3084C38.8498 17.4401 38.7954 17.5945 38.7849 17.7549C38.7743 17.9153 38.808 18.0755 38.8821 18.2182C38.9562 18.3608 39.0681 18.4803 39.2054 18.5639C39.3428 18.6474 39.5004 18.6916 39.6612 18.6918C39.8026 18.6919 39.942 18.6579 40.0674 18.5926C40.1929 18.5273 40.3007 18.4327 40.3817 18.3168L41.2446 17.0841C42.0548 17.3098 42.9351 17.1359 43.5989 16.613L44.8952 17.5208C44.9896 17.5897 45.0968 17.6391 45.2105 17.666C45.3242 17.6929 45.4422 17.697 45.5574 17.6778C45.6727 17.6586 45.783 17.6166 45.8818 17.5543C45.9807 17.492 46.0661 17.4106 46.1331 17.3149C46.2002 17.2192 46.2474 17.1111 46.2722 16.9969C46.2969 16.8827 46.2986 16.7647 46.2772 16.6498C46.2558 16.5349 46.2117 16.4255 46.1475 16.3278C46.0833 16.2302 46.0003 16.1464 45.9033 16.0812L43.9752 14.7312ZM53.6948 25.8023L52.832 27.0345C52.6983 27.2254 52.6459 27.4616 52.6864 27.6912C52.7268 27.9207 52.8567 28.1248 53.0476 28.2586C53.1951 28.3621 53.371 28.4176 53.5512 28.4174C53.6926 28.4176 53.832 28.3837 53.9574 28.3184C54.0829 28.2531 54.1907 28.1584 54.2716 28.0424L55.553 26.2133C55.6866 26.0224 55.739 25.7862 55.6986 25.5566C55.6582 25.3271 55.5282 25.123 55.3373 24.9892C54.9344 24.7073 54.8361 24.1501 55.1185 23.7469C55.1253 23.7373 55.1318 23.7277 55.1396 23.7189C55.2184 23.6256 55.2769 23.5168 55.3113 23.3996C55.3457 23.2825 55.3553 23.1594 55.3396 23.0383C55.324 22.9171 55.2833 22.8005 55.2201 22.696C55.1569 22.5915 55.0726 22.5013 54.9725 22.4312L53.0443 21.0812C52.8534 20.9476 52.6171 20.8953 52.3876 20.9358C52.158 20.9763 51.954 21.1064 51.8203 21.2973C51.5415 21.6947 51.6387 22.243 52.0359 22.5215L53.3324 23.4287C53.0678 24.2316 53.2055 25.1179 53.6948 25.8023ZM49.0308 45.5479C49.4482 45.5479 49.8359 45.715 50.1225 46.019C50.2826 46.1883 50.5034 46.2871 50.7364 46.2936C50.9693 46.3002 51.1953 46.2141 51.3648 46.0541C51.4488 45.9749 51.5163 45.88 51.5635 45.7747C51.6108 45.6693 51.6368 45.5558 51.6401 45.4404C51.6434 45.325 51.624 45.2101 51.5829 45.1023C51.5418 44.9944 51.4798 44.8957 51.4005 44.8118C51.0954 44.4898 50.728 44.2331 50.3206 44.0574C49.9133 43.8818 49.4744 43.7908 49.0308 43.7899C47.2336 43.7899 45.7718 45.2521 45.7718 47.0493C45.7718 48.846 47.2336 50.3082 49.0308 50.3082C49.9015 50.3082 50.7199 49.9695 51.3351 49.3537C51.4168 49.2721 51.4815 49.1752 51.5257 49.0686C51.5699 48.962 51.5926 48.8477 51.5926 48.7323C51.5926 48.6169 51.5699 48.5026 51.5257 48.396C51.4815 48.2893 51.4168 48.1925 51.3351 48.1109C51.2536 48.0292 51.1567 47.9645 51.05 47.9203C50.9434 47.8761 50.8291 47.8534 50.7137 47.8534C50.5983 47.8534 50.484 47.8761 50.3774 47.9203C50.2707 47.9645 50.1738 48.0292 50.0923 48.1109C49.9532 48.2507 49.7877 48.3615 49.6055 48.4369C49.4233 48.5123 49.228 48.5509 49.0308 48.5503C48.2031 48.5503 47.5296 47.877 47.5296 47.0493C47.5296 46.2212 48.2031 45.5479 49.0308 45.5479Z" fill="url(#paint0_linear_265_121)"/>
<path d="M56.8562 40.858V33.8186C56.8562 31.4285 54.9116 29.484 52.5217 29.484H47.8574C48.1302 27.1274 47.3608 25.0547 45.7375 23.9181C44.3624 22.9554 42.5807 22.7828 40.7204 23.4319C38.9622 24.0457 37.3266 25.3357 36.1162 27.0642C35.5802 27.8292 35.1536 28.6404 34.8441 29.484H29.1221L41.4214 11.9192L58.4882 23.8691L55.888 27.5829C55.8192 27.6773 55.7698 27.7845 55.7429 27.8982C55.7159 28.0119 55.7119 28.1298 55.7311 28.2451C55.7503 28.3604 55.7923 28.4707 55.8546 28.5695C55.9169 28.6684 55.9983 28.7538 56.094 28.8208C56.1897 28.8879 56.2978 28.9351 56.412 28.9599C56.5262 28.9846 56.6442 28.9863 56.7591 28.9649C56.874 28.9435 56.9834 28.8994 57.0811 28.8352C57.1787 28.771 57.2625 28.688 57.3277 28.591L60.1622 24.5429C60.5893 23.9345 60.4415 23.0918 59.8321 22.6642L42.0953 10.2451C41.9505 10.1429 41.7869 10.0705 41.6139 10.032C41.4409 9.99349 41.262 9.9897 41.0875 10.0208C40.9129 10.0512 40.7461 10.1158 40.5966 10.2109C40.4471 10.306 40.3179 10.4298 40.2164 10.5751L36.1483 16.3855V12.8819C36.1483 12.1379 35.5431 11.5328 34.7992 11.5328H13.7185C12.9746 11.5328 12.3694 12.1379 12.3694 12.8819V17.6933C12.3694 17.9264 12.462 18.15 12.6268 18.3148C12.7917 18.4796 13.0152 18.5722 13.2483 18.5722C13.7339 18.5722 14.1272 18.1791 14.1272 17.6933V13.2911H16.6737V29.4836H14.3348C14.2656 29.4836 14.1965 29.4853 14.1273 29.4886V21.209C14.1273 20.9759 14.0347 20.7523 13.8699 20.5875C13.7051 20.4227 13.4815 20.3301 13.2484 20.3301C13.0153 20.3301 12.7918 20.4227 12.627 20.5875C12.4621 20.7523 12.3695 20.9759 12.3695 21.209V29.9555C10.9645 30.6733 10 32.1354 10 33.8186V60.2795C10 62.6695 11.9446 64.6143 14.3345 64.6143H20.897C21.3828 64.6143 21.7759 64.221 21.7759 63.7354C21.7759 63.5023 21.6833 63.2787 21.5185 63.1139C21.3537 62.9491 21.1301 62.8565 20.897 62.8565H14.3345C12.9136 62.8565 11.7578 61.7004 11.7578 60.2795V33.8186C11.7578 32.6924 12.4838 31.733 13.4918 31.3833C13.5142 31.3769 13.5367 31.3696 13.5582 31.3613C13.8095 31.2816 14.0715 31.2412 14.3351 31.2414H52.5217C53.9426 31.2414 55.0989 32.3977 55.0989 33.8186V40.7363H48.8064C45.3256 40.7363 42.4935 43.568 42.4935 47.0493C42.4935 50.5301 45.3256 53.3619 48.8064 53.3619H55.0989V60.2795C55.0989 61.7005 53.9426 62.8565 52.5217 62.8565H45.8058C45.5727 62.8565 45.3492 62.9491 45.1843 63.1139C45.0195 63.2787 44.9269 63.5023 44.9269 63.7354C44.9269 64.221 45.3201 64.6143 45.8058 64.6143H52.5217C54.9116 64.6143 56.8567 62.6695 56.8567 60.2795V53.2401C58.8452 52.7681 60.3289 50.9774 60.3289 48.8469V45.2516C60.3284 43.1208 58.8448 41.3301 56.8562 40.858ZM37.5561 28.0732C39.5605 25.2103 42.7786 23.9928 44.7296 25.3582C45.8534 26.1451 46.3483 27.6891 46.0851 29.4836H36.7439C36.9714 28.9898 37.2432 28.5178 37.5561 28.0732ZM34.3906 18.8959L26.9766 29.484H22.6457V13.2906H34.3906V18.8959ZM18.4315 13.2906H20.8879V29.4836H18.4316L18.4315 13.2906ZM58.5706 48.8465C58.5706 50.3672 57.3337 51.6041 55.813 51.6041H48.8064C46.2947 51.6041 44.2513 49.5606 44.2513 47.0488C44.2513 44.5375 46.2947 42.4941 48.8064 42.4941H55.813C57.3337 42.4941 58.5705 43.731 58.5705 45.2516L58.5706 48.8465Z" fill="url(#paint1_linear_265_121)"/>
<path d="M33.4279 48.7631C27.5731 48.7631 22.8095 53.5266 22.8095 59.3819C22.8095 65.2366 27.5731 70.0001 33.4279 70.0001C39.2831 70.0001 44.0466 65.2367 44.0466 59.3818C44.0466 53.5266 39.2831 48.7631 33.4279 48.7631ZM33.4279 68.2423C28.5422 68.2423 24.5673 64.2676 24.5673 59.3818C24.5673 54.4956 28.5422 50.5209 33.4279 50.5209C38.314 50.5209 42.2888 54.4956 42.2888 59.3819C42.2888 64.2676 38.314 68.2423 33.4279 68.2423Z" fill="url(#paint2_linear_265_121)"/>
<path d="M34.1776 58.5029H32.6784C32.4661 58.5026 32.2625 58.4182 32.1123 58.268C31.9622 58.1178 31.8777 57.9143 31.8775 57.7019C31.8777 57.4895 31.9621 57.2859 32.1123 57.1357C32.2625 56.9855 32.4661 56.9011 32.6784 56.9008H35.5472C36.0326 56.9008 36.4261 56.5071 36.4261 56.0219C36.4261 55.5367 36.0326 55.143 35.5472 55.143H34.4684V54.4C34.4684 53.9149 34.0746 53.5211 33.5895 53.5211C33.1043 53.5211 32.7106 53.9149 32.7106 54.4V55.143H32.6784C31.2676 55.143 30.1197 56.2911 30.1197 57.7019C30.1197 59.1127 31.2676 60.2608 32.6784 60.2608H34.1776C34.3899 60.261 34.5935 60.3454 34.7436 60.4955C34.8937 60.6456 34.9781 60.8491 34.9783 61.0614C34.9783 61.5032 34.6194 61.8625 34.1776 61.8625H31.3089C30.8231 61.8625 30.43 62.2562 30.43 62.7414C30.43 63.2267 30.8231 63.6203 31.3089 63.6203H32.7104V64.3633C32.7104 64.5964 32.803 64.82 32.9679 64.9848C33.1327 65.1496 33.3562 65.2422 33.5893 65.2422C33.8224 65.2422 34.046 65.1496 34.2108 64.9848C34.3757 64.82 34.4683 64.5964 34.4683 64.3633V63.6038C35.7428 63.4587 36.7365 62.3743 36.7365 61.0614C36.7361 59.6505 35.5884 58.5029 34.1776 58.5029Z" fill="url(#paint3_linear_265_121)"/>
</g>
<defs>
<filter id="filter0_d_265_121" x="0" y="0" width="70.4063" height="80.0001" filterUnits="userSpaceOnUse" color-interpolation-filters="sRGB">
<feFlood flood-opacity="0" result="BackgroundImageFix"/>
<feColorMatrix in="SourceAlpha" type="matrix" values="0 0 0 0 0 0 0 0 0 0 0 0 0 0 0 0 0 0 127 0" result="hardAlpha"/>
<feOffset/>
<feGaussianBlur stdDeviation="5"/>
<feComposite in2="hardAlpha" operator="out"/>
<feColorMatrix type="matrix" values="0 0 0 0 0.00392157 0 0 0 0 0.760784 0 0 0 0 0.170431 0 0 0 0.5 0"/>
<feBlend mode="normal" in2="BackgroundImageFix" result="effect1_dropShadow_265_121"/>
<feBlend mode="normal" in="SourceGraphic" in2="effect1_dropShadow_265_121" result="shape"/>
</filter>
<linearGradient id="paint0_linear_265_121" x1="38.783" y1="14.5717" x2="56.7542" y2="15.1037" gradientUnits="userSpaceOnUse">
<stop stop-color="#00AA30"/>
<stop offset="1" stop-color="#00D03A"/>
</linearGradient>
<linearGradient id="paint1_linear_265_121" x1="10" y1="10" x2="63.3791" y2="13.0791" gradientUnits="userSpaceOnUse">
<stop stop-color="#00AA30"/>
<stop offset="1" stop-color="#00D03A"/>
</linearGradient>
<linearGradient id="paint2_linear_265_121" x1="22.8095" y1="48.7631" x2="45.2861" y2="50.1678" gradientUnits="userSpaceOnUse">
<stop stop-color="#00AA30"/>
<stop offset="1" stop-color="#00D03A"/>
</linearGradient>
<linearGradient id="paint3_linear_265_121" x1="30.1197" y1="53.5211" x2="37.1413" y2="53.7689" gradientUnits="userSpaceOnUse">
<stop stop-color="#00AA30"/>
<stop offset="1" stop-color="#00D03A"/>
</linearGradient>
</defs>
</svg>
