<svg width="60" height="60" viewBox="0 0 60 60" fill="none" xmlns="http://www.w3.org/2000/svg">
<path d="M42.2457 33.1182C42.2286 33.0181 42.236 32.9154 42.2674 32.8188C42.2988 32.7223 42.3532 32.6348 42.4259 32.564L50.9316 24.2729C51.5842 23.6369 51.8146 22.7032 51.533 21.8365C51.2514 20.9698 50.5161 20.3499 49.6142 20.2189L37.8597 18.5109C37.7592 18.4963 37.6638 18.4575 37.5817 18.3978C37.4995 18.3382 37.4331 18.2594 37.3882 18.1684L32.1315 7.51691C31.7282 6.69971 30.9114 6.19203 30 6.19203C29.0887 6.19203 28.272 6.69971 27.8687 7.51691L25.2209 12.8818C25.1182 13.09 25.1023 13.3304 25.1769 13.5503C25.2514 13.7701 25.4103 13.9514 25.6184 14.0541C25.8266 14.1569 26.0671 14.1727 26.2869 14.0982C26.5068 14.0236 26.688 13.8648 26.7908 13.6566L29.4386 8.29163C29.594 7.97663 29.8831 7.94255 30 7.94255C30.1171 7.94255 30.4062 7.97663 30.5616 8.29163L35.8185 18.9432C35.989 19.2887 36.2411 19.5876 36.5528 19.8141C36.8646 20.0405 37.2267 20.1878 37.6081 20.2432L49.3625 21.9513C49.7102 22.0018 49.8318 22.2661 49.868 22.3775C49.9043 22.4888 49.9611 22.7742 49.7096 23.0194L41.204 31.3104C40.928 31.5793 40.7216 31.9114 40.6025 32.2779C40.4835 32.6444 40.4553 33.0344 40.5205 33.4142L42.5284 45.1213C42.5878 45.4675 42.374 45.665 42.2792 45.7338C42.1845 45.8025 41.9311 45.9451 41.6198 45.7814L37.3677 43.5459C37.2659 43.4924 37.1546 43.4595 37.0402 43.449C36.9257 43.4385 36.8103 43.4507 36.7005 43.4848C36.5907 43.5189 36.4887 43.5743 36.4004 43.6478C36.312 43.7214 36.239 43.8116 36.1855 43.9133C36.132 44.0151 36.0991 44.1264 36.0886 44.2408C36.0781 44.3553 36.0903 44.4707 36.1244 44.5805C36.1585 44.6903 36.2139 44.7922 36.2874 44.8806C36.361 44.969 36.4512 45.042 36.5529 45.0955L40.8051 47.3309C41.1467 47.5114 41.527 47.606 41.9134 47.6065C42.4041 47.6065 42.8916 47.4526 43.3081 47.15C44.0454 46.6143 44.4078 45.7235 44.2537 44.8253L42.2457 33.1182ZM34.039 41.7959L31.1061 40.2541C30.765 40.0747 30.3854 39.981 30 39.981C29.6147 39.981 29.2351 40.0747 28.894 40.2541L18.3805 45.7815C18.0697 45.9451 17.8157 45.8027 17.721 45.7339C17.6263 45.665 17.4125 45.4677 17.4719 45.1213L19.4798 33.4143C19.545 33.0345 19.5168 32.6445 19.3977 32.278C19.2786 31.9115 19.0722 31.5795 18.7962 31.3105L10.2906 23.0195C10.0391 22.7743 10.096 22.4889 10.1322 22.3776C10.1684 22.2663 10.2901 22.0019 10.6378 21.9514L22.3922 20.2433C22.7736 20.188 23.1358 20.0407 23.4476 19.8142C23.7593 19.5877 24.0113 19.2888 24.1819 18.9432L25.129 17.0241C25.2317 16.816 25.2476 16.5755 25.173 16.3556C25.0985 16.1358 24.9396 15.9546 24.7314 15.8518C24.5233 15.7491 24.2828 15.7332 24.0629 15.8078C23.8431 15.8823 23.6619 16.0411 23.5591 16.2493L22.612 18.1684C22.5671 18.2594 22.5007 18.3381 22.4185 18.3978C22.3364 18.4575 22.241 18.4963 22.1405 18.5109L10.3859 20.2189C9.484 20.35 8.74885 20.9698 8.46723 21.8365C8.18561 22.7032 8.41611 23.6369 9.06863 24.2729L17.5743 32.564C17.647 32.6348 17.7014 32.7223 17.7328 32.8189C17.7641 32.9155 17.7715 33.0182 17.7543 33.1183L15.7465 44.8252C15.5924 45.7235 15.9547 46.6142 16.6921 47.1499C17.1087 47.4526 17.5961 47.6065 18.087 47.6064C18.4646 47.6064 18.8444 47.5152 19.1952 47.3308L29.7087 41.8035C29.7986 41.7562 29.8986 41.7315 30.0001 41.7315C30.1016 41.7315 30.2016 41.7562 30.2915 41.8035L33.2244 43.3453C33.4295 43.4503 33.6678 43.4701 33.8875 43.4005C34.1072 43.3309 34.2906 43.1774 34.3979 42.9734C34.5051 42.7694 34.5276 42.5314 34.4604 42.3109C34.3932 42.0904 34.2418 41.9054 34.039 41.7959ZM4.56821 7.57118L11.6809 11.1284C11.9472 11.2623 12.2411 11.3322 12.5392 11.3326C13.0023 11.3326 13.4586 11.1624 13.8203 10.8341C14.4089 10.2998 14.605 9.47517 14.3197 8.73325L11.4668 1.31009C11.1022 0.361598 10.0231 -0.142235 9.06116 0.187234C6.57852 1.03723 4.76907 2.67944 3.68309 5.06836C3.26235 5.99398 3.6594 7.11672 4.56821 7.57118ZM5.27687 5.79289C6.16783 3.83276 7.59121 2.54091 9.62836 1.84357C9.64249 1.83867 9.65743 1.83645 9.67271 1.83645C9.73865 1.83645 9.80973 1.87858 9.83272 1.93822L12.6858 9.36138C12.6965 9.38939 12.7252 9.46397 12.6438 9.53785C12.5625 9.61184 12.491 9.57613 12.464 9.56259L5.35121 6.00541C5.28095 5.97028 5.24407 5.86501 5.27687 5.79289ZM46.1798 10.8341C46.5415 11.1623 46.9978 11.3326 47.461 11.3326C47.7516 11.3326 48.0451 11.2655 48.3193 11.1284L55.432 7.57118C56.3407 7.11683 56.7377 5.99409 56.3172 5.06847C55.2313 2.67956 53.4218 1.03723 50.9392 0.187234C49.9772 -0.142002 48.8982 0.361714 48.5336 1.31009L45.6805 8.73325C45.3952 9.47517 45.5912 10.2998 46.1798 10.8341ZM47.3145 9.36138L50.1676 1.9381C50.1905 1.87846 50.2616 1.83633 50.3275 1.83633C50.3429 1.83633 50.358 1.83867 50.372 1.84345C52.409 2.54091 53.8324 3.83276 54.7233 5.79265C54.7561 5.86478 54.7193 5.97017 54.6489 6.0053L47.5362 9.56247C47.5094 9.57589 47.4379 9.61172 47.3564 9.53773C47.2751 9.46397 47.3037 9.38939 47.3145 9.36138ZM13.8203 49.1659C13.2316 48.6316 12.3919 48.5161 11.6809 48.8717L4.56821 52.4289C3.6594 52.8833 3.26235 54.0061 3.68309 54.9316C4.76907 57.3205 6.57852 58.9628 9.06116 59.8128C9.25662 59.8797 9.46181 59.9138 9.6684 59.9137C10.4405 59.9137 11.178 59.4413 11.4668 58.69L14.3198 51.2668C14.605 50.5249 14.409 49.7002 13.8203 49.1659ZM12.6858 50.6388L9.83261 58.0621C9.80436 58.1355 9.70306 58.1823 9.62825 58.1567C7.59121 57.4593 6.16783 56.1675 5.27687 54.2073C5.24407 54.1352 5.28095 54.0299 5.35133 53.9948L12.464 50.4376C12.4783 50.4305 12.5051 50.4171 12.5392 50.4171C12.5694 50.4171 12.6055 50.4276 12.6438 50.4623C12.7251 50.5361 12.6965 50.6107 12.6858 50.6388ZM55.432 52.4289L54.2119 51.8186C54.109 51.7661 53.9967 51.7346 53.8815 51.7257C53.7663 51.7168 53.6505 51.7309 53.5408 51.767C53.4311 51.8031 53.3296 51.8605 53.2422 51.9361C53.1547 52.0116 53.0831 52.1037 53.0315 52.207C52.9798 52.3103 52.9491 52.4228 52.9411 52.5381C52.9332 52.6533 52.9481 52.769 52.9851 52.8785C53.022 52.9879 53.0803 53.089 53.1565 53.1758C53.2327 53.2626 53.3253 53.3335 53.429 53.3844L54.6491 53.9947C54.7195 54.0298 54.7562 54.1351 54.7235 54.2072C53.8326 56.1673 52.4093 57.4592 50.3723 58.1565C50.2976 58.1822 50.196 58.1353 50.1678 58.0618L47.3148 50.6387C47.3039 50.6107 47.2753 50.5361 47.3567 50.4622C47.4379 50.3885 47.5096 50.4242 47.5364 50.4376L50.0561 51.6977C50.1589 51.7491 50.2709 51.7798 50.3855 51.788C50.5002 51.7961 50.6153 51.7816 50.7244 51.7453C50.8335 51.7089 50.9343 51.6514 51.0211 51.5761C51.1079 51.5008 51.1791 51.4091 51.2305 51.3063C51.2819 51.2035 51.3126 51.0915 51.3207 50.9769C51.3289 50.8622 51.3144 50.7471 51.278 50.638C51.2417 50.5289 51.1842 50.4281 51.1089 50.3413C51.0336 50.2545 50.9419 50.1833 50.839 50.1319L48.3193 48.8718C47.6084 48.5162 46.7686 48.6318 46.18 49.1659C45.5913 49.7002 45.3952 50.5249 45.6805 51.2668L48.5336 58.69C48.8224 59.4413 49.5598 59.9137 50.332 59.9137C50.5344 59.9137 50.7394 59.8812 50.9392 59.8128C53.4218 58.9628 55.2313 57.3205 56.317 54.9316C56.7377 54.0062 56.3408 52.8833 55.432 52.4289ZM6.85291 30.0149C6.86586 29.4007 6.53324 28.847 5.98483 28.5701L2.6955 26.9088C2.50564 26.8135 2.29865 26.757 2.08668 26.7427C1.8747 26.7284 1.662 26.7566 1.46107 26.8256C1.05679 26.9654 0.734786 27.2547 0.554704 27.6404C-0.185115 29.2239 -0.184882 30.7577 0.555287 32.1992C0.688125 32.4589 0.890069 32.6769 1.13887 32.8292C1.38767 32.9814 1.67367 33.0621 1.96537 33.0622C2.18396 33.0622 2.40594 33.0166 2.61754 32.9206L5.92449 31.422C6.48434 31.1682 6.84007 30.6292 6.85291 30.0149ZM2.04414 31.2584C1.65107 30.4036 1.65795 29.5147 2.06515 28.5516L4.88017 29.9734L2.04414 31.2584ZM59.4453 27.6405C59.2652 27.2549 58.9433 26.9655 58.539 26.8256C58.3381 26.7566 58.1254 26.7284 57.9134 26.7426C57.7014 26.7569 57.4944 26.8134 57.3046 26.9088L54.0153 28.5701C53.4668 28.8471 53.1341 29.4007 53.1472 30.0149C53.1601 30.6292 53.5158 31.1682 54.0754 31.4218L57.3824 32.9206C57.5873 33.0138 57.8097 33.062 58.0347 33.0621C58.611 33.0621 59.1643 32.7453 59.4447 32.1992C60.185 30.7574 60.1852 29.2236 59.4453 27.6405ZM57.9561 31.2584L55.1201 29.9732L57.9351 28.5516C58.3423 29.5147 58.3491 30.4034 57.9561 31.2584ZM20.8283 6.34247C20.8803 6.52573 20.9906 6.68705 21.1425 6.80198C21.2944 6.91691 21.4796 6.97918 21.6701 6.97935C21.8054 6.97944 21.939 6.94811 22.0602 6.88784C22.1815 6.82758 22.2871 6.74 22.3688 6.63202C22.4504 6.52403 22.5059 6.39857 22.5309 6.2655C22.5559 6.13243 22.5496 5.99538 22.5127 5.86513L21.5713 2.54324C21.54 2.43263 21.4872 2.32927 21.4159 2.23907C21.3447 2.14886 21.2563 2.07359 21.1559 2.01755C21.0556 1.9615 20.9451 1.92578 20.8309 1.91243C20.7168 1.89908 20.6011 1.90836 20.4905 1.93974C20.3799 1.97108 20.2765 2.02389 20.1864 2.09517C20.0962 2.16645 20.0209 2.2548 19.9649 2.35516C19.9088 2.45553 19.8731 2.56595 19.8597 2.68012C19.8464 2.7943 19.8556 2.90998 19.887 3.02058L20.8283 6.34247ZM9.39203 15.7835C9.43894 15.6786 9.46473 15.5654 9.46792 15.4505C9.4711 15.3356 9.45162 15.2212 9.41059 15.1138C9.36956 15.0065 9.30778 14.9082 9.22878 14.8247C9.14978 14.7412 9.05511 14.6741 8.95017 14.6272L6.33939 13.4601C6.12745 13.3653 5.88656 13.3587 5.6697 13.4415C5.45284 13.5244 5.27778 13.69 5.18303 13.9019C5.08829 14.1139 5.08161 14.3548 5.16448 14.5716C5.24734 14.7885 5.41296 14.9636 5.62489 15.0583L8.23568 16.2254C8.3479 16.2757 8.46947 16.3018 8.59246 16.3018C8.76155 16.3019 8.92704 16.253 9.06893 16.161C9.21081 16.069 9.32303 15.9379 9.39203 15.7835ZM5.3316 39.8843C5.17391 39.9876 5.0538 40.1391 4.98915 40.3162C4.92449 40.4933 4.91874 40.6866 4.97276 40.8672C5.02678 41.0478 5.13768 41.2062 5.28896 41.3187C5.44023 41.4313 5.62379 41.4919 5.81233 41.4917C5.98262 41.4918 6.14919 41.4419 6.29142 41.3483L8.68302 39.7803C9.0873 39.5153 9.20016 38.9727 8.93511 38.5684C8.67007 38.1641 8.12737 38.0511 7.72321 38.3163L5.3316 39.8843ZM23.4502 52.6453C23.3492 52.5905 23.2383 52.5561 23.124 52.5442C23.0097 52.5322 22.8941 52.5429 22.7839 52.5757C22.6737 52.6084 22.5711 52.6625 22.4818 52.7349C22.3925 52.8074 22.3184 52.8967 22.2636 52.9977L20.9011 55.512C20.8463 55.613 20.8119 55.7239 20.8 55.8382C20.7881 55.9525 20.7988 56.0681 20.8315 56.1783C20.8642 56.2885 20.9184 56.3911 20.9908 56.4804C21.0632 56.5697 21.1525 56.6438 21.2535 56.6986C21.3546 56.7534 21.4654 56.7877 21.5798 56.7997C21.6941 56.8116 21.8097 56.8009 21.9199 56.7682C22.0301 56.7355 22.1328 56.6814 22.2221 56.6089C22.3113 56.5365 22.3855 56.4472 22.4402 56.3461L23.8028 53.8318C23.9134 53.6277 23.9384 53.3881 23.8722 53.1655C23.8061 52.943 23.6543 52.7559 23.4502 52.6453ZM38.091 6.94597C38.1688 6.96809 38.2493 6.97933 38.3302 6.97935C38.5206 6.97916 38.7058 6.91688 38.8577 6.80196C39.0096 6.68703 39.1199 6.52572 39.1719 6.34247L40.1132 3.02058C40.1446 2.90998 40.1538 2.7943 40.1405 2.68013C40.1271 2.56596 40.0914 2.45553 40.0353 2.35517C39.9793 2.2548 39.904 2.16646 39.8138 2.09518C39.7237 2.0239 39.6203 1.97108 39.5097 1.93974C39.3991 1.90839 39.2834 1.89914 39.1693 1.91251C39.0551 1.92587 38.9447 1.9616 38.8443 2.01764C38.744 2.07368 38.6556 2.14894 38.5843 2.23912C38.513 2.3293 38.4602 2.43264 38.4289 2.54324L37.4875 5.86513C37.4562 5.97572 37.4469 6.09141 37.4603 6.20558C37.4736 6.31976 37.5094 6.43018 37.5654 6.53054C37.6214 6.63091 37.6967 6.71925 37.7869 6.79053C37.8771 6.86181 37.9804 6.91463 38.091 6.94597ZM54.8172 13.9018C54.7224 13.6899 54.5474 13.5244 54.3305 13.4415C54.1137 13.3586 53.8729 13.3653 53.6609 13.46L51.0502 14.6271C50.9452 14.674 50.8505 14.7411 50.7715 14.8246C50.6925 14.9081 50.6308 15.0063 50.5897 15.1137C50.5487 15.2211 50.5292 15.3355 50.5324 15.4504C50.5356 15.5653 50.5614 15.6785 50.6083 15.7834C50.6773 15.9378 50.7895 16.0689 50.9314 16.1609C51.0733 16.2529 51.2388 16.3018 51.4079 16.3017C51.5273 16.3017 51.6485 16.2772 51.7646 16.2253L54.3754 15.0582C54.5873 14.9634 54.7529 14.7883 54.8358 14.5715C54.9186 14.3546 54.9119 14.1138 54.8172 13.9018ZM51.065 38.5683C50.9377 38.7624 50.8928 38.9992 50.94 39.2264C50.9873 39.4537 51.1229 39.6529 51.3171 39.7802L53.7087 41.3482C53.8048 41.4113 53.9124 41.4548 54.0253 41.4763C54.1383 41.4978 54.2543 41.4968 54.3669 41.4734C54.4794 41.4499 54.5863 41.4046 54.6813 41.3398C54.7763 41.2751 54.8576 41.1923 54.9206 41.0961C55.0478 40.9019 55.0928 40.6652 55.0455 40.4379C54.9982 40.2107 54.8626 40.0115 54.6685 39.8842L52.2769 38.3162C52.0827 38.1889 51.846 38.144 51.6187 38.1913C51.3914 38.2385 51.1923 38.3742 51.065 38.5683ZM37.7367 52.9978C37.682 52.8967 37.6078 52.8074 37.5186 52.735C37.4293 52.6626 37.3267 52.6084 37.2165 52.5757C37.1063 52.5429 36.9907 52.5322 36.8764 52.5442C36.762 52.5561 36.6512 52.5905 36.5501 52.6453C36.346 52.7559 36.1942 52.943 36.1281 53.1655C36.062 53.3881 36.0869 53.6277 36.1975 53.8318L37.5601 56.3461C37.6148 56.4472 37.689 56.5365 37.7782 56.609C37.8675 56.6814 37.9701 56.7355 38.0803 56.7683C38.1905 56.801 38.3061 56.8117 38.4204 56.7998C38.5348 56.7878 38.6456 56.7535 38.7467 56.6987C38.9508 56.5881 39.1026 56.4009 39.1687 56.1784C39.2348 55.9559 39.2099 55.7162 39.0993 55.5121L37.7367 52.9978Z" fill="url(#paint0_linear_265_137)"/>
<defs>
<linearGradient id="paint0_linear_265_137" x1="0" y1="0.0863037" x2="63.5006" y2="4.06655" gradientUnits="userSpaceOnUse">
<stop stop-color="#00AA30"/>
<stop offset="1" stop-color="#00D03A"/>
</linearGradient>
</defs>
</svg>
