<svg width="60" height="58" viewBox="0 0 60 58" fill="none" xmlns="http://www.w3.org/2000/svg">
<path d="M53.288 17.3277L54.5149 15.9004L55.7106 16.9285C55.7987 17.0042 55.9009 17.0619 56.0112 17.0981C56.1216 17.1344 56.2381 17.1486 56.3539 17.1398C56.4698 17.1311 56.5828 17.0996 56.6865 17.0472C56.7902 16.9948 56.8826 16.9224 56.9583 16.8343L58.8579 14.6249C59.0108 14.4469 59.0868 14.2155 59.0692 13.9816C59.0515 13.7476 58.9416 13.5302 58.7637 13.3773L52.2305 7.76052C52.1425 7.68459 52.0404 7.62682 51.93 7.59054C51.8195 7.55426 51.703 7.54019 51.5872 7.54913C51.3532 7.56677 51.1358 7.67663 50.9828 7.85454L49.0832 10.064C48.9303 10.2419 48.8543 10.4733 48.8719 10.7073C48.8896 10.9413 48.9995 11.1586 49.1774 11.3116L50.3731 12.3397L49.0522 13.876C46.3466 12.1478 43.2676 10.9548 39.9654 10.4481V7.7748H43.0125C44.4346 7.7748 45.5915 6.6178 45.5915 5.19563V3.13715C45.5915 1.71498 44.4345 0.557983 43.0125 0.557983H29.7199C28.2977 0.557983 27.1407 1.71498 27.1407 3.13715V5.19563C27.1407 6.6178 28.2977 7.7748 29.7199 7.7748H32.767V10.4481C29.3997 10.9648 26.265 12.1959 23.521 13.9795L22.1112 12.3397L23.307 11.3116C23.4848 11.1585 23.5946 10.9412 23.6122 10.7072C23.6299 10.4732 23.5539 10.2419 23.401 10.0639L21.5014 7.85442C21.4257 7.76632 21.3333 7.694 21.2296 7.64159C21.1259 7.58919 21.0129 7.55772 20.8971 7.54899C20.7812 7.54026 20.6648 7.55444 20.5544 7.59071C20.444 7.62699 20.3418 7.68465 20.2537 7.7604L13.7206 13.3772C13.5428 13.5302 13.433 13.7476 13.4154 13.9815C13.3978 14.2155 13.4738 14.4469 13.6266 14.6249L15.5262 16.8343C15.6092 16.9311 15.7122 17.0087 15.8281 17.0618C15.9439 17.115 16.0699 17.1424 16.1974 17.1422C16.409 17.1424 16.6136 17.0665 16.7738 16.9283L17.9695 15.9004L19.3127 17.4627C18.1472 18.6783 17.114 20.0142 16.2306 21.448C16.2004 21.4449 16.17 21.4434 16.1396 21.4434H10.5525C10.3178 21.4434 10.0928 21.5366 9.92689 21.7026C9.76097 21.8685 9.66775 22.0935 9.66775 22.3282C9.66775 22.5628 9.76097 22.7878 9.92689 22.9538C10.0928 23.1197 10.3178 23.2129 10.5525 23.2129H15.245C14.7766 24.1426 14.3706 25.1024 14.0295 26.086H5.09027C4.85563 26.086 4.63059 26.1792 4.46467 26.3452C4.29875 26.5111 4.20554 26.7361 4.20554 26.9708C4.20554 27.2054 4.29875 27.4304 4.46467 27.5964C4.63059 27.7623 4.85563 27.8555 5.09027 27.8555H13.4924C13.1695 29.0975 12.9489 30.3638 12.8329 31.6418H0.884731C0.650086 31.6418 0.425051 31.735 0.259132 31.9009C0.0932125 32.0668 0 32.2919 0 32.5265C0 32.7612 0.0932125 32.9862 0.259132 33.1521C0.425051 33.318 0.650086 33.4112 0.884731 33.4112H12.7377C12.7354 33.5435 12.7326 33.6755 12.7326 33.8083C12.7326 34.959 12.8169 36.0903 12.9766 37.1975H4.26452C4.02988 37.1975 3.80484 37.2908 3.63892 37.4567C3.473 37.6226 3.37979 37.8476 3.37979 38.0823C3.37979 38.3169 3.473 38.5419 3.63892 38.7079C3.80484 38.8738 4.02988 38.967 4.26452 38.967H13.3013C13.5188 39.9416 13.7986 40.9012 14.1387 41.84H9.72674C9.49209 41.84 9.26706 41.9332 9.10114 42.0992C8.93522 42.2651 8.84201 42.4901 8.84201 42.7247C8.84201 42.9594 8.93522 43.1844 9.10114 43.3503C9.26706 43.5163 9.49209 43.6095 9.72674 43.6095H14.8629C18.5941 51.763 26.8291 57.442 36.3663 57.442C41.3476 57.442 46.1118 55.9103 50.1441 53.0126C50.3325 52.8749 50.4588 52.6683 50.4956 52.4378C50.5323 52.2073 50.4765 51.9716 50.3403 51.7821C50.2041 51.5926 49.9985 51.4646 49.7683 51.4259C49.5382 51.3873 49.3021 51.4412 49.1114 51.5758C45.382 54.256 40.9747 55.6726 36.3663 55.6726C24.3103 55.6726 14.502 45.8644 14.502 33.8084C14.502 21.7524 24.3103 11.9441 36.3663 11.9441C42.2024 11.9441 47.5117 14.2427 51.4367 17.9819C51.4448 17.9904 51.4537 17.9982 51.4621 18.0064C55.6304 21.9901 58.2305 27.6013 58.2305 33.8084C58.2305 39.6557 55.9515 45.1512 51.8131 49.2823C51.7308 49.3643 51.6656 49.4618 51.621 49.5691C51.5764 49.6764 51.5535 49.7915 51.5534 49.9077C51.5533 50.0239 51.5761 50.1389 51.6204 50.2463C51.6648 50.3537 51.7299 50.4513 51.812 50.5335C51.9778 50.6995 52.2027 50.7929 52.4373 50.7931C52.672 50.7933 52.8971 50.7003 53.0631 50.5346C57.5364 46.069 60 40.1289 60 33.8083C60 27.4043 57.4386 21.5883 53.288 17.3277ZM51.7479 9.67897L56.9394 14.1421L56.1934 15.0098L51.0019 10.5466L51.7479 9.67897ZM51.715 13.4932L53.1732 14.7468L52.0053 16.1053C51.5252 15.6806 51.0286 15.2741 50.515 14.889L51.715 13.4932ZM32.4536 6.00533V2.32745H33.8824V6.00533H32.4536ZM35.6518 2.32745H37.0806V6.00533H35.6518V2.32745ZM38.8501 6.00533V2.32745H40.279V6.00533H38.8501ZM43.8223 3.13715V5.19563C43.8221 5.41029 43.7367 5.61609 43.5849 5.76789C43.4331 5.91969 43.2273 6.00508 43.0127 6.00533H42.0486V2.32745H43.0127C43.2273 2.3277 43.4331 2.41309 43.5849 2.56489C43.7367 2.71669 43.8221 2.92249 43.8223 3.13715ZM28.9103 5.19563V3.13715C28.9106 2.92248 28.9959 2.71667 29.1477 2.56488C29.2995 2.41308 29.5053 2.3277 29.72 2.32745H30.6841V6.00533H29.72C29.5053 6.00508 29.2995 5.9197 29.1477 5.7679C28.9959 5.6161 28.9106 5.4103 28.9103 5.19563ZM16.2911 15.0099L15.5451 14.1423L20.7365 9.67909L21.4825 10.5467L20.2869 11.5747L20.2867 11.5748L17.4868 13.982L17.4865 13.9822L16.2911 15.0099ZM19.3377 14.7241L20.7694 13.4932L22.068 15.0038C21.5579 15.3924 21.0636 15.8016 20.5865 16.2302L19.3112 14.747L19.3377 14.7241ZM34.5365 10.2447V7.7748H38.1961V10.2448C36.978 10.1511 35.7546 10.151 34.5365 10.2447Z" fill="url(#paint0_linear_265_129)"/>
<path d="M28.9565 17.6896C28.8478 17.4816 28.661 17.3254 28.4371 17.2552C28.2132 17.185 27.9706 17.2066 27.7626 17.3153C22.3837 20.1268 18.7049 25.3939 17.9216 31.4047C16.5963 41.5751 23.7923 50.9276 33.9627 52.2528C34.764 52.3575 35.5712 52.4101 36.3793 52.4101C45.5745 52.4092 53.5914 45.5696 54.8109 36.2117C55.4528 31.2849 54.1379 26.4031 51.108 22.4653C48.0782 18.5277 43.6964 16.0055 38.7695 15.3634C36.3659 15.0501 33.9687 15.2012 31.6441 15.812C31.4202 15.8743 31.2297 16.0223 31.1139 16.2239C30.9982 16.4255 30.9664 16.6645 31.0255 16.8894C31.0846 17.1142 31.2297 17.3068 31.4297 17.4254C31.6296 17.5441 31.8681 17.5793 32.0938 17.5235C33.2019 17.2323 34.3371 17.056 35.4814 16.9976V19.3221C35.4814 19.8107 35.8774 20.2068 36.3661 20.2068C36.8548 20.2068 37.2508 19.8107 37.2508 19.3221V16.9997C37.6804 17.0229 38.1105 17.0619 38.541 17.1179C41.9865 17.5669 45.137 19.0329 47.6563 21.3204L46.054 22.9226C45.9719 23.0047 45.9067 23.1022 45.8622 23.2095C45.8177 23.3169 45.7948 23.4319 45.7948 23.5481C45.7948 23.6643 45.8177 23.7793 45.8621 23.8867C45.9066 23.994 45.9718 24.0915 46.0539 24.1737C46.136 24.256 46.2335 24.3213 46.3409 24.3657C46.4483 24.4102 46.5634 24.433 46.6796 24.4329C46.7958 24.433 46.9109 24.4102 47.0183 24.3657C47.1256 24.3212 47.2231 24.256 47.3052 24.1737L48.9029 22.576C49.1822 22.8888 49.45 23.2117 49.7057 23.5441C51.8212 26.2935 53.0117 29.5517 53.1787 32.9446H50.9841C50.4954 32.9446 50.0994 33.3407 50.0994 33.8293C50.0994 34.3179 50.4954 34.714 50.9841 34.714H53.1739C53.1504 35.1382 53.1112 35.5614 53.0563 35.9827C52.6005 39.4803 51.0949 42.5884 48.8991 45.0328L47.3834 43.5171C47.2172 43.3524 46.9926 43.2602 46.7586 43.2607C46.5246 43.2612 46.3004 43.3543 46.1349 43.5198C45.9695 43.6852 45.8763 43.9095 45.8758 44.1434C45.8752 44.3774 45.9674 44.6021 46.1321 44.7682L47.6495 46.2856C44.8628 48.8018 41.2544 50.3809 37.3614 50.6099V48.4471C37.3614 47.9585 36.9654 47.5623 36.4766 47.5623C35.9879 47.5623 35.5919 47.9585 35.5919 48.4471V50.6208C35.1236 50.5992 34.6564 50.5582 34.1914 50.4979C30.7324 50.0471 27.6538 48.57 25.2217 46.4134L26.7887 44.8463C27.1342 44.5008 27.1342 43.9407 26.7887 43.5952C26.4432 43.2497 25.883 43.2497 25.5376 43.5952L23.9616 45.1711C21.4077 42.3786 19.8012 38.7464 19.5654 34.8243H21.8588C22.0934 34.8243 22.3184 34.7311 22.4844 34.5652C22.6503 34.3993 22.7435 34.1742 22.7435 33.9396C22.7435 33.7049 22.6503 33.4799 22.4844 33.314C22.3184 33.1481 22.0934 33.0549 21.8588 33.0549H19.5524C19.5739 32.5835 19.6141 32.1093 19.6762 31.633C20.1191 28.2344 21.5853 25.0983 23.8106 22.6029L25.4595 24.2517C25.6322 24.4245 25.8587 24.5108 26.0851 24.5108C26.3114 24.5108 26.5379 24.4245 26.7106 24.2517C26.8765 24.0858 26.9697 23.8607 26.9697 23.6261C26.9697 23.3915 26.8765 23.1665 26.7106 23.0005L25.0572 21.3472C26.1221 20.3785 27.3068 19.5504 28.5823 18.8831C28.6852 18.8293 28.7766 18.7558 28.8511 18.6667C28.9257 18.5776 28.9819 18.4747 29.0167 18.3639C29.0515 18.253 29.064 18.1364 29.0537 18.0207C29.0434 17.905 29.0104 17.7925 28.9565 17.6896Z" fill="url(#paint1_linear_265_129)"/>
<path d="M36.3664 25.6926C36.1317 25.6926 35.9067 25.7858 35.7408 25.9518C35.5748 26.1177 35.4816 26.3427 35.4816 26.5774V31.8327C34.7272 32.1719 34.1998 32.9289 34.1998 33.8083C34.1998 35.0029 35.1717 35.9749 36.3664 35.9749C36.6938 35.9749 37.0034 35.8997 37.282 35.769L43.1846 41.6716C43.2666 41.7539 43.3642 41.8191 43.4715 41.8636C43.5789 41.9081 43.694 41.9309 43.8103 41.9307C43.9852 41.9308 44.1563 41.8789 44.3018 41.7817C44.4473 41.6845 44.5607 41.5463 44.6277 41.3846C44.6946 41.223 44.7122 41.0451 44.678 40.8735C44.6439 40.7018 44.5597 40.5442 44.4359 40.4205L38.4419 34.4263C38.5004 34.2303 38.5329 34.0231 38.5329 33.8083C38.5329 32.929 38.0055 32.1719 37.2512 31.8328V26.5775C37.2512 26.3428 37.1579 26.1178 36.992 25.9518C36.8261 25.7859 36.601 25.6927 36.3664 25.6926ZM35.9693 33.8082C35.9694 33.7029 36.0113 33.602 36.0857 33.5276C36.1602 33.4531 36.2611 33.4113 36.3664 33.4111C36.5852 33.4111 36.7633 33.5893 36.7633 33.8082C36.7633 34.0272 36.5852 34.2053 36.3664 34.2053C36.2611 34.2052 36.1602 34.1633 36.0857 34.0888C36.0113 34.0144 35.9694 33.9135 35.9693 33.8082Z" fill="url(#paint2_linear_265_129)"/>
<defs>
<linearGradient id="paint0_linear_265_129" x1="0" y1="0.557983" x2="63.4741" y2="4.74243" gradientUnits="userSpaceOnUse">
<stop stop-color="#00AA30"/>
<stop offset="1" stop-color="#00D03A"/>
</linearGradient>
<linearGradient id="paint1_linear_265_129" x1="17.7643" y1="15.2047" x2="57.1414" y2="17.6658" gradientUnits="userSpaceOnUse">
<stop stop-color="#00AA30"/>
<stop offset="1" stop-color="#00D03A"/>
</linearGradient>
<linearGradient id="paint2_linear_265_129" x1="34.1998" y1="25.6926" x2="45.3328" y2="26.1424" gradientUnits="userSpaceOnUse">
<stop stop-color="#00AA30"/>
<stop offset="1" stop-color="#00D03A"/>
</linearGradient>
</defs>
</svg>
