<svg width="40" height="40" viewBox="0 0 40 40" fill="none" xmlns="http://www.w3.org/2000/svg">
<path d="M29.1783 23.8449L29.1633 23.9699C25.4983 22.1432 25.115 21.8999 24.6417 22.6099C24.3133 23.1015 23.3567 24.2165 23.0683 24.5465C22.7767 24.8715 22.4867 24.8965 21.9917 24.6715C21.4917 24.4215 19.8867 23.8965 17.9867 22.1965C16.5067 20.8715 15.5133 19.2465 15.22 18.7465C14.7317 17.9032 15.7533 17.7832 16.6833 16.0232C16.85 15.6732 16.765 15.3982 16.6417 15.1499C16.5167 14.8999 15.5217 12.4499 15.105 11.4732C14.705 10.4999 14.2933 10.6232 13.985 10.6232C13.025 10.5399 12.3233 10.5532 11.705 11.1965C9.01498 14.1532 9.69332 17.2032 11.995 20.4465C16.5183 26.3665 18.9283 27.4565 23.335 28.9699C24.525 29.3482 25.61 29.2949 26.4683 29.1715C27.425 29.0199 29.4133 27.9699 29.8283 26.7949C30.2533 25.6199 30.2533 24.6449 30.1283 24.4199C30.005 24.1949 29.6783 24.0699 29.1783 23.8449Z" fill="url(#paint0_linear_232_71)"/>
<path d="M34.2 5.74832C21.385 -6.64001 0.176667 2.34499 0.168333 19.8217C0.168333 23.315 1.08333 26.7217 2.82667 29.73L0 40L10.5583 37.2467C23.7333 44.3633 39.9933 34.9133 40 19.8317C40 14.5383 37.9333 9.55666 34.175 5.81332L34.2 5.74832ZM36.67 19.7767C36.66 32.4983 22.695 40.4433 11.65 33.95L11.05 33.5933L4.8 35.2183L6.475 29.1433L6.07667 28.5183C-0.796667 17.5767 7.1 3.27666 20.12 3.27666C22.2943 3.27119 24.448 3.69703 26.4566 4.52953C28.4652 5.36204 30.2888 6.58467 31.8217 8.12666C33.3629 9.64928 34.5854 11.4637 35.4179 13.4639C36.2503 15.4641 36.676 17.6101 36.67 19.7767Z" fill="url(#paint1_linear_232_71)"/>
<defs>
<linearGradient id="paint0_linear_232_71" x1="9.96069" y1="10.5872" x2="31.3676" y2="12.0371" gradientUnits="userSpaceOnUse">
<stop stop-color="#00AA30"/>
<stop offset="1" stop-color="#00D03A"/>
</linearGradient>
<linearGradient id="paint1_linear_232_71" x1="0" y1="-0.000732422" x2="42.3346" y2="2.64513" gradientUnits="userSpaceOnUse">
<stop stop-color="#00AA30"/>
<stop offset="1" stop-color="#00D03A"/>
</linearGradient>
</defs>
</svg>
