<svg width="73" height="62" viewBox="0 0 73 62" fill="none" xmlns="http://www.w3.org/2000/svg">
<path opacity="0.1" d="M16.7 61.3C13.4333 61.2333 10.5333 60.5667 8 59.3C5.53333 57.9667 3.6 55.8667 2.2 53C0.8 50.0667 0.1 46.2 0.1 41.4V17.4C0.1 11.5333 1.63333 7.2 4.7 4.39999C7.83333 1.59999 11.9 0.199995 16.9 0.199995C21.7 0.199995 25.6 1.59999 28.6 4.39999C31.6667 7.2 33.2 11.5333 33.2 17.4V41.3C33.2 46.2333 32.5 50.1667 31.1 53.1C29.7667 56.0333 27.8333 58.1333 25.3 59.4C22.8333 60.6667 19.9667 61.3 16.7 61.3ZM16.7 54.4C18.1667 54.4 19.3667 53.8333 20.3 52.7C21.2333 51.5 21.7 49.7333 21.7 47.4V14.2C21.7 11.8667 21.2 10.1333 20.2 8.99999C19.2667 7.8 18.1 7.2 16.7 7.2C15.3 7.2 14.1 7.8 13.1 8.99999C12.1667 10.1333 11.7 11.8667 11.7 14.2V47.4C11.7 49.7333 12.1667 51.5 13.1 52.7C14.1 53.8333 15.3 54.4 16.7 54.4ZM38.7578 60C38.7578 58 38.7578 56 38.7578 54C38.7578 52 38.7578 50 38.7578 48C38.7578 44.4 39.1911 41.5667 40.0578 39.5C40.9911 37.3667 42.3578 35.6333 44.1578 34.3C46.0245 32.9 48.3911 31.5 51.2578 30.1C53.5911 28.9667 55.4245 27.8333 56.7578 26.7C58.0911 25.5667 59.0578 24.2333 59.6578 22.7C60.3245 21.1 60.6578 19.0667 60.6578 16.6C60.7245 14.1333 60.3911 12.2333 59.6578 10.9C58.9245 9.56666 57.6245 8.9 55.7578 8.9C53.9578 8.9 52.6578 9.7 51.8578 11.3C51.1245 12.8333 50.7578 15.1333 50.7578 18.2V22.3H39.1578V14.9C39.1578 10.1 40.5578 6.53333 43.3578 4.2C46.2245 1.8 50.4245 0.599996 55.9578 0.599996C60.1578 0.599996 63.4911 1.16666 65.9578 2.3C68.4245 3.43333 70.1578 5.2 71.1578 7.6C72.2245 10 72.7578 13.1667 72.7578 17.1C72.7578 21.7667 71.9911 25.5333 70.4578 28.4C68.9245 31.2667 66.3245 33.7 62.6578 35.7C61.0578 36.5 59.5578 37.3 58.1578 38.1C56.7578 38.9 55.5245 39.7667 54.4578 40.7C53.4578 41.6333 52.7245 42.8333 52.2578 44.3C51.8578 45.1667 51.5245 46.1333 51.2578 47.2C50.9911 48.2 50.8578 49.3 50.8578 50.5H72.9578V60H38.7578Z" fill="#AEC4B4"/>
</svg>
