<svg width="80" height="76" viewBox="0 0 80 76" fill="none" xmlns="http://www.w3.org/2000/svg">
<g filter="url(#filter0_d_22_131)">
<path d="M68.5938 43.9004V37.4468C68.5894 36.4772 68.3418 35.5242 67.8738 34.6749C67.4058 33.8257 66.7323 33.1075 65.9149 32.5859C66.7054 32.46 67.4251 32.0565 67.9451 31.4479C68.465 30.8392 68.7511 30.0653 68.752 29.2648C68.751 28.7212 68.5347 28.2001 68.1503 27.8157C67.7659 27.4313 67.2448 27.215 66.7012 27.214H65.1438C64.507 27.2137 63.8778 27.352 63.2998 27.6194C62.7218 27.8867 62.209 28.2766 61.7969 28.7621L61.6691 28.2406C61.6417 28.1285 61.5924 28.0229 61.5241 27.9298C61.4558 27.8367 61.3699 27.758 61.2712 27.6982C61.1725 27.6383 61.063 27.5985 60.9489 27.581C60.8348 27.5635 60.7184 27.5686 60.6063 27.5961C60.4941 27.6235 60.3885 27.6728 60.2955 27.7411C60.2024 27.8094 60.1237 27.8953 60.0639 27.994C60.004 28.0927 59.9642 28.2022 59.9467 28.3163C59.9291 28.4304 59.9343 28.5468 59.9617 28.6589L60.5078 30.8703H31.4336L33.2125 23.6304C33.2897 23.3118 33.4719 23.0285 33.7297 22.8261C33.9876 22.6237 34.3062 22.514 34.634 22.5148H57.3063C57.6342 22.5142 57.9528 22.6239 58.2108 22.8262C58.4689 23.0286 58.6513 23.3118 58.7289 23.6304L58.9832 24.6675C59.0387 24.894 59.1818 25.0891 59.3812 25.2099C59.5805 25.3308 59.8197 25.3675 60.0461 25.3121C60.2725 25.2566 60.4676 25.1134 60.5885 24.9141C60.7094 24.7148 60.7461 24.4756 60.6906 24.2492L60.4363 23.2109C60.2655 22.5101 59.8639 21.887 59.2962 21.442C58.7285 20.9969 58.0276 20.7557 57.3063 20.757H56.4063C56.6746 20.2649 56.8148 19.7132 56.8141 19.1527C56.8135 18.6094 56.5975 18.0885 56.2136 17.7041C55.8296 17.3197 55.3089 17.1032 54.7656 17.1019H53.2024C52.5661 17.1018 51.9373 17.2401 51.3598 17.5072C50.7823 17.7743 50.2698 18.1639 49.8578 18.6488L48.4949 13.0976C48.3241 12.3968 47.9225 11.7738 47.3548 11.3287C46.7871 10.8836 46.0862 10.6424 45.3648 10.6437H22.6938C21.9724 10.6424 21.2715 10.8836 20.7038 11.3287C20.1361 11.7738 19.7346 12.3968 19.5637 13.0976L18.2031 18.6464C18.127 18.5586 18.0484 18.4718 17.9688 18.3886C17.5617 17.9789 17.0775 17.654 16.544 17.4327C16.0105 17.2115 15.4385 17.0982 14.8609 17.0996H13.2941C12.7504 17.1002 12.2292 17.3165 11.8447 17.7009C11.4603 18.0854 11.244 18.6066 11.2434 19.1504C11.2426 19.9522 11.5278 20.728 12.0479 21.3383C12.568 21.9485 13.2887 22.3533 14.0805 22.4797C13.2647 23.0009 12.5925 23.7182 12.1254 24.5661C11.6582 25.414 11.411 26.3655 11.4063 27.3336V33.7894C10.9955 33.933 10.6395 34.2007 10.3875 34.5556C10.1356 34.9104 10.0002 35.3347 10 35.7699V39.425C9.99845 39.9789 10.2167 40.5109 10.6069 40.9042C10.9971 41.2974 11.5273 41.5198 12.0813 41.5226H13.968C14.4904 42.1507 15.2235 42.5672 16.0305 42.6945C15.2125 43.2161 14.5385 43.9347 14.0703 44.7844C13.602 45.634 13.3545 46.5876 13.3504 47.5578V54.0136C12.9405 54.1583 12.5857 54.4266 12.3348 54.7816C12.084 55.1365 11.9495 55.5606 11.95 55.9953V59.6047C11.9484 60.1586 12.1667 60.6906 12.5569 61.0838C12.9471 61.4771 13.4773 61.6995 14.0313 61.7023H14.8129V63.3066C14.8135 63.8503 15.0298 64.3716 15.4142 64.756C15.7987 65.1405 16.32 65.3568 16.8637 65.3574H23.0488C23.5925 65.3568 24.1138 65.1405 24.4983 64.756C24.8827 64.3716 25.099 63.8503 25.0996 63.3066V61.7023H46.8578V63.3066C46.8584 63.8503 47.0747 64.3716 47.4592 64.756C47.8436 65.1405 48.3649 65.3568 48.9086 65.3574H55.0949C55.6386 65.3568 56.1599 65.1405 56.5444 64.756C56.9288 64.3716 57.1451 63.8503 57.1457 63.3066V61.7023H57.9297C58.4837 61.6995 59.0139 61.4771 59.4041 61.0838C59.7943 60.6906 60.0125 60.1586 60.0109 59.6047V55.9953C60.0103 55.738 59.9627 55.483 59.8703 55.2429H65.0887C65.6324 55.2423 66.1537 55.0261 66.5381 54.6416C66.9226 54.2571 67.1388 53.7359 67.1395 53.1922V51.589H67.9211C68.4747 51.5856 69.0043 51.3629 69.394 50.9697C69.7836 50.5766 70.0016 50.0449 70 49.4914V45.8832C70 45.4477 69.8647 45.023 69.6127 44.6678C69.3608 44.3125 69.0047 44.0444 68.5938 43.9004ZM65.1438 28.9718H66.7059C66.7835 28.9721 66.8578 29.0031 66.9127 29.058C66.9676 29.1129 66.9985 29.1872 66.9988 29.2648C66.9982 29.6904 66.8289 30.0984 66.5279 30.3994C66.227 30.7003 65.819 30.8697 65.3934 30.8703H62.6172C62.7777 30.3239 63.1104 29.844 63.5656 29.502C64.0208 29.1599 64.5743 28.974 65.1438 28.9718ZM61.4641 32.6281L64.2883 33.7214C65.037 34.0161 65.6801 34.5287 66.1343 35.1928C66.5885 35.857 66.8329 36.6422 66.8359 37.4468V43.7855H57.1867C56.8213 43.3651 56.3975 42.9992 55.9281 42.6992C56.5334 42.6041 57.1009 42.3447 57.5688 41.9492H61.6305C62.5096 41.9479 63.3523 41.5981 63.9737 40.9764C64.5952 40.3547 64.9448 39.5119 64.9457 38.6328V38.0234C64.9448 37.4681 64.7239 36.9357 64.3315 36.5428C63.939 36.1499 63.4069 35.9285 62.8516 35.9269H59.8762C59.2627 35.9244 58.6551 36.0473 58.0909 36.2881C57.5266 36.529 57.0176 36.8826 56.5949 37.3273H55.1524C54.516 37.3271 53.8873 37.4654 53.3098 37.7325C52.7322 37.9996 52.2197 38.3892 51.8078 38.8742L50.4449 33.3242C50.3848 33.0829 50.2971 32.8493 50.1836 32.6281H61.4641ZM58.3469 38.1429C58.8003 37.8427 59.3324 37.6833 59.8762 37.6847H62.8516C62.9415 37.6847 63.0278 37.7204 63.0915 37.7839C63.1552 37.8473 63.1911 37.9335 63.1914 38.0234V38.6328C63.1911 39.0458 63.027 39.4419 62.735 39.7341C62.443 40.0263 62.0471 40.1907 61.634 40.1914H58.6645C58.7315 39.9255 58.7653 39.6523 58.7652 39.3781C58.7652 38.9316 58.6182 38.4975 58.3469 38.1429ZM56.7145 39.0804C56.7922 39.0804 56.8667 39.1113 56.9216 39.1662C56.9766 39.2212 57.0074 39.2957 57.0074 39.3734C57.0068 39.7988 56.8376 40.2066 56.5369 40.5075C56.2362 40.8085 55.8285 40.9779 55.4031 40.9789H52.6199C52.7807 40.4316 53.1143 39.951 53.5707 39.6088C54.0271 39.2667 54.5819 39.0813 55.1524 39.0804H56.7145ZM47.3149 32.6234C47.6428 32.6228 47.9614 32.7325 48.2194 32.9348C48.4775 33.1372 48.6599 33.4204 48.7375 33.739L50.5152 40.9789H21.4434L23.2211 33.739C23.2996 33.4204 23.4831 33.1375 23.742 32.9359C24.001 32.7344 24.3203 32.6259 24.6484 32.6281H47.3149V32.6234ZM26.5492 30.8656C26.1237 30.865 25.7159 30.6956 25.4151 30.3946C25.1143 30.0936 24.9452 29.6856 24.9449 29.2601C24.9452 29.1825 24.9762 29.1082 25.0311 29.0533C25.086 28.9984 25.1603 28.9675 25.2379 28.9671H26.8C27.3702 28.968 27.9248 29.1533 28.3808 29.4955C28.8369 29.8377 29.1699 30.3184 29.3301 30.8656H26.5492ZM18.3719 30.0734C17.9587 30.0731 17.5626 29.9087 17.2705 29.6165C16.9785 29.3242 16.8145 28.928 16.8145 28.5148V27.9066C16.8145 27.8165 16.8503 27.73 16.914 27.6663C16.9777 27.6026 17.0642 27.5668 17.1543 27.5668H20.1238C20.7267 27.5686 21.3126 27.7658 21.7939 28.1288C22.2752 28.4918 22.6259 29.001 22.7934 29.58L22.934 30.0734H18.3719ZM53.2024 18.8597H54.7656C54.8433 18.8597 54.9179 18.8906 54.9728 18.9455C55.0277 19.0005 55.0586 19.075 55.0586 19.1527C55.0583 19.5783 54.889 19.9863 54.588 20.2872C54.2869 20.588 53.8787 20.757 53.4531 20.757H50.6711C50.8316 20.2098 51.1649 19.7293 51.6211 19.3873C52.0774 19.0453 52.6321 18.8602 53.2024 18.8597ZM13.007 19.1527C13.007 19.075 13.0379 19.0005 13.0928 18.9455C13.1478 18.8906 13.2223 18.8597 13.3 18.8597H14.8563C15.4266 18.8602 15.9815 19.0452 16.438 19.3872C16.8945 19.7292 17.228 20.2097 17.3887 20.757H14.6055C14.1801 20.7567 13.7722 20.5876 13.4714 20.2868C13.1706 19.986 13.0015 19.5781 13.0012 19.1527H13.007ZM15.7176 23.6058L18.543 22.5125H25.2531C25.4862 22.5125 25.7098 22.4199 25.8746 22.255C26.0394 22.0902 26.132 21.8667 26.132 21.6336C26.132 21.4005 26.0394 21.1769 25.8746 21.0121C25.7098 20.8472 25.4862 20.7547 25.2531 20.7547H19.4922L21.2711 13.5172C21.3487 13.1985 21.5312 12.9153 21.7892 12.7129C22.0472 12.5106 22.3658 12.4009 22.6938 12.4015H45.3648C45.6928 12.4007 46.0115 12.5103 46.2696 12.7127C46.5277 12.9151 46.7101 13.1984 46.7875 13.5172L48.5664 20.757H29.3477C29.1146 20.757 28.891 20.8496 28.7262 21.0144C28.5614 21.1792 28.4688 21.4028 28.4688 21.6359C28.4688 21.869 28.5614 22.0926 28.7262 22.2574C28.891 22.4222 29.1146 22.5148 29.3477 22.5148H31.7641C31.6509 22.7361 31.5636 22.9697 31.5039 23.2109L30.1399 28.7621C29.7282 28.2769 29.216 27.8872 28.6386 27.6199C28.0613 27.3526 27.4327 27.2141 26.7965 27.214H25.2344C24.7184 27.2145 24.2218 27.4105 23.8445 27.7625C23.426 27.1629 22.8693 26.6728 22.2216 26.3336C21.5738 25.9944 20.8539 25.8161 20.1227 25.8136H17.1543C16.5982 25.8143 16.065 26.0355 15.6717 26.4287C15.2785 26.822 15.0573 27.3551 15.0566 27.9113V28.5195C15.0573 29.3987 15.4067 30.2417 16.0283 30.8634C16.6498 31.4852 17.4927 31.835 18.3719 31.8359H22.3445C21.9385 32.248 21.6514 32.7623 21.5137 33.3242L21.4281 33.6757H13.1641V27.3336C13.1671 26.5289 13.4115 25.7437 13.8657 25.0795C14.3199 24.4154 14.963 23.9028 15.7117 23.6082L15.7176 23.6058ZM12.0848 39.7625C11.9967 39.7609 11.9128 39.7245 11.8516 39.6613C11.7903 39.598 11.7566 39.513 11.7578 39.425V35.7699C11.7559 35.682 11.7889 35.597 11.8495 35.5333C11.9101 35.4696 11.9934 35.4325 12.0813 35.43H20.9969L20.1508 38.8718C20.0758 38.7839 19.9961 38.6984 19.9164 38.6152C19.5094 38.2054 19.0252 37.8805 18.4917 37.6592C17.9582 37.4379 17.3861 37.3247 16.8086 37.3261H15.2441C14.7004 37.3268 14.1792 37.543 13.7947 37.9275C13.4103 38.3119 13.194 38.8332 13.1934 39.3769C13.1936 39.5061 13.2011 39.6352 13.2156 39.7636L12.0848 39.7625ZM14.9547 39.3757C14.9547 39.298 14.9856 39.2235 15.0405 39.1686C15.0954 39.1136 15.17 39.0828 15.2477 39.0828H16.8063C17.3768 39.0831 17.9319 39.2682 18.3885 39.6105C18.845 39.9527 19.1784 40.4336 19.3387 40.9812H16.5555C16.1304 40.9806 15.7229 40.8115 15.4222 40.5111C15.1215 40.2106 14.9521 39.8032 14.9512 39.3781L14.9547 39.3757ZM23.3453 63.3043C23.3453 63.382 23.3145 63.4565 23.2595 63.5114C23.2046 63.5664 23.1301 63.5972 23.0524 63.5972H16.8637C16.786 63.5972 16.7115 63.5664 16.6565 63.5114C16.6016 63.4565 16.5707 63.382 16.5707 63.3043V61.7023H23.3418L23.3453 63.3043ZM27.7984 59.9422H14.0313C13.9434 59.9397 13.8601 59.9026 13.7995 59.8389C13.7389 59.7752 13.7059 59.6902 13.7078 59.6023V55.9953C13.7059 55.9074 13.7389 55.8223 13.7995 55.7587C13.8601 55.695 13.9434 55.6579 14.0313 55.6554H19.7359C19.969 55.6554 20.1926 55.5628 20.3574 55.398C20.5223 55.2332 20.6149 55.0096 20.6149 54.7765C20.6149 54.5434 20.5223 54.3199 20.3574 54.155C20.1926 53.9902 19.969 53.8976 19.7359 53.8976H15.1082V47.5578C15.1118 46.7525 15.3572 45.9669 15.8125 45.3027C16.2677 44.6384 16.912 44.1262 17.6617 43.8324L20.4859 42.739H51.4727L54.2969 43.8324C55.0466 44.1261 55.6908 44.6384 56.1459 45.3026C56.601 45.9669 56.846 46.7526 56.8492 47.5578V53.8965H23.8375C23.6044 53.8965 23.3809 53.989 23.216 54.1539C23.0512 54.3187 22.9586 54.5423 22.9586 54.7754C22.9586 55.0085 23.0512 55.232 23.216 55.3968C23.3809 55.5617 23.6044 55.6543 23.8375 55.6543H27.7891L27.7984 59.9422ZM42.4199 59.9422H29.5469V55.6566H42.4106L42.4199 59.9422ZM55.3973 63.3043C55.3973 63.382 55.3664 63.4565 55.3115 63.5114C55.2565 63.5664 55.182 63.5972 55.1043 63.5972H48.9063C48.8287 63.5969 48.7543 63.566 48.6994 63.5111C48.6446 63.4562 48.6136 63.3819 48.6133 63.3043V61.7023H55.3856L55.3973 63.3043ZM58.2602 59.6023C58.2621 59.6902 58.2291 59.7752 58.1685 59.8389C58.1079 59.9026 58.0246 59.9397 57.9367 59.9422H44.1684V55.6566H57.9297C58.0176 55.6591 58.1009 55.6962 58.1615 55.7598C58.2221 55.8235 58.255 55.9086 58.2531 55.9964L58.2602 59.6023ZM65.3887 53.191C65.3884 53.2686 65.3574 53.3429 65.3025 53.3978C65.2477 53.4527 65.1733 53.4836 65.0957 53.4839H58.607V51.589H65.3793L65.3887 53.191ZM68.2422 49.4914C68.2441 49.5792 68.2111 49.6643 68.1505 49.728C68.0899 49.7916 68.0066 49.8288 67.9188 49.8312H58.607V47.5578C58.6067 46.8685 58.4808 46.1851 58.2356 45.541H67.9188C68.0066 45.5434 68.0899 45.5806 68.1505 45.6442C68.2111 45.7079 68.2441 45.7929 68.2422 45.8808V49.4914Z" fill="url(#paint0_linear_22_131)"/>
<path d="M26.7508 51.712C26.8326 51.6035 26.8881 51.4775 26.9129 51.3439C26.9377 51.2103 26.9312 51.0728 26.8938 50.9421L26.4332 49.3284C26.1595 48.3822 25.5863 47.5503 24.7996 46.9574C24.013 46.3645 23.0554 46.0427 22.0703 46.0402H19.1031C18.5472 46.0405 18.0141 46.2615 17.621 46.6546C17.2279 47.0477 17.007 47.5807 17.0067 48.1366V48.746C17.0076 49.6251 17.3571 50.4679 17.9786 51.0896C18.6001 51.7113 19.4428 52.0612 20.3219 52.0624H26.0547C26.1898 52.0613 26.3229 52.0291 26.4436 51.9684C26.5643 51.9076 26.6694 51.8199 26.7508 51.712ZM20.3219 50.3058C19.9088 50.3052 19.5129 50.1407 19.2209 49.8485C18.9289 49.5563 18.7648 49.1603 18.7645 48.7472V48.1378C18.7645 48.048 18.8001 47.9619 18.8637 47.8983C18.9272 47.8348 19.0133 47.7991 19.1031 47.7991H22.0703C22.6731 47.801 23.2591 47.9982 23.7404 48.3612C24.2217 48.7242 24.5724 49.2333 24.7399 49.8124L24.8817 50.3058H20.3219Z" fill="url(#paint1_linear_22_131)"/>
<path d="M28.3621 49.605C28.5514 50.3101 28.9676 50.9333 29.5465 51.3781C30.1255 51.8229 30.8348 52.0647 31.5648 52.066H40.3937C41.1238 52.0647 41.8331 51.8229 42.412 51.3781C42.9909 50.9333 43.4072 50.3101 43.5965 49.605L44.2551 47.1441C44.2902 47.0139 44.2948 46.8774 44.2686 46.7451C44.2424 46.6129 44.1861 46.4884 44.1041 46.3814C44.022 46.2744 43.9164 46.1878 43.7955 46.1282C43.6745 46.0686 43.5415 46.0377 43.4066 46.0378H28.5519C28.4171 46.0377 28.284 46.0687 28.163 46.1283C28.0421 46.1878 27.9364 46.2745 27.8543 46.3814C27.7721 46.4884 27.7157 46.6128 27.6894 46.745C27.663 46.8773 27.6675 47.0138 27.7023 47.1441L28.3621 49.605ZM36.8582 47.798H42.2605L41.8984 49.1492C41.8094 49.4803 41.6137 49.7729 41.3418 49.9817C41.0698 50.1906 40.7366 50.3041 40.3937 50.3046H36.8582V47.798ZM35.1004 47.798V50.3046H31.5625C31.2195 50.3044 30.8861 50.1911 30.6141 49.9822C30.3421 49.7733 30.1465 49.4805 30.0578 49.1492L29.6945 47.798H35.1004Z" fill="url(#paint2_linear_22_131)"/>
<path d="M45.9098 52.0624H51.6355C52.5148 52.0615 53.3578 51.7118 53.9796 51.09C54.6013 50.4683 54.951 49.6253 54.9519 48.746V48.1366C54.9513 47.5806 54.7301 47.0475 54.3368 46.6545C53.9435 46.2614 53.4103 46.0405 52.8543 46.0402H50.5246C50.2915 46.0402 50.068 46.1328 49.9031 46.2976C49.7383 46.4624 49.6457 46.686 49.6457 46.9191C49.6457 47.1522 49.7383 47.3757 49.9031 47.5405C50.068 47.7054 50.2915 47.798 50.5246 47.798H52.8543C52.9442 47.798 53.0305 47.8336 53.0942 47.8971C53.1579 47.9606 53.1938 48.0467 53.1941 48.1366V48.746C53.1938 49.1593 53.0295 49.5555 52.7373 49.8478C52.4451 50.14 52.0488 50.3043 51.6355 50.3046H47.0746L47.2152 49.8113C47.2968 49.5247 47.4242 49.2532 47.5926 49.0073C47.724 48.8148 47.7736 48.5779 47.7305 48.3488C47.6873 48.1197 47.5548 47.9171 47.3623 47.7857C47.1698 47.6542 46.9329 47.6046 46.7038 47.6478C46.4747 47.691 46.2721 47.8234 46.1406 48.0159C45.8664 48.4176 45.6587 48.8607 45.5254 49.3284L45.0648 50.9421C45.0275 51.0729 45.021 51.2106 45.0459 51.3443C45.0707 51.478 45.1263 51.6041 45.2082 51.7127C45.2901 51.8213 45.3961 51.9094 45.5179 51.9701C45.6396 52.0308 45.7737 52.0624 45.9098 52.0624Z" fill="url(#paint3_linear_22_131)"/>
</g>
<defs>
<filter id="filter0_d_22_131" x="0" y="0.643707" width="80" height="74.7137" filterUnits="userSpaceOnUse" color-interpolation-filters="sRGB">
<feFlood flood-opacity="0" result="BackgroundImageFix"/>
<feColorMatrix in="SourceAlpha" type="matrix" values="0 0 0 0 0 0 0 0 0 0 0 0 0 0 0 0 0 0 127 0" result="hardAlpha"/>
<feOffset/>
<feGaussianBlur stdDeviation="5"/>
<feComposite in2="hardAlpha" operator="out"/>
<feColorMatrix type="matrix" values="0 0 0 0 0.00392157 0 0 0 0 0.760784 0 0 0 0 0.170431 0 0 0 0.5 0"/>
<feBlend mode="normal" in2="BackgroundImageFix" result="effect1_dropShadow_22_131"/>
<feBlend mode="normal" in="SourceGraphic" in2="effect1_dropShadow_22_131" result="shape"/>
</filter>
<linearGradient id="paint0_linear_22_131" x1="10" y1="10.6437" x2="73.4519" y2="14.9926" gradientUnits="userSpaceOnUse">
<stop stop-color="#00AA30"/>
<stop offset="1" stop-color="#00D03A"/>
</linearGradient>
<linearGradient id="paint1_linear_22_131" x1="17.0067" y1="46.0402" x2="27.4371" y2="47.1141" gradientUnits="userSpaceOnUse">
<stop stop-color="#00AA30"/>
<stop offset="1" stop-color="#00D03A"/>
</linearGradient>
<linearGradient id="paint2_linear_22_131" x1="27.6724" y1="46.0378" x2="44.8151" y2="48.9906" gradientUnits="userSpaceOnUse">
<stop stop-color="#00AA30"/>
<stop offset="1" stop-color="#00D03A"/>
</linearGradient>
<linearGradient id="paint3_linear_22_131" x1="45.031" y1="46.0402" x2="55.4614" y2="47.1141" gradientUnits="userSpaceOnUse">
<stop stop-color="#00AA30"/>
<stop offset="1" stop-color="#00D03A"/>
</linearGradient>
</defs>
</svg>
