<svg width="282" height="709" viewBox="0 0 282 709" fill="none" xmlns="http://www.w3.org/2000/svg">
<path d="M6.12775 705.861C6.12775 704.172 4.75599 702.802 3.06388 702.802C1.37176 702.802 0 704.172 0 705.861C0 707.551 1.37176 708.921 3.06388 708.921C4.75599 708.921 6.12775 707.551 6.12775 705.861Z" fill="url(#paint0_linear_23_499)" fill-opacity="0.3"/>
<path d="M6.12775 670.725C6.12775 669.035 4.75599 667.665 3.06388 667.665C1.37176 667.665 0 669.035 0 670.725C0 672.415 1.37176 673.785 3.06388 673.785C4.75599 673.785 6.12775 672.415 6.12775 670.725Z" fill="url(#paint1_linear_23_499)" fill-opacity="0.3"/>
<path d="M6.12775 635.589C6.12775 633.899 4.75599 632.529 3.06388 632.529C1.37176 632.529 0 633.899 0 635.589C0 637.279 1.37176 638.649 3.06388 638.649C4.75599 638.649 6.12775 637.279 6.12775 635.589Z" fill="url(#paint2_linear_23_499)" fill-opacity="0.3"/>
<path d="M6.12775 600.453C6.12775 598.763 4.75599 597.393 3.06388 597.393C1.37176 597.393 0 598.763 0 600.453C0 602.142 1.37176 603.512 3.06388 603.512C4.75599 603.512 6.12775 602.142 6.12775 600.453Z" fill="url(#paint3_linear_23_499)" fill-opacity="0.3"/>
<path d="M6.12775 565.316C6.12775 563.626 4.75599 562.257 3.06388 562.257C1.37176 562.257 0 563.626 0 565.316C0 567.006 1.37176 568.376 3.06388 568.376C4.75599 568.376 6.12775 567.006 6.12775 565.316Z" fill="url(#paint4_linear_23_499)" fill-opacity="0.3"/>
<path d="M6.12775 530.18C6.12775 528.49 4.75599 527.12 3.06388 527.12C1.37176 527.12 0 528.49 0 530.18C0 531.87 1.37176 533.24 3.06388 533.24C4.75599 533.24 6.12775 531.87 6.12775 530.18Z" fill="url(#paint5_linear_23_499)" fill-opacity="0.3"/>
<path d="M6.12775 495.018C6.12775 493.329 4.75599 491.959 3.06388 491.959C1.37176 491.959 0 493.329 0 495.018C0 496.708 1.37176 498.078 3.06388 498.078C4.75599 498.078 6.12775 496.708 6.12775 495.018Z" fill="url(#paint6_linear_23_499)" fill-opacity="0.3"/>
<path d="M6.12775 459.882C6.12775 458.192 4.75599 456.822 3.06388 456.822C1.37176 456.822 0 458.192 0 459.882C0 461.572 1.37176 462.942 3.06388 462.942C4.75599 462.942 6.12775 461.572 6.12775 459.882Z" fill="url(#paint7_linear_23_499)" fill-opacity="0.3"/>
<path d="M3.06388 421.686C4.74899 421.686 6.12775 423.063 6.12775 424.746C6.12775 426.429 4.74899 427.806 3.06388 427.806C1.37876 427.806 0 426.429 0 424.746C0 423.063 1.37876 421.686 3.06388 421.686Z" fill="url(#paint8_linear_23_499)" fill-opacity="0.3"/>
<path d="M6.12775 389.61C6.12775 387.92 4.75599 386.55 3.06388 386.55C1.37176 386.55 0 387.92 0 389.61C0 391.3 1.37176 392.669 3.06388 392.669C4.75599 392.669 6.12775 391.3 6.12775 389.61Z" fill="url(#paint9_linear_23_499)" fill-opacity="0.3"/>
<path d="M6.12775 354.473C6.12775 352.783 4.75599 351.414 3.06388 351.414C1.37176 351.414 0 352.783 0 354.473C0 356.163 1.37176 357.533 3.06388 357.533C4.75599 357.533 6.12775 356.163 6.12775 354.473Z" fill="url(#paint10_linear_23_499)" fill-opacity="0.3"/>
<path d="M6.12775 319.337C6.12775 317.647 4.75599 316.277 3.06388 316.277C1.37176 316.277 0 317.647 0 319.337C0 321.027 1.37176 322.397 3.06388 322.397C4.75599 322.397 6.12775 321.027 6.12775 319.337Z" fill="url(#paint11_linear_23_499)" fill-opacity="0.3"/>
<path d="M6.12775 284.175C6.12775 282.485 4.75599 281.116 3.06388 281.116C1.37176 281.116 0 282.485 0 284.175C0 285.865 1.37176 287.235 3.06388 287.235C4.75599 287.235 6.12775 285.865 6.12775 284.175Z" fill="url(#paint12_linear_23_499)" fill-opacity="0.3"/>
<path d="M6.12775 249.039C6.12775 247.349 4.75599 245.979 3.06388 245.979C1.37176 245.979 0 247.349 0 249.039C0 250.729 1.37176 252.099 3.06388 252.099C4.75599 252.099 6.12775 250.729 6.12775 249.039Z" fill="url(#paint13_linear_23_499)" fill-opacity="0.3"/>
<path d="M6.12775 213.903C6.12775 212.213 4.75599 210.843 3.06388 210.843C1.37176 210.843 0 212.213 0 213.903C0 215.593 1.37176 216.963 3.06388 216.963C4.75599 216.963 6.12775 215.593 6.12775 213.903Z" fill="url(#paint14_linear_23_499)" fill-opacity="0.3"/>
<path d="M6.12775 178.767C6.12775 177.077 4.75599 175.707 3.06388 175.707C1.37176 175.707 0 177.077 0 178.767C0 180.456 1.37176 181.826 3.06388 181.826C4.75599 181.826 6.12775 180.456 6.12775 178.767Z" fill="url(#paint15_linear_23_499)" fill-opacity="0.3"/>
<path d="M6.12775 143.63C6.12775 141.94 4.75599 140.571 3.06388 140.571C1.37176 140.571 0 141.94 0 143.63C0 145.32 1.37176 146.69 3.06388 146.69C4.75599 146.69 6.12775 145.32 6.12775 143.63Z" fill="url(#paint16_linear_23_499)" fill-opacity="0.3"/>
<path d="M6.12775 108.494C6.12775 106.804 4.75599 105.434 3.06388 105.434C1.37176 105.434 0 106.804 0 108.494C0 110.184 1.37176 111.554 3.06388 111.554C4.75599 111.554 6.12775 110.184 6.12775 108.494Z" fill="url(#paint17_linear_23_499)" fill-opacity="0.3"/>
<path d="M3.06388 70.298C4.74899 70.298 6.12775 71.675 6.12775 73.3578C6.12775 75.0407 4.74899 76.4175 3.06388 76.4175C1.37876 76.4175 0 75.0407 0 73.3578C0 71.6495 1.37876 70.298 3.06388 70.298Z" fill="url(#paint18_linear_23_499)" fill-opacity="0.3"/>
<path d="M6.12775 38.1961C6.12775 36.5062 4.75599 35.1363 3.06388 35.1363C1.37176 35.1363 0 36.5062 0 38.1961C0 39.8859 1.37176 41.2559 3.06388 41.2559C4.75599 41.2559 6.12775 39.8859 6.12775 38.1961Z" fill="url(#paint19_linear_23_499)" fill-opacity="0.3"/>
<path d="M6.12775 3.05979C6.12775 1.36993 4.75599 4.76837e-07 3.06388 4.76837e-07C1.37176 4.76837e-07 0 1.36993 0 3.05979C0 4.74965 1.37176 6.11951 3.06388 6.11951C4.75599 6.11951 6.12775 4.74965 6.12775 3.05979Z" fill="url(#paint20_linear_23_499)" fill-opacity="0.3"/>
<path d="M40.5449 705.861C40.5449 704.172 39.1732 702.802 37.4811 702.802C35.789 702.802 34.4172 704.172 34.4172 705.861C34.4172 707.551 35.789 708.921 37.4811 708.921C39.1732 708.921 40.5449 707.551 40.5449 705.861Z" fill="url(#paint21_linear_23_499)" fill-opacity="0.3"/>
<path d="M40.5449 670.725C40.5449 669.035 39.1732 667.665 37.4811 667.665C35.789 667.665 34.4172 669.035 34.4172 670.725C34.4172 672.415 35.789 673.785 37.4811 673.785C39.1732 673.785 40.5449 672.415 40.5449 670.725Z" fill="url(#paint22_linear_23_499)" fill-opacity="0.3"/>
<path d="M40.5449 635.589C40.5449 633.899 39.1732 632.529 37.4811 632.529C35.789 632.529 34.4172 633.899 34.4172 635.589C34.4172 637.279 35.789 638.649 37.4811 638.649C39.1732 638.649 40.5449 637.279 40.5449 635.589Z" fill="url(#paint23_linear_23_499)" fill-opacity="0.3"/>
<path d="M40.5449 600.453C40.5449 598.763 39.1732 597.393 37.4811 597.393C35.789 597.393 34.4172 598.763 34.4172 600.453C34.4172 602.142 35.789 603.512 37.4811 603.512C39.1732 603.512 40.5449 602.142 40.5449 600.453Z" fill="url(#paint24_linear_23_499)" fill-opacity="0.3"/>
<path d="M40.5449 565.316C40.5449 563.626 39.1732 562.257 37.4811 562.257C35.789 562.257 34.4172 563.626 34.4172 565.316C34.4172 567.006 35.789 568.376 37.4811 568.376C39.1732 568.376 40.5449 567.006 40.5449 565.316Z" fill="url(#paint25_linear_23_499)" fill-opacity="0.3"/>
<path d="M40.5449 530.18C40.5449 528.49 39.1732 527.12 37.4811 527.12C35.789 527.12 34.4172 528.49 34.4172 530.18C34.4172 531.87 35.789 533.24 37.4811 533.24C39.1732 533.24 40.5449 531.87 40.5449 530.18Z" fill="url(#paint26_linear_23_499)" fill-opacity="0.3"/>
<path d="M40.5449 495.018C40.5449 493.329 39.1732 491.959 37.4811 491.959C35.789 491.959 34.4172 493.329 34.4172 495.018C34.4172 496.708 35.789 498.078 37.4811 498.078C39.1732 498.078 40.5449 496.708 40.5449 495.018Z" fill="url(#paint27_linear_23_499)" fill-opacity="0.3"/>
<path d="M40.5449 459.882C40.5449 458.192 39.1732 456.822 37.4811 456.822C35.789 456.822 34.4172 458.192 34.4172 459.882C34.4172 461.572 35.789 462.942 37.4811 462.942C39.1732 462.942 40.5449 461.572 40.5449 459.882Z" fill="url(#paint28_linear_23_499)" fill-opacity="0.3"/>
<path d="M37.4811 421.686C39.1662 421.686 40.5449 423.063 40.5449 424.746C40.5449 426.429 39.1662 427.806 37.4811 427.806C35.796 427.806 34.4172 426.429 34.4172 424.746C34.4428 423.063 35.796 421.686 37.4811 421.686Z" fill="url(#paint29_linear_23_499)" fill-opacity="0.3"/>
<path d="M40.5449 389.61C40.5449 387.92 39.1732 386.55 37.4811 386.55C35.789 386.55 34.4172 387.92 34.4172 389.61C34.4172 391.3 35.789 392.669 37.4811 392.669C39.1732 392.669 40.5449 391.3 40.5449 389.61Z" fill="url(#paint30_linear_23_499)" fill-opacity="0.3"/>
<path d="M40.5449 354.473C40.5449 352.783 39.1732 351.414 37.4811 351.414C35.789 351.414 34.4172 352.783 34.4172 354.473C34.4172 356.163 35.789 357.533 37.4811 357.533C39.1732 357.533 40.5449 356.163 40.5449 354.473Z" fill="url(#paint31_linear_23_499)" fill-opacity="0.3"/>
<path d="M40.5449 319.337C40.5449 317.647 39.1732 316.277 37.4811 316.277C35.789 316.277 34.4172 317.647 34.4172 319.337C34.4172 321.027 35.789 322.397 37.4811 322.397C39.1732 322.397 40.5449 321.027 40.5449 319.337Z" fill="url(#paint32_linear_23_499)" fill-opacity="0.3"/>
<path d="M40.5449 284.175C40.5449 282.485 39.1732 281.116 37.4811 281.116C35.789 281.116 34.4172 282.485 34.4172 284.175C34.4172 285.865 35.789 287.235 37.4811 287.235C39.1732 287.235 40.5449 285.865 40.5449 284.175Z" fill="url(#paint33_linear_23_499)" fill-opacity="0.3"/>
<path d="M40.5449 249.039C40.5449 247.349 39.1732 245.979 37.4811 245.979C35.789 245.979 34.4172 247.349 34.4172 249.039C34.4172 250.729 35.789 252.099 37.4811 252.099C39.1732 252.099 40.5449 250.729 40.5449 249.039Z" fill="url(#paint34_linear_23_499)" fill-opacity="0.3"/>
<path d="M40.5449 213.903C40.5449 212.213 39.1732 210.843 37.4811 210.843C35.789 210.843 34.4172 212.213 34.4172 213.903C34.4172 215.593 35.789 216.963 37.4811 216.963C39.1732 216.963 40.5449 215.593 40.5449 213.903Z" fill="url(#paint35_linear_23_499)" fill-opacity="0.3"/>
<path d="M40.5449 178.767C40.5449 177.077 39.1732 175.707 37.4811 175.707C35.789 175.707 34.4172 177.077 34.4172 178.767C34.4172 180.456 35.789 181.826 37.4811 181.826C39.1732 181.826 40.5449 180.456 40.5449 178.767Z" fill="url(#paint36_linear_23_499)" fill-opacity="0.3"/>
<path d="M40.5449 143.63C40.5449 141.94 39.1732 140.571 37.4811 140.571C35.789 140.571 34.4172 141.94 34.4172 143.63C34.4172 145.32 35.789 146.69 37.4811 146.69C39.1732 146.69 40.5449 145.32 40.5449 143.63Z" fill="url(#paint37_linear_23_499)" fill-opacity="0.3"/>
<path d="M40.5449 108.494C40.5449 106.804 39.1732 105.434 37.4811 105.434C35.789 105.434 34.4172 106.804 34.4172 108.494C34.4172 110.184 35.789 111.554 37.4811 111.554C39.1732 111.554 40.5449 110.184 40.5449 108.494Z" fill="url(#paint38_linear_23_499)" fill-opacity="0.3"/>
<path d="M37.4811 70.298C39.1662 70.298 40.5449 71.675 40.5449 73.3578C40.5449 75.0407 39.1662 76.4175 37.4811 76.4175C35.796 76.4175 34.4172 75.0407 34.4172 73.3578C34.4428 71.6495 35.796 70.298 37.4811 70.298Z" fill="url(#paint39_linear_23_499)" fill-opacity="0.3"/>
<path d="M40.5449 38.1961C40.5449 36.5062 39.1732 35.1363 37.4811 35.1363C35.789 35.1363 34.4172 36.5062 34.4172 38.1961C34.4172 39.8859 35.789 41.2559 37.4811 41.2559C39.1732 41.2559 40.5449 39.8859 40.5449 38.1961Z" fill="url(#paint40_linear_23_499)" fill-opacity="0.3"/>
<path d="M40.5449 3.05979C40.5449 1.36993 39.1732 4.76837e-07 37.4811 4.76837e-07C35.789 4.76837e-07 34.4172 1.36993 34.4172 3.05979C34.4172 4.74965 35.789 6.11951 37.4811 6.11951C39.1732 6.11951 40.5449 4.74965 40.5449 3.05979Z" fill="url(#paint41_linear_23_499)" fill-opacity="0.3"/>
<path d="M74.9877 705.861C74.9877 704.172 73.616 702.802 71.9239 702.802C70.2317 702.802 68.86 704.172 68.86 705.861C68.86 707.551 70.2317 708.921 71.9239 708.921C73.616 708.921 74.9877 707.551 74.9877 705.861Z" fill="url(#paint42_linear_23_499)" fill-opacity="0.3"/>
<path d="M74.9877 670.725C74.9877 669.035 73.616 667.665 71.9239 667.665C70.2317 667.665 68.86 669.035 68.86 670.725C68.86 672.415 70.2317 673.785 71.9239 673.785C73.616 673.785 74.9877 672.415 74.9877 670.725Z" fill="url(#paint43_linear_23_499)" fill-opacity="0.3"/>
<path d="M74.9877 635.589C74.9877 633.899 73.616 632.529 71.9239 632.529C70.2317 632.529 68.86 633.899 68.86 635.589C68.86 637.279 70.2317 638.649 71.9239 638.649C73.616 638.649 74.9877 637.279 74.9877 635.589Z" fill="url(#paint44_linear_23_499)" fill-opacity="0.3"/>
<path d="M74.9877 600.453C74.9877 598.763 73.616 597.393 71.9239 597.393C70.2317 597.393 68.86 598.763 68.86 600.453C68.86 602.142 70.2317 603.512 71.9239 603.512C73.616 603.512 74.9877 602.142 74.9877 600.453Z" fill="url(#paint45_linear_23_499)" fill-opacity="0.3"/>
<path d="M74.9877 565.316C74.9877 563.626 73.616 562.257 71.9239 562.257C70.2317 562.257 68.86 563.626 68.86 565.316C68.86 567.006 70.2317 568.376 71.9239 568.376C73.616 568.376 74.9877 567.006 74.9877 565.316Z" fill="url(#paint46_linear_23_499)" fill-opacity="0.3"/>
<path d="M74.9877 530.18C74.9877 528.49 73.616 527.12 71.9239 527.12C70.2317 527.12 68.86 528.49 68.86 530.18C68.86 531.87 70.2317 533.24 71.9239 533.24C73.616 533.24 74.9877 531.87 74.9877 530.18Z" fill="url(#paint47_linear_23_499)" fill-opacity="0.3"/>
<path d="M74.9877 495.018C74.9877 493.329 73.616 491.959 71.9239 491.959C70.2317 491.959 68.86 493.329 68.86 495.018C68.86 496.708 70.2317 498.078 71.9239 498.078C73.616 498.078 74.9877 496.708 74.9877 495.018Z" fill="url(#paint48_linear_23_499)" fill-opacity="0.3"/>
<path d="M74.9877 459.882C74.9877 458.192 73.616 456.822 71.9239 456.822C70.2317 456.822 68.86 458.192 68.86 459.882C68.86 461.572 70.2317 462.942 71.9239 462.942C73.616 462.942 74.9877 461.572 74.9877 459.882Z" fill="url(#paint49_linear_23_499)" fill-opacity="0.3"/>
<path d="M71.9239 421.686C73.609 421.686 74.9877 423.063 74.9877 424.746C74.9877 426.429 73.609 427.806 71.9239 427.806C70.2387 427.806 68.86 426.429 68.86 424.746C68.86 423.063 70.2132 421.686 71.9239 421.686Z" fill="url(#paint50_linear_23_499)" fill-opacity="0.3"/>
<path d="M74.9877 389.61C74.9877 387.92 73.616 386.55 71.9239 386.55C70.2317 386.55 68.86 387.92 68.86 389.61C68.86 391.3 70.2317 392.669 71.9239 392.669C73.616 392.669 74.9877 391.3 74.9877 389.61Z" fill="url(#paint51_linear_23_499)" fill-opacity="0.3"/>
<path d="M74.9877 354.473C74.9877 352.783 73.616 351.414 71.9239 351.414C70.2317 351.414 68.86 352.783 68.86 354.473C68.86 356.163 70.2317 357.533 71.9239 357.533C73.616 357.533 74.9877 356.163 74.9877 354.473Z" fill="url(#paint52_linear_23_499)" fill-opacity="0.3"/>
<path d="M74.9877 319.337C74.9877 317.647 73.616 316.277 71.9239 316.277C70.2317 316.277 68.86 317.647 68.86 319.337C68.86 321.027 70.2317 322.397 71.9239 322.397C73.616 322.397 74.9877 321.027 74.9877 319.337Z" fill="url(#paint53_linear_23_499)" fill-opacity="0.3"/>
<path d="M74.9877 284.175C74.9877 282.485 73.616 281.116 71.9239 281.116C70.2317 281.116 68.86 282.485 68.86 284.175C68.86 285.865 70.2317 287.235 71.9239 287.235C73.616 287.235 74.9877 285.865 74.9877 284.175Z" fill="url(#paint54_linear_23_499)" fill-opacity="0.3"/>
<path d="M74.9877 249.039C74.9877 247.349 73.616 245.979 71.9239 245.979C70.2317 245.979 68.86 247.349 68.86 249.039C68.86 250.729 70.2317 252.099 71.9239 252.099C73.616 252.099 74.9877 250.729 74.9877 249.039Z" fill="url(#paint55_linear_23_499)" fill-opacity="0.3"/>
<path d="M74.9877 213.903C74.9877 212.213 73.616 210.843 71.9239 210.843C70.2317 210.843 68.86 212.213 68.86 213.903C68.86 215.593 70.2317 216.963 71.9239 216.963C73.616 216.963 74.9877 215.593 74.9877 213.903Z" fill="url(#paint56_linear_23_499)" fill-opacity="0.3"/>
<path d="M74.9877 178.767C74.9877 177.077 73.616 175.707 71.9239 175.707C70.2317 175.707 68.86 177.077 68.86 178.767C68.86 180.456 70.2317 181.826 71.9239 181.826C73.616 181.826 74.9877 180.456 74.9877 178.767Z" fill="url(#paint57_linear_23_499)" fill-opacity="0.3"/>
<path d="M74.9877 143.63C74.9877 141.94 73.616 140.571 71.9239 140.571C70.2317 140.571 68.86 141.94 68.86 143.63C68.86 145.32 70.2317 146.69 71.9239 146.69C73.616 146.69 74.9877 145.32 74.9877 143.63Z" fill="url(#paint58_linear_23_499)" fill-opacity="0.3"/>
<path d="M74.9877 108.494C74.9877 106.804 73.616 105.434 71.9239 105.434C70.2317 105.434 68.86 106.804 68.86 108.494C68.86 110.184 70.2317 111.554 71.9239 111.554C73.616 111.554 74.9877 110.184 74.9877 108.494Z" fill="url(#paint59_linear_23_499)" fill-opacity="0.3"/>
<path d="M71.9239 70.298C73.609 70.298 74.9877 71.675 74.9877 73.3578C74.9877 75.0407 73.609 76.4175 71.9239 76.4175C70.2387 76.4175 68.86 75.0407 68.86 73.3578C68.86 71.6495 70.2132 70.298 71.9239 70.298Z" fill="url(#paint60_linear_23_499)" fill-opacity="0.3"/>
<path d="M74.9877 38.1961C74.9877 36.5062 73.616 35.1363 71.9239 35.1363C70.2317 35.1363 68.86 36.5062 68.86 38.1961C68.86 39.8859 70.2317 41.2559 71.9239 41.2559C73.616 41.2559 74.9877 39.8859 74.9877 38.1961Z" fill="url(#paint61_linear_23_499)" fill-opacity="0.3"/>
<path d="M74.9877 3.05979C74.9877 1.36993 73.616 4.76837e-07 71.9239 4.76837e-07C70.2317 4.76837e-07 68.86 1.36993 68.86 3.05979C68.86 4.74965 70.2317 6.11951 71.9239 6.11951C73.616 6.11951 74.9877 4.74965 74.9877 3.05979Z" fill="url(#paint62_linear_23_499)" fill-opacity="0.3"/>
<path d="M109.405 705.861C109.405 704.172 108.033 702.802 106.341 702.802C104.649 702.802 103.277 704.172 103.277 705.861C103.277 707.551 104.649 708.921 106.341 708.921C108.033 708.921 109.405 707.551 109.405 705.861Z" fill="url(#paint63_linear_23_499)" fill-opacity="0.3"/>
<path d="M109.405 670.725C109.405 669.035 108.033 667.665 106.341 667.665C104.649 667.665 103.277 669.035 103.277 670.725C103.277 672.415 104.649 673.785 106.341 673.785C108.033 673.785 109.405 672.415 109.405 670.725Z" fill="url(#paint64_linear_23_499)" fill-opacity="0.3"/>
<path d="M109.405 635.589C109.405 633.899 108.033 632.529 106.341 632.529C104.649 632.529 103.277 633.899 103.277 635.589C103.277 637.279 104.649 638.649 106.341 638.649C108.033 638.649 109.405 637.279 109.405 635.589Z" fill="url(#paint65_linear_23_499)" fill-opacity="0.3"/>
<path d="M109.405 600.453C109.405 598.763 108.033 597.393 106.341 597.393C104.649 597.393 103.277 598.763 103.277 600.453C103.277 602.142 104.649 603.512 106.341 603.512C108.033 603.512 109.405 602.142 109.405 600.453Z" fill="url(#paint66_linear_23_499)" fill-opacity="0.3"/>
<path d="M109.405 565.316C109.405 563.626 108.033 562.257 106.341 562.257C104.649 562.257 103.277 563.626 103.277 565.316C103.277 567.006 104.649 568.376 106.341 568.376C108.033 568.376 109.405 567.006 109.405 565.316Z" fill="url(#paint67_linear_23_499)" fill-opacity="0.3"/>
<path d="M109.405 530.18C109.405 528.49 108.033 527.12 106.341 527.12C104.649 527.12 103.277 528.49 103.277 530.18C103.277 531.87 104.649 533.24 106.341 533.24C108.033 533.24 109.405 531.87 109.405 530.18Z" fill="url(#paint68_linear_23_499)" fill-opacity="0.3"/>
<path d="M109.405 495.018C109.405 493.329 108.033 491.959 106.341 491.959C104.649 491.959 103.277 493.329 103.277 495.018C103.277 496.708 104.649 498.078 106.341 498.078C108.033 498.078 109.405 496.708 109.405 495.018Z" fill="url(#paint69_linear_23_499)" fill-opacity="0.3"/>
<path d="M109.405 459.882C109.405 458.192 108.033 456.822 106.341 456.822C104.649 456.822 103.277 458.192 103.277 459.882C103.277 461.572 104.649 462.942 106.341 462.942C108.033 462.942 109.405 461.572 109.405 459.882Z" fill="url(#paint70_linear_23_499)" fill-opacity="0.3"/>
<path d="M106.341 421.686C108.026 421.686 109.405 423.063 109.405 424.746C109.405 426.429 108.026 427.806 106.341 427.806C104.656 427.806 103.277 426.429 103.277 424.746C103.277 423.063 104.656 421.686 106.341 421.686Z" fill="url(#paint71_linear_23_499)" fill-opacity="0.3"/>
<path d="M109.405 389.61C109.405 387.92 108.033 386.55 106.341 386.55C104.649 386.55 103.277 387.92 103.277 389.61C103.277 391.3 104.649 392.669 106.341 392.669C108.033 392.669 109.405 391.3 109.405 389.61Z" fill="url(#paint72_linear_23_499)" fill-opacity="0.3"/>
<path d="M109.405 354.473C109.405 352.783 108.033 351.414 106.341 351.414C104.649 351.414 103.277 352.783 103.277 354.473C103.277 356.163 104.649 357.533 106.341 357.533C108.033 357.533 109.405 356.163 109.405 354.473Z" fill="url(#paint73_linear_23_499)" fill-opacity="0.3"/>
<path d="M109.405 319.337C109.405 317.647 108.033 316.277 106.341 316.277C104.649 316.277 103.277 317.647 103.277 319.337C103.277 321.027 104.649 322.397 106.341 322.397C108.033 322.397 109.405 321.027 109.405 319.337Z" fill="url(#paint74_linear_23_499)" fill-opacity="0.3"/>
<path d="M109.405 284.175C109.405 282.485 108.033 281.116 106.341 281.116C104.649 281.116 103.277 282.485 103.277 284.175C103.277 285.865 104.649 287.235 106.341 287.235C108.033 287.235 109.405 285.865 109.405 284.175Z" fill="url(#paint75_linear_23_499)" fill-opacity="0.3"/>
<path d="M109.405 249.039C109.405 247.349 108.033 245.979 106.341 245.979C104.649 245.979 103.277 247.349 103.277 249.039C103.277 250.729 104.649 252.099 106.341 252.099C108.033 252.099 109.405 250.729 109.405 249.039Z" fill="url(#paint76_linear_23_499)" fill-opacity="0.3"/>
<path d="M109.405 213.903C109.405 212.213 108.033 210.843 106.341 210.843C104.649 210.843 103.277 212.213 103.277 213.903C103.277 215.593 104.649 216.963 106.341 216.963C108.033 216.963 109.405 215.593 109.405 213.903Z" fill="url(#paint77_linear_23_499)" fill-opacity="0.3"/>
<path d="M109.405 178.767C109.405 177.077 108.033 175.707 106.341 175.707C104.649 175.707 103.277 177.077 103.277 178.767C103.277 180.456 104.649 181.826 106.341 181.826C108.033 181.826 109.405 180.456 109.405 178.767Z" fill="url(#paint78_linear_23_499)" fill-opacity="0.3"/>
<path d="M109.405 143.63C109.405 141.94 108.033 140.571 106.341 140.571C104.649 140.571 103.277 141.94 103.277 143.63C103.277 145.32 104.649 146.69 106.341 146.69C108.033 146.69 109.405 145.32 109.405 143.63Z" fill="url(#paint79_linear_23_499)" fill-opacity="0.3"/>
<path d="M109.405 108.494C109.405 106.804 108.033 105.434 106.341 105.434C104.649 105.434 103.277 106.804 103.277 108.494C103.277 110.184 104.649 111.554 106.341 111.554C108.033 111.554 109.405 110.184 109.405 108.494Z" fill="url(#paint80_linear_23_499)" fill-opacity="0.3"/>
<path d="M106.341 70.298C108.026 70.298 109.405 71.675 109.405 73.3578C109.405 75.0407 108.026 76.4175 106.341 76.4175C104.656 76.4175 103.277 75.0407 103.277 73.3578C103.277 71.6495 104.656 70.298 106.341 70.298Z" fill="url(#paint81_linear_23_499)" fill-opacity="0.3"/>
<path d="M109.405 38.1961C109.405 36.5062 108.033 35.1363 106.341 35.1363C104.649 35.1363 103.277 36.5062 103.277 38.1961C103.277 39.8859 104.649 41.2559 106.341 41.2559C108.033 41.2559 109.405 39.8859 109.405 38.1961Z" fill="url(#paint82_linear_23_499)" fill-opacity="0.3"/>
<path d="M109.405 3.05979C109.405 1.36993 108.033 4.76837e-07 106.341 4.76837e-07C104.649 4.76837e-07 103.277 1.36993 103.277 3.05979C103.277 4.74965 104.649 6.11951 106.341 6.11951C108.033 6.11951 109.405 4.74965 109.405 3.05979Z" fill="url(#paint83_linear_23_499)" fill-opacity="0.3"/>
<path d="M143.822 705.861C143.822 704.172 142.45 702.802 140.758 702.802C139.066 702.802 137.694 704.172 137.694 705.861C137.694 707.551 139.066 708.921 140.758 708.921C142.45 708.921 143.822 707.551 143.822 705.861Z" fill="url(#paint84_linear_23_499)" fill-opacity="0.3"/>
<path d="M143.822 670.725C143.822 669.035 142.45 667.665 140.758 667.665C139.066 667.665 137.694 669.035 137.694 670.725C137.694 672.415 139.066 673.785 140.758 673.785C142.45 673.785 143.822 672.415 143.822 670.725Z" fill="url(#paint85_linear_23_499)" fill-opacity="0.3"/>
<path d="M143.822 635.589C143.822 633.899 142.45 632.529 140.758 632.529C139.066 632.529 137.694 633.899 137.694 635.589C137.694 637.279 139.066 638.649 140.758 638.649C142.45 638.649 143.822 637.279 143.822 635.589Z" fill="url(#paint86_linear_23_499)" fill-opacity="0.3"/>
<path d="M143.822 600.453C143.822 598.763 142.45 597.393 140.758 597.393C139.066 597.393 137.694 598.763 137.694 600.453C137.694 602.142 139.066 603.512 140.758 603.512C142.45 603.512 143.822 602.142 143.822 600.453Z" fill="url(#paint87_linear_23_499)" fill-opacity="0.3"/>
<path d="M143.822 565.316C143.822 563.626 142.45 562.257 140.758 562.257C139.066 562.257 137.694 563.626 137.694 565.316C137.694 567.006 139.066 568.376 140.758 568.376C142.45 568.376 143.822 567.006 143.822 565.316Z" fill="url(#paint88_linear_23_499)" fill-opacity="0.3"/>
<path d="M143.822 530.18C143.822 528.49 142.45 527.12 140.758 527.12C139.066 527.12 137.694 528.49 137.694 530.18C137.694 531.87 139.066 533.24 140.758 533.24C142.45 533.24 143.822 531.87 143.822 530.18Z" fill="url(#paint89_linear_23_499)" fill-opacity="0.3"/>
<path d="M143.822 495.018C143.822 493.329 142.45 491.959 140.758 491.959C139.066 491.959 137.694 493.329 137.694 495.018C137.694 496.708 139.066 498.078 140.758 498.078C142.45 498.078 143.822 496.708 143.822 495.018Z" fill="url(#paint90_linear_23_499)" fill-opacity="0.3"/>
<path d="M143.822 459.882C143.822 458.192 142.45 456.822 140.758 456.822C139.066 456.822 137.694 458.192 137.694 459.882C137.694 461.572 139.066 462.942 140.758 462.942C142.45 462.942 143.822 461.572 143.822 459.882Z" fill="url(#paint91_linear_23_499)" fill-opacity="0.3"/>
<path d="M140.758 421.686C142.443 421.686 143.822 423.063 143.822 424.746C143.822 426.429 142.443 427.806 140.758 427.806C139.073 427.806 137.694 426.429 137.694 424.746C137.694 423.063 139.073 421.686 140.758 421.686Z" fill="url(#paint92_linear_23_499)" fill-opacity="0.3"/>
<path d="M143.822 389.61C143.822 387.92 142.45 386.55 140.758 386.55C139.066 386.55 137.694 387.92 137.694 389.61C137.694 391.3 139.066 392.669 140.758 392.669C142.45 392.669 143.822 391.3 143.822 389.61Z" fill="url(#paint93_linear_23_499)" fill-opacity="0.3"/>
<path d="M143.822 354.473C143.822 352.783 142.45 351.414 140.758 351.414C139.066 351.414 137.694 352.783 137.694 354.473C137.694 356.163 139.066 357.533 140.758 357.533C142.45 357.533 143.822 356.163 143.822 354.473Z" fill="url(#paint94_linear_23_499)" fill-opacity="0.3"/>
<path d="M143.822 319.337C143.822 317.647 142.45 316.277 140.758 316.277C139.066 316.277 137.694 317.647 137.694 319.337C137.694 321.027 139.066 322.397 140.758 322.397C142.45 322.397 143.822 321.027 143.822 319.337Z" fill="url(#paint95_linear_23_499)" fill-opacity="0.3"/>
<path d="M143.822 284.175C143.822 282.485 142.45 281.116 140.758 281.116C139.066 281.116 137.694 282.485 137.694 284.175C137.694 285.865 139.066 287.235 140.758 287.235C142.45 287.235 143.822 285.865 143.822 284.175Z" fill="url(#paint96_linear_23_499)" fill-opacity="0.3"/>
<path d="M143.822 249.039C143.822 247.349 142.45 245.979 140.758 245.979C139.066 245.979 137.694 247.349 137.694 249.039C137.694 250.729 139.066 252.099 140.758 252.099C142.45 252.099 143.822 250.729 143.822 249.039Z" fill="url(#paint97_linear_23_499)" fill-opacity="0.3"/>
<path d="M143.822 213.903C143.822 212.213 142.45 210.843 140.758 210.843C139.066 210.843 137.694 212.213 137.694 213.903C137.694 215.593 139.066 216.963 140.758 216.963C142.45 216.963 143.822 215.593 143.822 213.903Z" fill="url(#paint98_linear_23_499)" fill-opacity="0.3"/>
<path d="M143.822 178.767C143.822 177.077 142.45 175.707 140.758 175.707C139.066 175.707 137.694 177.077 137.694 178.767C137.694 180.456 139.066 181.826 140.758 181.826C142.45 181.826 143.822 180.456 143.822 178.767Z" fill="url(#paint99_linear_23_499)" fill-opacity="0.3"/>
<path d="M143.822 143.63C143.822 141.94 142.45 140.571 140.758 140.571C139.066 140.571 137.694 141.94 137.694 143.63C137.694 145.32 139.066 146.69 140.758 146.69C142.45 146.69 143.822 145.32 143.822 143.63Z" fill="url(#paint100_linear_23_499)" fill-opacity="0.3"/>
<path d="M143.822 108.494C143.822 106.804 142.45 105.434 140.758 105.434C139.066 105.434 137.694 106.804 137.694 108.494C137.694 110.184 139.066 111.554 140.758 111.554C142.45 111.554 143.822 110.184 143.822 108.494Z" fill="url(#paint101_linear_23_499)" fill-opacity="0.3"/>
<path d="M140.758 70.298C142.443 70.298 143.822 71.675 143.822 73.3578C143.822 75.0407 142.443 76.4175 140.758 76.4175C139.073 76.4175 137.694 75.0407 137.694 73.3578C137.694 71.6495 139.073 70.298 140.758 70.298Z" fill="url(#paint102_linear_23_499)" fill-opacity="0.3"/>
<path d="M143.822 38.1961C143.822 36.5062 142.45 35.1363 140.758 35.1363C139.066 35.1363 137.694 36.5062 137.694 38.1961C137.694 39.8859 139.066 41.2559 140.758 41.2559C142.45 41.2559 143.822 39.8859 143.822 38.1961Z" fill="url(#paint103_linear_23_499)" fill-opacity="0.3"/>
<path d="M143.822 3.05979C143.822 1.36993 142.45 4.76837e-07 140.758 4.76837e-07C139.066 4.76837e-07 137.694 1.36993 137.694 3.05979C137.694 4.74965 139.066 6.11951 140.758 6.11951C142.45 6.11951 143.822 4.74965 143.822 3.05979Z" fill="url(#paint104_linear_23_499)" fill-opacity="0.3"/>
<path d="M178.239 705.861C178.239 704.172 176.867 702.802 175.175 702.802C173.483 702.802 172.112 704.172 172.112 705.861C172.112 707.551 173.483 708.921 175.175 708.921C176.867 708.921 178.239 707.551 178.239 705.861Z" fill="url(#paint105_linear_23_499)" fill-opacity="0.3"/>
<path d="M178.239 670.725C178.239 669.035 176.867 667.665 175.175 667.665C173.483 667.665 172.112 669.035 172.112 670.725C172.112 672.415 173.483 673.785 175.175 673.785C176.867 673.785 178.239 672.415 178.239 670.725Z" fill="url(#paint106_linear_23_499)" fill-opacity="0.3"/>
<path d="M178.239 635.589C178.239 633.899 176.867 632.529 175.175 632.529C173.483 632.529 172.112 633.899 172.112 635.589C172.112 637.279 173.483 638.649 175.175 638.649C176.867 638.649 178.239 637.279 178.239 635.589Z" fill="url(#paint107_linear_23_499)" fill-opacity="0.3"/>
<path d="M178.239 600.453C178.239 598.763 176.867 597.393 175.175 597.393C173.483 597.393 172.112 598.763 172.112 600.453C172.112 602.142 173.483 603.512 175.175 603.512C176.867 603.512 178.239 602.142 178.239 600.453Z" fill="url(#paint108_linear_23_499)" fill-opacity="0.3"/>
<path d="M178.239 565.316C178.239 563.626 176.867 562.257 175.175 562.257C173.483 562.257 172.112 563.626 172.112 565.316C172.112 567.006 173.483 568.376 175.175 568.376C176.867 568.376 178.239 567.006 178.239 565.316Z" fill="url(#paint109_linear_23_499)" fill-opacity="0.3"/>
<path d="M178.239 530.18C178.239 528.49 176.867 527.12 175.175 527.12C173.483 527.12 172.112 528.49 172.112 530.18C172.112 531.87 173.483 533.24 175.175 533.24C176.867 533.24 178.239 531.87 178.239 530.18Z" fill="url(#paint110_linear_23_499)" fill-opacity="0.3"/>
<path d="M178.239 495.018C178.239 493.329 176.867 491.959 175.175 491.959C173.483 491.959 172.112 493.329 172.112 495.018C172.112 496.708 173.483 498.078 175.175 498.078C176.867 498.078 178.239 496.708 178.239 495.018Z" fill="url(#paint111_linear_23_499)" fill-opacity="0.3"/>
<path d="M178.239 459.882C178.239 458.192 176.867 456.822 175.175 456.822C173.483 456.822 172.112 458.192 172.112 459.882C172.112 461.572 173.483 462.942 175.175 462.942C176.867 462.942 178.239 461.572 178.239 459.882Z" fill="url(#paint112_linear_23_499)" fill-opacity="0.3"/>
<path d="M175.175 421.686C176.86 421.686 178.239 423.063 178.239 424.746C178.239 426.429 176.86 427.806 175.175 427.806C173.49 427.806 172.112 426.429 172.112 424.746C172.112 423.063 173.49 421.686 175.175 421.686Z" fill="url(#paint113_linear_23_499)" fill-opacity="0.3"/>
<path d="M178.239 389.61C178.239 387.92 176.867 386.55 175.175 386.55C173.483 386.55 172.112 387.92 172.112 389.61C172.112 391.3 173.483 392.669 175.175 392.669C176.867 392.669 178.239 391.3 178.239 389.61Z" fill="url(#paint114_linear_23_499)" fill-opacity="0.3"/>
<path d="M178.239 354.473C178.239 352.783 176.867 351.414 175.175 351.414C173.483 351.414 172.112 352.783 172.112 354.473C172.112 356.163 173.483 357.533 175.175 357.533C176.867 357.533 178.239 356.163 178.239 354.473Z" fill="url(#paint115_linear_23_499)" fill-opacity="0.3"/>
<path d="M178.239 319.337C178.239 317.647 176.867 316.277 175.175 316.277C173.483 316.277 172.112 317.647 172.112 319.337C172.112 321.027 173.483 322.397 175.175 322.397C176.867 322.397 178.239 321.027 178.239 319.337Z" fill="url(#paint116_linear_23_499)" fill-opacity="0.3"/>
<path d="M178.239 284.175C178.239 282.485 176.867 281.116 175.175 281.116C173.483 281.116 172.112 282.485 172.112 284.175C172.112 285.865 173.483 287.235 175.175 287.235C176.867 287.235 178.239 285.865 178.239 284.175Z" fill="url(#paint117_linear_23_499)" fill-opacity="0.3"/>
<path d="M178.239 249.039C178.239 247.349 176.867 245.979 175.175 245.979C173.483 245.979 172.112 247.349 172.112 249.039C172.112 250.729 173.483 252.099 175.175 252.099C176.867 252.099 178.239 250.729 178.239 249.039Z" fill="url(#paint118_linear_23_499)" fill-opacity="0.3"/>
<path d="M178.239 213.903C178.239 212.213 176.867 210.843 175.175 210.843C173.483 210.843 172.112 212.213 172.112 213.903C172.112 215.593 173.483 216.963 175.175 216.963C176.867 216.963 178.239 215.593 178.239 213.903Z" fill="url(#paint119_linear_23_499)" fill-opacity="0.3"/>
<path d="M178.239 178.767C178.239 177.077 176.867 175.707 175.175 175.707C173.483 175.707 172.112 177.077 172.112 178.767C172.112 180.456 173.483 181.826 175.175 181.826C176.867 181.826 178.239 180.456 178.239 178.767Z" fill="url(#paint120_linear_23_499)" fill-opacity="0.3"/>
<path d="M178.239 143.63C178.239 141.94 176.867 140.571 175.175 140.571C173.483 140.571 172.112 141.94 172.112 143.63C172.112 145.32 173.483 146.69 175.175 146.69C176.867 146.69 178.239 145.32 178.239 143.63Z" fill="url(#paint121_linear_23_499)" fill-opacity="0.3"/>
<path d="M178.239 108.494C178.239 106.804 176.867 105.434 175.175 105.434C173.483 105.434 172.112 106.804 172.112 108.494C172.112 110.184 173.483 111.554 175.175 111.554C176.867 111.554 178.239 110.184 178.239 108.494Z" fill="url(#paint122_linear_23_499)" fill-opacity="0.3"/>
<path d="M175.175 70.298C176.86 70.298 178.239 71.675 178.239 73.3578C178.239 75.0407 176.86 76.4175 175.175 76.4175C173.49 76.4175 172.112 75.0407 172.112 73.3578C172.112 71.6495 173.49 70.298 175.175 70.298Z" fill="url(#paint123_linear_23_499)" fill-opacity="0.3"/>
<path d="M178.239 38.1961C178.239 36.5062 176.867 35.1363 175.175 35.1363C173.483 35.1363 172.112 36.5062 172.112 38.1961C172.112 39.8859 173.483 41.2559 175.175 41.2559C176.867 41.2559 178.239 39.8859 178.239 38.1961Z" fill="url(#paint124_linear_23_499)" fill-opacity="0.3"/>
<path d="M178.239 3.05979C178.239 1.36993 176.867 4.76837e-07 175.175 4.76837e-07C173.483 4.76837e-07 172.112 1.36993 172.112 3.05979C172.112 4.74965 173.483 6.11951 175.175 6.11951C176.867 6.11951 178.239 4.74965 178.239 3.05979Z" fill="url(#paint125_linear_23_499)" fill-opacity="0.3"/>
<path d="M212.657 705.861C212.657 704.172 211.285 702.802 209.593 702.802C207.901 702.802 206.529 704.172 206.529 705.861C206.529 707.551 207.901 708.921 209.593 708.921C211.285 708.921 212.657 707.551 212.657 705.861Z" fill="url(#paint126_linear_23_499)" fill-opacity="0.3"/>
<path d="M212.657 670.725C212.657 669.035 211.285 667.665 209.593 667.665C207.901 667.665 206.529 669.035 206.529 670.725C206.529 672.415 207.901 673.785 209.593 673.785C211.285 673.785 212.657 672.415 212.657 670.725Z" fill="url(#paint127_linear_23_499)" fill-opacity="0.3"/>
<path d="M212.657 635.589C212.657 633.899 211.285 632.529 209.593 632.529C207.901 632.529 206.529 633.899 206.529 635.589C206.529 637.279 207.901 638.649 209.593 638.649C211.285 638.649 212.657 637.279 212.657 635.589Z" fill="url(#paint128_linear_23_499)" fill-opacity="0.3"/>
<path d="M212.657 600.453C212.657 598.763 211.285 597.393 209.593 597.393C207.901 597.393 206.529 598.763 206.529 600.453C206.529 602.142 207.901 603.512 209.593 603.512C211.285 603.512 212.657 602.142 212.657 600.453Z" fill="url(#paint129_linear_23_499)" fill-opacity="0.3"/>
<path d="M212.657 565.316C212.657 563.626 211.285 562.257 209.593 562.257C207.901 562.257 206.529 563.626 206.529 565.316C206.529 567.006 207.901 568.376 209.593 568.376C211.285 568.376 212.657 567.006 212.657 565.316Z" fill="url(#paint130_linear_23_499)" fill-opacity="0.3"/>
<path d="M212.657 530.18C212.657 528.49 211.285 527.12 209.593 527.12C207.901 527.12 206.529 528.49 206.529 530.18C206.529 531.87 207.901 533.24 209.593 533.24C211.285 533.24 212.657 531.87 212.657 530.18Z" fill="url(#paint131_linear_23_499)" fill-opacity="0.3"/>
<path d="M212.657 495.018C212.657 493.329 211.285 491.959 209.593 491.959C207.901 491.959 206.529 493.329 206.529 495.018C206.529 496.708 207.901 498.078 209.593 498.078C211.285 498.078 212.657 496.708 212.657 495.018Z" fill="url(#paint132_linear_23_499)" fill-opacity="0.3"/>
<path d="M212.657 459.882C212.657 458.192 211.285 456.822 209.593 456.822C207.901 456.822 206.529 458.192 206.529 459.882C206.529 461.572 207.901 462.942 209.593 462.942C211.285 462.942 212.657 461.572 212.657 459.882Z" fill="url(#paint133_linear_23_499)" fill-opacity="0.3"/>
<path d="M209.593 421.686C211.278 421.686 212.657 423.063 212.657 424.746C212.657 426.429 211.278 427.806 209.593 427.806C207.908 427.806 206.529 426.429 206.529 424.746C206.554 423.063 207.908 421.686 209.593 421.686Z" fill="url(#paint134_linear_23_499)" fill-opacity="0.3"/>
<path d="M212.657 389.61C212.657 387.92 211.285 386.55 209.593 386.55C207.901 386.55 206.529 387.92 206.529 389.61C206.529 391.3 207.901 392.669 209.593 392.669C211.285 392.669 212.657 391.3 212.657 389.61Z" fill="url(#paint135_linear_23_499)" fill-opacity="0.3"/>
<path d="M212.657 354.473C212.657 352.783 211.285 351.414 209.593 351.414C207.901 351.414 206.529 352.783 206.529 354.473C206.529 356.163 207.901 357.533 209.593 357.533C211.285 357.533 212.657 356.163 212.657 354.473Z" fill="url(#paint136_linear_23_499)" fill-opacity="0.3"/>
<path d="M212.657 319.337C212.657 317.647 211.285 316.277 209.593 316.277C207.901 316.277 206.529 317.647 206.529 319.337C206.529 321.027 207.901 322.397 209.593 322.397C211.285 322.397 212.657 321.027 212.657 319.337Z" fill="url(#paint137_linear_23_499)" fill-opacity="0.3"/>
<path d="M212.657 284.175C212.657 282.485 211.285 281.116 209.593 281.116C207.901 281.116 206.529 282.485 206.529 284.175C206.529 285.865 207.901 287.235 209.593 287.235C211.285 287.235 212.657 285.865 212.657 284.175Z" fill="url(#paint138_linear_23_499)" fill-opacity="0.3"/>
<path d="M212.657 249.039C212.657 247.349 211.285 245.979 209.593 245.979C207.901 245.979 206.529 247.349 206.529 249.039C206.529 250.729 207.901 252.099 209.593 252.099C211.285 252.099 212.657 250.729 212.657 249.039Z" fill="url(#paint139_linear_23_499)" fill-opacity="0.3"/>
<path d="M212.657 213.903C212.657 212.213 211.285 210.843 209.593 210.843C207.901 210.843 206.529 212.213 206.529 213.903C206.529 215.593 207.901 216.963 209.593 216.963C211.285 216.963 212.657 215.593 212.657 213.903Z" fill="url(#paint140_linear_23_499)" fill-opacity="0.3"/>
<path d="M212.657 178.767C212.657 177.077 211.285 175.707 209.593 175.707C207.901 175.707 206.529 177.077 206.529 178.767C206.529 180.456 207.901 181.826 209.593 181.826C211.285 181.826 212.657 180.456 212.657 178.767Z" fill="url(#paint141_linear_23_499)" fill-opacity="0.3"/>
<path d="M212.657 143.63C212.657 141.94 211.285 140.571 209.593 140.571C207.901 140.571 206.529 141.94 206.529 143.63C206.529 145.32 207.901 146.69 209.593 146.69C211.285 146.69 212.657 145.32 212.657 143.63Z" fill="url(#paint142_linear_23_499)" fill-opacity="0.3"/>
<path d="M212.657 108.494C212.657 106.804 211.285 105.434 209.593 105.434C207.901 105.434 206.529 106.804 206.529 108.494C206.529 110.184 207.901 111.554 209.593 111.554C211.285 111.554 212.657 110.184 212.657 108.494Z" fill="url(#paint143_linear_23_499)" fill-opacity="0.3"/>
<path d="M209.593 70.298C211.278 70.298 212.657 71.675 212.657 73.3578C212.657 75.0407 211.278 76.4175 209.593 76.4175C207.908 76.4175 206.529 75.0407 206.529 73.3578C206.554 71.6495 207.908 70.298 209.593 70.298Z" fill="url(#paint144_linear_23_499)" fill-opacity="0.3"/>
<path d="M212.657 38.1961C212.657 36.5062 211.285 35.1363 209.593 35.1363C207.901 35.1363 206.529 36.5062 206.529 38.1961C206.529 39.8859 207.901 41.2559 209.593 41.2559C211.285 41.2559 212.657 39.8859 212.657 38.1961Z" fill="url(#paint145_linear_23_499)" fill-opacity="0.3"/>
<path d="M212.657 3.05979C212.657 1.36993 211.285 4.76837e-07 209.593 4.76837e-07C207.901 4.76837e-07 206.529 1.36993 206.529 3.05979C206.529 4.74965 207.901 6.11951 209.593 6.11951C211.285 6.11951 212.657 4.74965 212.657 3.05979Z" fill="url(#paint146_linear_23_499)" fill-opacity="0.3"/>
<path d="M244.035 702.802C245.72 702.802 247.099 704.179 247.099 705.861C247.099 707.544 245.72 708.921 244.035 708.921C242.35 708.921 240.971 707.544 240.971 705.861C240.971 704.179 242.325 702.802 244.035 702.802Z" fill="url(#paint147_linear_23_499)" fill-opacity="0.3"/>
<path d="M244.035 667.665C245.72 667.665 247.099 669.042 247.099 670.725C247.099 672.408 245.72 673.785 244.035 673.785C242.35 673.785 240.971 672.408 240.971 670.725C240.971 669.042 242.325 667.665 244.035 667.665Z" fill="url(#paint148_linear_23_499)" fill-opacity="0.3"/>
<path d="M244.035 632.529C245.72 632.529 247.099 633.906 247.099 635.589C247.099 637.272 245.72 638.649 244.035 638.649C242.35 638.649 240.971 637.272 240.971 635.589C240.971 633.906 242.325 632.529 244.035 632.529Z" fill="url(#paint149_linear_23_499)" fill-opacity="0.3"/>
<path d="M244.035 597.393C245.72 597.393 247.099 598.77 247.099 600.453C247.099 602.135 245.72 603.512 244.035 603.512C242.35 603.512 240.971 602.135 240.971 600.453C240.971 598.77 242.325 597.393 244.035 597.393Z" fill="url(#paint150_linear_23_499)" fill-opacity="0.3"/>
<path d="M244.035 562.257C245.72 562.257 247.099 563.633 247.099 565.316C247.099 566.999 245.72 568.376 244.035 568.376C242.35 568.376 240.971 566.999 240.971 565.316C240.971 563.633 242.325 562.257 244.035 562.257Z" fill="url(#paint151_linear_23_499)" fill-opacity="0.3"/>
<path d="M244.035 527.12C245.72 527.12 247.099 528.497 247.099 530.18C247.099 531.863 245.72 533.24 244.035 533.24C242.35 533.24 240.971 531.863 240.971 530.18C240.971 528.472 242.325 527.12 244.035 527.12Z" fill="url(#paint152_linear_23_499)" fill-opacity="0.3"/>
<path d="M244.035 491.984C245.72 491.984 247.099 493.361 247.099 495.044C247.099 496.727 245.72 498.104 244.035 498.104C242.35 498.104 240.971 496.727 240.971 495.044C240.971 493.336 242.325 491.984 244.035 491.984Z" fill="url(#paint153_linear_23_499)" fill-opacity="0.3"/>
<path d="M244.035 456.822C245.72 456.822 247.099 458.199 247.099 459.882C247.099 461.565 245.72 462.942 244.035 462.942C242.35 462.942 240.971 461.565 240.971 459.882C240.971 458.199 242.325 456.822 244.035 456.822Z" fill="url(#paint154_linear_23_499)" fill-opacity="0.3"/>
<path d="M244.035 421.686C245.72 421.686 247.099 423.063 247.099 424.746C247.099 426.429 245.72 427.806 244.035 427.806C242.35 427.806 240.971 426.429 240.971 424.746C240.971 423.063 242.325 421.686 244.035 421.686Z" fill="url(#paint155_linear_23_499)" fill-opacity="0.3"/>
<path d="M244.035 386.55C245.72 386.55 247.099 387.927 247.099 389.61C247.099 391.293 245.72 392.669 244.035 392.669C242.35 392.669 240.971 391.293 240.971 389.61C240.971 387.927 242.325 386.55 244.035 386.55Z" fill="url(#paint156_linear_23_499)" fill-opacity="0.3"/>
<path d="M244.035 351.414C245.72 351.414 247.099 352.79 247.099 354.473C247.099 356.156 245.72 357.533 244.035 357.533C242.35 357.533 240.971 356.156 240.971 354.473C240.971 352.79 242.325 351.414 244.035 351.414Z" fill="url(#paint157_linear_23_499)" fill-opacity="0.3"/>
<path d="M244.035 316.277C245.72 316.277 247.099 317.654 247.099 319.337C247.099 321.02 245.72 322.397 244.035 322.397C242.35 322.397 240.971 321.02 240.971 319.337C240.971 317.629 242.325 316.277 244.035 316.277Z" fill="url(#paint158_linear_23_499)" fill-opacity="0.3"/>
<path d="M244.035 281.141C245.72 281.141 247.099 282.518 247.099 284.201C247.099 285.884 245.72 287.261 244.035 287.261C242.35 287.261 240.971 285.884 240.971 284.201C240.971 282.493 242.325 281.141 244.035 281.141Z" fill="url(#paint159_linear_23_499)" fill-opacity="0.3"/>
<path d="M244.035 245.979C245.72 245.979 247.099 247.356 247.099 249.039C247.099 250.722 245.72 252.099 244.035 252.099C242.35 252.099 240.971 250.722 240.971 249.039C240.971 247.356 242.325 245.979 244.035 245.979Z" fill="url(#paint160_linear_23_499)" fill-opacity="0.3"/>
<path d="M244.035 210.843C245.72 210.843 247.099 212.22 247.099 213.903C247.099 215.586 245.72 216.963 244.035 216.963C242.35 216.963 240.971 215.586 240.971 213.903C240.971 212.22 242.325 210.843 244.035 210.843Z" fill="url(#paint161_linear_23_499)" fill-opacity="0.3"/>
<path d="M244.035 175.707C245.72 175.707 247.099 177.084 247.099 178.767C247.099 180.449 245.72 181.826 244.035 181.826C242.35 181.826 240.971 180.449 240.971 178.767C240.971 177.084 242.325 175.707 244.035 175.707Z" fill="url(#paint162_linear_23_499)" fill-opacity="0.3"/>
<path d="M244.035 140.571C245.72 140.571 247.099 141.947 247.099 143.63C247.099 145.313 245.72 146.69 244.035 146.69C242.35 146.69 240.971 145.313 240.971 143.63C240.971 141.947 242.325 140.571 244.035 140.571Z" fill="url(#paint163_linear_23_499)" fill-opacity="0.3"/>
<path d="M244.035 105.434C245.72 105.434 247.099 106.811 247.099 108.494C247.099 110.177 245.72 111.554 244.035 111.554C242.35 111.554 240.971 110.177 240.971 108.494C240.971 106.786 242.325 105.434 244.035 105.434Z" fill="url(#paint164_linear_23_499)" fill-opacity="0.3"/>
<path d="M244.035 70.298C245.72 70.298 247.099 71.675 247.099 73.3578C247.099 75.0407 245.72 76.4175 244.035 76.4175C242.35 76.4175 240.971 75.0407 240.971 73.3578C240.971 71.6495 242.325 70.298 244.035 70.298Z" fill="url(#paint165_linear_23_499)" fill-opacity="0.3"/>
<path d="M244.035 35.1363C245.72 35.1363 247.099 36.5132 247.099 38.1961C247.099 39.8789 245.72 41.2559 244.035 41.2559C242.35 41.2559 240.971 39.8789 240.971 38.1961C240.971 36.5132 242.325 35.1363 244.035 35.1363Z" fill="url(#paint166_linear_23_499)" fill-opacity="0.3"/>
<path d="M244.035 4.76837e-07C245.72 4.76837e-07 247.099 1.37692 247.099 3.05979C247.099 4.74266 245.72 6.11951 244.035 6.11951C242.35 6.11951 240.971 4.74266 240.971 3.05979C240.971 1.37692 242.325 4.76837e-07 244.035 4.76837e-07Z" fill="url(#paint167_linear_23_499)" fill-opacity="0.3"/>
<path d="M281.516 705.861C281.516 704.172 280.145 702.802 278.453 702.802C276.76 702.802 275.389 704.172 275.389 705.861C275.389 707.551 276.76 708.921 278.453 708.921C280.145 708.921 281.516 707.551 281.516 705.861Z" fill="url(#paint168_linear_23_499)" fill-opacity="0.3"/>
<path d="M281.516 670.725C281.516 669.035 280.145 667.665 278.453 667.665C276.76 667.665 275.389 669.035 275.389 670.725C275.389 672.415 276.76 673.785 278.453 673.785C280.145 673.785 281.516 672.415 281.516 670.725Z" fill="url(#paint169_linear_23_499)" fill-opacity="0.3"/>
<path d="M281.516 635.589C281.516 633.899 280.145 632.529 278.453 632.529C276.76 632.529 275.389 633.899 275.389 635.589C275.389 637.279 276.76 638.649 278.453 638.649C280.145 638.649 281.516 637.279 281.516 635.589Z" fill="url(#paint170_linear_23_499)" fill-opacity="0.3"/>
<path d="M281.516 600.453C281.516 598.763 280.145 597.393 278.453 597.393C276.76 597.393 275.389 598.763 275.389 600.453C275.389 602.142 276.76 603.512 278.453 603.512C280.145 603.512 281.516 602.142 281.516 600.453Z" fill="url(#paint171_linear_23_499)" fill-opacity="0.3"/>
<path d="M281.516 565.316C281.516 563.626 280.145 562.257 278.453 562.257C276.76 562.257 275.389 563.626 275.389 565.316C275.389 567.006 276.76 568.376 278.453 568.376C280.145 568.376 281.516 567.006 281.516 565.316Z" fill="url(#paint172_linear_23_499)" fill-opacity="0.3"/>
<path d="M281.516 530.18C281.516 528.49 280.145 527.12 278.453 527.12C276.76 527.12 275.389 528.49 275.389 530.18C275.389 531.87 276.76 533.24 278.453 533.24C280.145 533.24 281.516 531.87 281.516 530.18Z" fill="url(#paint173_linear_23_499)" fill-opacity="0.3"/>
<path d="M281.516 495.018C281.516 493.329 280.145 491.959 278.453 491.959C276.76 491.959 275.389 493.329 275.389 495.018C275.389 496.708 276.76 498.078 278.453 498.078C280.145 498.078 281.516 496.708 281.516 495.018Z" fill="url(#paint174_linear_23_499)" fill-opacity="0.3"/>
<path d="M281.516 459.882C281.516 458.192 280.145 456.822 278.453 456.822C276.76 456.822 275.389 458.192 275.389 459.882C275.389 461.572 276.76 462.942 278.453 462.942C280.145 462.942 281.516 461.572 281.516 459.882Z" fill="url(#paint175_linear_23_499)" fill-opacity="0.3"/>
<path d="M278.453 421.686C280.138 421.686 281.516 423.063 281.516 424.746C281.516 426.429 280.138 427.806 278.453 427.806C276.767 427.806 275.389 426.429 275.389 424.746C275.389 423.063 276.767 421.686 278.453 421.686Z" fill="url(#paint176_linear_23_499)" fill-opacity="0.3"/>
<path d="M281.516 389.61C281.516 387.92 280.145 386.55 278.453 386.55C276.76 386.55 275.389 387.92 275.389 389.61C275.389 391.3 276.76 392.669 278.453 392.669C280.145 392.669 281.516 391.3 281.516 389.61Z" fill="url(#paint177_linear_23_499)" fill-opacity="0.3"/>
<path d="M281.516 354.473C281.516 352.783 280.145 351.414 278.453 351.414C276.76 351.414 275.389 352.783 275.389 354.473C275.389 356.163 276.76 357.533 278.453 357.533C280.145 357.533 281.516 356.163 281.516 354.473Z" fill="url(#paint178_linear_23_499)" fill-opacity="0.3"/>
<path d="M281.516 319.337C281.516 317.647 280.145 316.277 278.453 316.277C276.76 316.277 275.389 317.647 275.389 319.337C275.389 321.027 276.76 322.397 278.453 322.397C280.145 322.397 281.516 321.027 281.516 319.337Z" fill="url(#paint179_linear_23_499)" fill-opacity="0.3"/>
<path d="M281.516 284.175C281.516 282.485 280.145 281.116 278.453 281.116C276.76 281.116 275.389 282.485 275.389 284.175C275.389 285.865 276.76 287.235 278.453 287.235C280.145 287.235 281.516 285.865 281.516 284.175Z" fill="url(#paint180_linear_23_499)" fill-opacity="0.3"/>
<path d="M281.516 249.039C281.516 247.349 280.145 245.979 278.453 245.979C276.76 245.979 275.389 247.349 275.389 249.039C275.389 250.729 276.76 252.099 278.453 252.099C280.145 252.099 281.516 250.729 281.516 249.039Z" fill="url(#paint181_linear_23_499)" fill-opacity="0.3"/>
<path d="M281.516 213.903C281.516 212.213 280.145 210.843 278.453 210.843C276.76 210.843 275.389 212.213 275.389 213.903C275.389 215.593 276.76 216.963 278.453 216.963C280.145 216.963 281.516 215.593 281.516 213.903Z" fill="url(#paint182_linear_23_499)" fill-opacity="0.3"/>
<path d="M281.516 178.767C281.516 177.077 280.145 175.707 278.453 175.707C276.76 175.707 275.389 177.077 275.389 178.767C275.389 180.456 276.76 181.826 278.453 181.826C280.145 181.826 281.516 180.456 281.516 178.767Z" fill="url(#paint183_linear_23_499)" fill-opacity="0.3"/>
<path d="M281.516 143.63C281.516 141.94 280.145 140.571 278.453 140.571C276.76 140.571 275.389 141.94 275.389 143.63C275.389 145.32 276.76 146.69 278.453 146.69C280.145 146.69 281.516 145.32 281.516 143.63Z" fill="url(#paint184_linear_23_499)" fill-opacity="0.3"/>
<path d="M281.516 108.494C281.516 106.804 280.145 105.434 278.453 105.434C276.76 105.434 275.389 106.804 275.389 108.494C275.389 110.184 276.76 111.554 278.453 111.554C280.145 111.554 281.516 110.184 281.516 108.494Z" fill="url(#paint185_linear_23_499)" fill-opacity="0.3"/>
<path d="M278.453 70.298C280.138 70.298 281.516 71.675 281.516 73.3578C281.516 75.0407 280.138 76.4175 278.453 76.4175C276.767 76.4175 275.389 75.0407 275.389 73.3578C275.389 71.6495 276.767 70.298 278.453 70.298Z" fill="url(#paint186_linear_23_499)" fill-opacity="0.3"/>
<path d="M281.516 38.1961C281.516 36.5062 280.145 35.1363 278.453 35.1363C276.76 35.1363 275.389 36.5062 275.389 38.1961C275.389 39.8859 276.76 41.2559 278.453 41.2559C280.145 41.2559 281.516 39.8859 281.516 38.1961Z" fill="url(#paint187_linear_23_499)" fill-opacity="0.3"/>
<path d="M281.516 3.05979C281.516 1.36993 280.145 4.76837e-07 278.453 4.76837e-07C276.76 4.76837e-07 275.389 1.36993 275.389 3.05979C275.389 4.74965 276.76 6.11951 278.453 6.11951C280.145 6.11951 281.516 4.74965 281.516 3.05979Z" fill="url(#paint188_linear_23_499)" fill-opacity="0.3"/>
<defs>
<linearGradient id="paint0_linear_23_499" x1="0" y1="708.921" x2="0.404254" y2="702.444" gradientUnits="userSpaceOnUse">
<stop stop-color="#81BD92"/>
<stop offset="1" stop-color="#BEF8CE"/>
</linearGradient>
<linearGradient id="paint1_linear_23_499" x1="0" y1="673.785" x2="0.404254" y2="667.308" gradientUnits="userSpaceOnUse">
<stop stop-color="#81BD92"/>
<stop offset="1" stop-color="#BEF8CE"/>
</linearGradient>
<linearGradient id="paint2_linear_23_499" x1="0" y1="638.649" x2="0.404254" y2="632.172" gradientUnits="userSpaceOnUse">
<stop stop-color="#81BD92"/>
<stop offset="1" stop-color="#BEF8CE"/>
</linearGradient>
<linearGradient id="paint3_linear_23_499" x1="0" y1="603.512" x2="0.404252" y2="597.036" gradientUnits="userSpaceOnUse">
<stop stop-color="#81BD92"/>
<stop offset="1" stop-color="#BEF8CE"/>
</linearGradient>
<linearGradient id="paint4_linear_23_499" x1="0" y1="568.376" x2="0.404252" y2="561.899" gradientUnits="userSpaceOnUse">
<stop stop-color="#81BD92"/>
<stop offset="1" stop-color="#BEF8CE"/>
</linearGradient>
<linearGradient id="paint5_linear_23_499" x1="0" y1="533.24" x2="0.404252" y2="526.763" gradientUnits="userSpaceOnUse">
<stop stop-color="#81BD92"/>
<stop offset="1" stop-color="#BEF8CE"/>
</linearGradient>
<linearGradient id="paint6_linear_23_499" x1="0" y1="498.078" x2="0.404257" y2="491.601" gradientUnits="userSpaceOnUse">
<stop stop-color="#81BD92"/>
<stop offset="1" stop-color="#BEF8CE"/>
</linearGradient>
<linearGradient id="paint7_linear_23_499" x1="0" y1="462.942" x2="0.404257" y2="456.465" gradientUnits="userSpaceOnUse">
<stop stop-color="#81BD92"/>
<stop offset="1" stop-color="#BEF8CE"/>
</linearGradient>
<linearGradient id="paint8_linear_23_499" x1="0" y1="427.806" x2="0.404257" y2="421.329" gradientUnits="userSpaceOnUse">
<stop stop-color="#81BD92"/>
<stop offset="1" stop-color="#BEF8CE"/>
</linearGradient>
<linearGradient id="paint9_linear_23_499" x1="0" y1="392.669" x2="0.404257" y2="386.193" gradientUnits="userSpaceOnUse">
<stop stop-color="#81BD92"/>
<stop offset="1" stop-color="#BEF8CE"/>
</linearGradient>
<linearGradient id="paint10_linear_23_499" x1="0" y1="357.533" x2="0.404252" y2="351.056" gradientUnits="userSpaceOnUse">
<stop stop-color="#81BD92"/>
<stop offset="1" stop-color="#BEF8CE"/>
</linearGradient>
<linearGradient id="paint11_linear_23_499" x1="0" y1="322.397" x2="0.404252" y2="315.92" gradientUnits="userSpaceOnUse">
<stop stop-color="#81BD92"/>
<stop offset="1" stop-color="#BEF8CE"/>
</linearGradient>
<linearGradient id="paint12_linear_23_499" x1="0" y1="287.235" x2="0.404257" y2="280.758" gradientUnits="userSpaceOnUse">
<stop stop-color="#81BD92"/>
<stop offset="1" stop-color="#BEF8CE"/>
</linearGradient>
<linearGradient id="paint13_linear_23_499" x1="0" y1="252.099" x2="0.404252" y2="245.622" gradientUnits="userSpaceOnUse">
<stop stop-color="#81BD92"/>
<stop offset="1" stop-color="#BEF8CE"/>
</linearGradient>
<linearGradient id="paint14_linear_23_499" x1="0" y1="216.963" x2="0.404252" y2="210.486" gradientUnits="userSpaceOnUse">
<stop stop-color="#81BD92"/>
<stop offset="1" stop-color="#BEF8CE"/>
</linearGradient>
<linearGradient id="paint15_linear_23_499" x1="0" y1="181.826" x2="0.404252" y2="175.35" gradientUnits="userSpaceOnUse">
<stop stop-color="#81BD92"/>
<stop offset="1" stop-color="#BEF8CE"/>
</linearGradient>
<linearGradient id="paint16_linear_23_499" x1="0" y1="146.69" x2="0.404252" y2="140.213" gradientUnits="userSpaceOnUse">
<stop stop-color="#81BD92"/>
<stop offset="1" stop-color="#BEF8CE"/>
</linearGradient>
<linearGradient id="paint17_linear_23_499" x1="0" y1="111.554" x2="0.404252" y2="105.077" gradientUnits="userSpaceOnUse">
<stop stop-color="#81BD92"/>
<stop offset="1" stop-color="#BEF8CE"/>
</linearGradient>
<linearGradient id="paint18_linear_23_499" x1="0" y1="76.4175" x2="0.404252" y2="69.9408" gradientUnits="userSpaceOnUse">
<stop stop-color="#81BD92"/>
<stop offset="1" stop-color="#BEF8CE"/>
</linearGradient>
<linearGradient id="paint19_linear_23_499" x1="0" y1="41.2559" x2="0.404262" y2="34.779" gradientUnits="userSpaceOnUse">
<stop stop-color="#81BD92"/>
<stop offset="1" stop-color="#BEF8CE"/>
</linearGradient>
<linearGradient id="paint20_linear_23_499" x1="0" y1="6.11951" x2="0.404252" y2="-0.357237" gradientUnits="userSpaceOnUse">
<stop stop-color="#81BD92"/>
<stop offset="1" stop-color="#BEF8CE"/>
</linearGradient>
<linearGradient id="paint21_linear_23_499" x1="34.4172" y1="708.921" x2="34.8215" y2="702.444" gradientUnits="userSpaceOnUse">
<stop stop-color="#81BD92"/>
<stop offset="1" stop-color="#BEF8CE"/>
</linearGradient>
<linearGradient id="paint22_linear_23_499" x1="34.4172" y1="673.785" x2="34.8215" y2="667.308" gradientUnits="userSpaceOnUse">
<stop stop-color="#81BD92"/>
<stop offset="1" stop-color="#BEF8CE"/>
</linearGradient>
<linearGradient id="paint23_linear_23_499" x1="34.4172" y1="638.649" x2="34.8215" y2="632.172" gradientUnits="userSpaceOnUse">
<stop stop-color="#81BD92"/>
<stop offset="1" stop-color="#BEF8CE"/>
</linearGradient>
<linearGradient id="paint24_linear_23_499" x1="34.4172" y1="603.512" x2="34.8215" y2="597.036" gradientUnits="userSpaceOnUse">
<stop stop-color="#81BD92"/>
<stop offset="1" stop-color="#BEF8CE"/>
</linearGradient>
<linearGradient id="paint25_linear_23_499" x1="34.4172" y1="568.376" x2="34.8215" y2="561.899" gradientUnits="userSpaceOnUse">
<stop stop-color="#81BD92"/>
<stop offset="1" stop-color="#BEF8CE"/>
</linearGradient>
<linearGradient id="paint26_linear_23_499" x1="34.4172" y1="533.24" x2="34.8215" y2="526.763" gradientUnits="userSpaceOnUse">
<stop stop-color="#81BD92"/>
<stop offset="1" stop-color="#BEF8CE"/>
</linearGradient>
<linearGradient id="paint27_linear_23_499" x1="34.4172" y1="498.078" x2="34.8215" y2="491.601" gradientUnits="userSpaceOnUse">
<stop stop-color="#81BD92"/>
<stop offset="1" stop-color="#BEF8CE"/>
</linearGradient>
<linearGradient id="paint28_linear_23_499" x1="34.4172" y1="462.942" x2="34.8215" y2="456.465" gradientUnits="userSpaceOnUse">
<stop stop-color="#81BD92"/>
<stop offset="1" stop-color="#BEF8CE"/>
</linearGradient>
<linearGradient id="paint29_linear_23_499" x1="34.4172" y1="427.806" x2="34.8215" y2="421.329" gradientUnits="userSpaceOnUse">
<stop stop-color="#81BD92"/>
<stop offset="1" stop-color="#BEF8CE"/>
</linearGradient>
<linearGradient id="paint30_linear_23_499" x1="34.4172" y1="392.669" x2="34.8215" y2="386.193" gradientUnits="userSpaceOnUse">
<stop stop-color="#81BD92"/>
<stop offset="1" stop-color="#BEF8CE"/>
</linearGradient>
<linearGradient id="paint31_linear_23_499" x1="34.4172" y1="357.533" x2="34.8215" y2="351.056" gradientUnits="userSpaceOnUse">
<stop stop-color="#81BD92"/>
<stop offset="1" stop-color="#BEF8CE"/>
</linearGradient>
<linearGradient id="paint32_linear_23_499" x1="34.4172" y1="322.397" x2="34.8215" y2="315.92" gradientUnits="userSpaceOnUse">
<stop stop-color="#81BD92"/>
<stop offset="1" stop-color="#BEF8CE"/>
</linearGradient>
<linearGradient id="paint33_linear_23_499" x1="34.4172" y1="287.235" x2="34.8215" y2="280.758" gradientUnits="userSpaceOnUse">
<stop stop-color="#81BD92"/>
<stop offset="1" stop-color="#BEF8CE"/>
</linearGradient>
<linearGradient id="paint34_linear_23_499" x1="34.4172" y1="252.099" x2="34.8215" y2="245.622" gradientUnits="userSpaceOnUse">
<stop stop-color="#81BD92"/>
<stop offset="1" stop-color="#BEF8CE"/>
</linearGradient>
<linearGradient id="paint35_linear_23_499" x1="34.4172" y1="216.963" x2="34.8215" y2="210.486" gradientUnits="userSpaceOnUse">
<stop stop-color="#81BD92"/>
<stop offset="1" stop-color="#BEF8CE"/>
</linearGradient>
<linearGradient id="paint36_linear_23_499" x1="34.4172" y1="181.826" x2="34.8215" y2="175.35" gradientUnits="userSpaceOnUse">
<stop stop-color="#81BD92"/>
<stop offset="1" stop-color="#BEF8CE"/>
</linearGradient>
<linearGradient id="paint37_linear_23_499" x1="34.4172" y1="146.69" x2="34.8215" y2="140.213" gradientUnits="userSpaceOnUse">
<stop stop-color="#81BD92"/>
<stop offset="1" stop-color="#BEF8CE"/>
</linearGradient>
<linearGradient id="paint38_linear_23_499" x1="34.4172" y1="111.554" x2="34.8215" y2="105.077" gradientUnits="userSpaceOnUse">
<stop stop-color="#81BD92"/>
<stop offset="1" stop-color="#BEF8CE"/>
</linearGradient>
<linearGradient id="paint39_linear_23_499" x1="34.4172" y1="76.4175" x2="34.8215" y2="69.9408" gradientUnits="userSpaceOnUse">
<stop stop-color="#81BD92"/>
<stop offset="1" stop-color="#BEF8CE"/>
</linearGradient>
<linearGradient id="paint40_linear_23_499" x1="34.4172" y1="41.2559" x2="34.8215" y2="34.779" gradientUnits="userSpaceOnUse">
<stop stop-color="#81BD92"/>
<stop offset="1" stop-color="#BEF8CE"/>
</linearGradient>
<linearGradient id="paint41_linear_23_499" x1="34.4172" y1="6.11951" x2="34.8215" y2="-0.357236" gradientUnits="userSpaceOnUse">
<stop stop-color="#81BD92"/>
<stop offset="1" stop-color="#BEF8CE"/>
</linearGradient>
<linearGradient id="paint42_linear_23_499" x1="68.86" y1="708.921" x2="69.2642" y2="702.444" gradientUnits="userSpaceOnUse">
<stop stop-color="#81BD92"/>
<stop offset="1" stop-color="#BEF8CE"/>
</linearGradient>
<linearGradient id="paint43_linear_23_499" x1="68.86" y1="673.785" x2="69.2642" y2="667.308" gradientUnits="userSpaceOnUse">
<stop stop-color="#81BD92"/>
<stop offset="1" stop-color="#BEF8CE"/>
</linearGradient>
<linearGradient id="paint44_linear_23_499" x1="68.86" y1="638.649" x2="69.2642" y2="632.172" gradientUnits="userSpaceOnUse">
<stop stop-color="#81BD92"/>
<stop offset="1" stop-color="#BEF8CE"/>
</linearGradient>
<linearGradient id="paint45_linear_23_499" x1="68.86" y1="603.512" x2="69.2642" y2="597.036" gradientUnits="userSpaceOnUse">
<stop stop-color="#81BD92"/>
<stop offset="1" stop-color="#BEF8CE"/>
</linearGradient>
<linearGradient id="paint46_linear_23_499" x1="68.86" y1="568.376" x2="69.2642" y2="561.899" gradientUnits="userSpaceOnUse">
<stop stop-color="#81BD92"/>
<stop offset="1" stop-color="#BEF8CE"/>
</linearGradient>
<linearGradient id="paint47_linear_23_499" x1="68.86" y1="533.24" x2="69.2642" y2="526.763" gradientUnits="userSpaceOnUse">
<stop stop-color="#81BD92"/>
<stop offset="1" stop-color="#BEF8CE"/>
</linearGradient>
<linearGradient id="paint48_linear_23_499" x1="68.86" y1="498.078" x2="69.2642" y2="491.601" gradientUnits="userSpaceOnUse">
<stop stop-color="#81BD92"/>
<stop offset="1" stop-color="#BEF8CE"/>
</linearGradient>
<linearGradient id="paint49_linear_23_499" x1="68.86" y1="462.942" x2="69.2642" y2="456.465" gradientUnits="userSpaceOnUse">
<stop stop-color="#81BD92"/>
<stop offset="1" stop-color="#BEF8CE"/>
</linearGradient>
<linearGradient id="paint50_linear_23_499" x1="68.86" y1="427.806" x2="69.2642" y2="421.329" gradientUnits="userSpaceOnUse">
<stop stop-color="#81BD92"/>
<stop offset="1" stop-color="#BEF8CE"/>
</linearGradient>
<linearGradient id="paint51_linear_23_499" x1="68.86" y1="392.669" x2="69.2642" y2="386.193" gradientUnits="userSpaceOnUse">
<stop stop-color="#81BD92"/>
<stop offset="1" stop-color="#BEF8CE"/>
</linearGradient>
<linearGradient id="paint52_linear_23_499" x1="68.86" y1="357.533" x2="69.2642" y2="351.056" gradientUnits="userSpaceOnUse">
<stop stop-color="#81BD92"/>
<stop offset="1" stop-color="#BEF8CE"/>
</linearGradient>
<linearGradient id="paint53_linear_23_499" x1="68.86" y1="322.397" x2="69.2642" y2="315.92" gradientUnits="userSpaceOnUse">
<stop stop-color="#81BD92"/>
<stop offset="1" stop-color="#BEF8CE"/>
</linearGradient>
<linearGradient id="paint54_linear_23_499" x1="68.86" y1="287.235" x2="69.2642" y2="280.758" gradientUnits="userSpaceOnUse">
<stop stop-color="#81BD92"/>
<stop offset="1" stop-color="#BEF8CE"/>
</linearGradient>
<linearGradient id="paint55_linear_23_499" x1="68.86" y1="252.099" x2="69.2642" y2="245.622" gradientUnits="userSpaceOnUse">
<stop stop-color="#81BD92"/>
<stop offset="1" stop-color="#BEF8CE"/>
</linearGradient>
<linearGradient id="paint56_linear_23_499" x1="68.86" y1="216.963" x2="69.2642" y2="210.486" gradientUnits="userSpaceOnUse">
<stop stop-color="#81BD92"/>
<stop offset="1" stop-color="#BEF8CE"/>
</linearGradient>
<linearGradient id="paint57_linear_23_499" x1="68.86" y1="181.826" x2="69.2642" y2="175.35" gradientUnits="userSpaceOnUse">
<stop stop-color="#81BD92"/>
<stop offset="1" stop-color="#BEF8CE"/>
</linearGradient>
<linearGradient id="paint58_linear_23_499" x1="68.86" y1="146.69" x2="69.2642" y2="140.213" gradientUnits="userSpaceOnUse">
<stop stop-color="#81BD92"/>
<stop offset="1" stop-color="#BEF8CE"/>
</linearGradient>
<linearGradient id="paint59_linear_23_499" x1="68.86" y1="111.554" x2="69.2642" y2="105.077" gradientUnits="userSpaceOnUse">
<stop stop-color="#81BD92"/>
<stop offset="1" stop-color="#BEF8CE"/>
</linearGradient>
<linearGradient id="paint60_linear_23_499" x1="68.86" y1="76.4175" x2="69.2642" y2="69.9408" gradientUnits="userSpaceOnUse">
<stop stop-color="#81BD92"/>
<stop offset="1" stop-color="#BEF8CE"/>
</linearGradient>
<linearGradient id="paint61_linear_23_499" x1="68.86" y1="41.2559" x2="69.2642" y2="34.779" gradientUnits="userSpaceOnUse">
<stop stop-color="#81BD92"/>
<stop offset="1" stop-color="#BEF8CE"/>
</linearGradient>
<linearGradient id="paint62_linear_23_499" x1="68.86" y1="6.11951" x2="69.2642" y2="-0.357237" gradientUnits="userSpaceOnUse">
<stop stop-color="#81BD92"/>
<stop offset="1" stop-color="#BEF8CE"/>
</linearGradient>
<linearGradient id="paint63_linear_23_499" x1="103.277" y1="708.921" x2="103.681" y2="702.444" gradientUnits="userSpaceOnUse">
<stop stop-color="#81BD92"/>
<stop offset="1" stop-color="#BEF8CE"/>
</linearGradient>
<linearGradient id="paint64_linear_23_499" x1="103.277" y1="673.785" x2="103.681" y2="667.308" gradientUnits="userSpaceOnUse">
<stop stop-color="#81BD92"/>
<stop offset="1" stop-color="#BEF8CE"/>
</linearGradient>
<linearGradient id="paint65_linear_23_499" x1="103.277" y1="638.649" x2="103.681" y2="632.172" gradientUnits="userSpaceOnUse">
<stop stop-color="#81BD92"/>
<stop offset="1" stop-color="#BEF8CE"/>
</linearGradient>
<linearGradient id="paint66_linear_23_499" x1="103.277" y1="603.512" x2="103.681" y2="597.036" gradientUnits="userSpaceOnUse">
<stop stop-color="#81BD92"/>
<stop offset="1" stop-color="#BEF8CE"/>
</linearGradient>
<linearGradient id="paint67_linear_23_499" x1="103.277" y1="568.376" x2="103.681" y2="561.899" gradientUnits="userSpaceOnUse">
<stop stop-color="#81BD92"/>
<stop offset="1" stop-color="#BEF8CE"/>
</linearGradient>
<linearGradient id="paint68_linear_23_499" x1="103.277" y1="533.24" x2="103.681" y2="526.763" gradientUnits="userSpaceOnUse">
<stop stop-color="#81BD92"/>
<stop offset="1" stop-color="#BEF8CE"/>
</linearGradient>
<linearGradient id="paint69_linear_23_499" x1="103.277" y1="498.078" x2="103.681" y2="491.601" gradientUnits="userSpaceOnUse">
<stop stop-color="#81BD92"/>
<stop offset="1" stop-color="#BEF8CE"/>
</linearGradient>
<linearGradient id="paint70_linear_23_499" x1="103.277" y1="462.942" x2="103.681" y2="456.465" gradientUnits="userSpaceOnUse">
<stop stop-color="#81BD92"/>
<stop offset="1" stop-color="#BEF8CE"/>
</linearGradient>
<linearGradient id="paint71_linear_23_499" x1="103.277" y1="427.806" x2="103.681" y2="421.329" gradientUnits="userSpaceOnUse">
<stop stop-color="#81BD92"/>
<stop offset="1" stop-color="#BEF8CE"/>
</linearGradient>
<linearGradient id="paint72_linear_23_499" x1="103.277" y1="392.669" x2="103.681" y2="386.193" gradientUnits="userSpaceOnUse">
<stop stop-color="#81BD92"/>
<stop offset="1" stop-color="#BEF8CE"/>
</linearGradient>
<linearGradient id="paint73_linear_23_499" x1="103.277" y1="357.533" x2="103.681" y2="351.056" gradientUnits="userSpaceOnUse">
<stop stop-color="#81BD92"/>
<stop offset="1" stop-color="#BEF8CE"/>
</linearGradient>
<linearGradient id="paint74_linear_23_499" x1="103.277" y1="322.397" x2="103.681" y2="315.92" gradientUnits="userSpaceOnUse">
<stop stop-color="#81BD92"/>
<stop offset="1" stop-color="#BEF8CE"/>
</linearGradient>
<linearGradient id="paint75_linear_23_499" x1="103.277" y1="287.235" x2="103.681" y2="280.758" gradientUnits="userSpaceOnUse">
<stop stop-color="#81BD92"/>
<stop offset="1" stop-color="#BEF8CE"/>
</linearGradient>
<linearGradient id="paint76_linear_23_499" x1="103.277" y1="252.099" x2="103.681" y2="245.622" gradientUnits="userSpaceOnUse">
<stop stop-color="#81BD92"/>
<stop offset="1" stop-color="#BEF8CE"/>
</linearGradient>
<linearGradient id="paint77_linear_23_499" x1="103.277" y1="216.963" x2="103.681" y2="210.486" gradientUnits="userSpaceOnUse">
<stop stop-color="#81BD92"/>
<stop offset="1" stop-color="#BEF8CE"/>
</linearGradient>
<linearGradient id="paint78_linear_23_499" x1="103.277" y1="181.826" x2="103.681" y2="175.35" gradientUnits="userSpaceOnUse">
<stop stop-color="#81BD92"/>
<stop offset="1" stop-color="#BEF8CE"/>
</linearGradient>
<linearGradient id="paint79_linear_23_499" x1="103.277" y1="146.69" x2="103.681" y2="140.213" gradientUnits="userSpaceOnUse">
<stop stop-color="#81BD92"/>
<stop offset="1" stop-color="#BEF8CE"/>
</linearGradient>
<linearGradient id="paint80_linear_23_499" x1="103.277" y1="111.554" x2="103.681" y2="105.077" gradientUnits="userSpaceOnUse">
<stop stop-color="#81BD92"/>
<stop offset="1" stop-color="#BEF8CE"/>
</linearGradient>
<linearGradient id="paint81_linear_23_499" x1="103.277" y1="76.4175" x2="103.681" y2="69.9408" gradientUnits="userSpaceOnUse">
<stop stop-color="#81BD92"/>
<stop offset="1" stop-color="#BEF8CE"/>
</linearGradient>
<linearGradient id="paint82_linear_23_499" x1="103.277" y1="41.2559" x2="103.681" y2="34.779" gradientUnits="userSpaceOnUse">
<stop stop-color="#81BD92"/>
<stop offset="1" stop-color="#BEF8CE"/>
</linearGradient>
<linearGradient id="paint83_linear_23_499" x1="103.277" y1="6.11951" x2="103.681" y2="-0.357237" gradientUnits="userSpaceOnUse">
<stop stop-color="#81BD92"/>
<stop offset="1" stop-color="#BEF8CE"/>
</linearGradient>
<linearGradient id="paint84_linear_23_499" x1="137.694" y1="708.921" x2="138.099" y2="702.444" gradientUnits="userSpaceOnUse">
<stop stop-color="#81BD92"/>
<stop offset="1" stop-color="#BEF8CE"/>
</linearGradient>
<linearGradient id="paint85_linear_23_499" x1="137.694" y1="673.785" x2="138.099" y2="667.308" gradientUnits="userSpaceOnUse">
<stop stop-color="#81BD92"/>
<stop offset="1" stop-color="#BEF8CE"/>
</linearGradient>
<linearGradient id="paint86_linear_23_499" x1="137.694" y1="638.649" x2="138.099" y2="632.172" gradientUnits="userSpaceOnUse">
<stop stop-color="#81BD92"/>
<stop offset="1" stop-color="#BEF8CE"/>
</linearGradient>
<linearGradient id="paint87_linear_23_499" x1="137.694" y1="603.512" x2="138.099" y2="597.036" gradientUnits="userSpaceOnUse">
<stop stop-color="#81BD92"/>
<stop offset="1" stop-color="#BEF8CE"/>
</linearGradient>
<linearGradient id="paint88_linear_23_499" x1="137.694" y1="568.376" x2="138.099" y2="561.899" gradientUnits="userSpaceOnUse">
<stop stop-color="#81BD92"/>
<stop offset="1" stop-color="#BEF8CE"/>
</linearGradient>
<linearGradient id="paint89_linear_23_499" x1="137.694" y1="533.24" x2="138.099" y2="526.763" gradientUnits="userSpaceOnUse">
<stop stop-color="#81BD92"/>
<stop offset="1" stop-color="#BEF8CE"/>
</linearGradient>
<linearGradient id="paint90_linear_23_499" x1="137.694" y1="498.078" x2="138.099" y2="491.601" gradientUnits="userSpaceOnUse">
<stop stop-color="#81BD92"/>
<stop offset="1" stop-color="#BEF8CE"/>
</linearGradient>
<linearGradient id="paint91_linear_23_499" x1="137.694" y1="462.942" x2="138.099" y2="456.465" gradientUnits="userSpaceOnUse">
<stop stop-color="#81BD92"/>
<stop offset="1" stop-color="#BEF8CE"/>
</linearGradient>
<linearGradient id="paint92_linear_23_499" x1="137.694" y1="427.806" x2="138.099" y2="421.329" gradientUnits="userSpaceOnUse">
<stop stop-color="#81BD92"/>
<stop offset="1" stop-color="#BEF8CE"/>
</linearGradient>
<linearGradient id="paint93_linear_23_499" x1="137.694" y1="392.669" x2="138.099" y2="386.193" gradientUnits="userSpaceOnUse">
<stop stop-color="#81BD92"/>
<stop offset="1" stop-color="#BEF8CE"/>
</linearGradient>
<linearGradient id="paint94_linear_23_499" x1="137.694" y1="357.533" x2="138.099" y2="351.056" gradientUnits="userSpaceOnUse">
<stop stop-color="#81BD92"/>
<stop offset="1" stop-color="#BEF8CE"/>
</linearGradient>
<linearGradient id="paint95_linear_23_499" x1="137.694" y1="322.397" x2="138.099" y2="315.92" gradientUnits="userSpaceOnUse">
<stop stop-color="#81BD92"/>
<stop offset="1" stop-color="#BEF8CE"/>
</linearGradient>
<linearGradient id="paint96_linear_23_499" x1="137.694" y1="287.235" x2="138.099" y2="280.758" gradientUnits="userSpaceOnUse">
<stop stop-color="#81BD92"/>
<stop offset="1" stop-color="#BEF8CE"/>
</linearGradient>
<linearGradient id="paint97_linear_23_499" x1="137.694" y1="252.099" x2="138.099" y2="245.622" gradientUnits="userSpaceOnUse">
<stop stop-color="#81BD92"/>
<stop offset="1" stop-color="#BEF8CE"/>
</linearGradient>
<linearGradient id="paint98_linear_23_499" x1="137.694" y1="216.963" x2="138.099" y2="210.486" gradientUnits="userSpaceOnUse">
<stop stop-color="#81BD92"/>
<stop offset="1" stop-color="#BEF8CE"/>
</linearGradient>
<linearGradient id="paint99_linear_23_499" x1="137.694" y1="181.826" x2="138.099" y2="175.35" gradientUnits="userSpaceOnUse">
<stop stop-color="#81BD92"/>
<stop offset="1" stop-color="#BEF8CE"/>
</linearGradient>
<linearGradient id="paint100_linear_23_499" x1="137.694" y1="146.69" x2="138.099" y2="140.213" gradientUnits="userSpaceOnUse">
<stop stop-color="#81BD92"/>
<stop offset="1" stop-color="#BEF8CE"/>
</linearGradient>
<linearGradient id="paint101_linear_23_499" x1="137.694" y1="111.554" x2="138.099" y2="105.077" gradientUnits="userSpaceOnUse">
<stop stop-color="#81BD92"/>
<stop offset="1" stop-color="#BEF8CE"/>
</linearGradient>
<linearGradient id="paint102_linear_23_499" x1="137.694" y1="76.4175" x2="138.099" y2="69.9408" gradientUnits="userSpaceOnUse">
<stop stop-color="#81BD92"/>
<stop offset="1" stop-color="#BEF8CE"/>
</linearGradient>
<linearGradient id="paint103_linear_23_499" x1="137.694" y1="41.2559" x2="138.099" y2="34.779" gradientUnits="userSpaceOnUse">
<stop stop-color="#81BD92"/>
<stop offset="1" stop-color="#BEF8CE"/>
</linearGradient>
<linearGradient id="paint104_linear_23_499" x1="137.694" y1="6.11951" x2="138.099" y2="-0.357237" gradientUnits="userSpaceOnUse">
<stop stop-color="#81BD92"/>
<stop offset="1" stop-color="#BEF8CE"/>
</linearGradient>
<linearGradient id="paint105_linear_23_499" x1="172.112" y1="708.921" x2="172.516" y2="702.444" gradientUnits="userSpaceOnUse">
<stop stop-color="#81BD92"/>
<stop offset="1" stop-color="#BEF8CE"/>
</linearGradient>
<linearGradient id="paint106_linear_23_499" x1="172.112" y1="673.785" x2="172.516" y2="667.308" gradientUnits="userSpaceOnUse">
<stop stop-color="#81BD92"/>
<stop offset="1" stop-color="#BEF8CE"/>
</linearGradient>
<linearGradient id="paint107_linear_23_499" x1="172.112" y1="638.649" x2="172.516" y2="632.172" gradientUnits="userSpaceOnUse">
<stop stop-color="#81BD92"/>
<stop offset="1" stop-color="#BEF8CE"/>
</linearGradient>
<linearGradient id="paint108_linear_23_499" x1="172.112" y1="603.512" x2="172.516" y2="597.036" gradientUnits="userSpaceOnUse">
<stop stop-color="#81BD92"/>
<stop offset="1" stop-color="#BEF8CE"/>
</linearGradient>
<linearGradient id="paint109_linear_23_499" x1="172.112" y1="568.376" x2="172.516" y2="561.899" gradientUnits="userSpaceOnUse">
<stop stop-color="#81BD92"/>
<stop offset="1" stop-color="#BEF8CE"/>
</linearGradient>
<linearGradient id="paint110_linear_23_499" x1="172.112" y1="533.24" x2="172.516" y2="526.763" gradientUnits="userSpaceOnUse">
<stop stop-color="#81BD92"/>
<stop offset="1" stop-color="#BEF8CE"/>
</linearGradient>
<linearGradient id="paint111_linear_23_499" x1="172.112" y1="498.078" x2="172.516" y2="491.601" gradientUnits="userSpaceOnUse">
<stop stop-color="#81BD92"/>
<stop offset="1" stop-color="#BEF8CE"/>
</linearGradient>
<linearGradient id="paint112_linear_23_499" x1="172.112" y1="462.942" x2="172.516" y2="456.465" gradientUnits="userSpaceOnUse">
<stop stop-color="#81BD92"/>
<stop offset="1" stop-color="#BEF8CE"/>
</linearGradient>
<linearGradient id="paint113_linear_23_499" x1="172.112" y1="427.806" x2="172.516" y2="421.329" gradientUnits="userSpaceOnUse">
<stop stop-color="#81BD92"/>
<stop offset="1" stop-color="#BEF8CE"/>
</linearGradient>
<linearGradient id="paint114_linear_23_499" x1="172.112" y1="392.669" x2="172.516" y2="386.193" gradientUnits="userSpaceOnUse">
<stop stop-color="#81BD92"/>
<stop offset="1" stop-color="#BEF8CE"/>
</linearGradient>
<linearGradient id="paint115_linear_23_499" x1="172.112" y1="357.533" x2="172.516" y2="351.056" gradientUnits="userSpaceOnUse">
<stop stop-color="#81BD92"/>
<stop offset="1" stop-color="#BEF8CE"/>
</linearGradient>
<linearGradient id="paint116_linear_23_499" x1="172.112" y1="322.397" x2="172.516" y2="315.92" gradientUnits="userSpaceOnUse">
<stop stop-color="#81BD92"/>
<stop offset="1" stop-color="#BEF8CE"/>
</linearGradient>
<linearGradient id="paint117_linear_23_499" x1="172.112" y1="287.235" x2="172.516" y2="280.758" gradientUnits="userSpaceOnUse">
<stop stop-color="#81BD92"/>
<stop offset="1" stop-color="#BEF8CE"/>
</linearGradient>
<linearGradient id="paint118_linear_23_499" x1="172.112" y1="252.099" x2="172.516" y2="245.622" gradientUnits="userSpaceOnUse">
<stop stop-color="#81BD92"/>
<stop offset="1" stop-color="#BEF8CE"/>
</linearGradient>
<linearGradient id="paint119_linear_23_499" x1="172.112" y1="216.963" x2="172.516" y2="210.486" gradientUnits="userSpaceOnUse">
<stop stop-color="#81BD92"/>
<stop offset="1" stop-color="#BEF8CE"/>
</linearGradient>
<linearGradient id="paint120_linear_23_499" x1="172.112" y1="181.826" x2="172.516" y2="175.35" gradientUnits="userSpaceOnUse">
<stop stop-color="#81BD92"/>
<stop offset="1" stop-color="#BEF8CE"/>
</linearGradient>
<linearGradient id="paint121_linear_23_499" x1="172.112" y1="146.69" x2="172.516" y2="140.213" gradientUnits="userSpaceOnUse">
<stop stop-color="#81BD92"/>
<stop offset="1" stop-color="#BEF8CE"/>
</linearGradient>
<linearGradient id="paint122_linear_23_499" x1="172.112" y1="111.554" x2="172.516" y2="105.077" gradientUnits="userSpaceOnUse">
<stop stop-color="#81BD92"/>
<stop offset="1" stop-color="#BEF8CE"/>
</linearGradient>
<linearGradient id="paint123_linear_23_499" x1="172.112" y1="76.4175" x2="172.516" y2="69.9408" gradientUnits="userSpaceOnUse">
<stop stop-color="#81BD92"/>
<stop offset="1" stop-color="#BEF8CE"/>
</linearGradient>
<linearGradient id="paint124_linear_23_499" x1="172.112" y1="41.2559" x2="172.516" y2="34.779" gradientUnits="userSpaceOnUse">
<stop stop-color="#81BD92"/>
<stop offset="1" stop-color="#BEF8CE"/>
</linearGradient>
<linearGradient id="paint125_linear_23_499" x1="172.112" y1="6.11951" x2="172.516" y2="-0.357236" gradientUnits="userSpaceOnUse">
<stop stop-color="#81BD92"/>
<stop offset="1" stop-color="#BEF8CE"/>
</linearGradient>
<linearGradient id="paint126_linear_23_499" x1="206.529" y1="708.921" x2="206.933" y2="702.444" gradientUnits="userSpaceOnUse">
<stop stop-color="#81BD92"/>
<stop offset="1" stop-color="#BEF8CE"/>
</linearGradient>
<linearGradient id="paint127_linear_23_499" x1="206.529" y1="673.785" x2="206.933" y2="667.308" gradientUnits="userSpaceOnUse">
<stop stop-color="#81BD92"/>
<stop offset="1" stop-color="#BEF8CE"/>
</linearGradient>
<linearGradient id="paint128_linear_23_499" x1="206.529" y1="638.649" x2="206.933" y2="632.172" gradientUnits="userSpaceOnUse">
<stop stop-color="#81BD92"/>
<stop offset="1" stop-color="#BEF8CE"/>
</linearGradient>
<linearGradient id="paint129_linear_23_499" x1="206.529" y1="603.512" x2="206.933" y2="597.036" gradientUnits="userSpaceOnUse">
<stop stop-color="#81BD92"/>
<stop offset="1" stop-color="#BEF8CE"/>
</linearGradient>
<linearGradient id="paint130_linear_23_499" x1="206.529" y1="568.376" x2="206.933" y2="561.899" gradientUnits="userSpaceOnUse">
<stop stop-color="#81BD92"/>
<stop offset="1" stop-color="#BEF8CE"/>
</linearGradient>
<linearGradient id="paint131_linear_23_499" x1="206.529" y1="533.24" x2="206.933" y2="526.763" gradientUnits="userSpaceOnUse">
<stop stop-color="#81BD92"/>
<stop offset="1" stop-color="#BEF8CE"/>
</linearGradient>
<linearGradient id="paint132_linear_23_499" x1="206.529" y1="498.078" x2="206.933" y2="491.601" gradientUnits="userSpaceOnUse">
<stop stop-color="#81BD92"/>
<stop offset="1" stop-color="#BEF8CE"/>
</linearGradient>
<linearGradient id="paint133_linear_23_499" x1="206.529" y1="462.942" x2="206.933" y2="456.465" gradientUnits="userSpaceOnUse">
<stop stop-color="#81BD92"/>
<stop offset="1" stop-color="#BEF8CE"/>
</linearGradient>
<linearGradient id="paint134_linear_23_499" x1="206.529" y1="427.806" x2="206.933" y2="421.329" gradientUnits="userSpaceOnUse">
<stop stop-color="#81BD92"/>
<stop offset="1" stop-color="#BEF8CE"/>
</linearGradient>
<linearGradient id="paint135_linear_23_499" x1="206.529" y1="392.669" x2="206.933" y2="386.193" gradientUnits="userSpaceOnUse">
<stop stop-color="#81BD92"/>
<stop offset="1" stop-color="#BEF8CE"/>
</linearGradient>
<linearGradient id="paint136_linear_23_499" x1="206.529" y1="357.533" x2="206.933" y2="351.056" gradientUnits="userSpaceOnUse">
<stop stop-color="#81BD92"/>
<stop offset="1" stop-color="#BEF8CE"/>
</linearGradient>
<linearGradient id="paint137_linear_23_499" x1="206.529" y1="322.397" x2="206.933" y2="315.92" gradientUnits="userSpaceOnUse">
<stop stop-color="#81BD92"/>
<stop offset="1" stop-color="#BEF8CE"/>
</linearGradient>
<linearGradient id="paint138_linear_23_499" x1="206.529" y1="287.235" x2="206.933" y2="280.758" gradientUnits="userSpaceOnUse">
<stop stop-color="#81BD92"/>
<stop offset="1" stop-color="#BEF8CE"/>
</linearGradient>
<linearGradient id="paint139_linear_23_499" x1="206.529" y1="252.099" x2="206.933" y2="245.622" gradientUnits="userSpaceOnUse">
<stop stop-color="#81BD92"/>
<stop offset="1" stop-color="#BEF8CE"/>
</linearGradient>
<linearGradient id="paint140_linear_23_499" x1="206.529" y1="216.963" x2="206.933" y2="210.486" gradientUnits="userSpaceOnUse">
<stop stop-color="#81BD92"/>
<stop offset="1" stop-color="#BEF8CE"/>
</linearGradient>
<linearGradient id="paint141_linear_23_499" x1="206.529" y1="181.826" x2="206.933" y2="175.35" gradientUnits="userSpaceOnUse">
<stop stop-color="#81BD92"/>
<stop offset="1" stop-color="#BEF8CE"/>
</linearGradient>
<linearGradient id="paint142_linear_23_499" x1="206.529" y1="146.69" x2="206.933" y2="140.213" gradientUnits="userSpaceOnUse">
<stop stop-color="#81BD92"/>
<stop offset="1" stop-color="#BEF8CE"/>
</linearGradient>
<linearGradient id="paint143_linear_23_499" x1="206.529" y1="111.554" x2="206.933" y2="105.077" gradientUnits="userSpaceOnUse">
<stop stop-color="#81BD92"/>
<stop offset="1" stop-color="#BEF8CE"/>
</linearGradient>
<linearGradient id="paint144_linear_23_499" x1="206.529" y1="76.4175" x2="206.933" y2="69.9408" gradientUnits="userSpaceOnUse">
<stop stop-color="#81BD92"/>
<stop offset="1" stop-color="#BEF8CE"/>
</linearGradient>
<linearGradient id="paint145_linear_23_499" x1="206.529" y1="41.2559" x2="206.933" y2="34.779" gradientUnits="userSpaceOnUse">
<stop stop-color="#81BD92"/>
<stop offset="1" stop-color="#BEF8CE"/>
</linearGradient>
<linearGradient id="paint146_linear_23_499" x1="206.529" y1="6.11951" x2="206.933" y2="-0.357237" gradientUnits="userSpaceOnUse">
<stop stop-color="#81BD92"/>
<stop offset="1" stop-color="#BEF8CE"/>
</linearGradient>
<linearGradient id="paint147_linear_23_499" x1="240.971" y1="708.921" x2="241.376" y2="702.444" gradientUnits="userSpaceOnUse">
<stop stop-color="#81BD92"/>
<stop offset="1" stop-color="#BEF8CE"/>
</linearGradient>
<linearGradient id="paint148_linear_23_499" x1="240.971" y1="673.785" x2="241.376" y2="667.308" gradientUnits="userSpaceOnUse">
<stop stop-color="#81BD92"/>
<stop offset="1" stop-color="#BEF8CE"/>
</linearGradient>
<linearGradient id="paint149_linear_23_499" x1="240.971" y1="638.649" x2="241.376" y2="632.172" gradientUnits="userSpaceOnUse">
<stop stop-color="#81BD92"/>
<stop offset="1" stop-color="#BEF8CE"/>
</linearGradient>
<linearGradient id="paint150_linear_23_499" x1="240.971" y1="603.512" x2="241.376" y2="597.036" gradientUnits="userSpaceOnUse">
<stop stop-color="#81BD92"/>
<stop offset="1" stop-color="#BEF8CE"/>
</linearGradient>
<linearGradient id="paint151_linear_23_499" x1="240.971" y1="568.376" x2="241.376" y2="561.899" gradientUnits="userSpaceOnUse">
<stop stop-color="#81BD92"/>
<stop offset="1" stop-color="#BEF8CE"/>
</linearGradient>
<linearGradient id="paint152_linear_23_499" x1="240.971" y1="533.24" x2="241.376" y2="526.763" gradientUnits="userSpaceOnUse">
<stop stop-color="#81BD92"/>
<stop offset="1" stop-color="#BEF8CE"/>
</linearGradient>
<linearGradient id="paint153_linear_23_499" x1="240.971" y1="498.104" x2="241.376" y2="491.627" gradientUnits="userSpaceOnUse">
<stop stop-color="#81BD92"/>
<stop offset="1" stop-color="#BEF8CE"/>
</linearGradient>
<linearGradient id="paint154_linear_23_499" x1="240.971" y1="462.942" x2="241.376" y2="456.465" gradientUnits="userSpaceOnUse">
<stop stop-color="#81BD92"/>
<stop offset="1" stop-color="#BEF8CE"/>
</linearGradient>
<linearGradient id="paint155_linear_23_499" x1="240.971" y1="427.806" x2="241.376" y2="421.329" gradientUnits="userSpaceOnUse">
<stop stop-color="#81BD92"/>
<stop offset="1" stop-color="#BEF8CE"/>
</linearGradient>
<linearGradient id="paint156_linear_23_499" x1="240.971" y1="392.669" x2="241.376" y2="386.193" gradientUnits="userSpaceOnUse">
<stop stop-color="#81BD92"/>
<stop offset="1" stop-color="#BEF8CE"/>
</linearGradient>
<linearGradient id="paint157_linear_23_499" x1="240.971" y1="357.533" x2="241.376" y2="351.056" gradientUnits="userSpaceOnUse">
<stop stop-color="#81BD92"/>
<stop offset="1" stop-color="#BEF8CE"/>
</linearGradient>
<linearGradient id="paint158_linear_23_499" x1="240.971" y1="322.397" x2="241.376" y2="315.92" gradientUnits="userSpaceOnUse">
<stop stop-color="#81BD92"/>
<stop offset="1" stop-color="#BEF8CE"/>
</linearGradient>
<linearGradient id="paint159_linear_23_499" x1="240.971" y1="287.261" x2="241.376" y2="280.784" gradientUnits="userSpaceOnUse">
<stop stop-color="#81BD92"/>
<stop offset="1" stop-color="#BEF8CE"/>
</linearGradient>
<linearGradient id="paint160_linear_23_499" x1="240.971" y1="252.099" x2="241.376" y2="245.622" gradientUnits="userSpaceOnUse">
<stop stop-color="#81BD92"/>
<stop offset="1" stop-color="#BEF8CE"/>
</linearGradient>
<linearGradient id="paint161_linear_23_499" x1="240.971" y1="216.963" x2="241.376" y2="210.486" gradientUnits="userSpaceOnUse">
<stop stop-color="#81BD92"/>
<stop offset="1" stop-color="#BEF8CE"/>
</linearGradient>
<linearGradient id="paint162_linear_23_499" x1="240.971" y1="181.826" x2="241.376" y2="175.35" gradientUnits="userSpaceOnUse">
<stop stop-color="#81BD92"/>
<stop offset="1" stop-color="#BEF8CE"/>
</linearGradient>
<linearGradient id="paint163_linear_23_499" x1="240.971" y1="146.69" x2="241.376" y2="140.213" gradientUnits="userSpaceOnUse">
<stop stop-color="#81BD92"/>
<stop offset="1" stop-color="#BEF8CE"/>
</linearGradient>
<linearGradient id="paint164_linear_23_499" x1="240.971" y1="111.554" x2="241.376" y2="105.077" gradientUnits="userSpaceOnUse">
<stop stop-color="#81BD92"/>
<stop offset="1" stop-color="#BEF8CE"/>
</linearGradient>
<linearGradient id="paint165_linear_23_499" x1="240.971" y1="76.4175" x2="241.376" y2="69.9408" gradientUnits="userSpaceOnUse">
<stop stop-color="#81BD92"/>
<stop offset="1" stop-color="#BEF8CE"/>
</linearGradient>
<linearGradient id="paint166_linear_23_499" x1="240.971" y1="41.2559" x2="241.376" y2="34.779" gradientUnits="userSpaceOnUse">
<stop stop-color="#81BD92"/>
<stop offset="1" stop-color="#BEF8CE"/>
</linearGradient>
<linearGradient id="paint167_linear_23_499" x1="240.971" y1="6.11951" x2="241.376" y2="-0.357237" gradientUnits="userSpaceOnUse">
<stop stop-color="#81BD92"/>
<stop offset="1" stop-color="#BEF8CE"/>
</linearGradient>
<linearGradient id="paint168_linear_23_499" x1="275.389" y1="708.921" x2="275.793" y2="702.444" gradientUnits="userSpaceOnUse">
<stop stop-color="#81BD92"/>
<stop offset="1" stop-color="#BEF8CE"/>
</linearGradient>
<linearGradient id="paint169_linear_23_499" x1="275.389" y1="673.785" x2="275.793" y2="667.308" gradientUnits="userSpaceOnUse">
<stop stop-color="#81BD92"/>
<stop offset="1" stop-color="#BEF8CE"/>
</linearGradient>
<linearGradient id="paint170_linear_23_499" x1="275.389" y1="638.649" x2="275.793" y2="632.172" gradientUnits="userSpaceOnUse">
<stop stop-color="#81BD92"/>
<stop offset="1" stop-color="#BEF8CE"/>
</linearGradient>
<linearGradient id="paint171_linear_23_499" x1="275.389" y1="603.512" x2="275.793" y2="597.036" gradientUnits="userSpaceOnUse">
<stop stop-color="#81BD92"/>
<stop offset="1" stop-color="#BEF8CE"/>
</linearGradient>
<linearGradient id="paint172_linear_23_499" x1="275.389" y1="568.376" x2="275.793" y2="561.899" gradientUnits="userSpaceOnUse">
<stop stop-color="#81BD92"/>
<stop offset="1" stop-color="#BEF8CE"/>
</linearGradient>
<linearGradient id="paint173_linear_23_499" x1="275.389" y1="533.24" x2="275.793" y2="526.763" gradientUnits="userSpaceOnUse">
<stop stop-color="#81BD92"/>
<stop offset="1" stop-color="#BEF8CE"/>
</linearGradient>
<linearGradient id="paint174_linear_23_499" x1="275.389" y1="498.078" x2="275.793" y2="491.601" gradientUnits="userSpaceOnUse">
<stop stop-color="#81BD92"/>
<stop offset="1" stop-color="#BEF8CE"/>
</linearGradient>
<linearGradient id="paint175_linear_23_499" x1="275.389" y1="462.942" x2="275.793" y2="456.465" gradientUnits="userSpaceOnUse">
<stop stop-color="#81BD92"/>
<stop offset="1" stop-color="#BEF8CE"/>
</linearGradient>
<linearGradient id="paint176_linear_23_499" x1="275.389" y1="427.806" x2="275.793" y2="421.329" gradientUnits="userSpaceOnUse">
<stop stop-color="#81BD92"/>
<stop offset="1" stop-color="#BEF8CE"/>
</linearGradient>
<linearGradient id="paint177_linear_23_499" x1="275.389" y1="392.669" x2="275.793" y2="386.193" gradientUnits="userSpaceOnUse">
<stop stop-color="#81BD92"/>
<stop offset="1" stop-color="#BEF8CE"/>
</linearGradient>
<linearGradient id="paint178_linear_23_499" x1="275.389" y1="357.533" x2="275.793" y2="351.056" gradientUnits="userSpaceOnUse">
<stop stop-color="#81BD92"/>
<stop offset="1" stop-color="#BEF8CE"/>
</linearGradient>
<linearGradient id="paint179_linear_23_499" x1="275.389" y1="322.397" x2="275.793" y2="315.92" gradientUnits="userSpaceOnUse">
<stop stop-color="#81BD92"/>
<stop offset="1" stop-color="#BEF8CE"/>
</linearGradient>
<linearGradient id="paint180_linear_23_499" x1="275.389" y1="287.235" x2="275.793" y2="280.758" gradientUnits="userSpaceOnUse">
<stop stop-color="#81BD92"/>
<stop offset="1" stop-color="#BEF8CE"/>
</linearGradient>
<linearGradient id="paint181_linear_23_499" x1="275.389" y1="252.099" x2="275.793" y2="245.622" gradientUnits="userSpaceOnUse">
<stop stop-color="#81BD92"/>
<stop offset="1" stop-color="#BEF8CE"/>
</linearGradient>
<linearGradient id="paint182_linear_23_499" x1="275.389" y1="216.963" x2="275.793" y2="210.486" gradientUnits="userSpaceOnUse">
<stop stop-color="#81BD92"/>
<stop offset="1" stop-color="#BEF8CE"/>
</linearGradient>
<linearGradient id="paint183_linear_23_499" x1="275.389" y1="181.826" x2="275.793" y2="175.35" gradientUnits="userSpaceOnUse">
<stop stop-color="#81BD92"/>
<stop offset="1" stop-color="#BEF8CE"/>
</linearGradient>
<linearGradient id="paint184_linear_23_499" x1="275.389" y1="146.69" x2="275.793" y2="140.213" gradientUnits="userSpaceOnUse">
<stop stop-color="#81BD92"/>
<stop offset="1" stop-color="#BEF8CE"/>
</linearGradient>
<linearGradient id="paint185_linear_23_499" x1="275.389" y1="111.554" x2="275.793" y2="105.077" gradientUnits="userSpaceOnUse">
<stop stop-color="#81BD92"/>
<stop offset="1" stop-color="#BEF8CE"/>
</linearGradient>
<linearGradient id="paint186_linear_23_499" x1="275.389" y1="76.4175" x2="275.793" y2="69.9408" gradientUnits="userSpaceOnUse">
<stop stop-color="#81BD92"/>
<stop offset="1" stop-color="#BEF8CE"/>
</linearGradient>
<linearGradient id="paint187_linear_23_499" x1="275.389" y1="41.2559" x2="275.793" y2="34.779" gradientUnits="userSpaceOnUse">
<stop stop-color="#81BD92"/>
<stop offset="1" stop-color="#BEF8CE"/>
</linearGradient>
<linearGradient id="paint188_linear_23_499" x1="275.389" y1="6.11951" x2="275.793" y2="-0.357237" gradientUnits="userSpaceOnUse">
<stop stop-color="#81BD92"/>
<stop offset="1" stop-color="#BEF8CE"/>
</linearGradient>
</defs>
</svg>
